<svg width="311" height="105" viewBox="0 0 311 105" fill="none" xmlns="http://www.w3.org/2000/svg">
<g filter="url(#filter0_d_74_7040)">
<path d="M14.299 28.2903H65.8858C69.0621 28.2903 71.637 30.8652 71.637 34.0415V93.9639C71.637 97.1402 69.0621 99.7151 65.8858 99.7151H14.299C9.11793 99.7151 6.57866 93.4017 10.3169 89.8143L32.8898 68.1523C35.2486 65.8887 35.2486 62.1167 32.8898 59.8531L10.3169 38.1911C6.57865 34.6037 9.11794 28.2903 14.299 28.2903Z" fill="#9A4407"/>
<path d="M14.299 25.3787H65.8858C69.0621 25.3787 71.637 27.9536 71.637 31.1299V91.0523C71.637 94.2286 69.0621 96.8035 65.8858 96.8035H14.299C9.11793 96.8035 6.57866 90.4901 10.3169 86.9027L32.8898 65.2407C35.2486 62.9771 35.2486 59.2051 32.8898 56.9415L10.3169 35.2794C6.57865 31.6921 9.11794 25.3787 14.299 25.3787Z" fill="url(#paint0_linear_74_7040)"/>
<path d="M296.132 28.2869H244.545C241.369 28.2869 238.794 30.8618 238.794 34.0381V93.9605C238.794 97.1368 241.369 99.7117 244.545 99.7117H296.132C301.313 99.7117 303.853 93.3983 300.114 89.8109L277.541 68.1489C275.183 65.8853 275.183 62.1133 277.541 59.8497L300.114 38.1876C303.853 34.6003 301.313 28.2869 296.132 28.2869Z" fill="#9A4407"/>
<path d="M296.133 25.377H244.546C241.37 25.377 238.795 27.9519 238.795 31.1282V91.0506C238.795 94.2269 241.37 96.8018 244.546 96.8018H296.133C301.314 96.8018 303.853 90.4884 300.115 86.901L277.542 65.2389C275.183 62.9754 275.183 59.2034 277.542 56.9398L300.115 35.2777C303.853 31.6904 301.314 25.377 296.133 25.377Z" fill="url(#paint1_linear_74_7040)"/>
<path d="M71.6404 91.7013V77.8537V73.4807H53.7311V74.2095L71.6404 91.7013Z" fill="#B20D78"/>
<path d="M238.792 91.7V77.8523V73.4794L256.701 71.2929C256.701 71.2929 257.448 69.1063 257.448 71.2928L238.792 91.7Z" fill="#B20D78"/>
<rect x="47.7622" y="3.50732" width="213.419" height="74.3401" rx="17.2536" fill="#AF4E08"/>
<rect x="47.7622" y="0.597412" width="213.419" height="74.3401" rx="17.2536" fill="url(#paint2_linear_74_7040)"/>
</g>
<defs>
<filter id="filter0_d_74_7040" x="8.53625" y="0.597412" width="293.359" height="103.431" filterUnits="userSpaceOnUse" color-interpolation-filters="sRGB">
<feFlood flood-opacity="0" result="BackgroundImageFix"/>
<feColorMatrix in="SourceAlpha" type="matrix" values="0 0 0 0 0 0 0 0 0 0 0 0 0 0 0 0 0 0 127 0" result="hardAlpha"/>
<feOffset dy="4.3134"/>
<feComposite in2="hardAlpha" operator="out"/>
<feColorMatrix type="matrix" values="0 0 0 0 0.827451 0 0 0 0 0.847059 0 0 0 0 1 0 0 0 1 0"/>
<feBlend mode="normal" in2="BackgroundImageFix" result="effect1_dropShadow_74_7040"/>
<feBlend mode="normal" in="SourceGraphic" in2="effect1_dropShadow_74_7040" result="shape"/>
</filter>
<linearGradient id="paint0_linear_74_7040" x1="35.8184" y1="25.3787" x2="35.8184" y2="96.8035" gradientUnits="userSpaceOnUse">
<stop stop-color="#FB964E"/>
<stop offset="1" stop-color="#F16E10"/>
</linearGradient>
<linearGradient id="paint1_linear_74_7040" x1="274.613" y1="25.377" x2="274.613" y2="96.8018" gradientUnits="userSpaceOnUse">
<stop stop-color="#FC9952"/>
<stop offset="1" stop-color="#F16F11"/>
</linearGradient>
<linearGradient id="paint2_linear_74_7040" x1="154.472" y1="0.597412" x2="154.472" y2="74.9375" gradientUnits="userSpaceOnUse">
<stop stop-color="#FFA261"/>
<stop offset="1" stop-color="#F06908"/>
</linearGradient>
</defs>
</svg>
