<svg width="39" height="37" viewBox="0 0 39 37" fill="none" xmlns="http://www.w3.org/2000/svg">
<path d="M17.714 23.5506C17.4463 22.2692 18.3765 20.9539 19.6856 20.9539C20.9947 20.9539 21.9249 22.2692 21.6572 23.5506C21.406 24.7528 21.242 26.1545 21.4852 27.2525C22.167 30.3308 25.0844 33.5512 25.0844 33.5512H14.2867C14.2867 33.5512 17.2042 30.3308 17.886 27.2525C18.1292 26.1545 17.9652 24.7528 17.714 23.5506Z" fill="#F6B307"/>
<path fill-rule="evenodd" clip-rule="evenodd" d="M25.9044 33.9196C25.7601 34.2449 25.4377 34.4547 25.0818 34.4547H14.2841C13.9282 34.4547 13.6058 34.2449 13.4615 33.9196C13.3173 33.5943 13.3783 33.2147 13.6171 32.9509L14.2841 33.5549H25.0818C25.0818 33.5549 24.7755 33.2168 24.3383 32.655C23.426 31.483 21.9435 29.3371 21.4826 27.2562C21.2394 26.1582 21.4034 24.7565 21.6545 23.5543C21.9222 22.2729 20.992 20.9575 19.683 20.9575C18.3739 20.9575 17.4437 22.2729 17.7114 23.5543C17.9625 24.7565 18.1265 26.1582 17.8833 27.2562C17.4224 29.3371 15.9399 31.483 15.0276 32.655C14.5904 33.2168 14.2841 33.5549 14.2841 33.5549M13.6171 32.9509L13.6222 32.9452L13.6431 32.9217C13.6622 32.9001 13.6914 32.8669 13.7293 32.8229C13.8052 32.7349 13.9161 32.6039 14.052 32.4364C14.3244 32.101 14.695 31.6221 15.0856 31.0516C15.88 29.8911 16.7016 28.4308 17.0048 27.0616C17.2046 26.1598 17.0766 24.9161 16.8306 23.7383C16.4636 21.9818 17.7203 20.0577 19.683 20.0577C21.6456 20.0577 22.9023 21.9818 22.5353 23.7383C22.2893 24.9161 22.1613 26.1598 22.3611 27.0616C22.6643 28.4308 23.4859 29.8911 24.2803 31.0516C24.6709 31.6221 25.0415 32.101 25.3139 32.4364C25.4498 32.6039 25.5607 32.7349 25.6366 32.8229C25.6745 32.8669 25.7037 32.9001 25.7228 32.9217L25.7437 32.9452L25.7487 32.9507C25.9874 33.2145 26.0486 33.5943 25.9044 33.9196" fill="#5B3303"/>
<path fill-rule="evenodd" clip-rule="evenodd" d="M23.2884 33.5521H25.088C25.088 33.5521 22.1706 30.3318 21.4888 27.2535C21.2456 26.1555 21.4096 24.7538 21.6608 23.5516C21.9285 22.2702 20.9983 20.9548 19.6892 20.9548C19.3932 20.9548 19.1167 21.0221 18.8689 21.1409C19.5285 21.4541 19.8611 22.1898 19.8611 23.5516C19.8611 25.2651 19.8959 27.7302 20.1391 28.8282C20.8209 31.9064 23.2884 33.5521 23.2884 33.5521Z" fill="#C18B00"/>
<path fill-rule="evenodd" clip-rule="evenodd" d="M18.2206 28.8393C18.4616 28.8996 18.6082 29.1439 18.5479 29.3849C18.3077 30.346 17.8324 31.2929 17.361 31.9998C17.2232 32.2066 16.9439 32.2625 16.7371 32.1246C16.5304 31.9868 16.4745 31.7075 16.6124 31.5007C17.0408 30.858 17.4653 30.0053 17.675 29.1667C17.7352 28.9256 17.9795 28.7791 18.2206 28.8393Z" fill="#FFCB43"/>
<path fill-rule="evenodd" clip-rule="evenodd" d="M32.7296 13.758C35.4628 13.758 37.6785 11.5423 37.6785 8.80905C37.6785 6.07582 35.4628 3.86011 32.7296 3.86011C29.9964 3.86011 27.7806 6.07582 27.7806 8.80905C27.7806 11.5423 29.9964 13.758 32.7296 13.758ZM32.7296 11.5085C34.2204 11.5085 35.429 10.2999 35.429 8.80905C35.429 7.3182 34.2204 6.10963 32.7296 6.10963C31.2387 6.10963 30.0302 7.3182 30.0302 8.80905C30.0302 10.2999 31.2387 11.5085 32.7296 11.5085Z" fill="#F6B307"/>
<path fill-rule="evenodd" clip-rule="evenodd" d="M38.5809 8.80456C38.5809 12.0347 35.9624 14.6533 32.7322 14.6533C29.502 14.6533 26.8834 12.0347 26.8834 8.80456C26.8834 5.57439 29.502 2.95581 32.7322 2.95581C35.9624 2.95581 38.5809 5.57439 38.5809 8.80456ZM32.7322 10.6042C33.7261 10.6042 34.5318 9.79846 34.5318 8.80456C34.5318 7.81066 33.7261 7.00495 32.7322 7.00495C31.7383 7.00495 30.9326 7.81066 30.9326 8.80456C30.9326 9.79846 31.7383 10.6042 32.7322 10.6042ZM37.6811 8.80456C37.6811 11.5378 35.4654 13.7535 32.7322 13.7535C29.9989 13.7535 27.7832 11.5378 27.7832 8.80456C27.7832 6.07134 29.9989 3.85562 32.7322 3.85562C35.4654 3.85562 37.6811 6.07134 37.6811 8.80456ZM35.4316 8.80456C35.4316 10.2954 34.223 11.504 32.7322 11.504C31.2413 11.504 30.0328 10.2954 30.0328 8.80456C30.0328 7.31371 31.2413 6.10514 32.7322 6.10514C34.223 6.10514 35.4316 7.31371 35.4316 8.80456Z" fill="#5B3303"/>
<path fill-rule="evenodd" clip-rule="evenodd" d="M37.2291 7.9078C37.2291 10.641 35.0134 12.8567 32.2802 12.8567C30.5214 12.8567 28.9768 11.9393 28.0991 10.5568C28.8058 12.4268 30.6126 13.7565 32.7301 13.7565C35.4633 13.7565 37.679 11.5408 37.679 8.80761C37.679 7.83318 37.3974 6.92453 36.9111 6.1586C37.1166 6.70245 37.2291 7.29199 37.2291 7.9078ZM30.1319 9.54265C30.0659 9.30897 30.0306 9.06241 30.0306 8.80761C30.0306 7.31675 31.2392 6.10818 32.7301 6.10818C33.6064 6.10818 34.3852 6.52574 34.8783 7.17275C34.5582 6.03913 33.5162 5.20837 32.2802 5.20837C30.7893 5.20837 29.5807 6.41695 29.5807 7.9078C29.5807 8.52234 29.7861 9.08892 30.1319 9.54265Z" fill="#D29700"/>
<path fill-rule="evenodd" clip-rule="evenodd" d="M6.63522 13.758C9.36845 13.758 11.5842 11.5423 11.5842 8.80905C11.5842 6.07582 9.36845 3.86011 6.63522 3.86011C3.902 3.86011 1.68628 6.07582 1.68628 8.80905C1.68628 11.5423 3.902 13.758 6.63522 13.758ZM6.63522 11.5085C8.12607 11.5085 9.33465 10.2999 9.33465 8.80905C9.33465 7.3182 8.12607 6.10963 6.63522 6.10963C5.14437 6.10963 3.9358 7.3182 3.9358 8.80905C3.9358 10.2999 5.14437 11.5085 6.63522 11.5085Z" fill="#F6B307"/>
<path fill-rule="evenodd" clip-rule="evenodd" d="M12.485 8.80554C12.485 12.0357 9.8664 14.6543 6.63623 14.6543C3.40605 14.6543 0.787476 12.0357 0.787476 8.80554C0.787476 5.57536 3.40605 2.95679 6.63623 2.95679C9.8664 2.95679 12.485 5.57536 12.485 8.80554ZM6.63623 10.6052C7.63013 10.6052 8.43584 9.79944 8.43584 8.80554C8.43584 7.81164 7.63013 7.00592 6.63623 7.00592C5.64233 7.00592 4.83661 7.81164 4.83661 8.80554C4.83661 9.79944 5.64233 10.6052 6.63623 10.6052ZM11.5852 8.80554C11.5852 11.5388 9.36945 13.7545 6.63623 13.7545C3.903 13.7545 1.68728 11.5388 1.68728 8.80554C1.68728 6.07231 3.903 3.85659 6.63623 3.85659C9.36945 3.85659 11.5852 6.07231 11.5852 8.80554ZM9.33565 8.80554C9.33565 10.2964 8.12708 11.505 6.63623 11.505C5.14538 11.505 3.9368 10.2964 3.9368 8.80554C3.9368 7.31469 5.14538 6.10611 6.63623 6.10611C8.12708 6.10611 9.33565 7.31469 9.33565 8.80554Z" fill="#5B3303"/>
<path fill-rule="evenodd" clip-rule="evenodd" d="M10.3524 12.0748C9.48077 12.8416 8.33725 13.3066 7.08513 13.3066C4.3519 13.3066 2.13618 11.0908 2.13618 8.35762C2.13618 7.10549 2.60119 5.96197 3.36794 5.09033C2.3369 5.99729 1.68628 7.32642 1.68628 8.80752C1.68628 11.5407 3.902 13.7565 6.63522 13.7565C8.11632 13.7565 9.44546 13.1058 10.3524 12.0748ZM4.96462 6.68701C5.42418 6.32446 6.00443 6.1081 6.63522 6.1081C8.12607 6.1081 9.33465 7.31667 9.33465 8.80752C9.33465 9.43831 9.11829 10.0186 8.75573 10.4781C9.38233 9.9838 9.78455 9.21768 9.78455 8.35762C9.78455 6.86677 8.57598 5.65819 7.08513 5.65819C6.22507 5.65819 5.45895 6.06041 4.96462 6.68701Z" fill="#D29700"/>
<path d="M7.09412 6.55407C7.09412 4.56626 8.70555 2.95483 10.6933 2.95483H28.6895C30.6773 2.95483 32.2887 4.56627 32.2887 6.55407V11.9529C32.2887 18.9102 26.6487 24.5502 19.6914 24.5502C12.7341 24.5502 7.09412 18.9102 7.09412 11.9529V6.55407Z" fill="#FFCF23"/>
<path fill-rule="evenodd" clip-rule="evenodd" d="M10.6779 2.05957H28.674C31.1588 2.05957 33.1731 4.07386 33.1731 6.55861V11.9575C33.1731 19.4117 27.1302 25.4546 19.676 25.4546C12.2217 25.4546 6.17883 19.4117 6.17883 11.9575V6.55861C6.17883 4.07386 8.19312 2.05957 10.6779 2.05957ZM10.6779 2.95938C8.69007 2.95938 7.07864 4.57081 7.07864 6.55861V11.9575C7.07864 18.9148 12.7186 24.5548 19.676 24.5548C26.6333 24.5548 32.2733 18.9148 32.2733 11.9575V6.55861C32.2733 4.57081 30.6618 2.95938 28.674 2.95938H10.6779Z" fill="#5B3303"/>
<path fill-rule="evenodd" clip-rule="evenodd" d="M16.5331 24.1534C17.5397 24.4124 18.5949 24.5502 19.6824 24.5502C26.6397 24.5502 32.2797 18.9102 32.2797 11.9529V2.95483H25.9811V11.9529C25.9811 17.8228 21.9664 22.7549 16.5331 24.1534Z" fill="#FFC429"/>
<path d="M7.09412 2.95483V11.9529C7.09412 16.2476 9.24324 20.0403 12.5247 22.3143C14.0855 23.396 17.0491 19.6865 17.0003 17.7881C16.9946 17.568 16.992 17.3473 16.992 17.1268V2.95483H7.09412Z" fill="#FFDB5B"/>
<path fill-rule="evenodd" clip-rule="evenodd" d="M13.1754 22.742C15.0749 23.8903 17.3021 24.5512 19.6836 24.5512C26.6409 24.5512 32.2809 18.9112 32.2809 11.9539V2.95581H30.4812V11.0541C30.4812 18.0114 24.8412 23.6514 17.8839 23.6514C16.2193 23.6514 14.63 23.3285 13.1754 22.742Z" fill="#F5B40C"/>
<path d="M32.2887 2.95483H7.09412V4.75445H32.2887V2.95483Z" fill="#D29803"/>
<path fill-rule="evenodd" clip-rule="evenodd" d="M8.88907 4.30969C9.38602 4.30969 9.78887 4.71255 9.78887 5.2095C9.78887 8.26842 9.79073 10.7293 10.0617 12.7076C10.3317 14.6782 10.8522 16.023 11.7748 16.9456C12.1262 17.297 12.1262 17.8667 11.7748 18.2181C11.4234 18.5695 10.8537 18.5695 10.5023 18.2181C9.17541 16.8912 8.57119 15.0866 8.27877 12.9519C7.98924 10.8382 7.98925 8.25699 7.98926 5.26635L7.98926 5.2095C7.98926 4.71255 8.39212 4.30969 8.88907 4.30969Z" fill="#FFEBA6"/>
<path fill-rule="evenodd" clip-rule="evenodd" d="M8.88165 5.65601C9.13013 5.65601 9.33156 5.85743 9.33156 6.10591C9.33156 6.69739 9.32657 7.04914 9.32252 7.3349C9.31635 7.76984 9.31235 8.05192 9.3314 8.79379C9.33778 9.04218 9.14159 9.24871 8.8932 9.25509C8.6448 9.26147 8.43827 9.06527 8.43189 8.81688C8.41249 8.0611 8.41672 7.75506 8.42296 7.30348C8.42694 7.01522 8.43175 6.66764 8.43175 6.10591C8.43175 5.85743 8.63318 5.65601 8.88165 5.65601Z" fill="white"/>
<path d="M10.6859 34.4523C10.6859 33.9553 11.0888 33.5525 11.5857 33.5525H27.7823C28.2792 33.5525 28.6821 33.9553 28.6821 34.4523C28.6821 34.9492 28.2792 35.3521 27.7823 35.3521H11.5857C11.0888 35.3521 10.6859 34.9492 10.6859 34.4523Z" fill="#FFD84F"/>
<path fill-rule="evenodd" clip-rule="evenodd" d="M11.5829 32.65H27.7795C28.7734 32.65 29.5791 33.4557 29.5791 34.4496C29.5791 35.4435 28.7734 36.2493 27.7795 36.2493H11.5829C10.589 36.2493 9.78333 35.4435 9.78333 34.4496C9.78333 33.4557 10.589 32.65 11.5829 32.65ZM11.5829 33.5498C11.086 33.5498 10.6831 33.9527 10.6831 34.4496C10.6831 34.9466 11.086 35.3494 11.5829 35.3494H27.7795C28.2764 35.3494 28.6793 34.9466 28.6793 34.4496C28.6793 33.9527 28.2764 33.5498 27.7795 33.5498H11.5829Z" fill="#5B3303"/>
<path d="M3.495 2.06424C3.495 1.56729 3.89785 1.16443 4.3948 1.16443H34.9883C35.4852 1.16443 35.8881 1.56729 35.8881 2.06424C35.8881 2.56119 35.4852 2.96404 34.9883 2.96404H4.3948C3.89785 2.96404 3.495 2.56119 3.495 2.06424Z" fill="#FFD84F"/>
<path fill-rule="evenodd" clip-rule="evenodd" d="M4.37933 0.259155H34.9728C35.9667 0.259155 36.7724 1.06487 36.7724 2.05877C36.7724 3.05267 35.9667 3.85839 34.9728 3.85839H4.37933C3.38543 3.85839 2.57971 3.05267 2.57971 2.05877C2.57971 1.06487 3.38543 0.259155 4.37933 0.259155ZM4.37933 1.15896C3.88238 1.15896 3.47952 1.56182 3.47952 2.05877C3.47952 2.55572 3.88238 2.95858 4.37933 2.95858H34.9728C35.4698 2.95858 35.8726 2.55572 35.8726 2.05877C35.8726 1.56182 35.4698 1.15896 34.9728 1.15896H4.37933Z" fill="#5B3303"/>
<path fill-rule="evenodd" clip-rule="evenodd" d="M4.38831 1.83382C4.38831 1.58534 4.58973 1.38391 4.83821 1.38391H27.7833C28.0318 1.38391 28.2332 1.58534 28.2332 1.83382C28.2332 2.08229 28.0318 2.28372 27.7833 2.28372H4.83821C4.58973 2.28372 4.38831 2.08229 4.38831 1.83382Z" fill="#FFEBA6"/>
<path fill-rule="evenodd" clip-rule="evenodd" d="M11.1362 34.0024C11.1362 33.7539 11.3377 33.5525 11.5861 33.5525H24.6334C24.8818 33.5525 25.0833 33.7539 25.0833 34.0024C25.0833 34.2509 24.8818 34.4523 24.6334 34.4523H11.5861C11.3377 34.4523 11.1362 34.2509 11.1362 34.0024Z" fill="#FFEBA6"/>
<path fill-rule="evenodd" clip-rule="evenodd" d="M7.09412 1.83491C7.09412 1.58644 7.29555 1.38501 7.54402 1.38501H10.2434C10.4919 1.38501 10.6933 1.58644 10.6933 1.83491C10.6933 2.08339 10.4919 2.28482 10.2434 2.28482H7.54402C7.29555 2.28482 7.09412 2.08339 7.09412 1.83491Z" fill="white"/>
<path d="M24.1738 21.1785C24.1738 21.5512 23.8717 21.8534 23.499 21.8534C23.1262 21.8534 22.8241 21.5512 22.8241 21.1785C22.8241 20.8058 23.1262 20.5037 23.499 20.5037C23.8717 20.5037 24.1738 20.8058 24.1738 21.1785Z" fill="#E6A809"/>
<path d="M26.4278 19.5998C26.4278 19.8483 26.2263 20.0497 25.9779 20.0497C25.7294 20.0497 25.528 19.8483 25.528 19.5998C25.528 19.3513 25.7294 19.1499 25.9779 19.1499C26.2263 19.1499 26.4278 19.3513 26.4278 19.5998Z" fill="#E6A809"/>
<path d="M22.8288 22.754C22.8288 23.0025 22.6273 23.2039 22.3789 23.2039C22.1304 23.2039 21.929 23.0025 21.929 22.754C21.929 22.5055 22.1304 22.3041 22.3789 22.3041C22.6273 22.3041 22.8288 22.5055 22.8288 22.754Z" fill="#E6A809"/>
<path d="M21.4722 21.4011C21.4722 21.6496 21.2708 21.851 21.0223 21.851C20.7738 21.851 20.5724 21.6496 20.5724 21.4011C20.5724 21.1526 20.7738 20.9512 21.0223 20.9512C21.2708 20.9512 21.4722 21.1526 21.4722 21.4011Z" fill="#E6A809"/>
<path d="M19.68 22.7529C19.68 23.0014 19.4785 23.2028 19.2301 23.2028C18.9816 23.2028 18.7802 23.0014 18.7802 22.7529C18.7802 22.5044 18.9816 22.303 19.2301 22.303C19.4785 22.303 19.68 22.5044 19.68 22.7529Z" fill="#E6A809"/>
<path d="M30.4735 16.451C30.4735 16.6995 30.2721 16.9009 30.0236 16.9009C29.7752 16.9009 29.5737 16.6995 29.5737 16.451C29.5737 16.2025 29.7752 16.0011 30.0236 16.0011C30.2721 16.0011 30.4735 16.2025 30.4735 16.451Z" fill="#E6A809"/>
<path d="M26.4278 17.8029C26.4278 18.0514 26.2263 18.2528 25.9779 18.2528C25.7294 18.2528 25.528 18.0514 25.528 17.8029C25.528 17.5545 25.7294 17.353 25.9779 17.353C26.2263 17.353 26.4278 17.5545 26.4278 17.8029Z" fill="#E6A809"/>
<path d="M30.9275 14.203C30.9275 14.4514 30.7261 14.6529 30.4776 14.6529C30.2291 14.6529 30.0277 14.4514 30.0277 14.203C30.0277 13.9545 30.2291 13.7531 30.4776 13.7531C30.7261 13.7531 30.9275 13.9545 30.9275 14.203Z" fill="#E6A809"/>
<path d="M24.1797 18.7009C24.1797 18.9494 23.9783 19.1508 23.7298 19.1508C23.4813 19.1508 23.2799 18.9494 23.2799 18.7009C23.2799 18.4524 23.4813 18.251 23.7298 18.251C23.9783 18.251 24.1797 18.4524 24.1797 18.7009Z" fill="#E6A809"/>
<path d="M25.9866 21.4011C25.9866 21.6496 25.7852 21.851 25.5367 21.851C25.2882 21.851 25.0868 21.6496 25.0868 21.4011C25.0868 21.1526 25.2882 20.9512 25.5367 20.9512C25.7852 20.9512 25.9866 21.1526 25.9866 21.4011Z" fill="#E6A809"/>
<path d="M28.674 19.5998C28.674 19.8483 28.4725 20.0497 28.2241 20.0497C27.9756 20.0497 27.7742 19.8483 27.7742 19.5998C27.7742 19.3513 27.9756 19.1499 28.2241 19.1499C28.4725 19.1499 28.674 19.3513 28.674 19.5998Z" fill="#E6A809"/>
<path d="M27.7788 17.8039C27.7788 18.0524 27.5774 18.2538 27.3289 18.2538C27.0805 18.2538 26.879 18.0524 26.879 17.8039C26.879 17.5554 27.0805 17.354 27.3289 17.354C27.5774 17.354 27.7788 17.5554 27.7788 17.8039Z" fill="#E6A809"/>
<path d="M29.5825 17.579C29.5825 17.7032 29.4818 17.8039 29.3575 17.8039C29.2333 17.8039 29.1326 17.7032 29.1326 17.579C29.1326 17.4547 29.2333 17.354 29.3575 17.354C29.4818 17.354 29.5825 17.4547 29.5825 17.579Z" fill="#E6A809"/>
<path d="M29.1267 15.7776C29.1267 15.9018 29.0259 16.0025 28.9017 16.0025C28.7775 16.0025 28.6768 15.9018 28.6768 15.7776C28.6768 15.6533 28.7775 15.5526 28.9017 15.5526C29.0259 15.5526 29.1267 15.6533 29.1267 15.7776Z" fill="#E6A809"/>
<path d="M27.7738 16.2279C27.7738 16.3521 27.673 16.4528 27.5488 16.4528C27.4246 16.4528 27.3239 16.3521 27.3239 16.2279C27.3239 16.1036 27.4246 16.0029 27.5488 16.0029C27.673 16.0029 27.7738 16.1036 27.7738 16.2279Z" fill="#E6A809"/>
<path d="M29.1267 14.4256C29.1267 14.5499 29.0259 14.6506 28.9017 14.6506C28.7775 14.6506 28.6768 14.5499 28.6768 14.4256C28.6768 14.3014 28.7775 14.2007 28.9017 14.2007C29.0259 14.2007 29.1267 14.3014 29.1267 14.4256Z" fill="#E6A809"/>
<path d="M26.4337 16.2271C26.4337 16.3514 26.333 16.4521 26.2087 16.4521C26.0845 16.4521 25.9838 16.3514 25.9838 16.2271C25.9838 16.1029 26.0845 16.0022 26.2087 16.0022C26.333 16.0022 26.4337 16.1029 26.4337 16.2271Z" fill="#E6A809"/>
<path d="M19.2301 21.1751C19.2301 21.2994 19.1293 21.4001 19.0051 21.4001C18.8809 21.4001 18.7802 21.2994 18.7802 21.1751C18.7802 21.0509 18.8809 20.9502 19.0051 20.9502C19.1293 20.9502 19.2301 21.0509 19.2301 21.1751Z" fill="#E6A809"/>
<path d="M28.6672 18.0274C28.6672 18.1517 28.5665 18.2524 28.4422 18.2524C28.318 18.2524 28.2173 18.1517 28.2173 18.0274C28.2173 17.9032 28.318 17.8025 28.4422 17.8025C28.5665 17.8025 28.6672 17.9032 28.6672 18.0274Z" fill="#E6A809"/>
<path d="M27.3289 20.7286C27.3289 20.8529 27.2282 20.9536 27.104 20.9536C26.9797 20.9536 26.879 20.8529 26.879 20.7286C26.879 20.6044 26.9797 20.5037 27.104 20.5037C27.2282 20.5037 27.3289 20.6044 27.3289 20.7286Z" fill="#E6A809"/>
<path d="M25.0845 19.8288C25.0845 19.9531 24.9838 20.0538 24.8596 20.0538C24.7354 20.0538 24.6346 19.9531 24.6346 19.8288C24.6346 19.7046 24.7354 19.6039 24.8596 19.6039C24.9838 19.6039 25.0845 19.7046 25.0845 19.8288Z" fill="#E6A809"/>
<path d="M22.8291 19.8299C22.8291 19.9542 22.7283 20.0549 22.6041 20.0549C22.4799 20.0549 22.3792 19.9542 22.3792 19.8299C22.3792 19.7057 22.4799 19.605 22.6041 19.605C22.7283 19.605 22.8291 19.7057 22.8291 19.8299Z" fill="#E6A809"/>
<path d="M21.0223 22.9748C21.0223 23.0991 20.9216 23.1998 20.7973 23.1998C20.6731 23.1998 20.5724 23.0991 20.5724 22.9748C20.5724 22.8506 20.6731 22.7499 20.7973 22.7499C20.9216 22.7499 21.0223 22.8506 21.0223 22.9748Z" fill="#E6A809"/>
<path fill-rule="evenodd" clip-rule="evenodd" d="M5.46541 4.77982C5.57653 5.00207 5.48644 5.27231 5.26419 5.38342C4.85296 5.58902 4.29897 5.94341 3.84819 6.54443C3.40207 7.13925 3.03836 8 3.03836 9.2551C3.03836 9.50357 2.83693 9.705 2.58845 9.705C2.33998 9.705 2.13855 9.50357 2.13855 9.2551C2.13855 7.81077 2.56217 6.75943 3.12835 6.00454C3.68988 5.25585 4.37316 4.8229 4.86181 4.5786C5.08406 4.46748 5.3543 4.55757 5.46541 4.77982Z" fill="#FFD953"/>
<path d="M15.1838 11.7727L17.9957 11.2028L18.8393 9.77809L19.6829 8.35339L21.37 11.2028L24.1819 11.7727L21.9324 14.0522L22.4948 16.9016L19.6829 15.4769L16.871 16.9016L17.4334 14.0522L15.1838 11.7727Z" fill="#FFEBA6"/>
<path fill-rule="evenodd" clip-rule="evenodd" d="M17.9985 11.2065L19.6856 8.35708L21.3728 11.2065L24.1847 11.7764L21.9351 14.0559L22.4975 16.9053L19.6856 15.4806L16.8737 16.9053L17.4361 14.0559L15.1866 11.7764L17.9985 11.2065ZM16.4611 14.3489L14.5461 12.4084C14.3141 12.1732 14.2295 11.8298 14.3259 11.5139C14.4223 11.1979 14.6841 10.9601 15.0078 10.8945L17.4279 10.404L18.9113 7.89864C19.0733 7.62506 19.3677 7.45728 19.6856 7.45728C20.0036 7.45728 20.2979 7.62506 20.4599 7.89864L21.9433 10.404L24.3634 10.8945C24.6872 10.9601 24.9489 11.1979 25.0453 11.5139C25.1417 11.8298 25.0572 12.1732 24.8251 12.4084L22.9101 14.3489L23.3803 16.731C23.4469 17.0686 23.3152 17.4147 23.0409 17.6225C22.7666 17.8303 22.3978 17.8634 22.0908 17.7079L19.6856 16.4893L17.2804 17.7079C16.9734 17.8634 16.6046 17.8303 16.3303 17.6225C16.0561 17.4147 15.9243 17.0686 15.9909 16.731L16.4611 14.3489Z" fill="#F5B40C"/>
<path fill-rule="evenodd" clip-rule="evenodd" d="M19.8852 9.75389C20.1075 9.86502 20.1975 10.1353 20.0864 10.3575L19.1866 12.1571C19.1184 12.2936 18.9856 12.3862 18.8339 12.4031L16.8093 12.628C16.5624 12.6555 16.3399 12.4775 16.3125 12.2306C16.285 11.9836 16.463 11.7612 16.71 11.7337L18.4913 11.5358L19.2816 9.9551C19.3927 9.73286 19.663 9.64277 19.8852 9.75389Z" fill="white"/>
</svg>
