<svg width="69" height="61" viewBox="0 0 69 61" fill="none" xmlns="http://www.w3.org/2000/svg">
<g filter="url(#filter0_dd_618_26031)">
<mask id="path-1-outside-1_618_26031" maskUnits="userSpaceOnUse" x="2" y="41" width="65" height="17" fill="black">
<rect fill="white" x="2" y="41" width="65" height="17"/>
<path d="M3.2105 53.944C3.2105 52.3227 3.59983 51.1173 4.3785 50.328C5.16783 49.5387 6.27183 49.144 7.6905 49.144H9.1305V51.384H7.2265C6.69317 51.384 6.26117 51.5707 5.9305 51.944C5.6105 52.3173 5.4505 52.84 5.4505 53.512V54.76H9.8345V57H3.2105V53.944ZM12.65 44.024H14.89V54.76H16.938V57H12.65V44.024ZM16.4569 54.76H18.6009C18.3662 54.4507 18.1795 54.1093 18.0409 53.736C17.9022 53.3627 17.8329 52.9467 17.8329 52.488C17.8329 51.784 17.9609 51.1547 18.2169 50.6C18.4835 50.0453 18.8515 49.576 19.3209 49.192C19.7902 48.7973 20.3555 48.4987 21.0169 48.296C21.6782 48.0933 22.4089 47.992 23.2089 47.992H25.8489V57H16.4569V54.76ZM20.0729 52.488C20.0729 52.9787 20.1795 53.416 20.3929 53.8C20.6169 54.184 20.9155 54.504 21.2889 54.76H23.6089V50.232H22.6649C22.3449 50.232 22.0249 50.28 21.7049 50.376C21.3955 50.472 21.1182 50.616 20.8729 50.808C20.6382 51 20.4462 51.24 20.2969 51.528C20.1475 51.8053 20.0729 52.1253 20.0729 52.488ZM25.1769 46.344C24.9315 46.536 24.6382 46.632 24.2969 46.632C23.9555 46.632 23.6622 46.536 23.4169 46.344C23.1715 46.1413 23.0489 45.8533 23.0489 45.48C23.0489 45.1387 23.1662 44.8667 23.4009 44.664C23.6462 44.4507 23.9449 44.344 24.2969 44.344C24.6595 44.344 24.9582 44.4507 25.1929 44.664C25.4275 44.8667 25.5449 45.1387 25.5449 45.48C25.5449 45.8533 25.4222 46.1413 25.1769 46.344ZM21.7049 46.344C21.4595 46.536 21.1662 46.632 20.8249 46.632C20.4835 46.632 20.1902 46.536 19.9449 46.344C19.6995 46.1413 19.5769 45.8533 19.5769 45.48C19.5769 45.1387 19.6942 44.8667 19.9289 44.664C20.1742 44.4507 20.4729 44.344 20.8249 44.344C21.1769 44.344 21.4702 44.4507 21.7049 44.664C21.9502 44.8667 22.0729 45.1387 22.0729 45.48C22.0729 45.8533 21.9502 46.1413 21.7049 46.344ZM26.9663 54.76H32.5503V52.312C32.5503 51.992 32.5129 51.7147 32.4383 51.48C32.3743 51.2347 32.2676 51.0213 32.1183 50.84C31.9796 50.6587 31.7876 50.5147 31.5423 50.408C31.3076 50.2907 31.0463 50.232 30.7583 50.232H29.7983V47.992H30.5343C31.2596 47.992 31.8943 48.088 32.4383 48.28C32.9823 48.4613 33.4569 48.7653 33.8623 49.192C34.2036 49.5547 34.4436 50.0187 34.5823 50.584C34.7209 51.1387 34.7903 51.7467 34.7903 52.408V54.76H36.5183V57H26.9663V54.76ZM36.0588 54.76H37.6268V47.992H39.8668V48.792H44.7468C45.4721 48.792 46.1068 48.888 46.6508 49.08C47.1948 49.2613 47.6694 49.5653 48.0748 49.992C48.4161 50.3547 48.6561 50.8187 48.7948 51.384C48.9334 51.9387 49.0028 52.5467 49.0028 53.208V57H36.0588V54.76ZM39.8668 51.016V54.76H46.7628V53.112C46.7628 52.792 46.7254 52.5147 46.6508 52.28C46.5868 52.0347 46.4801 51.8213 46.3308 51.64C46.1921 51.4587 46.0001 51.3093 45.7548 51.192C45.5201 51.0747 45.2588 51.016 44.9708 51.016H39.8668ZM50.5444 54.76H55.1044C55.467 54.76 55.803 54.7173 56.1124 54.632C56.4217 54.536 56.6884 54.3973 56.9124 54.216C57.1257 54.0347 57.291 53.8107 57.4084 53.544C57.5257 53.2773 57.5844 52.9467 57.5844 52.552V42.84H60.8644V45.08H59.8244V52.472C59.8244 53.1333 59.723 53.768 59.5204 54.376C59.3284 54.984 59.0297 55.4747 58.6244 55.848C58.1657 56.264 57.6004 56.5627 56.9284 56.744C56.267 56.9147 55.5044 57 54.6404 57H50.8164L50.5444 54.76ZM52.8164 45.528H55.0564V53.96H52.8164V45.528ZM51.8884 43.96C51.8884 43.2347 52.0644 42.7227 52.4164 42.424C52.779 42.1253 53.275 41.976 53.9044 41.976H54.7044V42.696H54.0324C53.7124 42.696 53.4884 42.7653 53.3604 42.904C53.2324 43.0427 53.1684 43.24 53.1684 43.496H55.2164V44.696H51.8884V43.96ZM63.5219 44.024H65.7619V57H63.5219V44.024Z"/>
</mask>
<path d="M3.2105 53.944C3.2105 52.3227 3.59983 51.1173 4.3785 50.328C5.16783 49.5387 6.27183 49.144 7.6905 49.144H9.1305V51.384H7.2265C6.69317 51.384 6.26117 51.5707 5.9305 51.944C5.6105 52.3173 5.4505 52.84 5.4505 53.512V54.76H9.8345V57H3.2105V53.944ZM12.65 44.024H14.89V54.76H16.938V57H12.65V44.024ZM16.4569 54.76H18.6009C18.3662 54.4507 18.1795 54.1093 18.0409 53.736C17.9022 53.3627 17.8329 52.9467 17.8329 52.488C17.8329 51.784 17.9609 51.1547 18.2169 50.6C18.4835 50.0453 18.8515 49.576 19.3209 49.192C19.7902 48.7973 20.3555 48.4987 21.0169 48.296C21.6782 48.0933 22.4089 47.992 23.2089 47.992H25.8489V57H16.4569V54.76ZM20.0729 52.488C20.0729 52.9787 20.1795 53.416 20.3929 53.8C20.6169 54.184 20.9155 54.504 21.2889 54.76H23.6089V50.232H22.6649C22.3449 50.232 22.0249 50.28 21.7049 50.376C21.3955 50.472 21.1182 50.616 20.8729 50.808C20.6382 51 20.4462 51.24 20.2969 51.528C20.1475 51.8053 20.0729 52.1253 20.0729 52.488ZM25.1769 46.344C24.9315 46.536 24.6382 46.632 24.2969 46.632C23.9555 46.632 23.6622 46.536 23.4169 46.344C23.1715 46.1413 23.0489 45.8533 23.0489 45.48C23.0489 45.1387 23.1662 44.8667 23.4009 44.664C23.6462 44.4507 23.9449 44.344 24.2969 44.344C24.6595 44.344 24.9582 44.4507 25.1929 44.664C25.4275 44.8667 25.5449 45.1387 25.5449 45.48C25.5449 45.8533 25.4222 46.1413 25.1769 46.344ZM21.7049 46.344C21.4595 46.536 21.1662 46.632 20.8249 46.632C20.4835 46.632 20.1902 46.536 19.9449 46.344C19.6995 46.1413 19.5769 45.8533 19.5769 45.48C19.5769 45.1387 19.6942 44.8667 19.9289 44.664C20.1742 44.4507 20.4729 44.344 20.8249 44.344C21.1769 44.344 21.4702 44.4507 21.7049 44.664C21.9502 44.8667 22.0729 45.1387 22.0729 45.48C22.0729 45.8533 21.9502 46.1413 21.7049 46.344ZM26.9663 54.76H32.5503V52.312C32.5503 51.992 32.5129 51.7147 32.4383 51.48C32.3743 51.2347 32.2676 51.0213 32.1183 50.84C31.9796 50.6587 31.7876 50.5147 31.5423 50.408C31.3076 50.2907 31.0463 50.232 30.7583 50.232H29.7983V47.992H30.5343C31.2596 47.992 31.8943 48.088 32.4383 48.28C32.9823 48.4613 33.4569 48.7653 33.8623 49.192C34.2036 49.5547 34.4436 50.0187 34.5823 50.584C34.7209 51.1387 34.7903 51.7467 34.7903 52.408V54.76H36.5183V57H26.9663V54.76ZM36.0588 54.76H37.6268V47.992H39.8668V48.792H44.7468C45.4721 48.792 46.1068 48.888 46.6508 49.08C47.1948 49.2613 47.6694 49.5653 48.0748 49.992C48.4161 50.3547 48.6561 50.8187 48.7948 51.384C48.9334 51.9387 49.0028 52.5467 49.0028 53.208V57H36.0588V54.76ZM39.8668 51.016V54.76H46.7628V53.112C46.7628 52.792 46.7254 52.5147 46.6508 52.28C46.5868 52.0347 46.4801 51.8213 46.3308 51.64C46.1921 51.4587 46.0001 51.3093 45.7548 51.192C45.5201 51.0747 45.2588 51.016 44.9708 51.016H39.8668ZM50.5444 54.76H55.1044C55.467 54.76 55.803 54.7173 56.1124 54.632C56.4217 54.536 56.6884 54.3973 56.9124 54.216C57.1257 54.0347 57.291 53.8107 57.4084 53.544C57.5257 53.2773 57.5844 52.9467 57.5844 52.552V42.84H60.8644V45.08H59.8244V52.472C59.8244 53.1333 59.723 53.768 59.5204 54.376C59.3284 54.984 59.0297 55.4747 58.6244 55.848C58.1657 56.264 57.6004 56.5627 56.9284 56.744C56.267 56.9147 55.5044 57 54.6404 57H50.8164L50.5444 54.76ZM52.8164 45.528H55.0564V53.96H52.8164V45.528ZM51.8884 43.96C51.8884 43.2347 52.0644 42.7227 52.4164 42.424C52.779 42.1253 53.275 41.976 53.9044 41.976H54.7044V42.696H54.0324C53.7124 42.696 53.4884 42.7653 53.3604 42.904C53.2324 43.0427 53.1684 43.24 53.1684 43.496H55.2164V44.696H51.8884V43.96ZM63.5219 44.024H65.7619V57H63.5219V44.024Z" fill="white"/>
<path d="M4.3785 50.328L4.02494 49.9744L4.02255 49.9769L4.3785 50.328ZM9.1305 49.144H9.6305V48.644H9.1305V49.144ZM9.1305 51.384V51.884H9.6305V51.384H9.1305ZM5.9305 51.944L5.55616 51.6124L5.55087 51.6186L5.9305 51.944ZM5.4505 54.76H4.9505V55.26H5.4505V54.76ZM9.8345 54.76H10.3345V54.26H9.8345V54.76ZM9.8345 57V57.5H10.3345V57H9.8345ZM3.2105 57H2.7105V57.5H3.2105V57ZM3.7105 53.944C3.7105 52.3936 4.0833 51.3392 4.73445 50.6791L4.02255 49.9769C3.11636 50.8955 2.7105 52.2518 2.7105 53.944H3.7105ZM4.73205 50.6816C5.40394 50.0097 6.36671 49.644 7.6905 49.644V48.644C6.17696 48.644 4.93173 49.0677 4.02495 49.9744L4.73205 50.6816ZM7.6905 49.644H9.1305V48.644H7.6905V49.644ZM8.6305 49.144V51.384H9.6305V49.144H8.6305ZM9.1305 50.884H7.2265V51.884H9.1305V50.884ZM7.2265 50.884C6.56126 50.884 5.98897 51.1239 5.55621 51.6125L6.30479 52.2755C6.53337 52.0175 6.82507 51.884 7.2265 51.884V50.884ZM5.55087 51.6186C5.12878 52.111 4.9505 52.7645 4.9505 53.512H5.9505C5.9505 52.9155 6.09222 52.5236 6.31013 52.2694L5.55087 51.6186ZM4.9505 53.512V54.76H5.9505V53.512H4.9505ZM5.4505 55.26H9.8345V54.26H5.4505V55.26ZM9.3345 54.76V57H10.3345V54.76H9.3345ZM9.8345 56.5H3.2105V57.5H9.8345V56.5ZM3.7105 57V53.944H2.7105V57H3.7105ZM12.65 44.024V43.524H12.15V44.024H12.65ZM14.89 44.024H15.39V43.524H14.89V44.024ZM14.89 54.76H14.39V55.26H14.89V54.76ZM16.938 54.76H17.438V54.26H16.938V54.76ZM16.938 57V57.5H17.438V57H16.938ZM12.65 57H12.15V57.5H12.65V57ZM12.65 44.524H14.89V43.524H12.65V44.524ZM14.39 44.024V54.76H15.39V44.024H14.39ZM14.89 55.26H16.938V54.26H14.89V55.26ZM16.438 54.76V57H17.438V54.76H16.438ZM16.938 56.5H12.65V57.5H16.938V56.5ZM13.15 57V44.024H12.15V57H13.15ZM16.4569 54.76V54.26H15.9569V54.76H16.4569ZM18.6009 54.76V55.26H19.6078L18.9992 54.4578L18.6009 54.76ZM18.0409 53.736L18.5096 53.5619L18.0409 53.736ZM18.2169 50.6L17.7662 50.3833L17.7629 50.3905L18.2169 50.6ZM19.3209 49.192L19.6375 49.579L19.6427 49.5747L19.3209 49.192ZM21.0169 48.296L21.1634 48.7741L21.0169 48.296ZM25.8489 47.992H26.3489V47.492H25.8489V47.992ZM25.8489 57V57.5H26.3489V57H25.8489ZM16.4569 57H15.9569V57.5H16.4569V57ZM20.3929 53.8L19.9557 54.0429L19.961 54.0519L20.3929 53.8ZM21.2889 54.76L21.0061 55.1724L21.1339 55.26H21.2889V54.76ZM23.6089 54.76V55.26H24.1089V54.76H23.6089ZM23.6089 50.232H24.1089V49.732H23.6089V50.232ZM21.7049 50.376L21.5612 49.8971L21.5567 49.8985L21.7049 50.376ZM20.8729 50.808L20.5646 50.4142L20.5563 50.421L20.8729 50.808ZM20.2969 51.528L20.7372 51.7651L20.7408 51.7582L20.2969 51.528ZM25.1769 46.344L25.4851 46.7379L25.4953 46.7295L25.1769 46.344ZM23.4169 46.344L23.0983 46.7296L23.1087 46.7378L23.4169 46.344ZM23.4009 44.664L23.7277 45.0424L23.729 45.0413L23.4009 44.664ZM25.1929 44.664L24.8564 45.0341L24.8661 45.0424L25.1929 44.664ZM21.7049 46.344L22.0131 46.7379L22.0233 46.7295L21.7049 46.344ZM19.9449 46.344L19.6263 46.7296L19.6367 46.7378L19.9449 46.344ZM19.9289 44.664L20.2557 45.0424L20.257 45.0413L19.9289 44.664ZM21.7049 44.664L21.3685 45.034L21.3773 45.0419L21.3864 45.0495L21.7049 44.664ZM16.4569 55.26H18.6009V54.26H16.4569V55.26ZM18.9992 54.4578C18.7949 54.1885 18.6316 53.8905 18.5096 53.5619L17.5722 53.9101C17.7274 54.3282 17.9375 54.7128 18.2025 55.0622L18.9992 54.4578ZM18.5096 53.5619C18.3945 53.252 18.3329 52.8961 18.3329 52.488H17.3329C17.3329 52.9972 17.4099 53.4733 17.5722 53.9101L18.5096 53.5619ZM18.3329 52.488C18.3329 51.8454 18.4495 51.2892 18.6709 50.8095L17.7629 50.3905C17.4723 51.0201 17.3329 51.7226 17.3329 52.488H18.3329ZM18.6675 50.8166C18.903 50.3269 19.2256 49.916 19.6375 49.579L19.0043 48.805C18.4775 49.236 18.0641 49.7638 17.7662 50.3834L18.6675 50.8166ZM19.6427 49.5747C20.0544 49.2285 20.5581 48.9595 21.1634 48.7741L20.8704 47.8179C20.153 48.0378 19.526 48.3662 18.9991 48.8093L19.6427 49.5747ZM21.1634 48.7741C21.7705 48.588 22.4509 48.492 23.2089 48.492V47.492C22.3668 47.492 21.5859 47.5987 20.8704 47.8179L21.1634 48.7741ZM23.2089 48.492H25.8489V47.492H23.2089V48.492ZM25.3489 47.992V57H26.3489V47.992H25.3489ZM25.8489 56.5H16.4569V57.5H25.8489V56.5ZM16.9569 57V54.76H15.9569V57H16.9569ZM19.5729 52.488C19.5729 53.0535 19.6965 53.5762 19.9558 54.0428L20.83 53.5572C20.6625 53.2558 20.5729 52.9038 20.5729 52.488H19.5729ZM19.961 54.0519C20.2229 54.501 20.573 54.8754 21.0061 55.1724L21.5716 54.3476C21.2581 54.1326 21.0108 53.867 20.8248 53.5481L19.961 54.0519ZM21.2889 55.26H23.6089V54.26H21.2889V55.26ZM24.1089 54.76V50.232H23.1089V54.76H24.1089ZM23.6089 49.732H22.6649V50.732H23.6089V49.732ZM22.6649 49.732C22.2941 49.732 21.9257 49.7877 21.5612 49.8971L21.8485 50.8549C22.124 50.7723 22.3956 50.732 22.6649 50.732V49.732ZM21.5567 49.8985C21.1917 50.0117 20.8597 50.1834 20.5647 50.4142L21.181 51.2018C21.3767 51.0486 21.5994 50.9323 21.8531 50.8535L21.5567 49.8985ZM20.5563 50.421C20.2653 50.659 20.0314 50.9537 19.853 51.2978L20.7408 51.7582C20.861 51.5263 21.0111 51.341 21.1895 51.195L20.5563 50.421ZM19.8566 51.2909C19.6625 51.6515 19.5729 52.0552 19.5729 52.488H20.5729C20.5729 52.1955 20.6326 51.9592 20.7371 51.765L19.8566 51.2909ZM24.8687 45.9502C24.7199 46.0667 24.5379 46.132 24.2969 46.132V47.132C24.7386 47.132 25.1432 47.0053 25.485 46.7378L24.8687 45.9502ZM24.2969 46.132C24.0559 46.132 23.8739 46.0667 23.725 45.9502L23.1087 46.7378C23.4506 47.0053 23.8552 47.132 24.2969 47.132V46.132ZM23.7353 45.9585C23.6254 45.8677 23.5489 45.7329 23.5489 45.48H22.5489C22.5489 45.9737 22.7177 46.4149 23.0984 46.7295L23.7353 45.9585ZM23.5489 45.48C23.5489 45.2675 23.6149 45.1398 23.7277 45.0424L23.0741 44.2856C22.7175 44.5935 22.5489 45.0098 22.5489 45.48H23.5489ZM23.729 45.0413C23.8755 44.9139 24.0547 44.844 24.2969 44.844V43.844C23.8351 43.844 23.4169 43.9874 23.0728 44.2867L23.729 45.0413ZM24.2969 44.844C24.5543 44.844 24.7271 44.9163 24.8565 45.034L25.5292 44.294C25.1893 43.985 24.7648 43.844 24.2969 43.844V44.844ZM24.8661 45.0424C24.9789 45.1398 25.0449 45.2675 25.0449 45.48H26.0449C26.0449 45.0098 25.8762 44.5935 25.5197 44.2856L24.8661 45.0424ZM25.0449 45.48C25.0449 45.7329 24.9683 45.8677 24.8584 45.9585L25.4953 46.7295C25.8761 46.4149 26.0449 45.9737 26.0449 45.48H25.0449ZM21.3967 45.9502C21.2479 46.0667 21.0659 46.132 20.8249 46.132V47.132C21.2666 47.132 21.6712 47.0053 22.013 46.7378L21.3967 45.9502ZM20.8249 46.132C20.5839 46.132 20.4019 46.0667 20.253 45.9502L19.6367 46.7378C19.9786 47.0053 20.3832 47.132 20.8249 47.132V46.132ZM20.2633 45.9585C20.1534 45.8677 20.0769 45.7329 20.0769 45.48H19.0769C19.0769 45.9737 19.2457 46.4149 19.6264 46.7295L20.2633 45.9585ZM20.0769 45.48C20.0769 45.2675 20.1429 45.1398 20.2557 45.0424L19.6021 44.2856C19.2455 44.5935 19.0769 45.0098 19.0769 45.48H20.0769ZM20.257 45.0413C20.4035 44.9139 20.5827 44.844 20.8249 44.844V43.844C20.3631 43.844 19.9449 43.9874 19.6008 44.2867L20.257 45.0413ZM20.8249 44.844C21.0673 44.844 21.2363 44.9137 21.3685 45.034L22.0412 44.294C21.7041 43.9876 21.2865 43.844 20.8249 43.844V44.844ZM21.3864 45.0495C21.5076 45.1496 21.5729 45.2754 21.5729 45.48H22.5729C22.5729 45.0019 22.3928 44.5838 22.0233 44.2785L21.3864 45.0495ZM21.5729 45.48C21.5729 45.7329 21.4963 45.8677 21.3864 45.9585L22.0233 46.7295C22.4041 46.4149 22.5729 45.9737 22.5729 45.48H21.5729ZM26.9662 54.76V54.26H26.4662V54.76H26.9662ZM32.5503 54.76V55.26H33.0503V54.76H32.5503ZM32.4382 51.48L31.9544 51.6062L31.9578 51.619L31.9618 51.6316L32.4382 51.48ZM32.1182 50.84L31.7211 51.1437L31.7266 51.1509L31.7323 51.1579L32.1182 50.84ZM31.5422 50.408L31.3186 50.8552L31.3306 50.8612L31.3429 50.8665L31.5422 50.408ZM29.7983 50.232H29.2983V50.732H29.7983V50.232ZM29.7983 47.992V47.492H29.2983V47.992H29.7983ZM32.4382 48.28L32.2718 48.7516L32.2801 48.7543L32.4382 48.28ZM33.8623 49.192L34.2264 48.8493L34.2248 48.8476L33.8623 49.192ZM34.5823 50.584L34.0966 50.7031L34.0972 50.7053L34.5823 50.584ZM34.7903 54.76H34.2903V55.26H34.7903V54.76ZM36.5182 54.76H37.0182V54.26H36.5182V54.76ZM36.5182 57V57.5H37.0182V57H36.5182ZM26.9662 57H26.4662V57.5H26.9662V57ZM26.9662 55.26H32.5503V54.26H26.9662V55.26ZM33.0503 54.76V52.312H32.0503V54.76H33.0503ZM33.0503 52.312C33.0503 51.9551 33.0088 51.6242 32.9147 51.3284L31.9618 51.6316C32.017 51.8051 32.0503 52.0289 32.0503 52.312H33.0503ZM32.9221 51.3538C32.8412 51.0439 32.7033 50.7638 32.5042 50.5221L31.7323 51.1579C31.8319 51.2788 31.9073 51.4254 31.9544 51.6062L32.9221 51.3538ZM32.5154 50.5363C32.3168 50.2766 32.0515 50.0842 31.7416 49.9495L31.3429 50.8665C31.5237 50.9451 31.6423 51.0408 31.7211 51.1437L32.5154 50.5363ZM31.7659 49.9608C31.4552 49.8054 31.1162 49.732 30.7583 49.732V50.732C30.9763 50.732 31.16 50.7759 31.3186 50.8552L31.7659 49.9608ZM30.7583 49.732H29.7983V50.732H30.7583V49.732ZM30.2983 50.232V47.992H29.2983V50.232H30.2983ZM29.7983 48.492H30.5343V47.492H29.7983V48.492ZM30.5343 48.492C31.2169 48.492 31.793 48.5825 32.2718 48.7515L32.6047 47.8085C31.9955 47.5935 31.3023 47.492 30.5343 47.492V48.492ZM32.2801 48.7543C32.7443 48.9091 33.1493 49.1675 33.4998 49.5364L34.2248 48.8476C33.7645 48.3632 33.2202 48.0136 32.5964 47.8057L32.2801 48.7543ZM33.4981 49.5347C33.7711 49.8247 33.975 50.2073 34.0966 50.7031L35.0679 50.4649C34.9121 49.83 34.6361 49.2847 34.2263 48.8493L33.4981 49.5347ZM34.0972 50.7053C34.2245 51.2147 34.2903 51.7813 34.2903 52.408H35.2903C35.2903 51.712 35.2173 51.0627 35.0673 50.4627L34.0972 50.7053ZM34.2903 52.408V54.76H35.2903V52.408H34.2903ZM34.7903 55.26H36.5182V54.26H34.7903V55.26ZM36.0182 54.76V57H37.0182V54.76H36.0182ZM36.5182 56.5H26.9662V57.5H36.5182V56.5ZM27.4662 57V54.76H26.4662V57H27.4662ZM36.0588 54.76V54.26H35.5588V54.76H36.0588ZM37.6268 54.76V55.26H38.1268V54.76H37.6268ZM37.6268 47.992V47.492H37.1268V47.992H37.6268ZM39.8667 47.992H40.3667V47.492H39.8667V47.992ZM39.8667 48.792H39.3667V49.292H39.8667V48.792ZM46.6507 49.08L46.4843 49.5516L46.4926 49.5543L46.6507 49.08ZM48.0748 49.992L48.4389 49.6493L48.4373 49.6476L48.0748 49.992ZM48.7948 51.384L48.3091 51.5031L48.3097 51.5053L48.7948 51.384ZM49.0028 57V57.5H49.5028V57H49.0028ZM36.0588 57H35.5588V57.5H36.0588V57ZM39.8667 51.016V50.516H39.3667V51.016H39.8667ZM39.8667 54.76H39.3667V55.26H39.8667V54.76ZM46.7627 54.76V55.26H47.2627V54.76H46.7627ZM46.6507 52.28L46.1669 52.4062L46.1703 52.419L46.1743 52.4316L46.6507 52.28ZM46.3307 51.64L45.9336 51.9437L45.9391 51.9509L45.9448 51.9579L46.3307 51.64ZM45.7547 51.192L45.5311 51.6393L45.539 51.6431L45.7547 51.192ZM36.0588 55.26H37.6268V54.26H36.0588V55.26ZM38.1268 54.76V47.992H37.1268V54.76H38.1268ZM37.6268 48.492H39.8667V47.492H37.6268V48.492ZM39.3667 47.992V48.792H40.3667V47.992H39.3667ZM39.8667 49.292H44.7467V48.292H39.8667V49.292ZM44.7467 49.292C45.4294 49.292 46.0055 49.3825 46.4843 49.5515L46.8172 48.6085C46.208 48.3935 45.5148 48.292 44.7467 48.292V49.292ZM46.4926 49.5543C46.9568 49.7091 47.3618 49.9675 47.7122 50.3364L48.4373 49.6476C47.977 49.1632 47.4327 48.8136 46.8089 48.6057L46.4926 49.5543ZM47.7107 50.3347C47.9836 50.6247 48.1875 51.0073 48.3091 51.5031L49.2804 51.2649C49.1246 50.63 48.8486 50.0847 48.4389 49.6493L47.7107 50.3347ZM48.3097 51.5053C48.437 52.0147 48.5028 52.5813 48.5028 53.208H49.5028C49.5028 52.512 49.4298 51.8627 49.2798 51.2627L48.3097 51.5053ZM48.5028 53.208V57H49.5028V53.208H48.5028ZM49.0028 56.5H36.0588V57.5H49.0028V56.5ZM36.5588 57V54.76H35.5588V57H36.5588ZM39.3667 51.016V54.76H40.3667V51.016H39.3667ZM39.8667 55.26H46.7627V54.26H39.8667V55.26ZM47.2627 54.76V53.112H46.2627V54.76H47.2627ZM47.2627 53.112C47.2627 52.7551 47.2213 52.4242 47.1272 52.1284L46.1743 52.4316C46.2295 52.6051 46.2627 52.8289 46.2627 53.112H47.2627ZM47.1346 52.1538C47.0537 51.8439 46.9158 51.5638 46.7167 51.3221L45.9448 51.9579C46.0444 52.0788 46.1198 52.2254 46.1669 52.4062L47.1346 52.1538ZM46.7279 51.3363C46.5329 51.0813 46.2735 50.8859 45.9705 50.7409L45.539 51.6431C45.7266 51.7328 45.8513 51.8361 45.9336 51.9437L46.7279 51.3363ZM45.9784 50.7448C45.6677 50.5894 45.3287 50.516 44.9707 50.516V51.516C45.1888 51.516 45.3725 51.5599 45.5311 51.6392L45.9784 50.7448ZM44.9707 50.516H39.8667V51.516H44.9707V50.516ZM50.5444 54.76V54.26H49.98L50.048 54.8203L50.5444 54.76ZM56.1124 54.632L56.2453 55.114L56.253 55.1119L56.2606 55.1095L56.1124 54.632ZM56.9124 54.216L57.2271 54.6047L57.2362 54.597L56.9124 54.216ZM57.4084 53.544L57.866 53.7454L57.4084 53.544ZM57.5844 42.84V42.34H57.0844V42.84H57.5844ZM60.8644 42.84H61.3644V42.34H60.8644V42.84ZM60.8644 45.08V45.58H61.3644V45.08H60.8644ZM59.8244 45.08V44.58H59.3244V45.08H59.8244ZM59.5204 54.376L59.046 54.2179L59.0436 54.2254L59.5204 54.376ZM58.6244 55.848L58.9603 56.2184L58.9631 56.2158L58.6244 55.848ZM56.9284 56.744L57.0533 57.2282L57.0586 57.2267L56.9284 56.744ZM50.8164 57L50.32 57.0603L50.3734 57.5H50.8164V57ZM52.8164 45.528V45.028H52.3164V45.528H52.8164ZM55.0564 45.528H55.5564V45.028H55.0564V45.528ZM55.0564 53.96V54.46H55.5564V53.96H55.0564ZM52.8164 53.96H52.3164V54.46H52.8164V53.96ZM52.4164 42.424L52.0985 42.038L52.0929 42.0427L52.4164 42.424ZM54.7044 41.976H55.2044V41.476H54.7044V41.976ZM54.7044 42.696V43.196H55.2044V42.696H54.7044ZM53.3604 42.904L52.993 42.5649V42.5649L53.3604 42.904ZM53.1684 43.496H52.6684V43.996H53.1684V43.496ZM55.2164 43.496H55.7164V42.996H55.2164V43.496ZM55.2164 44.696V45.196H55.7164V44.696H55.2164ZM51.8884 44.696H51.3884V45.196H51.8884V44.696ZM50.5444 55.26H55.1044V54.26H50.5444V55.26ZM55.1044 55.26C55.5062 55.26 55.8875 55.2127 56.2453 55.114L55.9794 54.15C55.7186 54.222 55.4278 54.26 55.1044 54.26V55.26ZM56.2606 55.1095C56.623 54.997 56.9479 54.8305 57.227 54.6046L56.5978 53.8274C56.4288 53.9641 56.2204 54.075 55.9642 54.1545L56.2606 55.1095ZM57.2362 54.597C57.5095 54.3647 57.7195 54.0784 57.866 53.7454L56.9507 53.3426C56.8626 53.543 56.7419 53.7047 56.5886 53.835L57.2362 54.597ZM57.866 53.7454C58.0193 53.397 58.0844 52.9928 58.0844 52.552H57.0844C57.0844 52.9005 57.0321 53.1577 56.9507 53.3426L57.866 53.7454ZM58.0844 52.552V42.84H57.0844V52.552H58.0844ZM57.5844 43.34H60.8644V42.34H57.5844V43.34ZM60.3644 42.84V45.08H61.3644V42.84H60.3644ZM60.8644 44.58H59.8244V45.58H60.8644V44.58ZM59.3244 45.08V52.472H60.3244V45.08H59.3244ZM59.3244 52.472C59.3244 53.0813 59.2312 53.6625 59.046 54.2179L59.9947 54.5341C60.2149 53.8735 60.3244 53.1853 60.3244 52.472H59.3244ZM59.0436 54.2254C58.8737 54.7634 58.6173 55.1747 58.2856 55.4802L58.9631 56.2158C59.4421 55.7746 59.7831 55.2046 59.9972 54.5266L59.0436 54.2254ZM58.2885 55.4776C57.8954 55.8341 57.4032 56.098 56.7981 56.2613L57.0586 57.2267C57.7975 57.0274 58.436 56.6939 58.9603 56.2184L58.2885 55.4776ZM56.8034 56.2599C56.192 56.4176 55.4728 56.5 54.6404 56.5V57.5C55.536 57.5 56.3421 57.4117 57.0533 57.2281L56.8034 56.2599ZM54.6404 56.5H50.8164V57.5H54.6404V56.5ZM51.3127 56.9397L51.0407 54.6997L50.048 54.8203L50.32 57.0603L51.3127 56.9397ZM52.8164 46.028H55.0564V45.028H52.8164V46.028ZM54.5564 45.528V53.96H55.5564V45.528H54.5564ZM55.0564 53.46H52.8164V54.46H55.0564V53.46ZM53.3164 53.96V45.528H52.3164V53.96H53.3164ZM52.3884 43.96C52.3884 43.298 52.5508 42.9657 52.7399 42.8053L52.0929 42.0427C51.578 42.4797 51.3884 43.1713 51.3884 43.96H52.3884ZM52.7342 42.81C52.981 42.6067 53.3515 42.476 53.9044 42.476V41.476C53.1986 41.476 52.5771 41.6439 52.0985 42.038L52.7342 42.81ZM53.9044 42.476H54.7044V41.476H53.9044V42.476ZM54.2044 41.976V42.696H55.2044V41.976H54.2044ZM54.7044 42.196H54.0324V43.196H54.7044V42.196ZM54.0324 42.196C53.6651 42.196 53.2639 42.2713 52.993 42.5649L53.7278 43.2431C53.7192 43.2524 53.7241 43.2405 53.7722 43.2256C53.8225 43.2101 53.9056 43.196 54.0324 43.196V42.196ZM52.993 42.5649C52.7532 42.8246 52.6684 43.1598 52.6684 43.496H53.6684C53.6684 43.3202 53.7115 43.2607 53.7278 43.2431L52.993 42.5649ZM53.1684 43.996H55.2164V42.996H53.1684V43.996ZM54.7164 43.496V44.696H55.7164V43.496H54.7164ZM55.2164 44.196H51.8884V45.196H55.2164V44.196ZM52.3884 44.696V43.96H51.3884V44.696H52.3884ZM63.5219 44.024V43.524H63.0219V44.024H63.5219ZM65.7619 44.024H66.2619V43.524H65.7619V44.024ZM65.7619 57V57.5H66.2619V57H65.7619ZM63.5219 57H63.0219V57.5H63.5219V57ZM63.5219 44.524H65.7619V43.524H63.5219V44.524ZM65.2619 44.024V57H66.2619V44.024H65.2619ZM65.7619 56.5H63.5219V57.5H65.7619V56.5ZM64.0219 57V44.024H63.0219V57H64.0219Z" fill="#3E3E3E" mask="url(#path-1-outside-1_618_26031)"/>
</g>
<path d="M53.069 20.1167C53.069 22.6643 51.1778 24.7295 48.8444 24.7295C47.277 24.7295 45.909 23.7976 45.1798 22.4139C44.8234 21.7375 44.6195 20.953 44.6195 20.1167C44.6195 17.5694 46.511 15.5042 48.8444 15.5042C49.4553 15.5042 50.0357 15.6457 50.5598 15.9007H50.5601C52.0385 16.6187 53.069 18.2363 53.069 20.1167Z" fill="#1D86C7"/>
<path d="M55.1526 37.094H42.5359C41.6314 37.094 40.8767 36.3964 40.6997 35.4758C40.6672 35.3083 40.6539 35.1335 40.6624 34.9545C40.8782 30.3801 44.1498 26.3855 48.8444 26.3855C49.0957 26.3855 49.3428 26.3968 49.5855 26.4194C53.8806 26.8146 56.8222 30.6251 57.0264 34.9545C57.0815 36.1197 56.2217 37.094 55.1526 37.094Z" fill="#1D86C7"/>
<path d="M52.418 19.4057C52.418 21.9533 50.5268 24.0186 48.1934 24.0186C46.626 24.0186 45.258 23.0866 44.5288 21.7029C44.1724 21.0266 43.9685 20.242 43.9685 19.4057C43.9685 16.8584 45.86 14.7932 48.1934 14.7932C48.8043 14.7932 49.3847 14.9348 49.9088 15.1897H49.9091C51.3875 15.9077 52.418 17.5253 52.418 19.4057Z" fill="#21A8FC"/>
<path d="M54.5016 36.3833H41.8849C40.9805 36.3833 40.2257 35.6856 40.0487 34.765C40.0162 34.5976 40.0029 34.4228 40.0114 34.2438C40.2272 29.6694 43.4988 25.6747 48.1934 25.6747C48.4447 25.6747 48.6918 25.686 48.9345 25.7086C53.2296 26.1039 56.1712 29.9143 56.3754 34.2438C56.4305 35.409 55.5707 36.3833 54.5016 36.3833Z" fill="#20A5F7"/>
<g opacity="0.5">
<path d="M52.4181 19.4057C52.4181 21.9533 50.5268 24.0185 48.1934 24.0185C46.626 24.0185 45.258 23.0866 44.5288 21.7029V21.7025C44.5288 21.7025 48.0855 23.575 50.0621 20.9644C52.1565 18.1981 49.9089 15.1897 49.9089 15.1897H49.9092C51.3875 15.9077 52.4181 17.5253 52.4181 19.4057Z" fill="#21A8FC"/>
</g>
<g opacity="0.5">
<path d="M46.2278 15.9989C45.5068 16.4978 44.9745 17.2635 44.7264 18.1552C44.606 18.5879 44.4842 19.0383 44.545 19.4856C44.6058 19.933 44.9055 20.3761 45.3178 20.4198C45.634 20.4534 45.9287 20.2541 46.1834 20.0467C46.8527 19.5016 47.4433 18.8412 47.9264 18.0975C48.163 17.7333 48.3781 17.3376 48.4488 16.8977C48.5884 16.0286 48.0303 15.2937 47.1989 15.4287C46.902 15.4769 46.6591 15.6987 46.4128 15.8704C46.3512 15.9133 46.2895 15.9561 46.2278 15.9989Z" fill="#65BBF0"/>
</g>
<path d="M31.1013 20.1167C31.1013 22.6643 29.21 24.7295 26.8767 24.7295C25.3092 24.7295 23.9412 23.7976 23.212 22.4139C22.8557 21.7375 22.6517 20.953 22.6517 20.1167C22.6517 17.5694 24.5433 15.5042 26.8767 15.5042C27.4875 15.5042 28.0679 15.6457 28.5921 15.9007H28.5923C30.0707 16.6187 31.1013 18.2363 31.1013 20.1167Z" fill="#1D86C7"/>
<path d="M33.1849 37.094H20.5681C19.6637 37.094 18.909 36.3964 18.732 35.4758C18.6994 35.3083 18.6861 35.1335 18.6947 34.9545C18.9104 30.3801 22.1821 26.3855 26.8767 26.3855C27.128 26.3855 27.375 26.3968 27.6178 26.4194C31.9128 26.8146 34.8544 30.6251 35.0586 34.9545C35.1137 36.1197 34.2539 37.094 33.1849 37.094Z" fill="#1C80BE"/>
<path d="M30.4501 19.4057C30.4501 21.9533 28.5589 24.0186 26.2255 24.0186C24.6581 24.0186 23.2901 23.0866 22.5609 21.7029C22.2045 21.0266 22.0006 20.242 22.0006 19.4057C22.0006 16.8584 23.8921 14.7932 26.2255 14.7932C26.8364 14.7932 27.4168 14.9348 27.9409 15.1897H27.9412C29.4196 15.9077 30.4501 17.5253 30.4501 19.4057Z" fill="#1E9CEA"/>
<path d="M32.5336 36.3833H19.9169C19.0124 36.3833 18.2577 35.6856 18.0807 34.765C18.0482 34.5976 18.0349 34.4228 18.0434 34.2438C18.2592 29.6694 21.5308 25.6747 26.2254 25.6747C26.4767 25.6747 26.7238 25.686 26.9665 25.7086C31.2615 26.1039 34.2032 29.9143 34.4074 34.2438C34.4624 35.409 33.6026 36.3833 32.5336 36.3833Z" fill="#1E9CEA"/>
<g opacity="0.5">
<path d="M30.4501 19.4057C30.4501 21.9533 28.5588 24.0185 26.2254 24.0185C24.658 24.0185 23.29 23.0866 22.5608 21.7029V21.7025C22.5608 21.7025 26.1175 23.575 28.0941 20.9644C30.1885 18.1981 27.9409 15.1897 27.9409 15.1897H27.9411C29.4195 15.9077 30.4501 17.5253 30.4501 19.4057Z" fill="#1E9CEA"/>
</g>
<g opacity="0.5">
<path d="M32.5337 36.3832H19.917C19.0125 36.3832 18.2578 35.6856 18.0808 34.7649C18.4831 36.0478 25.6924 35.2794 29.2639 35.2794C31.136 35.2794 32.5662 34.6353 31.8941 31.0292C31.3169 27.9324 26.9666 25.7086 26.9666 25.7086C31.2616 26.1038 34.2032 29.9143 34.4075 34.2437C34.4625 35.4089 33.6027 36.3832 32.5337 36.3832Z" fill="#21A8FC"/>
</g>
<g opacity="0.5">
<path d="M24.2597 15.9989C23.5388 16.4978 23.0065 17.2635 22.7584 18.1552C22.6379 18.5879 22.5162 19.0383 22.577 19.4856C22.6377 19.933 22.9375 20.3761 23.3498 20.4198C23.666 20.4534 23.9607 20.2541 24.2153 20.0467C24.8847 19.5016 25.4752 18.8412 25.9584 18.0975C26.195 17.7333 26.4101 17.3376 26.4808 16.8977C26.6204 16.0286 26.0623 15.2937 25.2309 15.4287C24.934 15.4769 24.6911 15.6987 24.4448 15.8704C24.3832 15.9133 24.3215 15.9561 24.2597 15.9989Z" fill="#65BBF0"/>
</g>
<path d="M21.944 28.3094C21.0355 28.7768 20.3116 29.5858 19.9025 30.5873C19.704 31.0733 19.5015 31.5795 19.5126 32.1116C19.5237 32.6436 19.8144 33.2087 20.2899 33.3256C20.6545 33.4152 21.0253 33.2295 21.3503 33.0281C22.2048 32.4984 22.9826 31.8217 23.6462 31.0306C23.9712 30.6431 24.2754 30.2155 24.4167 29.7132C24.6961 28.7207 24.1428 27.7737 23.1541 27.7987C22.801 27.8076 22.4878 28.0278 22.1773 28.1889C22.0996 28.2292 22.0218 28.2693 21.944 28.3094Z" fill="#65BBF0"/>
<path d="M44.1927 13.4224C44.1927 16.9746 41.5557 19.854 38.3023 19.854C36.1168 19.854 34.2095 18.5547 33.1927 16.6254C32.6958 15.6824 32.4115 14.5884 32.4115 13.4224C32.4115 9.87067 35.0489 6.99121 38.3023 6.99121C39.154 6.99121 39.9632 7.18852 40.6941 7.54398C42.7553 8.54511 44.1927 10.8006 44.1927 13.4224Z" fill="#1D86C7"/>
<path d="M47.0979 37.0941H29.5064C28.2453 37.0941 27.193 36.1214 26.9462 34.8377C26.9009 34.6043 26.8823 34.3606 26.8943 34.111C27.1951 27.733 31.7567 22.1632 38.3024 22.1632C38.6527 22.1632 38.9973 22.1789 39.3357 22.2105C45.3243 22.7615 49.4258 28.0745 49.7105 34.111C49.7873 35.7357 48.5885 37.0941 47.0979 37.0941Z" fill="#1D86C7"/>
<path d="M43.2848 12.4311C43.2848 15.9833 40.6479 18.8628 37.3945 18.8628C35.209 18.8628 33.3016 17.5634 32.2848 15.6341C31.788 14.6911 31.5037 13.5971 31.5037 12.4311C31.5037 8.87939 34.141 5.99988 37.3945 5.99988C38.2462 5.99988 39.0554 6.19723 39.7863 6.5527H39.7867C41.8479 7.55384 43.2848 9.80931 43.2848 12.4311Z" fill="#21A8FC"/>
<path d="M46.19 36.1029H28.5985C27.3374 36.1029 26.2851 35.1301 26.0383 33.8465C25.9929 33.6131 25.9744 33.3694 25.9863 33.1198C26.2871 26.7418 30.8487 21.172 37.3945 21.172C37.7448 21.172 38.0894 21.1877 38.4278 21.2193C44.4163 21.7703 48.5178 27.0833 48.8025 33.1198C48.8793 34.7445 47.6805 36.1029 46.19 36.1029Z" fill="#21A8FC"/>
<path d="M43.2848 12.4313C43.2848 15.9834 40.6478 18.8629 37.3944 18.8629C35.2089 18.8629 33.3016 17.5636 32.2848 15.6343V15.6338C32.2848 15.6338 37.2439 18.2446 39.9999 14.6045C42.9201 10.7475 39.7862 6.55286 39.7862 6.55286H39.7867C41.8479 7.55398 43.2848 9.80946 43.2848 12.4313Z" fill="#21A8FC"/>
<path d="M46.19 36.1028H28.5985C27.3374 36.1028 26.2851 35.1301 26.0383 33.8464C26.5991 35.6352 36.6513 34.5637 41.6308 34.5637C44.2411 34.5637 46.2354 33.6657 45.2982 28.6376C44.4934 24.3198 38.4278 21.2192 38.4278 21.2192C44.4163 21.7702 48.5178 27.0832 48.8025 33.1197C48.8793 34.7444 47.6805 36.1028 46.19 36.1028Z" fill="#21A8FC"/>
<path d="M34.6536 7.68108C33.6484 8.37672 32.9063 9.4443 32.5603 10.6876C32.3924 11.291 32.2226 11.9189 32.3073 12.5426C32.392 13.1664 32.81 13.7842 33.3849 13.8452C33.8258 13.892 34.2367 13.6141 34.5917 13.3249C35.525 12.5649 36.3484 11.6442 37.022 10.6073C37.352 10.0994 37.6519 9.54766 37.7504 8.93437C37.9451 7.72243 37.1669 6.6978 36.0077 6.88607C35.5937 6.95335 35.255 7.26258 34.9117 7.50187C34.8258 7.56176 34.7398 7.62151 34.6536 7.68108Z" fill="#65BBF0"/>
<path d="M31.4201 24.0983C29.9603 24.8494 28.797 26.1493 28.1397 27.7586C27.8207 28.5395 27.4953 29.3531 27.5132 30.2079C27.5309 31.0628 27.9981 31.9709 28.7621 32.1587C29.3481 32.3027 29.9438 32.0043 30.4661 31.6806C31.8391 30.8296 33.089 29.7422 34.1553 28.471C34.6776 27.8483 35.1663 27.1611 35.3935 26.354C35.8423 24.7592 34.9534 23.2375 33.3646 23.2776C32.7972 23.292 32.2939 23.6458 31.7949 23.9047C31.6701 23.9694 31.5452 24.034 31.4201 24.0983Z" fill="#65BBF0"/>
<defs>
<filter id="filter0_dd_618_26031" x="0.170449" y="39.436" width="68.6314" height="21.104" filterUnits="userSpaceOnUse" color-interpolation-filters="sRGB">
<feFlood flood-opacity="0" result="BackgroundImageFix"/>
<feColorMatrix in="SourceAlpha" type="matrix" values="0 0 0 0 0 0 0 0 0 0 0 0 0 0 0 0 0 0 127 0" result="hardAlpha"/>
<feOffset dy="1"/>
<feComposite in2="hardAlpha" operator="out"/>
<feColorMatrix type="matrix" values="0 0 0 0 0 0 0 0 0 0 0 0 0 0 0 0 0 0 1 0"/>
<feBlend mode="normal" in2="BackgroundImageFix" result="effect1_dropShadow_618_26031"/>
<feColorMatrix in="SourceAlpha" type="matrix" values="0 0 0 0 0 0 0 0 0 0 0 0 0 0 0 0 0 0 127 0" result="hardAlpha"/>
<feOffset dy="0.5"/>
<feGaussianBlur stdDeviation="1.27"/>
<feComposite in2="hardAlpha" operator="out"/>
<feColorMatrix type="matrix" values="0 0 0 0 0 0 0 0 0 0 0 0 0 0 0 0 0 0 0.8 0"/>
<feBlend mode="normal" in2="effect1_dropShadow_618_26031" result="effect2_dropShadow_618_26031"/>
<feBlend mode="normal" in="SourceGraphic" in2="effect2_dropShadow_618_26031" result="shape"/>
</filter>
</defs>
</svg>
