<svg width="84" height="68" viewBox="0 0 84 68" fill="none" xmlns="http://www.w3.org/2000/svg">
<path d="M75.01 30.5817C75.01 36.1007 70.9601 40.5746 65.9634 40.5746C62.6068 40.5746 59.6774 38.5556 58.1158 35.5581C57.3527 34.093 56.916 32.3933 56.916 30.5817C56.916 25.0634 60.9665 20.5895 65.9633 20.5895C67.2714 20.5895 68.5143 20.8961 69.6367 21.4484H69.6374C72.8032 23.004 75.01 26.5082 75.01 30.5817Z" fill="#1D86C7"/>
<path d="M79.4725 67.36H52.4548C50.5179 67.36 48.9018 65.8487 48.5228 63.8544C48.4531 63.4917 48.4246 63.113 48.4429 62.7252C48.9049 52.8157 55.9109 44.162 65.964 44.162C66.5021 44.162 67.0313 44.1865 67.551 44.2354C76.7484 45.0916 83.0477 53.3463 83.485 62.7252C83.6029 65.2494 81.7617 67.36 79.4725 67.36Z" fill="#1D86C7"/>
<path d="M73.6164 29.0414C73.6164 34.5604 69.5665 39.0343 64.5697 39.0343C61.2132 39.0343 58.2838 37.0154 56.7222 34.0179C55.9591 32.5527 55.5225 30.8531 55.5225 29.0414C55.5225 23.5231 59.573 19.0493 64.5697 19.0493C65.8779 19.0493 67.1207 19.3559 68.2432 19.9083H68.2438C71.4096 21.4637 73.6164 24.968 73.6164 29.0414Z" fill="#21A8FC"/>
<path d="M78.078 65.82H51.0603C49.1235 65.82 47.5073 64.3087 47.1282 62.3142C47.0585 61.9517 47.0301 61.5729 47.0484 61.1852C47.5104 51.2756 54.5163 42.6218 64.5694 42.6218C65.1076 42.6218 65.6367 42.6463 66.1565 42.6954C75.354 43.5516 81.6532 51.8062 82.0905 61.1852C82.2084 63.7094 80.3672 65.82 78.078 65.82Z" fill="#20A5F7"/>
<g opacity="0.5">
<path d="M73.6159 29.0406C73.6159 34.5596 69.5659 39.0335 64.5692 39.0335C61.2127 39.0335 58.2833 37.0146 56.7217 34.0171V34.0164C56.7217 34.0164 64.338 38.0727 68.5708 32.4172C73.0558 26.4246 68.2427 19.9075 68.2427 19.9075H68.2433C71.409 21.4629 73.6159 24.9672 73.6159 29.0406Z" fill="#21A8FC"/>
</g>
<g opacity="0.5">
<path d="M60.3598 21.6608C58.8159 22.7416 57.6761 24.4003 57.1448 26.332C56.8869 27.2695 56.6261 28.2451 56.7563 29.2142C56.8865 30.1834 57.5283 31.1432 58.4113 31.238C59.0884 31.3107 59.7194 30.8789 60.2648 30.4296C61.6981 29.2487 62.9628 27.8182 63.9973 26.2072C64.504 25.4181 64.9647 24.5609 65.116 23.608C65.415 21.7251 64.2198 20.1331 62.4395 20.4256C61.8036 20.5301 61.2836 21.0106 60.7562 21.3825C60.6242 21.4754 60.4921 21.5682 60.3598 21.6608Z" fill="#65BBF0"/>
</g>
<path d="M27.9675 30.5817C27.9675 36.1007 23.9176 40.5746 18.9209 40.5746C15.5643 40.5746 12.6349 38.5556 11.0733 35.5581C10.3102 34.093 9.87354 32.3933 9.87354 30.5817C9.87354 25.0634 13.9241 20.5895 18.9209 20.5895C20.2289 20.5895 21.4717 20.8961 22.5943 21.4484H22.5949C25.7607 23.004 27.9675 26.5082 27.9675 30.5817Z" fill="#1D86C7"/>
<path d="M32.43 67.36H5.41234C3.47557 67.36 1.85933 65.8487 1.48031 63.8544C1.41058 63.4917 1.38209 63.113 1.40046 62.7252C1.86247 52.8157 8.86838 44.162 18.9216 44.162C19.4596 44.162 19.9888 44.1865 20.5085 44.2354C29.7061 45.0916 36.0052 53.3463 36.4425 62.7252C36.5604 65.2494 34.7192 67.36 32.43 67.36Z" fill="#1C80BE"/>
<path d="M26.573 29.0414C26.573 34.5604 22.523 39.0343 17.5262 39.0343C14.1697 39.0343 11.2404 37.0154 9.67877 34.0179C8.9157 32.5527 8.479 30.8531 8.479 29.0414C8.479 23.5231 12.5295 19.0493 17.5262 19.0493C18.8344 19.0493 20.0772 19.3559 21.1997 19.9083H21.2003C24.3661 21.4637 26.573 24.968 26.573 29.0414Z" fill="#1E9CEA"/>
<path d="M31.035 65.82H4.01732C2.08046 65.82 0.464313 64.3087 0.0852884 62.3142C0.0155583 61.9517 -0.0129252 61.5729 0.00544475 61.1852C0.467454 51.2756 7.47336 42.6218 17.5265 42.6218C18.0646 42.6218 18.5937 42.6463 19.1135 42.6954C28.311 43.5516 34.6102 51.8062 35.0475 61.1852C35.1654 63.7094 33.3242 65.82 31.035 65.82Z" fill="#1E9CEA"/>
<g opacity="0.5">
<path d="M26.5734 29.0406C26.5734 34.5596 22.5235 39.0335 17.5267 39.0335C14.1702 39.0335 11.2408 37.0146 9.6792 34.0171V34.0164C9.6792 34.0164 17.2956 38.0727 21.5283 32.4172C26.0133 26.4246 21.2002 19.9075 21.2002 19.9075H21.2008C24.3666 21.4629 26.5734 24.9672 26.5734 29.0406Z" fill="#1E9CEA"/>
</g>
<g opacity="0.5">
<path d="M31.0357 65.8195H4.01797C2.08111 65.8195 0.464962 64.3082 0.0859375 62.3137C0.947318 65.0929 16.3856 63.4282 24.0336 63.4282C28.0426 63.4282 31.1053 62.0329 29.6661 54.2209C28.43 47.5123 19.1141 42.6949 19.1141 42.6949C28.3116 43.5511 34.6108 51.8057 35.0482 61.1847C35.166 63.7089 33.3249 65.8195 31.0357 65.8195Z" fill="#21A8FC"/>
</g>
<g opacity="0.5">
<path d="M13.3174 21.6608C11.7735 22.7416 10.6337 24.4003 10.1023 26.332C9.84443 27.2695 9.58362 28.2451 9.7138 29.2142C9.84391 30.1834 10.4858 31.1432 11.3688 31.238C12.0459 31.3107 12.677 30.8789 13.2223 30.4296C14.6557 29.2487 15.9202 27.8182 16.9548 26.2072C17.4615 25.4181 17.9222 24.5609 18.0736 23.608C18.3725 21.7251 17.1774 20.1331 15.3971 20.4256C14.7612 20.5301 14.2411 21.0106 13.7137 21.3825C13.5817 21.4754 13.4496 21.5682 13.3174 21.6608Z" fill="#65BBF0"/>
</g>
<path d="M8.35798 48.3296C6.41242 49.3421 4.8622 51.0948 3.98623 53.2643C3.5611 54.3171 3.12755 55.4138 3.15133 56.5665C3.17499 57.7189 3.79744 58.9431 4.81581 59.1963C5.59659 59.3904 6.39054 58.9882 7.08659 58.5518C8.91631 57.4045 10.5819 55.9385 12.003 54.2247C12.6991 53.3853 13.3504 52.4589 13.653 51.3708C14.2513 49.2207 13.0665 47.1691 10.9493 47.2233C10.1931 47.2427 9.52235 47.7196 8.85748 48.0686C8.69114 48.1559 8.52456 48.2429 8.35798 48.3296Z" fill="#65BBF0"/>
<path d="M56.0023 16.0794C56.0023 23.7745 50.3556 30.0124 43.3886 30.0124C38.7086 30.0124 34.6241 27.1976 32.4468 23.0181C31.3828 20.9753 30.7739 18.6054 30.7739 16.0794C30.7739 8.38527 36.4216 2.14746 43.3886 2.14746C45.2125 2.14746 46.9454 2.57489 48.5104 3.34494C52.9244 5.5137 56.0023 10.3998 56.0023 16.0794Z" fill="#1D86C7"/>
<path d="M62.2241 67.3592H24.5535C21.8529 67.3592 19.5995 65.2519 19.071 62.4712C18.9738 61.9655 18.9341 61.4375 18.9598 60.8968C19.6039 47.08 29.3722 35.0142 43.3892 35.0142C44.1395 35.0142 44.8773 35.0483 45.6019 35.1167C58.4261 36.3103 67.2091 47.8198 67.8188 60.8969C67.9832 64.4164 65.416 67.3592 62.2241 67.3592Z" fill="#1D86C7"/>
<path d="M54.058 13.9321C54.058 21.6272 48.4112 27.865 41.4443 27.865C36.7642 27.865 32.6798 25.0502 30.5024 20.8708C29.4385 18.828 28.8296 16.458 28.8296 13.9321C28.8296 6.23794 34.4773 0 41.4443 0C43.2682 0 45.001 0.427529 46.5661 1.19758H46.567C50.981 3.36636 54.058 8.25244 54.058 13.9321Z" fill="#21A8FC"/>
<path d="M60.2789 65.2132H22.6081C19.9077 65.2132 17.6542 63.1059 17.1258 60.3251C17.0285 59.8195 16.9888 59.2915 17.0144 58.7508C17.6586 44.934 27.4269 32.8682 41.444 32.8682C42.1943 32.8682 42.9321 32.9023 43.6567 32.9707C56.4807 34.1643 65.2637 45.6738 65.8735 58.7509C66.0379 62.2704 63.4707 65.2132 60.2789 65.2132Z" fill="#21A8FC"/>
<path d="M54.057 13.932C54.057 21.6271 48.4103 27.865 41.4434 27.865C36.7633 27.865 32.6788 25.0501 30.5015 20.8707V20.8697C30.5015 20.8697 41.121 26.5254 47.0228 18.64C53.2761 10.2845 46.5652 1.19751 46.5652 1.19751H46.5661C50.98 3.36627 54.057 8.25234 54.057 13.932Z" fill="#21A8FC"/>
<path d="M60.2796 65.2123H22.6088C19.9084 65.2123 17.6549 63.105 17.1265 60.3242C18.3274 64.1992 39.8532 61.878 50.5165 61.878C56.1062 61.878 60.3768 59.9326 58.37 49.0402C56.6466 39.6865 43.6574 32.9697 43.6574 32.9697C56.4814 34.1634 65.2644 45.6729 65.8742 58.7499C66.0386 62.2695 63.4714 65.2123 60.2796 65.2123Z" fill="#21A8FC"/>
<path d="M35.5742 3.64229C33.4216 5.14925 31.8323 7.46196 31.0914 10.1553C30.7319 11.4625 30.3683 12.8227 30.5497 14.1739C30.7311 15.5253 31.6262 16.8636 32.8573 16.9957C33.8014 17.097 34.6813 16.495 35.4416 15.8687C37.4402 14.2222 39.2033 12.2276 40.6458 9.98132C41.3524 8.88115 41.9948 7.68588 42.2056 6.35729C42.6225 3.73186 40.9562 1.51218 38.4737 1.92003C37.5872 2.06579 36.862 2.73567 36.1268 3.25405C35.9428 3.38378 35.7586 3.51323 35.5742 3.64229Z" fill="#65BBF0"/>
<path d="M28.6507 39.2065C25.5246 40.8337 23.0335 43.6498 21.6259 47.1359C20.9428 48.8278 20.2461 50.5901 20.2842 52.442C20.3223 54.294 21.3226 56.2611 22.9587 56.6679C24.2135 56.9799 25.4893 56.3336 26.6077 55.6323C29.548 53.7887 32.2244 51.4331 34.5078 48.6793C35.6262 47.3303 36.6727 45.8416 37.1592 44.0932C38.1205 40.6384 36.2169 37.3418 32.8147 37.4288C31.5996 37.4599 30.5217 38.2264 29.4533 38.7871C29.1861 38.9275 28.9185 39.0672 28.6507 39.2065Z" fill="#65BBF0"/>
</svg>
