<svg width="48" height="24" viewBox="0 0 48 24" fill="none" xmlns="http://www.w3.org/2000/svg">
<g filter="url(#filter0_dd_212_6109)">
<mask id="path-1-outside-1_212_6109" maskUnits="userSpaceOnUse" x="2.81372" y="2.26074" width="43" height="18" fill="black">
<rect fill="white" x="2.81372" y="2.26074" width="43" height="18"/>
<path d="M13.3477 14.0207V16.2607H9.31572C8.51572 16.2607 7.77972 16.1701 7.10772 15.9887C6.44639 15.8074 5.87039 15.5301 5.37972 15.1567C4.89972 14.7834 4.52105 14.3141 4.24372 13.7487C3.97705 13.1834 3.84372 12.5221 3.84372 11.7647C3.84372 11.1141 3.96639 10.5167 4.21172 9.97274C4.45705 9.41808 4.81439 8.94341 5.28372 8.54874C5.75305 8.14341 6.32372 7.82874 6.99572 7.60474C7.67839 7.37008 8.45172 7.25274 9.31572 7.25274H9.63572V6.45274H11.8757V14.0207H13.3477ZM9.63572 14.0207V9.49274H8.77172C8.44105 9.49274 8.11572 9.54608 7.79572 9.65274C7.47572 9.74874 7.18772 9.89274 6.93172 10.0847C6.67572 10.2767 6.46772 10.5167 6.30772 10.8047C6.15839 11.0821 6.08372 11.4021 6.08372 11.7647C6.08372 12.1381 6.15305 12.4634 6.29172 12.7407C6.44105 13.0181 6.63305 13.2527 6.86772 13.4447C7.11305 13.6367 7.39039 13.7807 7.69972 13.8767C8.00905 13.9727 8.32905 14.0207 8.65972 14.0207H9.63572ZM11.4117 4.98074C11.1664 5.17274 10.8731 5.26874 10.5317 5.26874C10.1904 5.26874 9.89705 5.17274 9.65172 4.98074C9.40639 4.77807 9.28372 4.49007 9.28372 4.11674C9.28372 3.77541 9.40105 3.50341 9.63572 3.30074C9.88105 3.08741 10.1797 2.98074 10.5317 2.98074C10.8944 2.98074 11.1931 3.08741 11.4277 3.30074C11.6624 3.50341 11.7797 3.77541 11.7797 4.11674C11.7797 4.49007 11.6571 4.77807 11.4117 4.98074ZM7.93972 4.98074C7.69439 5.17274 7.40105 5.26874 7.05972 5.26874C6.71839 5.26874 6.42505 5.17274 6.17972 4.98074C5.93439 4.77807 5.81172 4.49007 5.81172 4.11674C5.81172 3.77541 5.92905 3.50341 6.16372 3.30074C6.40905 3.08741 6.70772 2.98074 7.05972 2.98074C7.41172 2.98074 7.70505 3.08741 7.93972 3.30074C8.18505 3.50341 8.30772 3.77541 8.30772 4.11674C8.30772 4.49007 8.18505 4.77807 7.93972 4.98074ZM12.8818 14.0207H14.8658V7.25274H17.1058V14.0207H18.8178V16.2607H12.8818V14.0207ZM16.8978 19.3647C16.6418 19.5674 16.3378 19.6687 15.9858 19.6687C15.6338 19.6687 15.3245 19.5674 15.0578 19.3647C14.8018 19.1621 14.6738 18.8634 14.6738 18.4687C14.6738 18.1167 14.7965 17.8287 15.0418 17.6047C15.2978 17.3914 15.6125 17.2847 15.9858 17.2847C16.3592 17.2847 16.6685 17.3914 16.9138 17.6047C17.1698 17.8287 17.2978 18.1167 17.2978 18.4687C17.2978 18.8634 17.1645 19.1621 16.8978 19.3647ZM18.3468 14.0207H21.0508L19.0668 8.93274C19.4508 8.60208 19.8348 8.29808 20.2188 8.02074C20.6135 7.74341 21.0082 7.50341 21.4028 7.30074C21.8082 7.09807 22.2242 6.94341 22.6508 6.83674C23.0775 6.71941 23.5202 6.66074 23.9788 6.66074C24.9068 6.66074 25.7762 6.87408 26.5868 7.30074C27.3975 7.72741 28.1708 8.27674 28.9068 8.94874L26.9868 14.0207H29.9308V16.2607H18.3468V14.0207ZM23.9788 9.02874C23.5308 9.02874 23.1202 9.09808 22.7468 9.23674C22.3735 9.37541 21.9842 9.59408 21.5788 9.89274L23.0348 14.0207H24.9548L26.4108 9.87674C25.9628 9.56741 25.5575 9.34874 25.1948 9.22074C24.8428 9.09274 24.4375 9.02874 23.9788 9.02874ZM29.4525 14.0207H31.0205V3.28474H33.2605V14.0207H35.3085V16.2607H29.4525V14.0207ZM34.8237 14.0207H36.3917V3.28474H39.6717V5.52474H38.6317V16.2607H34.8237V14.0207ZM42.2281 3.28474H44.4681V16.2607H42.2281V3.28474Z"/>
</mask>
<path d="M13.3477 14.0207V16.2607H9.31572C8.51572 16.2607 7.77972 16.1701 7.10772 15.9887C6.44639 15.8074 5.87039 15.5301 5.37972 15.1567C4.89972 14.7834 4.52105 14.3141 4.24372 13.7487C3.97705 13.1834 3.84372 12.5221 3.84372 11.7647C3.84372 11.1141 3.96639 10.5167 4.21172 9.97274C4.45705 9.41808 4.81439 8.94341 5.28372 8.54874C5.75305 8.14341 6.32372 7.82874 6.99572 7.60474C7.67839 7.37008 8.45172 7.25274 9.31572 7.25274H9.63572V6.45274H11.8757V14.0207H13.3477ZM9.63572 14.0207V9.49274H8.77172C8.44105 9.49274 8.11572 9.54608 7.79572 9.65274C7.47572 9.74874 7.18772 9.89274 6.93172 10.0847C6.67572 10.2767 6.46772 10.5167 6.30772 10.8047C6.15839 11.0821 6.08372 11.4021 6.08372 11.7647C6.08372 12.1381 6.15305 12.4634 6.29172 12.7407C6.44105 13.0181 6.63305 13.2527 6.86772 13.4447C7.11305 13.6367 7.39039 13.7807 7.69972 13.8767C8.00905 13.9727 8.32905 14.0207 8.65972 14.0207H9.63572ZM11.4117 4.98074C11.1664 5.17274 10.8731 5.26874 10.5317 5.26874C10.1904 5.26874 9.89705 5.17274 9.65172 4.98074C9.40639 4.77807 9.28372 4.49007 9.28372 4.11674C9.28372 3.77541 9.40105 3.50341 9.63572 3.30074C9.88105 3.08741 10.1797 2.98074 10.5317 2.98074C10.8944 2.98074 11.1931 3.08741 11.4277 3.30074C11.6624 3.50341 11.7797 3.77541 11.7797 4.11674C11.7797 4.49007 11.6571 4.77807 11.4117 4.98074ZM7.93972 4.98074C7.69439 5.17274 7.40105 5.26874 7.05972 5.26874C6.71839 5.26874 6.42505 5.17274 6.17972 4.98074C5.93439 4.77807 5.81172 4.49007 5.81172 4.11674C5.81172 3.77541 5.92905 3.50341 6.16372 3.30074C6.40905 3.08741 6.70772 2.98074 7.05972 2.98074C7.41172 2.98074 7.70505 3.08741 7.93972 3.30074C8.18505 3.50341 8.30772 3.77541 8.30772 4.11674C8.30772 4.49007 8.18505 4.77807 7.93972 4.98074ZM12.8818 14.0207H14.8658V7.25274H17.1058V14.0207H18.8178V16.2607H12.8818V14.0207ZM16.8978 19.3647C16.6418 19.5674 16.3378 19.6687 15.9858 19.6687C15.6338 19.6687 15.3245 19.5674 15.0578 19.3647C14.8018 19.1621 14.6738 18.8634 14.6738 18.4687C14.6738 18.1167 14.7965 17.8287 15.0418 17.6047C15.2978 17.3914 15.6125 17.2847 15.9858 17.2847C16.3592 17.2847 16.6685 17.3914 16.9138 17.6047C17.1698 17.8287 17.2978 18.1167 17.2978 18.4687C17.2978 18.8634 17.1645 19.1621 16.8978 19.3647ZM18.3468 14.0207H21.0508L19.0668 8.93274C19.4508 8.60208 19.8348 8.29808 20.2188 8.02074C20.6135 7.74341 21.0082 7.50341 21.4028 7.30074C21.8082 7.09807 22.2242 6.94341 22.6508 6.83674C23.0775 6.71941 23.5202 6.66074 23.9788 6.66074C24.9068 6.66074 25.7762 6.87408 26.5868 7.30074C27.3975 7.72741 28.1708 8.27674 28.9068 8.94874L26.9868 14.0207H29.9308V16.2607H18.3468V14.0207ZM23.9788 9.02874C23.5308 9.02874 23.1202 9.09808 22.7468 9.23674C22.3735 9.37541 21.9842 9.59408 21.5788 9.89274L23.0348 14.0207H24.9548L26.4108 9.87674C25.9628 9.56741 25.5575 9.34874 25.1948 9.22074C24.8428 9.09274 24.4375 9.02874 23.9788 9.02874ZM29.4525 14.0207H31.0205V3.28474H33.2605V14.0207H35.3085V16.2607H29.4525V14.0207ZM34.8237 14.0207H36.3917V3.28474H39.6717V5.52474H38.6317V16.2607H34.8237V14.0207ZM42.2281 3.28474H44.4681V16.2607H42.2281V3.28474Z" fill="white" shape-rendering="crispEdges"/>
<path d="M13.3477 14.0207H13.8477V13.5207H13.3477V14.0207ZM13.3477 16.2607V16.7607H13.8477V16.2607H13.3477ZM7.10772 15.9887L6.9755 16.4709L6.97746 16.4715L7.10772 15.9887ZM5.37972 15.1567L5.07273 15.5514L5.07696 15.5547L5.37972 15.1567ZM4.24372 13.7487L3.79145 13.9621L3.79483 13.969L4.24372 13.7487ZM4.21172 9.97274L4.66753 10.1783L4.66899 10.175L4.21172 9.97274ZM5.28372 8.54874L5.60555 8.93146L5.61053 8.92715L5.28372 8.54874ZM6.99572 7.60474L7.15384 8.0791L7.15826 8.07759L6.99572 7.60474ZM9.63572 7.25274V7.75274H10.1357V7.25274H9.63572ZM9.63572 6.45274V5.95274H9.13572V6.45274H9.63572ZM11.8757 6.45274H12.3757V5.95274H11.8757V6.45274ZM11.8757 14.0207H11.3757V14.5207H11.8757V14.0207ZM9.63572 14.0207V14.5207H10.1357V14.0207H9.63572ZM9.63572 9.49274H10.1357V8.99274H9.63572V9.49274ZM7.79572 9.65274L7.93939 10.1317L7.94665 10.1295L7.95383 10.1271L7.79572 9.65274ZM6.93172 10.0847L7.23172 10.4847L6.93172 10.0847ZM6.30772 10.8047L5.8706 10.5619L5.86748 10.5677L6.30772 10.8047ZM6.29172 12.7407L5.84451 12.9643L5.84789 12.9711L5.85149 12.9778L6.29172 12.7407ZM6.86772 13.4447L6.55103 13.8318L6.55957 13.8385L6.86772 13.4447ZM7.69972 13.8767L7.55152 14.3543L7.69972 13.8767ZM11.4117 4.98074L11.72 5.37463L11.7302 5.36622L11.4117 4.98074ZM9.65172 4.98074L9.33317 5.36636L9.34357 5.37449L9.65172 4.98074ZM9.63572 3.30074L9.96253 3.67915L9.96381 3.67804L9.63572 3.30074ZM11.4277 3.30074L11.0913 3.67083L11.1009 3.67915L11.4277 3.30074ZM7.93972 4.98074L8.24798 5.37463L8.25816 5.36622L7.93972 4.98074ZM6.17972 4.98074L5.86117 5.36636L5.87157 5.37449L6.17972 4.98074ZM6.16372 3.30074L6.49053 3.67915L6.49181 3.67804L6.16372 3.30074ZM7.93972 3.30074L7.60338 3.67071L7.61215 3.67868L7.62128 3.68622L7.93972 3.30074ZM12.8477 14.0207V16.2607H13.8477V14.0207H12.8477ZM13.3477 15.7607H9.31572V16.7607H13.3477V15.7607ZM9.31572 15.7607C8.5533 15.7607 7.86174 15.6743 7.23798 15.506L6.97746 16.4715C7.6977 16.6658 8.47814 16.7607 9.31572 16.7607V15.7607ZM7.23994 15.5065C6.6334 15.3402 6.1168 15.0893 5.68248 14.7588L5.07696 15.5547C5.62397 15.9709 6.25937 16.2746 6.9755 16.4709L7.23994 15.5065ZM5.68669 14.7621C5.26879 14.437 4.93773 14.0282 4.69262 13.5285L3.79483 13.969C4.10438 14.6 4.53065 15.1298 5.07275 15.5514L5.68669 14.7621ZM4.69594 13.5354C4.46668 13.0494 4.34372 12.4637 4.34372 11.7647H3.34372C3.34372 12.5805 3.48743 13.3174 3.7915 13.9621L4.69594 13.5354ZM4.34372 11.7647C4.34372 11.1785 4.45387 10.652 4.66751 10.1783L3.75593 9.76719C3.47891 10.3815 3.34372 11.0497 3.34372 11.7647H4.34372ZM4.66899 10.175C4.88315 9.6908 5.19383 9.27762 5.60552 8.93142L4.96192 8.16606C4.43494 8.6092 4.03096 9.14535 3.75445 9.77049L4.66899 10.175ZM5.61053 8.92715C6.02391 8.57015 6.53504 8.28535 7.15383 8.07908L6.83761 7.1304C6.1124 7.37214 5.4822 7.71667 4.95691 8.17033L5.61053 8.92715ZM7.15826 8.07759C7.77948 7.86404 8.49646 7.75274 9.31572 7.75274V6.75274C8.40698 6.75274 7.57729 6.87611 6.83318 7.1319L7.15826 8.07759ZM9.31572 7.75274H9.63572V6.75274H9.31572V7.75274ZM10.1357 7.25274V6.45274H9.13572V7.25274H10.1357ZM9.63572 6.95274H11.8757V5.95274H9.63572V6.95274ZM11.3757 6.45274V14.0207H12.3757V6.45274H11.3757ZM11.8757 14.5207H13.3477V13.5207H11.8757V14.5207ZM10.1357 14.0207V9.49274H9.13572V14.0207H10.1357ZM9.63572 8.99274H8.77172V9.99274H9.63572V8.99274ZM8.77172 8.99274C8.38623 8.99274 8.00755 9.05509 7.63761 9.1784L7.95383 10.1271C8.22389 10.0371 8.49588 9.99274 8.77172 9.99274V8.99274ZM7.65205 9.17383C7.27821 9.28598 6.93683 9.45591 6.63172 9.68474L7.23172 10.4847C7.43861 10.3296 7.67323 10.2115 7.93939 10.1317L7.65205 9.17383ZM6.63172 9.68474C6.31781 9.92018 6.06374 10.2143 5.87064 10.5619L6.7448 11.0476C6.8717 10.8191 7.03364 10.6333 7.23172 10.4847L6.63172 9.68474ZM5.86748 10.5677C5.67334 10.9282 5.58372 11.332 5.58372 11.7647H6.58372C6.58372 11.4722 6.64343 11.2359 6.74796 11.0418L5.86748 10.5677ZM5.58372 11.7647C5.58372 12.2 5.66474 12.6048 5.84451 12.9643L6.73893 12.5171C6.64136 12.322 6.58372 12.0761 6.58372 11.7647H5.58372ZM5.85149 12.9778C6.03059 13.3104 6.26385 13.5967 6.5511 13.8317L7.18434 13.0578C7.00225 12.9088 6.85151 12.7257 6.73196 12.5037L5.85149 12.9778ZM6.55957 13.8385C6.85458 14.0694 7.18656 14.241 7.55152 14.3543L7.84792 13.3992C7.59421 13.3205 7.37153 13.2041 7.17587 13.051L6.55957 13.8385ZM7.55152 14.3543C7.90985 14.4655 8.27987 14.5207 8.65972 14.5207V13.5207C8.37824 13.5207 8.10826 13.48 7.84792 13.3992L7.55152 14.3543ZM8.65972 14.5207H9.63572V13.5207H8.65972V14.5207ZM11.1036 4.58699C10.9547 4.70346 10.7727 4.76874 10.5317 4.76874V5.76874C10.9734 5.76874 11.378 5.64202 11.7199 5.37449L11.1036 4.58699ZM10.5317 4.76874C10.2907 4.76874 10.1087 4.70346 9.95987 4.58699L9.34357 5.37449C9.68541 5.64202 10.09 5.76874 10.5317 5.76874V4.76874ZM9.97016 4.59526C9.86027 4.50448 9.78372 4.36968 9.78372 4.11674H8.78372C8.78372 4.61047 8.9525 5.05167 9.33328 5.36622L9.97016 4.59526ZM9.78372 4.11674C9.78372 3.90423 9.84973 3.77657 9.96253 3.67915L9.30891 2.92233C8.95238 3.23025 8.78372 3.64659 8.78372 4.11674H9.78372ZM9.96381 3.67804C10.1103 3.55063 10.2895 3.48074 10.5317 3.48074V2.48074C10.0699 2.48074 9.65177 2.62419 9.30763 2.92344L9.96381 3.67804ZM10.5317 3.48074C10.7891 3.48074 10.962 3.55307 11.0914 3.67071L11.7641 2.93077C11.4241 2.62174 10.9997 2.48074 10.5317 2.48074V3.48074ZM11.1009 3.67915C11.2137 3.77657 11.2797 3.90423 11.2797 4.11674H12.2797C12.2797 3.64659 12.1111 3.23025 11.7545 2.92233L11.1009 3.67915ZM11.2797 4.11674C11.2797 4.36968 11.2032 4.50448 11.0933 4.59526L11.7302 5.36622C12.1109 5.05167 12.2797 4.61047 12.2797 4.11674H11.2797ZM7.63157 4.58699C7.48274 4.70346 7.3007 4.76874 7.05972 4.76874V5.76874C7.50141 5.76874 7.90604 5.64202 8.24787 5.37449L7.63157 4.58699ZM7.05972 4.76874C6.81874 4.76874 6.6367 4.70346 6.48787 4.58699L5.87157 5.37449C6.21341 5.64202 6.61803 5.76874 7.05972 5.76874V4.76874ZM6.49816 4.59526C6.38827 4.50448 6.31172 4.36968 6.31172 4.11674H5.31172C5.31172 4.61047 5.4805 5.05167 5.86128 5.36622L6.49816 4.59526ZM6.31172 4.11674C6.31172 3.90423 6.37773 3.77657 6.49053 3.67915L5.83691 2.92233C5.48038 3.23025 5.31172 3.64659 5.31172 4.11674H6.31172ZM6.49181 3.67804C6.63834 3.55063 6.81752 3.48074 7.05972 3.48074V2.48074C6.59792 2.48074 6.17977 2.62419 5.83563 2.92344L6.49181 3.67804ZM7.05972 3.48074C7.3021 3.48074 7.47113 3.55048 7.60338 3.67071L8.27606 2.93077C7.93898 2.62434 7.52134 2.48074 7.05972 2.48074V3.48074ZM7.62128 3.68622C7.74242 3.78629 7.80772 3.91217 7.80772 4.11674H8.80772C8.80772 3.63864 8.62769 3.22052 8.25816 2.91526L7.62128 3.68622ZM7.80772 4.11674C7.80772 4.36968 7.73117 4.50448 7.62128 4.59526L8.25816 5.36622C8.63894 5.05167 8.80772 4.61047 8.80772 4.11674H7.80772ZM12.8818 14.0207V13.5207H12.3818V14.0207H12.8818ZM14.8658 14.0207V14.5207H15.3658V14.0207H14.8658ZM14.8658 7.25274V6.75274H14.3658V7.25274H14.8658ZM17.1058 7.25274H17.6058V6.75274H17.1058V7.25274ZM17.1058 14.0207H16.6058V14.5207H17.1058V14.0207ZM18.8178 14.0207H19.3178V13.5207H18.8178V14.0207ZM18.8178 16.2607V16.7607H19.3178V16.2607H18.8178ZM12.8818 16.2607H12.3818V16.7607H12.8818V16.2607ZM16.8978 19.3647L16.5952 18.9666L16.5875 18.9727L16.8978 19.3647ZM15.0578 19.3647L14.7474 19.7568L14.7553 19.7628L15.0578 19.3647ZM15.0418 17.6047L14.7218 17.2206L14.7131 17.2279L14.7047 17.2355L15.0418 17.6047ZM16.9138 17.6047L17.2431 17.2285L17.2419 17.2274L16.9138 17.6047ZM12.8818 14.5207H14.8658V13.5207H12.8818V14.5207ZM15.3658 14.0207V7.25274H14.3658V14.0207H15.3658ZM14.8658 7.75274H17.1058V6.75274H14.8658V7.75274ZM16.6058 7.25274V14.0207H17.6058V7.25274H16.6058ZM17.1058 14.5207H18.8178V13.5207H17.1058V14.5207ZM18.3178 14.0207V16.2607H19.3178V14.0207H18.3178ZM18.8178 15.7607H12.8818V16.7607H18.8178V15.7607ZM13.3818 16.2607V14.0207H12.3818V16.2607H13.3818ZM16.5875 18.9727C16.4269 19.0998 16.2346 19.1687 15.9858 19.1687V20.1687C16.4411 20.1687 16.8568 20.035 17.2082 19.7568L16.5875 18.9727ZM15.9858 19.1687C15.7372 19.1687 15.5354 19.0997 15.3604 18.9667L14.7553 19.7628C15.1136 20.0351 15.5305 20.1687 15.9858 20.1687V19.1687ZM15.3682 18.9727C15.2573 18.8849 15.1738 18.746 15.1738 18.4687H14.1738C14.1738 18.9808 14.3464 19.4393 14.7475 19.7568L15.3682 18.9727ZM15.1738 18.4687C15.1738 18.2478 15.2442 18.0971 15.379 17.974L14.7047 17.2355C14.3489 17.5604 14.1738 17.9857 14.1738 18.4687H15.1738ZM15.3619 17.9889C15.5172 17.8595 15.7145 17.7847 15.9858 17.7847V16.7847C15.5105 16.7847 15.0785 16.9234 14.7218 17.2206L15.3619 17.9889ZM15.9858 17.7847C16.2576 17.7847 16.4448 17.8595 16.5858 17.982L17.2419 17.2274C16.8922 16.9233 16.4608 16.7847 15.9858 16.7847V17.7847ZM16.5846 17.981C16.7278 18.1064 16.7978 18.2552 16.7978 18.4687H17.7978C17.7978 17.9783 17.6118 17.5511 17.2431 17.2285L16.5846 17.981ZM16.7978 18.4687C16.7978 18.7386 16.7145 18.8761 16.5953 18.9667L17.2004 19.7628C17.6145 19.4481 17.7978 18.9882 17.7978 18.4687H16.7978ZM18.3468 14.0207V13.5207H17.8468V14.0207H18.3468ZM21.0508 14.0207V14.5207H21.7825L21.5167 13.8391L21.0508 14.0207ZM19.0668 8.93274L18.7406 8.55386L18.4725 8.78474L18.601 9.11439L19.0668 8.93274ZM20.2188 8.02074L19.9313 7.61161L19.9261 7.6154L20.2188 8.02074ZM21.4028 7.30074L21.1792 6.8535L21.1744 6.85596L21.4028 7.30074ZM22.6508 6.83674L22.7721 7.32195L22.7834 7.31884L22.6508 6.83674ZM26.5868 7.30074L26.354 7.7432L26.5868 7.30074ZM28.9068 8.94874L29.3745 9.12576L29.4946 8.80834L29.244 8.5795L28.9068 8.94874ZM26.9868 14.0207L26.5192 13.8437L26.2629 14.5207H26.9868V14.0207ZM29.9308 14.0207H30.4308V13.5207H29.9308V14.0207ZM29.9308 16.2607V16.7607H30.4308V16.2607H29.9308ZM18.3468 16.2607H17.8468V16.7607H18.3468V16.2607ZM22.7468 9.23674L22.9209 9.70545L22.7468 9.23674ZM21.5788 9.89274L21.2822 9.49021L20.9842 9.70986L21.1073 10.0591L21.5788 9.89274ZM23.0348 14.0207L22.5633 14.1871L22.681 14.5207H23.0348V14.0207ZM24.9548 14.0207V14.5207H25.3091L25.4266 14.1865L24.9548 14.0207ZM26.4108 9.87674L26.8826 10.0425L27.0091 9.68225L26.6949 9.46529L26.4108 9.87674ZM25.1948 9.22074L25.024 9.69066L25.0284 9.69224L25.1948 9.22074ZM18.3468 14.5207H21.0508V13.5207H18.3468V14.5207ZM21.5167 13.8391L19.5327 8.75109L18.601 9.11439L20.585 14.2024L21.5167 13.8391ZM19.3931 9.31163C19.7671 8.98961 20.1399 8.69452 20.5116 8.42608L19.9261 7.6154C19.5298 7.90163 19.1346 8.21454 18.7406 8.55386L19.3931 9.31163ZM20.5063 8.42984C20.8838 8.16461 21.2588 7.93681 21.6312 7.74553L21.1744 6.85596C20.7576 7.07001 20.3433 7.3222 19.9314 7.61165L20.5063 8.42984ZM21.6265 7.74796C22.0002 7.56111 22.3819 7.41937 22.7721 7.32181L22.5296 6.35167C22.0665 6.46745 21.6162 6.63504 21.1792 6.85353L21.6265 7.74796ZM22.7834 7.31884C23.1653 7.21382 23.5633 7.16074 23.9788 7.16074V6.16074C23.477 6.16074 22.9897 6.225 22.5183 6.35464L22.7834 7.31884ZM23.9788 7.16074C24.8268 7.16074 25.6161 7.35484 26.354 7.7432L26.8197 6.85828C25.9363 6.39332 24.9869 6.16074 23.9788 6.16074V7.16074ZM26.354 7.7432C27.1238 8.14835 27.8625 8.67223 28.5697 9.31798L29.244 8.5795C28.4792 7.88125 27.6713 7.30647 26.8197 6.85828L26.354 7.7432ZM28.4392 8.77173L26.5192 13.8437L27.4545 14.1978L29.3745 9.12576L28.4392 8.77173ZM26.9868 14.5207H29.9308V13.5207H26.9868V14.5207ZM29.4308 14.0207V16.2607H30.4308V14.0207H29.4308ZM29.9308 15.7607H18.3468V16.7607H29.9308V15.7607ZM18.8468 16.2607V14.0207H17.8468V16.2607H18.8468ZM23.9788 8.52874C23.4788 8.52874 23.0083 8.60625 22.5728 8.76803L22.9209 9.70545C23.2321 9.5899 23.5829 9.52874 23.9788 9.52874V8.52874ZM22.5728 8.76803C22.1459 8.92656 21.7157 9.17081 21.2822 9.49021L21.8754 10.2953C22.2526 10.0173 22.6011 9.82426 22.9209 9.70545L22.5728 8.76803ZM21.1073 10.0591L22.5633 14.1871L23.5064 13.8544L22.0504 9.72643L21.1073 10.0591ZM23.0348 14.5207H24.9548V13.5207H23.0348V14.5207ZM25.4266 14.1865L26.8826 10.0425L25.9391 9.711L24.4831 13.855L25.4266 14.1865ZM26.6949 9.46529C26.2243 9.14034 25.7789 8.89666 25.3613 8.74925L25.0284 9.69224C25.3361 9.80083 25.7014 9.99448 26.1268 10.2882L26.6949 9.46529ZM25.3657 8.75084C24.9482 8.59902 24.4831 8.52874 23.9788 8.52874V9.52874C24.3919 9.52874 24.7375 9.58646 25.024 9.69064L25.3657 8.75084ZM29.4525 14.0207V13.5207H28.9525V14.0207H29.4525ZM31.0205 14.0207V14.5207H31.5205V14.0207H31.0205ZM31.0205 3.28474V2.78474H30.5205V3.28474H31.0205ZM33.2605 3.28474H33.7605V2.78474H33.2605V3.28474ZM33.2605 14.0207H32.7605V14.5207H33.2605V14.0207ZM35.3085 14.0207H35.8085V13.5207H35.3085V14.0207ZM35.3085 16.2607V16.7607H35.8085V16.2607H35.3085ZM29.4525 16.2607H28.9525V16.7607H29.4525V16.2607ZM29.4525 14.5207H31.0205V13.5207H29.4525V14.5207ZM31.5205 14.0207V3.28474H30.5205V14.0207H31.5205ZM31.0205 3.78474H33.2605V2.78474H31.0205V3.78474ZM32.7605 3.28474V14.0207H33.7605V3.28474H32.7605ZM33.2605 14.5207H35.3085V13.5207H33.2605V14.5207ZM34.8085 14.0207V16.2607H35.8085V14.0207H34.8085ZM35.3085 15.7607H29.4525V16.7607H35.3085V15.7607ZM29.9525 16.2607V14.0207H28.9525V16.2607H29.9525ZM34.8237 14.0207V13.5207H34.3237V14.0207H34.8237ZM36.3917 14.0207V14.5207H36.8917V14.0207H36.3917ZM36.3917 3.28474V2.78474H35.8917V3.28474H36.3917ZM39.6717 3.28474H40.1717V2.78474H39.6717V3.28474ZM39.6717 5.52474V6.02474H40.1717V5.52474H39.6717ZM38.6317 5.52474V5.02474H38.1317V5.52474H38.6317ZM38.6317 16.2607V16.7607H39.1317V16.2607H38.6317ZM34.8237 16.2607H34.3237V16.7607H34.8237V16.2607ZM34.8237 14.5207H36.3917V13.5207H34.8237V14.5207ZM36.8917 14.0207V3.28474H35.8917V14.0207H36.8917ZM36.3917 3.78474H39.6717V2.78474H36.3917V3.78474ZM39.1717 3.28474V5.52474H40.1717V3.28474H39.1717ZM39.6717 5.02474H38.6317V6.02474H39.6717V5.02474ZM38.1317 5.52474V16.2607H39.1317V5.52474H38.1317ZM38.6317 15.7607H34.8237V16.7607H38.6317V15.7607ZM35.3237 16.2607V14.0207H34.3237V16.2607H35.3237ZM42.2281 3.28474V2.78474H41.7281V3.28474H42.2281ZM44.4681 3.28474H44.9681V2.78474H44.4681V3.28474ZM44.4681 16.2607V16.7607H44.9681V16.2607H44.4681ZM42.2281 16.2607H41.7281V16.7607H42.2281V16.2607ZM42.2281 3.78474H44.4681V2.78474H42.2281V3.78474ZM43.9681 3.28474V16.2607H44.9681V3.28474H43.9681ZM44.4681 15.7607H42.2281V16.7607H44.4681V15.7607ZM42.7281 16.2607V3.28474H41.7281V16.2607H42.7281Z" fill="#3E3E3E" fill-opacity="0.14" mask="url(#path-1-outside-1_212_6109)"/>
</g>
<defs>
<filter id="filter0_dd_212_6109" x="0.80375" y="0.440713" width="46.7044" height="22.768" filterUnits="userSpaceOnUse" color-interpolation-filters="sRGB">
<feFlood flood-opacity="0" result="BackgroundImageFix"/>
<feColorMatrix in="SourceAlpha" type="matrix" values="0 0 0 0 0 0 0 0 0 0 0 0 0 0 0 0 0 0 127 0" result="hardAlpha"/>
<feOffset dy="1"/>
<feComposite in2="hardAlpha" operator="out"/>
<feColorMatrix type="matrix" values="0 0 0 0 0 0 0 0 0 0 0 0 0 0 0 0 0 0 1 0"/>
<feBlend mode="normal" in2="BackgroundImageFix" result="effect1_dropShadow_212_6109"/>
<feColorMatrix in="SourceAlpha" type="matrix" values="0 0 0 0 0 0 0 0 0 0 0 0 0 0 0 0 0 0 127 0" result="hardAlpha"/>
<feOffset dy="0.5"/>
<feGaussianBlur stdDeviation="1.27"/>
<feComposite in2="hardAlpha" operator="out"/>
<feColorMatrix type="matrix" values="0 0 0 0 0 0 0 0 0 0 0 0 0 0 0 0 0 0 0.8 0"/>
<feBlend mode="normal" in2="effect1_dropShadow_212_6109" result="effect2_dropShadow_212_6109"/>
<feBlend mode="normal" in="SourceGraphic" in2="effect2_dropShadow_212_6109" result="shape"/>
</filter>
</defs>
</svg>
