<svg width="62" height="77" viewBox="0 0 62 77" fill="none" xmlns="http://www.w3.org/2000/svg">
<g filter="url(#filter0_d_618_26217)">
<path d="M30.9828 23.7821V44.2631H6.28182C4.81037 44.263 3.61816 43.0708 3.61816 41.5995V26.4456C3.61816 24.9743 4.81037 23.782 6.28182 23.782L30.9828 23.7821Z" fill="#BBEC6C"/>
<path d="M58.2326 26.446V41.5998C58.2326 43.0711 57.0404 44.2634 55.5689 44.2634H30.9844V23.7825H55.5689C57.0404 23.7825 58.2326 24.9746 58.2326 26.446Z" fill="#FE76A8"/>
<path d="M55.5683 23.7817H52.2627C53.734 23.7817 54.9264 24.974 54.9264 26.4453V41.5992C54.9264 43.0705 53.734 44.2628 52.2627 44.2628H55.5683C57.0396 44.2628 58.2319 43.0705 58.2319 41.5992V26.4452C58.2319 24.9739 57.0397 23.7817 55.5683 23.7817Z" fill="#FE5694"/>
<path d="M43.3868 22.6152C43.3868 15.7796 37.8825 10.2295 31.0642 10.1554C24.35 10.0823 18.7038 15.4644 18.4724 22.1749C18.3581 25.4913 19.5408 28.5296 21.5522 30.8234C23.9791 33.591 25.4176 37.0851 25.4176 40.7659V40.8025L30.3407 43.1934L36.434 40.8025V40.7643C36.434 37.168 37.7132 33.6627 40.1366 31.0054C42.1554 28.7917 43.3868 25.8477 43.3868 22.6152Z" fill="#FEE97D"/>
<path d="M31.0636 10.155C30.4607 10.1485 29.8667 10.1866 29.2842 10.265C35.3791 11.0787 40.0805 16.2975 40.0805 22.6149C40.0805 25.8473 38.8491 28.7913 36.8302 31.0051C34.4069 33.6624 33.1277 37.1678 33.1277 40.764V40.8022L34.3323 41.6266L36.4332 40.8022V40.764C36.4332 37.1678 37.7125 33.6624 40.1358 31.0051C42.1547 28.7913 43.386 25.8473 43.386 22.6149C43.3861 15.7793 37.8818 10.2291 31.0636 10.155Z" fill="#FEE45A"/>
<path d="M29.5143 41.6267C29.1344 41.6267 28.7927 41.3624 28.7094 40.9759L26.9083 32.6129C26.8125 32.168 27.0955 31.7296 27.5405 31.6338C27.986 31.5383 28.4239 31.821 28.5197 32.266L30.3208 40.6289C30.4166 41.0738 30.1336 41.5123 29.6886 41.608C29.6302 41.6206 29.5718 41.6267 29.5143 41.6267Z" fill="#FFF9E2"/>
<path d="M32.9131 40.3564C32.8556 40.3564 32.7972 40.3503 32.7387 40.3377C32.2938 40.2419 32.0107 39.8034 32.1065 39.3586L33.9077 30.9956C34.0035 30.5507 34.4423 30.2678 34.8869 30.3634C35.3318 30.4592 35.6149 30.8977 35.5191 31.3426L33.7179 39.7055C33.6347 40.092 33.2931 40.3564 32.9131 40.3564Z" fill="#FFF9E2"/>
<path d="M36.4343 43.4315L35.7882 44.4512L36.4343 45.0798V45.2764C36.4343 45.8501 36.3464 46.4027 36.1848 46.9214L34.4266 47.5664L35.3409 48.5697C34.3365 49.9146 32.7322 50.7848 30.9256 50.7848C30.3499 50.7848 29.7949 50.697 29.273 50.5322C28.1577 50.1817 27.195 49.4861 26.5104 48.5697L27.0632 47.7456L25.6665 46.9215C25.505 46.4029 25.417 45.8502 25.417 45.2765V45.0799L26.3818 44.1426L25.417 43.4317V40.8022L33.1282 40.8028L36.4343 43.4315Z" fill="#7CA1B1"/>
<path d="M36.4348 43.4317L35.7887 44.4514L36.4348 45.08V45.2767C36.4348 45.8503 36.3469 46.4029 36.1853 46.9216L34.4271 47.5666L35.3413 48.5699C34.337 49.9148 32.7327 50.7851 30.9261 50.7851C30.3503 50.7851 29.7954 50.6972 29.2734 50.5324C31.5074 49.8302 33.1293 47.7425 33.1293 45.2767V40.8022H36.4347V43.4317H36.4348Z" fill="#678D98"/>
<path d="M30.2278 27.0961H24.4095C24.0237 27.0961 23.7109 26.7834 23.7109 26.3976V18.506C23.7109 18.1202 24.0237 17.8075 24.4095 17.8075H28.7418C29.9483 17.8075 30.9264 18.7856 30.9264 19.9921L31.9312 23.7836L30.9263 26.3976C30.9263 26.7834 30.6136 27.0961 30.2278 27.0961Z" fill="#FFF5C6"/>
<path d="M37.4426 27.0961H31.6243C31.2385 27.0961 30.9258 26.7834 30.9258 26.3976V19.9921C30.9258 18.7856 31.9039 17.8075 33.1104 17.8075H37.4427C37.8285 17.8075 38.1413 18.1202 38.1413 18.506V26.3976C38.1412 26.7834 37.8283 27.0961 37.4426 27.0961Z" fill="#FFF9E2"/>
<path d="M37.4426 27.0961H31.6243C31.2385 27.0961 30.9258 26.7834 30.9258 26.3976V19.9921C30.9258 18.7856 31.9039 17.8075 33.1104 17.8075H37.4427C37.8285 17.8075 38.1413 18.1202 38.1413 18.506V26.3976C38.1412 26.7834 37.8283 27.0961 37.4426 27.0961Z" fill="#FFF9E2"/>
<path d="M37.4426 27.0961H31.6243C31.2385 27.0961 30.9258 26.7834 30.9258 26.3976V19.9921C30.9258 18.7856 31.9039 17.8075 33.1104 17.8075H37.4427C37.8285 17.8075 38.1413 18.1202 38.1413 18.506V26.3976C38.1412 26.7834 37.8283 27.0961 37.4426 27.0961Z" fill="#FFF9E2"/>
<path d="M11.0584 38.0815C10.7699 38.0184 10.5097 37.8623 10.3009 37.6534L7.94228 35.2949C7.36297 34.7155 7.36297 33.7763 7.94238 33.197C8.52168 32.6175 9.46088 32.6175 10.0404 33.197L11.1603 34.317C11.2806 34.4373 11.4756 34.4373 11.5959 34.317L15.0728 30.8401C15.6376 30.2753 16.5577 30.2233 17.1484 30.7608C17.7792 31.3348 17.7965 32.312 17.2003 32.9083L12.4269 37.6816C12.0739 38.0347 11.5611 38.1913 11.0584 38.0815Z" fill="#7CA1B1"/>
<path d="M50.8718 34.5372C50.711 34.3765 50.711 34.1158 50.8718 33.9549L52.3148 32.5119C52.8943 31.9326 52.8943 30.9934 52.3148 30.414C51.7356 29.8346 50.7963 29.8346 50.2169 30.414L48.7738 31.8572C48.613 32.0179 48.3523 32.0179 48.1915 31.8572L46.7779 30.4437C46.2131 29.8789 45.293 29.827 44.7022 30.3647C44.0715 30.9387 44.0542 31.916 44.6504 32.512L46.0935 33.955C46.2542 34.1158 46.2542 34.3765 46.0935 34.5373L44.6504 35.9804C44.071 36.5596 44.071 37.4988 44.6504 38.0782C44.94 38.3679 45.3197 38.5126 45.6993 38.5126C46.0788 38.5126 46.4587 38.3678 46.7483 38.0782L48.1915 36.6351C48.3522 36.4743 48.6129 36.4743 48.7738 36.6351L50.2169 38.0782C50.5065 38.3678 50.8863 38.5126 51.2659 38.5126C51.6455 38.5126 52.0252 38.3678 52.3148 38.0782C52.8943 37.4988 52.8943 36.5596 52.3148 35.9804L50.8718 34.5372Z" fill="#EEF5F6"/>
<path d="M11.1658 16.9029C11.0553 16.9029 10.9429 16.8806 10.8351 16.8332L8.77063 15.9278C8.35388 15.7451 8.16412 15.2589 8.34695 14.8421C8.52967 14.4254 9.01596 14.2355 9.4327 14.4184L11.4972 15.3239C11.914 15.5066 12.1037 15.9927 11.9209 16.4096C11.7854 16.7186 11.483 16.9029 11.1658 16.9029Z" fill="#FFF5C6"/>
<path d="M15.0528 10.9572C14.8532 10.9572 14.6532 10.8852 14.4948 10.7394L12.8363 9.21265C12.5015 8.9045 12.4798 8.38302 12.7881 8.04831C13.0964 7.71339 13.6178 7.69195 13.9527 8.0001L15.6112 9.52688C15.946 9.83503 15.9677 10.3565 15.6594 10.6912C15.497 10.8677 15.2752 10.9572 15.0528 10.9572Z" fill="#FFF9E2"/>
<path d="M20.6558 6.59394C20.363 6.59394 20.0794 6.43757 19.9303 6.16195L18.8573 4.1793C18.6407 3.77899 18.7896 3.27885 19.1899 3.06232C19.5902 2.84558 20.0904 2.99449 20.3069 3.3949L21.3798 5.37755C21.5965 5.77786 21.4476 6.278 21.0473 6.49453C20.9227 6.56194 20.7883 6.59394 20.6558 6.59394Z" fill="#FFF5C6"/>
<path d="M27.376 4.28913C26.9804 4.28913 26.6313 4.00359 26.5641 3.60051L26.193 1.37701C26.118 0.928067 26.4213 0.503442 26.8702 0.428564C27.3187 0.352833 27.7438 0.656823 27.8187 1.10577L28.1898 3.32927C28.2648 3.77821 27.9615 4.20284 27.5126 4.27772C27.4667 4.2855 27.421 4.28913 27.376 4.28913Z" fill="#FFF9E2"/>
<path d="M34.4785 4.2872C34.4334 4.2872 34.3879 4.28357 34.3419 4.27579C33.8929 4.20091 33.5898 3.77628 33.6647 3.32734L34.0358 1.10384C34.1107 0.654896 34.535 0.3508 34.9842 0.426638C35.4332 0.501515 35.7363 0.926141 35.6615 1.37509L35.2904 3.59858C35.2232 4.00166 34.8741 4.2872 34.4785 4.2872Z" fill="#FFF5C6"/>
<path d="M41.1966 6.59466C41.0642 6.59466 40.9298 6.56266 40.8051 6.49514C40.4047 6.27861 40.2559 5.77847 40.4726 5.37816L41.5455 3.39551C41.762 2.9951 42.2621 2.8462 42.6625 3.06293C43.0629 3.27946 43.2117 3.7796 42.9951 4.17991L41.9221 6.16256C41.7729 6.43829 41.4894 6.59466 41.1966 6.59466Z" fill="#FFF9E2"/>
<path d="M46.8009 10.9578C46.5785 10.9578 46.3568 10.8683 46.1944 10.6918C45.8861 10.357 45.9076 9.8356 46.2426 9.52745L47.9011 8.00067C48.2358 7.69231 48.7573 7.71396 49.0656 8.04889C49.3739 8.3837 49.3523 8.90507 49.0174 9.21322L47.3588 10.74C47.2004 10.8858 47.0003 10.9578 46.8009 10.9578Z" fill="#FFF5C6"/>
<path d="M50.686 16.9037C50.3688 16.9037 50.0664 16.7196 49.9309 16.4104C49.7481 15.9936 49.9378 15.5074 50.3546 15.3247L52.419 14.4192C52.836 14.2367 53.3221 14.426 53.5048 14.8429C53.6876 15.2597 53.498 15.7459 53.0811 15.9286L51.0167 16.8341C50.9089 16.8812 50.7965 16.9037 50.686 16.9037Z" fill="#FFF9E2"/>
<path d="M33.1297 43.4315L33.5814 44.2647L33.1297 45.0798H25.418V43.4315H33.1297Z" fill="#678D98"/>
<path d="M32.8807 46.9221L33.1302 47.7462L32.0369 48.5703H26.5119C26.1438 48.078 25.8559 47.522 25.668 46.922L32.8807 46.9221Z" fill="#678D98"/>
<path d="M32.8791 46.9198H36.1845C35.9965 47.5198 35.7086 48.0758 35.3405 48.5681H32.0352C32.4033 48.0757 32.6911 47.5198 32.8791 46.9198Z" fill="#598691"/>
<path d="M33.1299 43.4307H36.4352V45.0789H33.1299V43.4307Z" fill="#598691"/>
</g>
<g filter="url(#filter1_dd_618_26217)">
<mask id="path-28-outside-1_618_26217" maskUnits="userSpaceOnUse" x="11" y="56" width="43" height="18" fill="black">
<rect fill="white" x="11" y="56" width="43" height="18"/>
<path d="M21.534 67.76V70H17.502C16.702 70 15.966 69.9093 15.294 69.728C14.6327 69.5467 14.0567 69.2693 13.566 68.896C13.086 68.5227 12.7073 68.0533 12.43 67.488C12.1633 66.9227 12.03 66.2613 12.03 65.504C12.03 64.8533 12.1527 64.256 12.398 63.712C12.6433 63.1573 13.0007 62.6827 13.47 62.288C13.9393 61.8827 14.51 61.568 15.182 61.344C15.8647 61.1093 16.638 60.992 17.502 60.992H17.822V60.192H20.062V67.76H21.534ZM17.822 67.76V63.232H16.958C16.6273 63.232 16.302 63.2853 15.982 63.392C15.662 63.488 15.374 63.632 15.118 63.824C14.862 64.016 14.654 64.256 14.494 64.544C14.3447 64.8213 14.27 65.1413 14.27 65.504C14.27 65.8773 14.3393 66.2027 14.478 66.48C14.6273 66.7573 14.8193 66.992 15.054 67.184C15.2993 67.376 15.5767 67.52 15.886 67.616C16.1953 67.712 16.5153 67.76 16.846 67.76H17.822ZM19.598 58.72C19.3527 58.912 19.0593 59.008 18.718 59.008C18.3767 59.008 18.0833 58.912 17.838 58.72C17.5927 58.5173 17.47 58.2293 17.47 57.856C17.47 57.5147 17.5873 57.2427 17.822 57.04C18.0673 56.8267 18.366 56.72 18.718 56.72C19.0807 56.72 19.3793 56.8267 19.614 57.04C19.8487 57.2427 19.966 57.5147 19.966 57.856C19.966 58.2293 19.8433 58.5173 19.598 58.72ZM16.126 58.72C15.8807 58.912 15.5873 59.008 15.246 59.008C14.9047 59.008 14.6113 58.912 14.366 58.72C14.1207 58.5173 13.998 58.2293 13.998 57.856C13.998 57.5147 14.1153 57.2427 14.35 57.04C14.5953 56.8267 14.894 56.72 15.246 56.72C15.598 56.72 15.8913 56.8267 16.126 57.04C16.3713 57.2427 16.494 57.5147 16.494 57.856C16.494 58.2293 16.3713 58.5173 16.126 58.72ZM21.0681 67.76H23.0521V60.992H25.2921V67.76H27.0041V70H21.0681V67.76ZM25.0841 73.104C24.8281 73.3067 24.5241 73.408 24.1721 73.408C23.8201 73.408 23.5108 73.3067 23.2441 73.104C22.9881 72.9013 22.8601 72.6027 22.8601 72.208C22.8601 71.856 22.9828 71.568 23.2281 71.344C23.4841 71.1307 23.7988 71.024 24.1721 71.024C24.5455 71.024 24.8548 71.1307 25.1001 71.344C25.3561 71.568 25.4841 71.856 25.4841 72.208C25.4841 72.6027 25.3508 72.9013 25.0841 73.104ZM26.5331 67.76H29.2371L27.2531 62.672C27.6371 62.3413 28.0211 62.0373 28.4051 61.76C28.7998 61.4827 29.1945 61.2427 29.5891 61.04C29.9945 60.8373 30.4105 60.6827 30.8371 60.576C31.2638 60.4587 31.7065 60.4 32.1651 60.4C33.0931 60.4 33.9625 60.6133 34.7731 61.04C35.5838 61.4667 36.3571 62.016 37.0931 62.688L35.1731 67.76H38.1171V70H26.5331V67.76ZM32.1651 62.768C31.7171 62.768 31.3065 62.8373 30.9331 62.976C30.5598 63.1147 30.1705 63.3333 29.7651 63.632L31.2211 67.76H33.1411L34.5971 63.616C34.1491 63.3067 33.7438 63.088 33.3811 62.96C33.0291 62.832 32.6238 62.768 32.1651 62.768ZM37.6388 67.76H39.2068V57.024H41.4468V67.76H43.4948V70H37.6388V67.76ZM43.01 67.76H44.578V57.024H47.858V59.264H46.818V70H43.01V67.76ZM50.4144 57.024H52.6544V70H50.4144V57.024Z"/>
</mask>
<path d="M21.534 67.76V70H17.502C16.702 70 15.966 69.9093 15.294 69.728C14.6327 69.5467 14.0567 69.2693 13.566 68.896C13.086 68.5227 12.7073 68.0533 12.43 67.488C12.1633 66.9227 12.03 66.2613 12.03 65.504C12.03 64.8533 12.1527 64.256 12.398 63.712C12.6433 63.1573 13.0007 62.6827 13.47 62.288C13.9393 61.8827 14.51 61.568 15.182 61.344C15.8647 61.1093 16.638 60.992 17.502 60.992H17.822V60.192H20.062V67.76H21.534ZM17.822 67.76V63.232H16.958C16.6273 63.232 16.302 63.2853 15.982 63.392C15.662 63.488 15.374 63.632 15.118 63.824C14.862 64.016 14.654 64.256 14.494 64.544C14.3447 64.8213 14.27 65.1413 14.27 65.504C14.27 65.8773 14.3393 66.2027 14.478 66.48C14.6273 66.7573 14.8193 66.992 15.054 67.184C15.2993 67.376 15.5767 67.52 15.886 67.616C16.1953 67.712 16.5153 67.76 16.846 67.76H17.822ZM19.598 58.72C19.3527 58.912 19.0593 59.008 18.718 59.008C18.3767 59.008 18.0833 58.912 17.838 58.72C17.5927 58.5173 17.47 58.2293 17.47 57.856C17.47 57.5147 17.5873 57.2427 17.822 57.04C18.0673 56.8267 18.366 56.72 18.718 56.72C19.0807 56.72 19.3793 56.8267 19.614 57.04C19.8487 57.2427 19.966 57.5147 19.966 57.856C19.966 58.2293 19.8433 58.5173 19.598 58.72ZM16.126 58.72C15.8807 58.912 15.5873 59.008 15.246 59.008C14.9047 59.008 14.6113 58.912 14.366 58.72C14.1207 58.5173 13.998 58.2293 13.998 57.856C13.998 57.5147 14.1153 57.2427 14.35 57.04C14.5953 56.8267 14.894 56.72 15.246 56.72C15.598 56.72 15.8913 56.8267 16.126 57.04C16.3713 57.2427 16.494 57.5147 16.494 57.856C16.494 58.2293 16.3713 58.5173 16.126 58.72ZM21.0681 67.76H23.0521V60.992H25.2921V67.76H27.0041V70H21.0681V67.76ZM25.0841 73.104C24.8281 73.3067 24.5241 73.408 24.1721 73.408C23.8201 73.408 23.5108 73.3067 23.2441 73.104C22.9881 72.9013 22.8601 72.6027 22.8601 72.208C22.8601 71.856 22.9828 71.568 23.2281 71.344C23.4841 71.1307 23.7988 71.024 24.1721 71.024C24.5455 71.024 24.8548 71.1307 25.1001 71.344C25.3561 71.568 25.4841 71.856 25.4841 72.208C25.4841 72.6027 25.3508 72.9013 25.0841 73.104ZM26.5331 67.76H29.2371L27.2531 62.672C27.6371 62.3413 28.0211 62.0373 28.4051 61.76C28.7998 61.4827 29.1945 61.2427 29.5891 61.04C29.9945 60.8373 30.4105 60.6827 30.8371 60.576C31.2638 60.4587 31.7065 60.4 32.1651 60.4C33.0931 60.4 33.9625 60.6133 34.7731 61.04C35.5838 61.4667 36.3571 62.016 37.0931 62.688L35.1731 67.76H38.1171V70H26.5331V67.76ZM32.1651 62.768C31.7171 62.768 31.3065 62.8373 30.9331 62.976C30.5598 63.1147 30.1705 63.3333 29.7651 63.632L31.2211 67.76H33.1411L34.5971 63.616C34.1491 63.3067 33.7438 63.088 33.3811 62.96C33.0291 62.832 32.6238 62.768 32.1651 62.768ZM37.6388 67.76H39.2068V57.024H41.4468V67.76H43.4948V70H37.6388V67.76ZM43.01 67.76H44.578V57.024H47.858V59.264H46.818V70H43.01V67.76ZM50.4144 57.024H52.6544V70H50.4144V57.024Z" fill="white" shape-rendering="crispEdges"/>
<path d="M21.534 67.76H22.034V67.26H21.534V67.76ZM21.534 70V70.5H22.034V70H21.534ZM15.294 69.728L15.1618 70.2102L15.1637 70.2107L15.294 69.728ZM13.566 68.896L13.259 69.2907L13.2632 69.2939L13.566 68.896ZM12.43 67.488L11.9777 67.7013L11.9811 67.7082L12.43 67.488ZM12.398 63.712L12.8538 63.9176L12.8553 63.9143L12.398 63.712ZM13.47 62.288L13.7918 62.6707L13.7968 62.6664L13.47 62.288ZM15.182 61.344L15.3401 61.8184L15.3445 61.8168L15.182 61.344ZM17.822 60.992V61.492H18.322V60.992H17.822ZM17.822 60.192V59.692H17.322V60.192H17.822ZM20.062 60.192H20.562V59.692H20.062V60.192ZM20.062 67.76H19.562V68.26H20.062V67.76ZM17.822 67.76V68.26H18.322V67.76H17.822ZM17.822 63.232H18.322V62.732H17.822V63.232ZM15.982 63.392L16.1257 63.8709L16.1329 63.8687L16.1401 63.8663L15.982 63.392ZM15.118 63.824L15.418 64.224L15.118 63.824ZM14.494 64.544L14.0569 64.3012L14.0538 64.3069L14.494 64.544ZM14.478 66.48L14.0308 66.7036L14.0342 66.7104L14.0378 66.717L14.478 66.48ZM15.054 67.184L14.7373 67.5711L14.7458 67.5778L15.054 67.184ZM15.886 67.616L15.7378 68.0935L15.886 67.616ZM19.598 58.72L19.9063 59.1139L19.9164 59.1055L19.598 58.72ZM17.838 58.72L17.5194 59.1056L17.5298 59.1138L17.838 58.72ZM17.822 57.04L18.1488 57.4184L18.1501 57.4173L17.822 57.04ZM19.614 57.04L19.2776 57.4101L19.2872 57.4184L19.614 57.04ZM16.126 58.72L16.4343 59.1139L16.4444 59.1055L16.126 58.72ZM14.366 58.72L14.0474 59.1056L14.0578 59.1138L14.366 58.72ZM14.35 57.04L14.6768 57.4184L14.6781 57.4173L14.35 57.04ZM16.126 57.04L15.7897 57.41L15.7984 57.4179L15.8076 57.4255L16.126 57.04ZM21.034 67.76V70H22.034V67.76H21.034ZM21.534 69.5H17.502V70.5H21.534V69.5ZM17.502 69.5C16.7396 69.5 16.048 69.4136 15.4243 69.2453L15.1637 70.2107C15.884 70.4051 16.6644 70.5 17.502 70.5V69.5ZM15.4262 69.2458C14.8197 69.0795 14.3031 68.8285 13.8688 68.4981L13.2632 69.2939C13.8103 69.7101 14.4457 70.0138 15.1618 70.2102L15.4262 69.2458ZM13.873 68.5013C13.4551 68.1763 13.124 67.7674 12.8789 67.2678L11.9811 67.7082C12.2907 68.3392 12.7169 68.869 13.259 69.2907L13.873 68.5013ZM12.8822 67.2747C12.653 66.7887 12.53 66.2029 12.53 65.504H11.53C11.53 66.3198 11.6737 67.0567 11.9778 67.7013L12.8822 67.2747ZM12.53 65.504C12.53 64.9177 12.6401 64.3913 12.8538 63.9176L11.9422 63.5064C11.6652 64.1207 11.53 64.7889 11.53 65.504H12.53ZM12.8553 63.9143C13.0694 63.4301 13.3801 63.0169 13.7918 62.6707L13.1482 61.9053C12.6212 62.3485 12.2172 62.8846 11.9407 63.5097L12.8553 63.9143ZM13.7968 62.6664C14.2102 62.3094 14.7213 62.0246 15.3401 61.8183L15.0239 60.8697C14.2987 61.1114 13.6685 61.4559 13.1432 61.9096L13.7968 62.6664ZM15.3445 61.8168C15.9658 61.6033 16.6827 61.492 17.502 61.492V60.492C16.5933 60.492 15.7636 60.6154 15.0195 60.8712L15.3445 61.8168ZM17.502 61.492H17.822V60.492H17.502V61.492ZM18.322 60.992V60.192H17.322V60.992H18.322ZM17.822 60.692H20.062V59.692H17.822V60.692ZM19.562 60.192V67.76H20.562V60.192H19.562ZM20.062 68.26H21.534V67.26H20.062V68.26ZM18.322 67.76V63.232H17.322V67.76H18.322ZM17.822 62.732H16.958V63.732H17.822V62.732ZM16.958 62.732C16.5725 62.732 16.1938 62.7943 15.8239 62.9177L16.1401 63.8663C16.4102 63.7763 16.6822 63.732 16.958 63.732V62.732ZM15.8383 62.9131C15.4645 63.0252 15.1231 63.1952 14.818 63.424L15.418 64.224C15.6249 64.0688 15.8595 63.9508 16.1257 63.8709L15.8383 62.9131ZM14.818 63.424C14.5041 63.6594 14.25 63.9536 14.0569 64.3012L14.9311 64.7868C15.058 64.5584 15.2199 64.3726 15.418 64.224L14.818 63.424ZM14.0538 64.3069C13.8596 64.6675 13.77 65.0712 13.77 65.504H14.77C14.77 65.2115 14.8297 64.9752 14.9342 64.781L14.0538 64.3069ZM13.77 65.504C13.77 65.9393 13.851 66.3441 14.0308 66.7036L14.9252 66.2564C14.8276 66.0613 14.77 65.8154 14.77 65.504H13.77ZM14.0378 66.717C14.2169 67.0497 14.4501 67.336 14.7374 67.571L15.3706 66.797C15.1885 66.648 15.0378 66.465 14.9182 66.2429L14.0378 66.717ZM14.7458 67.5778C15.0409 67.8086 15.3728 67.9803 15.7378 68.0935L16.0342 67.1385C15.7805 67.0597 15.5578 66.9434 15.3622 66.7902L14.7458 67.5778ZM15.7378 68.0935C16.0961 68.2047 16.4661 68.26 16.846 68.26V67.26C16.5645 67.26 16.2945 67.2193 16.0342 67.1385L15.7378 68.0935ZM16.846 68.26H17.822V67.26H16.846V68.26ZM19.2898 58.3262C19.141 58.4427 18.959 58.508 18.718 58.508V59.508C19.1597 59.508 19.5643 59.3813 19.9062 59.1138L19.2898 58.3262ZM18.718 58.508C18.477 58.508 18.295 58.4427 18.1462 58.3262L17.5298 59.1138C17.8717 59.3813 18.2763 59.508 18.718 59.508V58.508ZM18.1564 58.3345C18.0466 58.2437 17.97 58.1089 17.97 57.856H16.97C16.97 58.3497 17.1388 58.7909 17.5196 59.1055L18.1564 58.3345ZM17.97 57.856C17.97 57.6435 18.036 57.5158 18.1488 57.4184L17.4952 56.6616C17.1387 56.9695 16.97 57.3858 16.97 57.856H17.97ZM18.1501 57.4173C18.2966 57.2899 18.4758 57.22 18.718 57.22V56.22C18.2562 56.22 17.8381 56.3634 17.4939 56.6627L18.1501 57.4173ZM18.718 57.22C18.9754 57.22 19.1483 57.2923 19.2777 57.41L19.9503 56.67C19.6104 56.361 19.1859 56.22 18.718 56.22V57.22ZM19.2872 57.4184C19.4 57.5158 19.466 57.6435 19.466 57.856H20.466C20.466 57.3858 20.2973 56.9695 19.9408 56.6616L19.2872 57.4184ZM19.466 57.856C19.466 58.1089 19.3894 58.2437 19.2796 58.3345L19.9164 59.1055C20.2972 58.7909 20.466 58.3497 20.466 57.856H19.466ZM15.8178 58.3262C15.669 58.4427 15.487 58.508 15.246 58.508V59.508C15.6877 59.508 16.0923 59.3813 16.4342 59.1138L15.8178 58.3262ZM15.246 58.508C15.005 58.508 14.823 58.4427 14.6742 58.3262L14.0578 59.1138C14.3997 59.3813 14.8043 59.508 15.246 59.508V58.508ZM14.6844 58.3345C14.5746 58.2437 14.498 58.1089 14.498 57.856H13.498C13.498 58.3497 13.6668 58.7909 14.0476 59.1055L14.6844 58.3345ZM14.498 57.856C14.498 57.6435 14.564 57.5158 14.6768 57.4184L14.0232 56.6616C13.6667 56.9695 13.498 57.3858 13.498 57.856H14.498ZM14.6781 57.4173C14.8246 57.2899 15.0038 57.22 15.246 57.22V56.22C14.7842 56.22 14.3661 56.3634 14.0219 56.6627L14.6781 57.4173ZM15.246 57.22C15.4884 57.22 15.6574 57.2897 15.7897 57.41L16.4623 56.67C16.1253 56.3636 15.7076 56.22 15.246 56.22V57.22ZM15.8076 57.4255C15.9287 57.5256 15.994 57.6514 15.994 57.856H16.994C16.994 57.3779 16.814 56.9598 16.4444 56.6545L15.8076 57.4255ZM15.994 57.856C15.994 58.1089 15.9174 58.2437 15.8076 58.3345L16.4444 59.1055C16.8252 58.7909 16.994 58.3497 16.994 57.856H15.994ZM21.0681 67.76V67.26H20.5681V67.76H21.0681ZM23.0521 67.76V68.26H23.5521V67.76H23.0521ZM23.0521 60.992V60.492H22.5521V60.992H23.0521ZM25.2921 60.992H25.7921V60.492H25.2921V60.992ZM25.2921 67.76H24.7921V68.26H25.2921V67.76ZM27.0041 67.76H27.5041V67.26H27.0041V67.76ZM27.0041 70V70.5H27.5041V70H27.0041ZM21.0681 70H20.5681V70.5H21.0681V70ZM25.0841 73.104L24.7815 72.7058L24.7738 72.712L25.0841 73.104ZM23.2441 73.104L22.9337 73.4961L22.9416 73.5021L23.2441 73.104ZM23.2281 71.344L22.908 70.9599L22.8993 70.9671L22.891 70.9748L23.2281 71.344ZM25.1001 71.344L25.4294 70.9677L25.4282 70.9667L25.1001 71.344ZM21.0681 68.26H23.0521V67.26H21.0681V68.26ZM23.5521 67.76V60.992H22.5521V67.76H23.5521ZM23.0521 61.492H25.2921V60.492H23.0521V61.492ZM24.7921 60.992V67.76H25.7921V60.992H24.7921ZM25.2921 68.26H27.0041V67.26H25.2921V68.26ZM26.5041 67.76V70H27.5041V67.76H26.5041ZM27.0041 69.5H21.0681V70.5H27.0041V69.5ZM21.5681 70V67.76H20.5681V70H21.5681ZM24.7738 72.712C24.6132 72.8391 24.4209 72.908 24.1721 72.908V73.908C24.6274 73.908 25.043 73.7742 25.3945 73.496L24.7738 72.712ZM24.1721 72.908C23.9234 72.908 23.7217 72.8389 23.5467 72.7059L22.9416 73.5021C23.2999 73.7744 23.7168 73.908 24.1721 73.908V72.908ZM23.5545 72.712C23.4435 72.6241 23.3601 72.4853 23.3601 72.208H22.3601C22.3601 72.72 22.5327 73.1785 22.9338 73.496L23.5545 72.712ZM23.3601 72.208C23.3601 71.9871 23.4304 71.8363 23.5653 71.7132L22.891 70.9748C22.5351 71.2997 22.3601 71.7249 22.3601 72.208H23.3601ZM23.5482 71.7281C23.7035 71.5987 23.9008 71.524 24.1721 71.524V70.524C23.6968 70.524 23.2648 70.6626 22.908 70.9599L23.5482 71.7281ZM24.1721 71.524C24.4439 71.524 24.6311 71.5987 24.772 71.7213L25.4282 70.9667C25.0785 70.6626 24.647 70.524 24.1721 70.524V71.524ZM24.7709 71.7203C24.9141 71.8456 24.9841 71.9945 24.9841 72.208H25.9841C25.9841 71.7175 25.7981 71.2904 25.4294 70.9677L24.7709 71.7203ZM24.9841 72.208C24.9841 72.4778 24.9008 72.6153 24.7816 72.7059L25.3867 73.5021C25.8008 73.1873 25.9841 72.7275 25.9841 72.208H24.9841ZM26.5331 67.76V67.26H26.0331V67.76H26.5331ZM29.2371 67.76V68.26H29.9688L29.703 67.5784L29.2371 67.76ZM27.2531 62.672L26.9269 62.2931L26.6587 62.524L26.7873 62.8536L27.2531 62.672ZM28.4051 61.76L28.1176 61.3509L28.1124 61.3547L28.4051 61.76ZM29.5891 61.04L29.3655 60.5928L29.3607 60.5952L29.5891 61.04ZM30.8371 60.576L30.9584 61.0612L30.9697 61.0581L30.8371 60.576ZM34.7731 61.04L34.5403 61.4825L34.7731 61.04ZM37.0931 62.688L37.5607 62.865L37.6809 62.5476L37.4303 62.3188L37.0931 62.688ZM35.1731 67.76L34.7055 67.583L34.4492 68.26H35.1731V67.76ZM38.1171 67.76H38.6171V67.26H38.1171V67.76ZM38.1171 70V70.5H38.6171V70H38.1171ZM26.5331 70H26.0331V70.5H26.5331V70ZM30.9331 62.976L31.1072 63.4447L30.9331 62.976ZM29.7651 63.632L29.4685 63.2295L29.1704 63.4491L29.2936 63.7983L29.7651 63.632ZM31.2211 67.76L30.7496 67.9263L30.8673 68.26H31.2211V67.76ZM33.1411 67.76V68.26H33.4954L33.6129 67.9257L33.1411 67.76ZM34.5971 63.616L35.0689 63.7817L35.1954 63.4215L34.8812 63.2046L34.5971 63.616ZM33.3811 62.96L33.2102 63.4299L33.2147 63.4315L33.3811 62.96ZM26.5331 68.26H29.2371V67.26H26.5331V68.26ZM29.703 67.5784L27.719 62.4904L26.7873 62.8536L28.7713 67.9416L29.703 67.5784ZM27.5794 63.0509C27.9533 62.7289 28.3262 62.4338 28.6979 62.1653L28.1124 61.3547C27.7161 61.6409 27.3209 61.9538 26.9269 62.2931L27.5794 63.0509ZM28.6926 62.1691C29.07 61.9039 29.445 61.6761 29.8175 61.4848L29.3607 60.5952C28.9439 60.8093 28.5296 61.0615 28.1177 61.3509L28.6926 62.1691ZM29.8127 61.4872C30.1864 61.3004 30.5682 61.1586 30.9584 61.0611L30.7159 60.0909C30.2527 60.2067 29.8025 60.3743 29.3655 60.5928L29.8127 61.4872ZM30.9697 61.0581C31.3516 60.9531 31.7496 60.9 32.1651 60.9V59.9C31.6633 59.9 31.176 59.9643 30.7045 60.0939L30.9697 61.0581ZM32.1651 60.9C33.0131 60.9 33.8024 61.0941 34.5403 61.4825L35.006 60.5975C34.1226 60.1326 33.1732 59.9 32.1651 59.9V60.9ZM34.5403 61.4825C35.31 61.8876 36.0487 62.4115 36.756 63.0572L37.4303 62.3188C36.6655 61.6205 35.8575 61.0457 35.006 60.5975L34.5403 61.4825ZM36.6255 62.511L34.7055 67.583L35.6407 67.937L37.5607 62.865L36.6255 62.511ZM35.1731 68.26H38.1171V67.26H35.1731V68.26ZM37.6171 67.76V70H38.6171V67.76H37.6171ZM38.1171 69.5H26.5331V70.5H38.1171V69.5ZM27.0331 70V67.76H26.0331V70H27.0331ZM32.1651 62.268C31.6651 62.268 31.1946 62.3455 30.759 62.5073L31.1072 63.4447C31.4183 63.3292 31.7692 63.268 32.1651 63.268V62.268ZM30.759 62.5073C30.3322 62.6658 29.902 62.9101 29.4685 63.2295L30.0617 64.0345C30.4389 63.7566 30.7874 63.5635 31.1072 63.4447L30.759 62.5073ZM29.2936 63.7983L30.7496 67.9263L31.6927 67.5937L30.2367 63.4657L29.2936 63.7983ZM31.2211 68.26H33.1411V67.26H31.2211V68.26ZM33.6129 67.9257L35.0689 63.7817L34.1254 63.4503L32.6694 67.5943L33.6129 67.9257ZM34.8812 63.2046C34.4106 62.8796 33.9652 62.6359 33.5475 62.4885L33.2147 63.4315C33.5224 63.5401 33.8876 63.7337 34.313 64.0274L34.8812 63.2046ZM33.552 62.4901C33.1345 62.3383 32.6694 62.268 32.1651 62.268V63.268C32.5782 63.268 32.9238 63.3257 33.2103 63.4299L33.552 62.4901ZM37.6388 67.76V67.26H37.1388V67.76H37.6388ZM39.2068 67.76V68.26H39.7068V67.76H39.2068ZM39.2068 57.024V56.524H38.7068V57.024H39.2068ZM41.4468 57.024H41.9468V56.524H41.4468V57.024ZM41.4468 67.76H40.9468V68.26H41.4468V67.76ZM43.4948 67.76H43.9948V67.26H43.4948V67.76ZM43.4948 70V70.5H43.9948V70H43.4948ZM37.6388 70H37.1388V70.5H37.6388V70ZM37.6388 68.26H39.2068V67.26H37.6388V68.26ZM39.7068 67.76V57.024H38.7068V67.76H39.7068ZM39.2068 57.524H41.4468V56.524H39.2068V57.524ZM40.9468 57.024V67.76H41.9468V57.024H40.9468ZM41.4468 68.26H43.4948V67.26H41.4468V68.26ZM42.9948 67.76V70H43.9948V67.76H42.9948ZM43.4948 69.5H37.6388V70.5H43.4948V69.5ZM38.1388 70V67.76H37.1388V70H38.1388ZM43.01 67.76V67.26H42.51V67.76H43.01ZM44.578 67.76V68.26H45.078V67.76H44.578ZM44.578 57.024V56.524H44.078V57.024H44.578ZM47.858 57.024H48.358V56.524H47.858V57.024ZM47.858 59.264V59.764H48.358V59.264H47.858ZM46.818 59.264V58.764H46.318V59.264H46.818ZM46.818 70V70.5H47.318V70H46.818ZM43.01 70H42.51V70.5H43.01V70ZM43.01 68.26H44.578V67.26H43.01V68.26ZM45.078 67.76V57.024H44.078V67.76H45.078ZM44.578 57.524H47.858V56.524H44.578V57.524ZM47.358 57.024V59.264H48.358V57.024H47.358ZM47.858 58.764H46.818V59.764H47.858V58.764ZM46.318 59.264V70H47.318V59.264H46.318ZM46.818 69.5H43.01V70.5H46.818V69.5ZM43.51 70V67.76H42.51V70H43.51ZM50.4144 57.024V56.524H49.9144V57.024H50.4144ZM52.6544 57.024H53.1544V56.524H52.6544V57.024ZM52.6544 70V70.5H53.1544V70H52.6544ZM50.4144 70H49.9144V70.5H50.4144V70ZM50.4144 57.524H52.6544V56.524H50.4144V57.524ZM52.1544 57.024V70H53.1544V57.024H52.1544ZM52.6544 69.5H50.4144V70.5H52.6544V69.5ZM50.9144 70V57.024H49.9144V70H50.9144Z" fill="#3E3E3E" fill-opacity="0.14" mask="url(#path-28-outside-1_618_26217)"/>
</g>
<defs>
<filter id="filter0_d_618_26217" x="0.698273" y="0.415039" width="60.454" height="56.2098" filterUnits="userSpaceOnUse" color-interpolation-filters="sRGB">
<feFlood flood-opacity="0" result="BackgroundImageFix"/>
<feColorMatrix in="SourceAlpha" type="matrix" values="0 0 0 0 0 0 0 0 0 0 0 0 0 0 0 0 0 0 127 0" result="hardAlpha"/>
<feOffset dy="2.91989"/>
<feGaussianBlur stdDeviation="1.45995"/>
<feComposite in2="hardAlpha" operator="out"/>
<feColorMatrix type="matrix" values="0 0 0 0 0 0 0 0 0 0 0 0 0 0 0 0 0 0 0.25 0"/>
<feBlend mode="normal" in2="BackgroundImageFix" result="effect1_dropShadow_618_26217"/>
<feBlend mode="normal" in="SourceGraphic" in2="effect1_dropShadow_618_26217" result="shape"/>
</filter>
<filter id="filter1_dd_618_26217" x="8.99027" y="54.18" width="46.704" height="22.768" filterUnits="userSpaceOnUse" color-interpolation-filters="sRGB">
<feFlood flood-opacity="0" result="BackgroundImageFix"/>
<feColorMatrix in="SourceAlpha" type="matrix" values="0 0 0 0 0 0 0 0 0 0 0 0 0 0 0 0 0 0 127 0" result="hardAlpha"/>
<feOffset dy="1"/>
<feComposite in2="hardAlpha" operator="out"/>
<feColorMatrix type="matrix" values="0 0 0 0 0 0 0 0 0 0 0 0 0 0 0 0 0 0 1 0"/>
<feBlend mode="normal" in2="BackgroundImageFix" result="effect1_dropShadow_618_26217"/>
<feColorMatrix in="SourceAlpha" type="matrix" values="0 0 0 0 0 0 0 0 0 0 0 0 0 0 0 0 0 0 127 0" result="hardAlpha"/>
<feOffset dy="0.5"/>
<feGaussianBlur stdDeviation="1.27"/>
<feComposite in2="hardAlpha" operator="out"/>
<feColorMatrix type="matrix" values="0 0 0 0 0 0 0 0 0 0 0 0 0 0 0 0 0 0 0.8 0"/>
<feBlend mode="normal" in2="effect1_dropShadow_618_26217" result="effect2_dropShadow_618_26217"/>
<feBlend mode="normal" in="SourceGraphic" in2="effect2_dropShadow_618_26217" result="shape"/>
</filter>
</defs>
</svg>
