<svg width="113" height="105" viewBox="0 0 113 105" fill="none" xmlns="http://www.w3.org/2000/svg">
<g filter="url(#filter0_d_212_6047)">
<path d="M56.5147 43.3103V81.272H10.7324C8.00511 81.2718 5.79541 79.062 5.79541 76.335V48.247C5.79541 45.52 8.00511 43.3101 10.7324 43.3101L56.5147 43.3103Z" fill="#BBEC6C"/>
<path d="M107.018 48.2471V76.3348C107.018 79.0619 104.809 81.2718 102.081 81.2718H56.5148V43.3103H102.081C104.809 43.3103 107.018 45.52 107.018 48.2471Z" fill="#FE76A8"/>
<path d="M102.081 43.3103H95.9543C98.6814 43.3103 100.891 45.5202 100.891 48.2473V76.335C100.891 79.0621 98.6814 81.272 95.9543 81.272H102.081C104.808 81.272 107.018 79.0621 107.018 76.335V48.2471C107.018 45.52 104.808 43.3103 102.081 43.3103Z" fill="#FE5694"/>
<path d="M79.5028 41.1445C79.5028 28.4746 69.3008 18.1875 56.6634 18.0501C44.2189 17.9146 33.7538 27.8904 33.325 40.3284C33.1131 46.4753 35.3052 52.1068 39.0332 56.3583C43.5313 61.4881 46.1975 67.9644 46.1975 74.7868V74.8546L55.3224 79.2863L66.616 74.8546V74.7839C66.616 68.1182 68.987 61.6209 73.4786 56.6956C77.2205 52.5925 79.5028 47.1358 79.5028 41.1445Z" fill="#FEE97D"/>
<path d="M56.6633 18.05C55.5459 18.038 54.4449 18.1085 53.3652 18.2539C64.6619 19.7621 73.3757 29.4352 73.3757 41.1444C73.3757 47.1358 71.0935 52.5925 67.3516 56.6958C62.86 61.6211 60.489 68.1183 60.489 74.784V74.8548L62.7218 76.3828L66.6157 74.8548V74.784C66.6157 68.1183 68.9868 61.6211 73.4783 56.6958C77.2202 52.5925 79.5025 47.1358 79.5025 41.1444C79.5026 28.4746 69.3005 18.1874 56.6633 18.05Z" fill="#FEE45A"/>
<path d="M53.7929 76.3826C53.0886 76.3826 52.4554 75.8927 52.301 75.1763L48.9626 59.6755C48.7851 58.8509 49.3096 58.0382 50.1344 57.8606C50.9602 57.6837 51.7718 58.2076 51.9493 59.0324L55.2877 74.5331C55.4652 75.3578 54.9407 76.1705 54.1159 76.348C54.0076 76.3714 53.8994 76.3826 53.7929 76.3826Z" fill="#FFF9E2"/>
<path d="M60.0919 74.0295C59.9854 74.0295 59.877 74.0182 59.7687 73.9949C58.9441 73.8173 58.4194 73.0046 58.5969 72.18L61.9353 56.6793C62.1128 55.8546 62.9262 55.3301 63.7502 55.5075C64.5748 55.685 65.0995 56.4978 64.9219 57.3224L61.5836 72.8231C61.4294 73.5394 60.7961 74.0295 60.0919 74.0295Z" fill="#FFF9E2"/>
<path d="M66.6165 79.7274L65.419 81.6175L66.6165 82.7825V83.1471C66.6165 84.2103 66.4536 85.2346 66.1541 86.196L62.8954 87.3915L64.5899 89.2511C62.7283 91.7439 59.7549 93.3569 56.4065 93.3569C55.3393 93.3569 54.3106 93.194 53.3433 92.8886C51.2761 92.2389 49.4919 90.9497 48.223 89.2511L49.2475 87.7237L46.6588 86.1962C46.3595 85.235 46.1964 84.2105 46.1964 83.1473V82.7827L47.9846 81.0455L46.1964 79.7278V74.8541L60.4888 74.8551L66.6165 79.7274Z" fill="#7CA1B1"/>
<path d="M66.6165 79.7275L65.419 81.6175L66.6165 82.7825V83.1471C66.6165 84.2103 66.4536 85.2346 66.1541 86.196L62.8954 87.3915L64.5899 89.2511C62.7283 91.7439 59.7549 93.357 56.4064 93.357C55.3392 93.357 54.3106 93.1941 53.3433 92.8886C57.4839 91.5871 60.4899 87.7175 60.4899 83.1471V74.8538H66.6163V79.7275H66.6165Z" fill="#678D98"/>
<path d="M55.1119 49.45H44.3279C43.6129 49.45 43.0332 48.8703 43.0332 48.1552V33.5281C43.0332 32.8131 43.6129 32.2334 44.3279 32.2334H52.3578C54.594 32.2334 56.4069 34.0463 56.4069 36.2825L58.2692 43.3102L56.4067 48.1552C56.4067 48.8703 55.827 49.45 55.1119 49.45Z" fill="#FFF5C6"/>
<path d="M68.4857 49.4499H57.7017C56.9866 49.4499 56.407 48.8702 56.407 48.1551V36.2824C56.407 34.0462 58.2199 32.2333 60.4561 32.2333H68.4859C69.201 32.2333 69.7806 32.8129 69.7806 33.528V48.1551C69.7804 48.8702 69.2006 49.4499 68.4857 49.4499Z" fill="#FFF9E2"/>
<path d="M68.4857 49.4499H57.7017C56.9866 49.4499 56.407 48.8702 56.407 48.1551V36.2824C56.407 34.0462 58.2199 32.2333 60.4561 32.2333H68.4859C69.201 32.2333 69.7806 32.8129 69.7806 33.528V48.1551C69.7804 48.8702 69.2006 49.4499 68.4857 49.4499Z" fill="#FFF9E2"/>
<path d="M68.4857 49.4499H57.7017C56.9866 49.4499 56.407 48.8702 56.407 48.1551V36.2824C56.407 34.0462 58.2199 32.2333 60.4561 32.2333H68.4859C69.201 32.2333 69.7806 32.8129 69.7806 33.528V48.1551C69.7804 48.8702 69.2006 49.4499 68.4857 49.4499Z" fill="#FFF9E2"/>
<path d="M19.583 69.8103C19.0482 69.6935 18.566 69.404 18.1789 69.0169L13.8073 64.6454C12.7336 63.5715 12.7336 61.8307 13.8075 60.757C14.8812 59.6829 16.622 59.6829 17.6961 60.757L19.7718 62.8328C19.9948 63.0558 20.3562 63.0558 20.5792 62.8328L27.0234 56.3884C28.0703 55.3416 29.7756 55.2451 30.8705 56.2415C32.0397 57.3053 32.0717 59.1167 30.9668 60.2218L22.1195 69.0691C21.4651 69.7237 20.5147 70.0139 19.583 69.8103Z" fill="#7CA1B1"/>
<path d="M93.3768 63.2408C93.0789 62.9429 93.0789 62.4597 93.3768 62.1616L96.0515 59.4869C97.1254 58.4132 97.1254 56.6724 96.0515 55.5985C94.978 54.5246 93.237 54.5246 92.1631 55.5985L89.4882 58.2734C89.1903 58.5713 88.7071 58.5713 88.409 58.2734L85.7891 55.6535C84.7422 54.6067 83.0369 54.5104 81.9418 55.507C80.7728 56.571 80.7408 58.3823 81.8457 59.4871L84.5204 62.1618C84.8183 62.4597 84.8183 62.9429 84.5204 63.241L81.8457 65.9157C80.7718 66.9894 80.7718 68.7302 81.8457 69.8041C82.3825 70.3411 83.0863 70.6093 83.7899 70.6093C84.4933 70.6093 85.1973 70.3409 85.7341 69.8041L88.409 67.1292C88.7069 66.8313 89.1901 66.8313 89.4882 67.1292L92.1631 69.8041C92.6999 70.3409 93.4037 70.6093 94.1073 70.6093C94.8109 70.6093 95.5147 70.3409 96.0515 69.8041C97.1254 68.7302 97.1254 66.9894 96.0515 65.9157L93.3768 63.2408Z" fill="#EEF5F6"/>
<path d="M19.7822 30.5593C19.5774 30.5593 19.369 30.518 19.1694 30.4302L15.3429 28.7519C14.5704 28.4133 14.2187 27.5121 14.5576 26.7395C14.8963 25.9673 15.7976 25.6152 16.57 25.9543L20.3965 27.6325C21.1689 27.9712 21.5206 28.8723 21.1818 29.6449C20.9307 30.2177 20.3702 30.5593 19.7822 30.5593Z" fill="#FFF5C6"/>
<path d="M26.9834 19.5375C26.6135 19.5375 26.2428 19.404 25.9492 19.1338L22.8752 16.3039C22.2546 15.7327 22.2145 14.7662 22.7858 14.1458C23.3574 13.525 24.3237 13.4853 24.9443 14.0564L28.0184 16.8863C28.6389 17.4575 28.6791 18.424 28.1077 19.0444C27.8066 19.3716 27.3956 19.5375 26.9834 19.5375Z" fill="#FFF9E2"/>
<path d="M37.374 11.4517C36.8313 11.4517 36.3057 11.1619 36.0293 10.651L34.0406 6.97616C33.6391 6.23419 33.9151 5.30717 34.657 4.90584C35.399 4.50411 36.326 4.7801 36.7274 5.52227L38.716 9.19713C39.1176 9.9391 38.8416 10.8661 38.0996 11.2675C37.8687 11.3924 37.6196 11.4517 37.374 11.4517Z" fill="#FFF5C6"/>
<path d="M49.8226 7.17715C49.0895 7.17715 48.4425 6.64791 48.3179 5.9008L47.6301 1.77953C47.4911 0.947403 48.0532 0.160357 48.8853 0.0215708C49.7164 -0.118797 50.5045 0.44465 50.6433 1.27677L51.3311 5.39804C51.4701 6.23016 50.908 7.01721 50.0759 7.156C49.9909 7.17043 49.906 7.17715 49.8226 7.17715Z" fill="#FFF9E2"/>
<path d="M62.9912 7.17708C62.9076 7.17708 62.8231 7.17036 62.7379 7.15592C61.9058 7.01714 61.3439 6.23009 61.4827 5.39797L62.1705 1.2767C62.3093 0.444577 63.0958 -0.119067 63.9285 0.0214979C64.7606 0.160284 65.3225 0.94733 65.1837 1.77945L64.4959 5.90072C64.3713 6.64783 63.7243 7.17708 62.9912 7.17708Z" fill="#FFF5C6"/>
<path d="M75.4396 11.4518C75.1943 11.4518 74.9452 11.3925 74.7141 11.2673C73.9719 10.866 73.6961 9.93898 74.0976 9.19701L76.0863 5.52215C76.4876 4.77998 77.4145 4.50399 78.1566 4.90572C78.8988 5.30705 79.1746 6.23407 78.7731 6.97604L76.7844 10.6509C76.5078 11.162 75.9823 11.4518 75.4396 11.4518Z" fill="#FFF9E2"/>
<path d="M85.8304 19.5375C85.4182 19.5375 85.0074 19.3717 84.7063 19.0445C84.1349 18.4239 84.1749 17.4575 84.7957 16.8864L87.8697 14.0565C88.4901 13.4849 89.4566 13.5251 90.028 14.1458C90.5994 14.7664 90.5594 15.7328 89.9386 16.3039L86.8646 19.1338C86.571 19.4041 86.2001 19.5375 85.8304 19.5375Z" fill="#FFF5C6"/>
<path d="M93.0315 30.5594C92.4435 30.5594 91.8831 30.2182 91.632 29.645C91.2931 28.8724 91.6446 27.9713 92.4172 27.6326L96.2435 25.9543C97.0163 25.6161 97.9173 25.967 98.2559 26.7396C98.5948 27.5122 98.2433 28.4134 97.4707 28.752L93.6444 30.4303C93.4445 30.5177 93.2363 30.5594 93.0315 30.5594Z" fill="#FFF9E2"/>
<path d="M60.4904 79.7275L61.3277 81.2718L60.4904 82.7826H46.197V79.7275H60.4904Z" fill="#678D98"/>
<path d="M60.0283 86.1965L60.4907 87.7239L58.4643 89.2514H48.224C47.5417 88.339 47.0081 87.3084 46.6598 86.1963L60.0283 86.1965Z" fill="#678D98"/>
<path d="M60.0278 86.1965H66.1542C65.8058 87.3086 65.2722 88.3392 64.59 89.2516H58.4636C59.1459 88.339 59.6795 87.3086 60.0278 86.1965Z" fill="#598691"/>
<path d="M60.4902 79.7279H66.6166V82.783H60.4902V79.7279Z" fill="#598691"/>
</g>
<defs>
<filter id="filter0_d_212_6047" x="0.383412" y="0" width="112.047" height="104.181" filterUnits="userSpaceOnUse" color-interpolation-filters="sRGB">
<feFlood flood-opacity="0" result="BackgroundImageFix"/>
<feColorMatrix in="SourceAlpha" type="matrix" values="0 0 0 0 0 0 0 0 0 0 0 0 0 0 0 0 0 0 127 0" result="hardAlpha"/>
<feOffset dy="5.412"/>
<feGaussianBlur stdDeviation="2.706"/>
<feComposite in2="hardAlpha" operator="out"/>
<feColorMatrix type="matrix" values="0 0 0 0 0 0 0 0 0 0 0 0 0 0 0 0 0 0 0.25 0"/>
<feBlend mode="normal" in2="BackgroundImageFix" result="effect1_dropShadow_212_6047"/>
<feBlend mode="normal" in="SourceGraphic" in2="effect1_dropShadow_212_6047" result="shape"/>
</filter>
</defs>
</svg>
