<svg width="64" height="70" viewBox="0 0 64 70" fill="none" xmlns="http://www.w3.org/2000/svg">
<path d="M54.8369 40.2271C55.389 39.0397 56.9545 35.7934 63.3874 33.0035C62.3764 25.4368 58.6494 18.4942 52.899 13.4661C47.1485 8.43791 39.766 5.66625 32.1235 5.66626H31.8767C24.2339 5.66691 16.8513 8.43942 11.1013 13.4684C5.35121 18.4974 1.62486 25.4408 0.614882 33.0078C7.04565 35.7978 8.61329 39.0419 9.16543 40.2314C5.99984 40.3417 2.49215 40.705 0.591064 40.8391C2.1652 56.9863 15.8062 68.6651 31.8767 68.6651H32.1235C48.1982 68.6651 61.8306 56.9863 63.4112 40.8413C61.5102 40.7072 58.0025 40.3439 54.8369 40.2271ZM32.1235 65.341H31.8767C25.511 65.3404 19.3326 63.1898 14.3452 59.2388C9.35772 55.2877 5.8543 49.7683 4.40406 43.5772C7.4354 43.335 9.44691 43.3458 12.7489 43.017C12.6731 39.4269 10.824 34.5823 4.4322 30.6785C5.89606 24.5061 9.40163 19.0074 14.3819 15.0717C19.3623 11.136 25.5261 8.99336 31.8767 8.99041H32.1235C38.4762 8.99104 44.6428 11.1328 49.6253 15.0692C54.6079 19.0055 58.1149 24.5061 59.5788 30.6807C53.187 34.5736 51.3379 39.4312 51.2621 43.0192C54.5619 43.3479 56.5756 43.3371 59.6069 43.5793C58.1558 49.7719 54.6506 55.2922 49.661 59.243C44.6714 63.1938 38.4907 65.3429 32.1235 65.341Z" fill="url(#paint0_linear_752_22876)"/>
<path d="M31.9871 3.54688L31.9828 7.49607L29.7288 5.74856L31.9871 3.54688Z" fill="url(#paint1_linear_752_22876)"/>
<path d="M31.9871 3.54688L34.2714 5.75721C34.2099 6.19435 34.0076 6.59961 33.6951 6.91176C33.3826 7.2239 32.9768 7.42596 32.5392 7.48741H31.9914L31.9871 3.54688Z" fill="#BEDAF1"/>
<g style="mix-blend-mode:screen" opacity="0.5">
<path d="M31.9827 7.23437L32.1364 5.24464C32.197 4.69746 32.76 4.37954 33.3966 4.90941L31.987 3.54688L31.9827 7.23437Z" fill="white"/>
</g>
<path style="mix-blend-mode:multiply" opacity="0.25" d="M48.1375 60.3604C43.4292 63.6113 37.8384 65.3469 32.1147 65.3347H31.8679C26.177 65.3436 20.6179 63.6246 15.9274 60.4058L11.6921 61.5672C17.3984 66.1866 24.5272 68.6948 31.8722 68.6675H32.119C39.4756 68.6949 46.6149 66.1785 52.3251 61.5455C52.3489 61.5196 50.608 61.033 48.1375 60.3604Z" fill="url(#paint2_radial_752_22876)"/>
<path d="M59.5287 30.4949C59.5439 30.5598 59.5612 30.6246 59.5764 30.6895C54.2715 33.9337 52.0976 37.8266 51.4675 41.0989L52.3336 42.1002L54.8366 40.2273C55.3888 39.0399 56.9543 35.7936 63.3872 33.0037L61.2219 31.1394L59.5287 30.4949Z" fill="url(#paint3_linear_752_22876)"/>
<path d="M4.46885 30.4949C4.45369 30.5598 4.43637 30.6246 4.42121 30.6895C9.74338 33.9142 11.9086 37.805 12.5409 41.0924L11.6748 42.0937L9.16309 40.2273C8.61095 39.0399 7.04548 35.7936 0.612549 33.0037L2.77779 31.1394L4.46885 30.4949Z" fill="url(#paint4_linear_752_22876)"/>
<path d="M4.41045 43.5774C7.44179 43.3352 9.48145 43.346 12.7834 43.0172C12.7077 39.44 10.7763 34.5695 4.44076 30.6787L2.79085 31.1437C8.83621 34.0094 11.1747 38.9772 11.6683 42.0872C10.1375 42.2192 8.66299 42.3035 7.22743 42.3792C5.97592 42.4484 2.68042 42.6733 2.68042 42.6733C2.68042 42.6733 3.87563 43.2551 4.41045 43.5774Z" fill="url(#paint5_linear_752_22876)"/>
<path d="M59.5871 43.5774C56.5558 43.3352 54.5161 43.346 51.2141 43.0172C51.2899 39.44 53.2213 34.5695 59.5568 30.6787L61.2045 31.148C55.1592 34.0137 52.8207 38.9815 52.327 42.0916C53.8579 42.2235 55.3324 42.3078 56.768 42.3835C58.0195 42.4527 61.315 42.6777 61.315 42.6777C61.315 42.6777 60.1241 43.2551 59.5871 43.5774Z" fill="url(#paint6_linear_752_22876)"/>
<path d="M4.4233 30.6722C5.88876 24.4995 9.39615 19.0012 14.3781 15.0666C19.3601 11.132 25.5253 8.99121 31.8764 8.99056H32.1232C38.4744 8.99121 44.6396 11.132 49.6215 15.0666C54.6035 19.0012 58.1109 24.4995 59.5764 30.6722L61.1916 31.1263L61.2133 31.1437C59.8253 24.4623 56.1746 18.4628 50.876 14.1556C45.5775 9.84834 38.9548 7.49648 32.1232 7.49609H31.8764C25.0449 7.49648 18.4222 9.84834 13.1236 14.1556C7.82508 18.4628 4.17439 24.4623 2.78638 31.1437L2.80803 31.1263L4.4233 30.6722Z" fill="url(#paint7_linear_752_22876)"/>
<path d="M59.6153 43.5621H59.5958C58.1485 49.756 54.6463 55.2788 49.6586 59.2329C44.6709 63.1869 38.4909 65.3396 32.1232 65.341H31.8763C25.5097 65.3406 19.3304 63.1897 14.3424 59.2378C9.35444 55.2858 5.85106 49.7652 4.40158 43.5729H4.38209L2.68237 42.6732C3.97005 49.4656 7.59137 55.5959 12.9213 60.006C18.2512 64.4161 24.9552 66.8293 31.8763 66.829H32.1232C39.0454 66.8283 45.7502 64.4134 51.0799 60.0012C56.4096 55.589 60.0296 49.4564 61.315 42.6624L59.6153 43.5621Z" fill="url(#paint8_linear_752_22876)"/>
<g style="mix-blend-mode:screen" opacity="0.5">
<path d="M61.3151 42.6624L63.4111 40.8435L54.8367 40.2336L52.3293 42.0914L61.3151 42.6624Z" fill="white"/>
</g>
<path d="M51.2166 43.0172C51.5868 42.7252 52.3317 42.0894 52.3317 42.0894L61.3174 42.6603L59.596 43.5773C59.596 43.5773 52.3988 43.201 51.2166 43.0172Z" fill="url(#paint9_linear_752_22876)"/>
<path style="mix-blend-mode:multiply" opacity="0.35" d="M59.6154 43.5621H59.5959C58.1656 49.6687 54.7368 55.1242 49.8523 59.0648L51.2142 59.8801C56.4715 55.4753 60.0386 49.3872 61.3086 42.6516L59.6154 43.5621Z" fill="url(#paint10_linear_752_22876)"/>
<g style="mix-blend-mode:screen" opacity="0.5">
<path d="M2.68262 42.6624L0.58667 40.8435L9.16103 40.2336L11.6684 42.0914L2.68262 42.6624Z" fill="white"/>
</g>
<path style="mix-blend-mode:multiply" opacity="0.25" d="M32.1232 7.49612H31.8763C24.2577 7.4861 16.9287 10.4112 11.4148 15.6627L12.8547 16.3634C18.047 11.6116 24.8363 8.98037 31.8785 8.99058H32.1253C39.2994 8.98131 46.2054 11.7127 51.4285 16.6251L52.8814 15.946C47.3386 10.52 39.884 7.48554 32.1232 7.49612Z" fill="url(#paint11_radial_752_22876)"/>
<path d="M12.7749 43.0172C12.4047 42.7252 11.6598 42.0894 11.6598 42.0894L2.67407 42.6603L4.39544 43.5773C4.39544 43.5773 11.6057 43.201 12.7749 43.0172Z" fill="url(#paint12_linear_752_22876)"/>
<path style="mix-blend-mode:multiply" opacity="0.35" d="M4.3823 43.5621H4.40179C5.83202 49.6686 9.26088 55.1242 14.1454 59.0647L12.7748 59.8909C7.51748 55.4861 3.95041 49.398 2.68042 42.6624L4.3823 43.5621Z" fill="url(#paint13_linear_752_22876)"/>
<path d="M16.8257 9.50301L18.9412 13.0543C19.6124 13.3073 25.7314 13.6923 26.8335 13.2857C27.3856 12.5028 28.4293 9.72145 28.4293 8.70712C27.7905 8.06911 26.4805 6.99638 25.7898 5.49111C26.1081 4.82498 26.5433 4.12857 26.7469 3.66574C27.3272 3.72413 28.4293 4.33187 28.4293 4.33187L28.111 4.85309L27.994 4.44649L27.6065 4.30592L26.9872 4.61952C26.9872 4.61952 26.5736 5.61655 26.6451 5.82633L28.046 6.63088L28.78 6.50976C29.2239 5.66845 29.7847 4.56328 30.1376 3.80848C29.6808 3.25698 27.4462 1.71061 26.342 1.94851C25.2983 2.47623 23.3236 4.70819 22.3384 6.53355C23.0335 7.35324 24.2503 8.56222 24.2503 8.56222L23.7567 10.2081H20.0389C18.2548 8.83905 17.8304 8.60763 17.8304 8.60763L16.7196 8.66819L16.1848 9.83608L16.8257 9.50301Z" fill="url(#paint14_linear_752_22876)"/>
<g style="mix-blend-mode:screen" opacity="0.5">
<path d="M25.2897 11.841C25.5967 11.5466 25.847 11.1984 26.0281 10.8137C25.8918 11.2565 25.6833 11.6737 25.411 12.0487C25.411 12.0487 23.9841 12.2649 21.4875 12.0292C22.758 12.077 24.0302 12.014 25.2897 11.841Z" fill="white"/>
</g>
<path style="mix-blend-mode:multiply" d="M28.5808 5.73781L27.3921 5.17333L27.6086 4.30822L26.9893 4.62182C26.9893 4.62182 26.5758 5.61885 26.6472 5.82864L28.0481 6.63319L28.7821 6.51207C29.3473 5.46314 29.7976 4.56559 30.1397 3.81079L29.5508 4.08546L28.5808 5.73781Z" fill="url(#paint15_linear_752_22876)"/>
<path style="mix-blend-mode:multiply" opacity="0.35" d="M24.2503 8.56226L23.7566 10.2081C24.4073 10.7213 24.9666 11.3407 25.4108 12.04C25.8612 11.5923 26.632 9.77556 26.632 8.69851L24.2503 8.56226Z" fill="url(#paint16_linear_752_22876)"/>
<path style="mix-blend-mode:multiply" d="M25.4131 12.0399C23.5164 12.1762 20.7124 11.9815 19.4869 11.895C16.7587 9.80798 18.9347 13.0456 18.9347 13.0456C19.7229 13.2619 25.7249 13.6836 26.827 13.277C27.3792 12.4941 28.4228 9.71282 28.4228 8.69849H26.6235C26.5737 9.68254 25.8765 11.2678 25.4131 12.0399Z" fill="url(#paint17_linear_752_22876)"/>
<path d="M19.487 11.895L18.9348 13.0456C19.6493 13.3138 25.5128 13.675 26.7665 13.2965L26.8271 13.277L25.4046 12.0313C23.5165 12.1762 20.7125 11.9815 19.487 11.895Z" fill="url(#paint18_linear_752_22876)"/>
<path style="mix-blend-mode:multiply" d="M26.632 8.69853C25.7659 7.8875 24.6595 6.20704 24.4841 5.54956L22.3362 6.53578C23.0334 7.3533 24.2503 8.56228 24.2503 8.56228L26.632 8.69853Z" fill="url(#paint19_linear_752_22876)"/>
<path style="mix-blend-mode:multiply" d="M28.4292 4.32548L28.8168 3.84319C28.1226 3.44037 27.3909 3.10574 26.6321 2.84399C26.1102 3.1922 25.0449 4.7364 24.4841 5.5496L25.7833 5.49121C26.1016 4.82508 26.5368 4.12867 26.7403 3.66584C27.3271 3.72207 28.4292 4.32548 28.4292 4.32548Z" fill="url(#paint20_linear_752_22876)"/>
<path style="mix-blend-mode:multiply" opacity="0.25" d="M26.6453 5.82646L27.3988 5.17114L28.5897 5.73778L28.778 6.50989L28.044 6.631L26.6453 5.82646Z" fill="url(#paint21_linear_752_22876)"/>
<path style="mix-blend-mode:multiply" opacity="0.25" d="M28.8168 3.84751C28.1228 3.44321 27.3911 3.10713 26.6321 2.84399L26.749 3.66584C27.3293 3.72424 28.4314 4.33197 28.4314 4.33197L28.8168 3.84751Z" fill="url(#paint22_linear_752_22876)"/>
<g style="mix-blend-mode:screen" opacity="0.5">
<path d="M30.0838 3.75234C29.6205 3.2549 28.0572 2.16704 26.9334 1.95941H26.9182H26.8728C26.6411 1.93995 26.0933 2.22976 26.6324 2.85479C27.1737 3.04944 28.5811 3.65718 28.8172 3.86048C29.2376 3.98808 29.6911 3.94937 30.0838 3.75234Z" fill="white"/>
</g>
<path d="M28.0164 2.5084C28.039 2.45437 27.8917 2.3417 27.6874 2.25675C27.4832 2.17179 27.2994 2.14672 27.2769 2.20075C27.2543 2.25478 27.4016 2.36745 27.6059 2.45241C27.8101 2.53736 27.9939 2.56243 28.0164 2.5084Z" fill="url(#paint23_linear_752_22876)"/>
<g style="mix-blend-mode:screen" opacity="0.5">
<path d="M25.5343 7.40734C25.1401 6.82858 24.818 6.20398 24.5751 5.54737C24.9432 4.97424 25.8136 3.68956 26.0214 3.45166C25.3709 4.07889 24.819 4.80076 24.3845 5.59279C24.6836 6.24691 25.0704 6.85735 25.5343 7.40734Z" fill="white"/>
</g>
<path style="mix-blend-mode:multiply" opacity="0.35" d="M16.5901 9.60905L17.1682 11.3825L17.506 12.9181L18.5193 12.3449L17.8438 10.1216L16.8218 9.48145L16.5901 9.60905Z" fill="url(#paint24_linear_752_22876)"/>
<path style="mix-blend-mode:multiply" opacity="0.35" d="M17.8307 8.60767L16.72 8.66822C16.72 8.66822 18.9762 11.3068 19.4872 11.8951C19.394 10.5801 20.0328 10.1995 20.0328 10.1995C18.3417 8.9364 17.8307 8.60767 17.8307 8.60767Z" fill="url(#paint25_linear_752_22876)"/>
<path d="M16.7196 8.66821L16.1848 9.8361L16.8344 9.50304L18.9498 13.0543L19.4868 11.895C17.4472 9.54197 16.7196 8.66821 16.7196 8.66821Z" fill="url(#paint26_linear_752_22876)"/>
<g style="mix-blend-mode:screen" opacity="0.5">
<path d="M18.5431 10.8138C17.9888 10.0179 18.1599 8.75055 18.6665 9.18959C18.0386 8.74406 17.8264 8.61646 17.8264 8.61646L16.72 8.67701C17.3847 9.46209 18.5431 10.8138 18.5431 10.8138Z" fill="white"/>
</g>
<g style="mix-blend-mode:screen" opacity="0.5">
<path d="M17.6662 8.61646C17.4345 8.62943 16.8715 8.66404 16.72 8.66836C16.8629 8.84354 17.1162 9.13768 17.1162 9.13768C16.9928 8.89761 16.7611 8.69864 17.6662 8.61646Z" fill="white"/>
</g>
<g style="mix-blend-mode:screen" opacity="0.5">
<path d="M18.8523 9.31714L20.0388 10.2082H23.1633L19.883 10.3077L18.8523 9.31714Z" fill="white"/>
</g>
<path style="mix-blend-mode:multiply" opacity="0.35" d="M24.2507 8.56239L23.7592 10.2082H23.5037L23.9562 8.56239L23.2742 7.56104L24.1879 8.49967L24.2507 8.56239Z" fill="url(#paint27_linear_752_22876)"/>
<g style="mix-blend-mode:screen" opacity="0.5">
<path d="M25.7901 5.49121L24.491 5.58637C24.6988 6.27197 25.7663 7.90052 26.6324 8.69858H28.4317C27.7908 8.06921 26.4852 6.99865 25.7901 5.49121Z" fill="white"/>
</g>
<path d="M47.1741 9.50301L45.0586 13.0543C44.3874 13.3073 38.2684 13.6923 37.1663 13.2857C36.6142 12.5028 35.5705 9.72145 35.5705 8.70712C36.2093 8.06911 37.5192 6.99638 38.21 5.49111C37.8917 4.82498 37.4586 4.12857 37.2421 3.66574C36.6618 3.72413 35.5597 4.33187 35.5597 4.33187L35.878 4.85309L35.9949 4.44649L36.3825 4.30592L37.0017 4.61952C37.0017 4.61952 37.4153 5.61655 37.3439 5.82633L35.9429 6.63088L35.2089 6.50976C34.7651 5.66845 34.2043 4.56328 33.8513 3.80848C34.3082 3.25698 36.5427 1.71061 37.647 1.94851C38.6906 2.47623 40.6653 4.70819 41.6505 6.53355C40.9533 7.34459 39.7364 8.56222 39.7364 8.56222L40.2301 10.2081H43.9543C45.7385 8.83905 46.1629 8.60763 46.1629 8.60763L47.2737 8.66819L47.8085 9.83608L47.1741 9.50301Z" fill="url(#paint28_linear_752_22876)"/>
<g style="mix-blend-mode:screen" opacity="0.5">
<path d="M38.71 11.841C38.4022 11.5468 38.1512 11.1986 37.9695 10.8137C38.1057 11.2565 38.3142 11.6737 38.5866 12.0487C38.5866 12.0487 40.0135 12.2649 42.51 12.0292C41.2403 12.0769 39.9688 12.0139 38.71 11.841Z" fill="white"/>
</g>
<path style="mix-blend-mode:multiply" d="M35.41 5.73777L36.5922 5.17113L36.3757 4.30603L36.9949 4.61963C36.9949 4.61963 37.4085 5.61666 37.337 5.82644L35.9361 6.63099L35.2021 6.50987C34.637 5.46094 34.1866 4.5634 33.8445 3.80859L34.4334 4.08326L35.41 5.73777Z" fill="url(#paint29_linear_752_22876)"/>
<path style="mix-blend-mode:multiply" opacity="0.35" d="M39.747 8.56226L40.2407 10.2081C39.59 10.7213 39.0307 11.3407 38.5865 12.04C38.1361 11.5901 37.3674 9.77556 37.3674 8.69851L39.747 8.56226Z" fill="url(#paint30_linear_752_22876)"/>
<path style="mix-blend-mode:multiply" d="M38.5867 12.0398C40.4813 12.1761 43.2875 11.9814 44.5065 11.9036C47.2347 9.81653 45.0587 13.0542 45.0587 13.0542C44.2705 13.2704 38.2684 13.6922 37.1663 13.2856C36.6142 12.5027 35.5706 9.72136 35.5706 8.70703H37.3699C37.4262 9.68243 38.1234 11.2677 38.5867 12.0398Z" fill="url(#paint31_linear_752_22876)"/>
<path d="M44.5064 11.895L45.0586 13.0456C44.344 13.3138 38.4806 13.675 37.2269 13.2965L37.1663 13.277L38.5888 12.0313C40.4899 12.1762 43.2874 11.9815 44.5064 11.895Z" fill="url(#paint32_linear_752_22876)"/>
<path style="mix-blend-mode:multiply" d="M37.3674 8.69853C38.2335 7.8875 39.34 6.20704 39.5154 5.54956L41.6633 6.53578C40.9661 7.34681 39.7492 8.56444 39.7492 8.56444L37.3674 8.69853Z" fill="url(#paint33_linear_752_22876)"/>
<path style="mix-blend-mode:multiply" d="M35.568 4.32538L35.1804 3.84308C35.8744 3.43804 36.606 3.10123 37.3652 2.8374C37.887 3.18561 38.9523 4.72981 39.5131 5.54301L38.2139 5.48461C37.8913 4.82497 37.4583 4.12857 37.2417 3.66574C36.6723 3.72197 35.568 4.32538 35.568 4.32538Z" fill="url(#paint34_linear_752_22876)"/>
<path style="mix-blend-mode:multiply" opacity="0.25" d="M37.3544 5.82646L36.5987 5.17114L35.41 5.73778L35.2195 6.50989L35.9535 6.631L37.3544 5.82646Z" fill="url(#paint35_linear_752_22876)"/>
<path style="mix-blend-mode:multiply" opacity="0.25" d="M35.1829 3.84748C35.8768 3.44243 36.6085 3.10562 37.3676 2.8418L37.2507 3.66364C36.6704 3.72204 35.5683 4.32977 35.5683 4.32977L35.1829 3.84748Z" fill="url(#paint36_linear_752_22876)"/>
<g style="mix-blend-mode:screen" opacity="0.5">
<path d="M33.9163 3.75234C34.3796 3.2549 35.9429 2.16704 37.0667 1.95941H37.0818H37.1273C37.359 1.93995 37.9068 2.22976 37.3677 2.85479C36.8263 3.04944 35.4189 3.65718 35.1829 3.86048C34.7625 3.98808 34.309 3.94937 33.9163 3.75234Z" fill="white"/>
</g>
<path d="M36.3906 2.45101C36.5948 2.36606 36.7421 2.25339 36.7196 2.19936C36.697 2.14533 36.5132 2.1704 36.309 2.25535C36.1048 2.34031 35.9575 2.45298 35.98 2.50701C36.0025 2.56104 36.1863 2.53597 36.3906 2.45101Z" fill="url(#paint37_linear_752_22876)"/>
<g style="mix-blend-mode:screen" opacity="0.5">
<path d="M38.463 7.40734C38.8572 6.82858 39.1793 6.20398 39.4222 5.54737C39.0541 4.97424 38.1837 3.68956 37.9758 3.45166C38.6264 4.07889 39.1783 4.80076 39.6128 5.59279C39.3136 6.24691 38.9268 6.85735 38.463 7.40734Z" fill="white"/>
</g>
<path style="mix-blend-mode:multiply" opacity="0.35" d="M47.4097 9.60905L46.8294 11.3825L46.4916 12.9181L45.4783 12.3449L46.156 10.1216L47.178 9.48145L47.4097 9.60905Z" fill="url(#paint38_linear_752_22876)"/>
<path style="mix-blend-mode:multiply" opacity="0.35" d="M46.1694 8.60767L47.2802 8.66822C47.2802 8.66822 45.024 11.3068 44.5065 11.9124C44.6039 10.5974 43.9543 10.2103 43.9543 10.2103C45.6584 8.9364 46.1694 8.60767 46.1694 8.60767Z" fill="url(#paint39_linear_752_22876)"/>
<path d="M47.2798 8.66821L47.8146 9.8361L47.165 9.50304L45.0496 13.0543L44.5061 11.895C46.5523 9.54197 47.2798 8.66821 47.2798 8.66821Z" fill="url(#paint40_linear_752_22876)"/>
<g style="mix-blend-mode:screen" opacity="0.5">
<path d="M45.4547 10.8138C46.009 10.0179 45.838 8.75055 45.3313 9.18959C45.9592 8.74406 46.1714 8.61646 46.1714 8.61646L47.2779 8.67701C46.6131 9.46209 45.4547 10.8138 45.4547 10.8138Z" fill="white"/>
</g>
<g style="mix-blend-mode:screen" opacity="0.5">
<path d="M46.3362 8.61646C46.5679 8.62943 47.1308 8.66404 47.2824 8.66836C47.1395 8.84354 46.8862 9.13768 46.8862 9.13768C47.0074 8.89761 47.2369 8.69864 46.3362 8.61646Z" fill="white"/>
</g>
<g style="mix-blend-mode:screen" opacity="0.5">
<path d="M45.145 9.31714L43.9606 10.2082H40.8362L44.1144 10.3077L45.145 9.31714Z" fill="white"/>
</g>
<path style="mix-blend-mode:multiply" opacity="0.35" d="M39.7473 8.56239L40.241 10.2082H40.4965L40.044 8.56239L40.7238 7.56104L39.8101 8.49967L39.7473 8.56239Z" fill="url(#paint41_linear_752_22876)"/>
<g style="mix-blend-mode:screen" opacity="0.5">
<path d="M38.2096 5.49121L39.5087 5.58637C39.3073 6.26548 38.229 7.90052 37.3738 8.69858H35.5745C36.2067 8.06921 37.5124 6.99865 38.2096 5.49121Z" fill="white"/>
</g>
<path style="mix-blend-mode:multiply" opacity="0.35" d="M9.58983 40.2725L8.4271 42.2968L5.44556 42.4871L3.16772 40.6315L9.58983 40.2725Z" fill="url(#paint42_linear_752_22876)"/>
<path d="M-0.000244141 38.0448C2.94016 40.0108 4.38004 41.0922 6.71201 43.1619C8.87529 41.3037 11.1627 39.5948 13.5585 38.047C11.1627 36.4986 8.87521 34.7889 6.71201 32.9299C4.38004 34.9997 2.94016 36.0724 -0.000244141 38.0448Z" fill="url(#paint43_linear_752_22876)"/>
<path style="mix-blend-mode:multiply" d="M5.84591 39.0701L1.82939 38.0449H-0.000244141C2.94016 40.0109 4.38004 41.0922 6.71201 43.162V41.7995L5.84591 39.0701Z" fill="url(#paint44_linear_752_22876)"/>
<path style="mix-blend-mode:multiply" opacity="0.25" d="M13.5587 38.0449H11.6922C9.13073 39.2972 6.71216 41.7995 6.71216 41.7995V43.162C8.87537 41.303 11.1628 39.5934 13.5587 38.0449Z" fill="url(#paint45_linear_752_22876)"/>
<g style="mix-blend-mode:screen" opacity="0.5">
<path d="M6.89629 33.0901C6.60181 33.1658 6.52387 33.9271 6.71657 34.2883C8.62199 36.1569 11.6966 38.0428 11.6966 38.0428H13.5609C11.2342 36.538 9.00797 34.8836 6.89629 33.0901Z" fill="white"/>
</g>
<path d="M6.71197 41.7994C5.16488 40.4468 3.53412 39.1928 1.82935 38.0449C3.53407 36.8976 5.16483 35.6443 6.71197 34.2925C8.14536 35.4993 10.1222 36.9721 11.692 38.047C10.1266 39.1197 8.14969 40.5947 6.71197 41.7994Z" fill="url(#paint46_linear_752_22876)"/>
<g style="mix-blend-mode:screen" opacity="0.5">
<path d="M1.82935 38.0449H3.15231L6.75527 40.6402C6.75527 40.6402 6.72279 41.5334 6.7163 41.793C5.1572 40.4552 3.52576 39.204 1.82935 38.0449Z" fill="white"/>
</g>
<path style="mix-blend-mode:multiply" opacity="0.25" d="M6.71655 34.2925L6.72521 35.2506L8.10447 36.9873L10.4148 38.0449H11.6944L6.71655 34.2925Z" fill="url(#paint47_linear_752_22876)"/>
<path style="mix-blend-mode:multiply" d="M5.37818 36.9289L6.72496 35.2528V34.2947C5.17357 35.6462 3.53846 36.8988 1.82935 38.0449H3.03106L5.37818 36.9289Z" fill="url(#paint48_linear_752_22876)"/>
<path d="M10.4143 38.045L6.72476 40.8415L3.03735 38.045L6.72476 35.2507L10.4143 38.045Z" fill="url(#paint49_radial_752_22876)"/>
<g style="mix-blend-mode:multiply" opacity="0.3">
<path d="M6.72491 40.8415L3.03101 38.045L5.51454 37.9542C5.51454 37.9542 7.35716 37.9326 8.46143 37.9542C9.7844 37.978 10.4102 38.045 10.4102 38.045L6.72491 40.8415Z" fill="#215870"/>
</g>
<g style="mix-blend-mode:multiply" opacity="0.5">
<path d="M3.03735 38.0449L5.52089 37.9541L6.99325 39.0701L6.72476 40.8414L3.03735 38.0449Z" fill="#215B70"/>
</g>
<g style="mix-blend-mode:screen">
<path d="M6.72485 35.2507L6.99334 36.8382L8.46787 37.9542L10.4144 38.045L6.72485 35.2507Z" fill="url(#paint50_linear_752_22876)"/>
</g>
<path d="M6.99341 36.8381L8.56971 37.6989L10.4145 38.045L8.46794 37.9541L6.99341 36.8381Z" fill="#DCFFF2"/>
<g style="mix-blend-mode:screen" opacity="0.5">
<path d="M7.34839 34.7683L9.5158 36.1265L10.8929 37.4415L7.34839 34.7683Z" fill="white"/>
</g>
<g style="mix-blend-mode:screen" opacity="0.5">
<path d="M4.12866 39.6929L6.14017 41.0727L6.71613 41.7994L4.12866 39.6929Z" fill="white"/>
</g>
<path d="M7.78353 34.2645C7.83526 34.2034 7.68993 33.9956 7.45891 33.8005C7.2279 33.6054 6.99868 33.4967 6.94695 33.5578C6.89521 33.6189 7.04055 33.8266 7.27156 34.0218C7.50257 34.2169 7.73179 34.3256 7.78353 34.2645Z" fill="url(#paint51_linear_752_22876)"/>
<path style="mix-blend-mode:multiply" opacity="0.25" d="M3.15668 35.8455C2.18882 36.544 3.39053 36.8187 4.84773 35.8455C3.69582 36.7257 1.82939 38.045 1.82939 38.045H-0.000244141L3.15668 35.8455Z" fill="url(#paint52_linear_752_22876)"/>
<path style="mix-blend-mode:multiply" opacity="0.35" d="M55.0554 40.3093L55.4885 42.3099L58.4635 42.4872L60.7738 40.6035L55.0554 40.3093Z" fill="url(#paint53_linear_752_22876)"/>
<path d="M50.45 38.0448C53.3904 40.0194 54.8302 41.09 57.1622 43.1598C59.3255 41.3015 61.6129 39.5926 64.0087 38.0448C61.6129 36.4971 59.3255 34.7882 57.1622 32.9299C54.8194 34.9997 53.3795 36.0724 50.45 38.0448Z" fill="url(#paint54_linear_752_22876)"/>
<path style="mix-blend-mode:multiply" d="M56.2809 39.0701L52.2688 38.0449H50.45C53.3904 40.0174 54.8302 41.0901 57.1622 43.1598V41.7973L56.2809 39.0701Z" fill="url(#paint55_linear_752_22876)"/>
<path style="mix-blend-mode:multiply" opacity="0.25" d="M64.0002 38.0449H62.1424C59.5809 39.2972 57.1624 41.7995 57.1624 41.7995V43.162C59.3228 41.3033 61.6073 39.5937 64.0002 38.0449Z" fill="url(#paint56_linear_752_22876)"/>
<g style="mix-blend-mode:screen" opacity="0.5">
<path d="M57.3353 33.0901C57.0408 33.1658 56.9628 33.9271 57.1555 34.2883C59.061 36.1569 62.1356 38.0428 62.1356 38.0428H63.9999C61.6732 36.538 59.4469 34.8836 57.3353 33.0901Z" fill="white"/>
</g>
<path d="M57.1621 41.7994C55.6136 40.4467 53.9814 39.1927 52.2751 38.0449C53.9814 36.8977 55.6136 35.6445 57.1621 34.2925C58.5955 35.4993 60.5724 36.9721 62.1422 38.047C60.568 39.1197 58.589 40.5947 57.1621 41.7994Z" fill="url(#paint57_linear_752_22876)"/>
<g style="mix-blend-mode:screen" opacity="0.5">
<path d="M52.2688 38.0449H53.5918L57.1947 40.6402C57.1947 40.6402 57.1622 41.5334 57.1558 41.793C55.5967 40.4552 53.9652 39.204 52.2688 38.0449Z" fill="white"/>
</g>
<path style="mix-blend-mode:multiply" opacity="0.25" d="M57.1555 34.2925L57.1642 35.2506L58.5434 36.9873L60.8537 38.0449H62.1334L57.1555 34.2925Z" fill="url(#paint58_linear_752_22876)"/>
<path style="mix-blend-mode:multiply" d="M55.8175 36.9289L57.1621 35.2528V34.2947C55.6136 35.6474 53.9814 36.9014 52.2751 38.0492H53.4812L55.8175 36.9289Z" fill="url(#paint59_linear_752_22876)"/>
<path d="M60.8538 38.045L57.1642 40.8415L53.4768 38.045L57.1642 35.2507L60.8538 38.045Z" fill="url(#paint60_radial_752_22876)"/>
<g style="mix-blend-mode:multiply" opacity="0.3">
<path d="M57.1621 40.8415L53.4812 38.0472L55.9647 37.9564C55.9647 37.9564 57.8074 37.9348 58.9116 37.9564C60.2346 37.9802 60.8603 38.0472 60.8603 38.0472L57.1621 40.8415Z" fill="#215870"/>
</g>
<g style="mix-blend-mode:multiply" opacity="0.5">
<path d="M53.4768 38.0449L55.9603 37.9541L57.4349 39.0701L57.1642 40.8414L53.4768 38.0449Z" fill="#215B70"/>
</g>
<g style="mix-blend-mode:screen">
<path d="M57.1647 35.2505L57.4353 36.8379L58.9077 37.9539L60.8542 38.0448L57.1647 35.2505Z" fill="url(#paint61_linear_752_22876)"/>
</g>
<path d="M57.4348 36.8381L59.0089 37.6989L60.8537 38.045L58.9072 37.9541L57.4348 36.8381Z" fill="#DCFFF2"/>
<g style="mix-blend-mode:screen" opacity="0.5">
<path d="M57.7878 34.7683L59.9552 36.1265L61.3323 37.4415L57.7878 34.7683Z" fill="white"/>
</g>
<g style="mix-blend-mode:screen" opacity="0.5">
<path d="M54.5706 39.6929L56.5821 41.0727L57.1559 41.7994L54.5706 39.6929Z" fill="white"/>
</g>
<path d="M58.2254 34.2659C58.2772 34.2048 58.1318 33.9971 57.9008 33.802C57.6698 33.6068 57.4406 33.4982 57.3888 33.5593C57.3371 33.6204 57.4824 33.8281 57.7135 34.0232C57.9445 34.2184 58.1737 34.327 58.2254 34.2659Z" fill="url(#paint62_linear_752_22876)"/>
<path style="mix-blend-mode:multiply" opacity="0.25" d="M53.596 35.8455C52.6282 36.544 53.8299 36.8187 55.2871 35.8455C54.1352 36.7257 52.2688 38.045 52.2688 38.045H50.45L53.596 35.8455Z" fill="url(#paint63_linear_752_22876)"/>
<g style="mix-blend-mode:screen" opacity="0.5">
<path d="M58.9072 20.533C58.0113 19.0771 56.9975 17.6969 55.8758 16.4065C57.4283 18.2903 57.3915 18.8569 53.8513 16.9277C54.5009 17.4835 55.8282 19.1424 56.7506 20.5309C55.7676 18.5714 55.6571 17.7517 58.9072 20.533Z" fill="white"/>
</g>
<g style="mix-blend-mode:screen" opacity="0.5">
<path d="M18.0405 61.7249C16.5719 60.8717 15.1686 59.9109 13.8421 58.8506C15.295 60.2196 16.2823 60.7798 12.3264 59.4994C13.1925 60.2391 14.955 61.6622 16.029 62.2613C14.1842 60.557 14.4267 60.211 18.0405 61.7249Z" fill="white"/>
</g>
<path style="mix-blend-mode:color-dodge" opacity="0.6" d="M61.9458 36.8108C62.4174 36.1374 60.9741 34.3161 58.7222 32.7429C56.4704 31.1697 54.2626 30.4403 53.7911 31.1137C53.3195 31.7871 54.7628 33.6083 57.0146 35.1816C59.2665 36.7548 61.4743 37.4842 61.9458 36.8108Z" fill="url(#paint64_radial_752_22876)"/>
<path style="mix-blend-mode:color-dodge" opacity="0.6" d="M41.5399 67.0021C44.288 67.0021 46.5157 66.3359 46.5157 65.5141C46.5157 64.6923 44.288 64.0261 41.5399 64.0261C38.7919 64.0261 36.5642 64.6923 36.5642 65.5141C36.5642 66.3359 38.7919 67.0021 41.5399 67.0021Z" fill="url(#paint65_radial_752_22876)"/>
<path style="mix-blend-mode:color-dodge" opacity="0.6" d="M22.5595 67.0021C25.3075 67.0021 27.5352 66.3359 27.5352 65.5141C27.5352 64.6923 25.3075 64.0261 22.5595 64.0261C19.8115 64.0261 17.5837 64.6923 17.5837 65.5141C17.5837 66.3359 19.8115 67.0021 22.5595 67.0021Z" fill="url(#paint66_radial_752_22876)"/>
<path style="mix-blend-mode:color-dodge" opacity="0.6" d="M32.24 4.26527C32.5564 3.50665 30.7563 2.03618 28.2195 0.980905C25.6826 -0.0743743 23.3697 -0.314858 23.0534 0.443768C22.7371 1.20239 24.5372 2.67286 27.074 3.72814C29.6108 4.78341 31.9237 5.0239 32.24 4.26527Z" fill="url(#paint67_radial_752_22876)"/>
<path style="mix-blend-mode:color-dodge" opacity="0.6" d="M37.0007 3.84966C39.5375 2.79438 41.3376 1.32392 41.0213 0.565293C40.705 -0.193333 38.3921 0.0471512 35.8553 1.10243C33.3185 2.15771 31.5184 3.62817 31.8347 4.3868C32.151 5.14542 34.4639 4.90494 37.0007 3.84966Z" fill="url(#paint68_radial_752_22876)"/>
<path style="mix-blend-mode:color-dodge" opacity="0.6" d="M11.3955 36.81C11.8671 36.1366 10.4238 34.3154 8.17195 32.7422C5.92008 31.169 3.71232 30.4395 3.24077 31.113C2.76923 31.7864 4.21246 33.6076 6.46433 35.1808C8.7162 36.754 10.924 37.4835 11.3955 36.81Z" fill="url(#paint69_radial_752_22876)"/>
<path d="M22.6008 63.7104H22.2002L17.991 67.0865C17.991 67.0865 16.3086 66.2214 14.1173 64.2901C12.7645 64.3804 11.4068 64.371 10.0554 64.262C9.47507 64.7118 8.56134 65.5228 8.56134 65.5228C8.50332 66.2606 8.50332 67.0019 8.56134 67.7397C8.92293 68.2912 9.79552 69.3488 10.6941 69.9024C11.5061 69.9608 12.7532 69.9305 13.1603 69.8159C13.4679 69.4997 13.7571 69.1661 14.0264 68.8167C14.0264 68.8167 14.2624 67.1882 13.641 66.6129C13.9311 66.6129 14.178 66.6129 14.178 66.6129C15.4573 67.603 16.8446 68.4453 18.3136 69.1238C19.1797 68.1809 22.6029 64.2987 22.6029 64.2987L22.6008 63.7104Z" fill="url(#paint70_linear_752_22876)"/>
<path style="mix-blend-mode:multiply" opacity="0.25" d="M14.0217 65.4039C14.3162 66.1435 17.0531 68.2587 18.1227 68.2738C17.7589 67.9992 17.4991 66.9762 17.9928 67.0865C16.6057 66.2935 15.3065 65.3562 14.117 64.29C14.1562 64.664 14.1238 65.042 14.0217 65.4039Z" fill="url(#paint71_linear_752_22876)"/>
<path style="mix-blend-mode:multiply" d="M18.1227 68.2738C16.6492 67.4788 15.273 66.5157 14.0217 65.4038C12.901 65.5355 11.7695 65.5485 10.6461 65.4427C10.1329 66.4917 10.9363 67.8672 11.3433 68.051C11.7538 68.0765 12.1587 67.9451 12.4757 67.6834C12.1585 67.7123 11.8387 67.6926 11.5274 67.625C11.2539 67.2523 11.0775 66.8175 11.0142 66.3597C10.9557 66.3597 12.6836 66.3446 13.1621 66.3597C13.5952 66.9675 13.5952 67.8953 13.3223 68.808C13.1058 69.0048 11.8435 69.2708 11.103 69.3595C10.1308 69.0416 9.1889 67.9537 8.89876 67.6293L8.52417 66.8247C8.52417 67.2075 8.54582 67.5666 8.56531 67.7439C8.92691 68.2954 9.7995 69.353 10.6981 69.9067C11.51 69.9651 12.7572 69.9348 13.1643 69.8201C13.4719 69.5039 13.7611 69.1703 14.0304 68.821C14.0304 68.821 14.2621 67.1881 13.6406 66.6128C13.9308 66.6128 14.1776 66.6128 14.1776 66.6128C15.4569 67.6029 16.8443 68.4452 18.3132 69.1237C19.1793 68.1829 22.6026 64.2986 22.6026 64.2986V63.9807C21.6802 64.9994 18.8372 67.8391 18.1227 68.2738Z" fill="url(#paint72_linear_752_22876)"/>
<g style="mix-blend-mode:screen" opacity="0.5">
<path d="M12.4739 67.6942C12.3331 67.2617 12.4739 66.4139 13.1603 66.3706C12.4609 66.3706 11.0123 66.3706 11.0123 66.3706C10.8673 66.8637 11.5255 67.6358 11.5255 67.6358C11.8359 67.7099 12.1568 67.7296 12.4739 67.6942Z" fill="white"/>
</g>
<path style="mix-blend-mode:multiply" opacity="0.25" d="M11.3411 68.0509C11.7516 68.0764 12.1565 67.945 12.4735 67.6832C12.1563 67.7122 11.8364 67.6925 11.5252 67.6248C11.2517 67.2521 11.0753 66.8173 11.012 66.3596L10.5681 66.8138C10.7348 67.4323 11.1051 67.9449 11.3411 68.0509Z" fill="url(#paint73_linear_752_22876)"/>
<path style="mix-blend-mode:multiply" opacity="0.35" d="M19.801 67.787L21.4097 65.8794L22.6006 64.3828H22.2304C22.2304 64.3828 20.5913 66.2168 20.5523 66.2839C20.5133 66.3509 19.1687 67.787 19.1687 67.787H19.801Z" fill="url(#paint74_linear_752_22876)"/>
<path style="mix-blend-mode:multiply" opacity="0.25" d="M10.6462 65.4427L11.0143 66.3597C11.0663 66.3597 12.6989 66.3467 13.1623 66.3597C13.3396 66.4048 13.5037 66.4916 13.6408 66.6127C13.9309 66.6127 14.1778 66.6127 14.1778 66.6127L14.024 65.3994C12.9028 65.5327 11.7705 65.5472 10.6462 65.4427Z" fill="url(#paint75_linear_752_22876)"/>
<path style="mix-blend-mode:multiply" opacity="0.25" d="M22.6005 63.9851C21.6825 64.9994 18.8482 67.8391 18.1228 68.2738L18.3112 69.1389C19.1773 68.1981 22.6005 64.3138 22.6005 64.3138V63.9851Z" fill="url(#paint76_linear_752_22876)"/>
<path style="mix-blend-mode:multiply" opacity="0.25" d="M11.1012 69.3616L10.6941 69.898C11.5061 69.9564 12.7532 69.9261 13.1603 69.8114C13.1885 69.7531 13.3205 68.8123 13.3205 68.8123C13.104 69.0069 11.8395 69.2729 11.1012 69.3616Z" fill="url(#paint77_linear_752_22876)"/>
<g style="mix-blend-mode:screen" opacity="0.5">
<path d="M10.6462 65.4428C10.3755 65.2006 9.95979 64.7183 10.0572 64.2598C11.4084 64.3748 12.7666 64.3842 14.1192 64.2879C14.221 64.6599 14.0218 65.4039 14.0218 65.4039C13.4415 65.5315 11.7201 65.5488 10.6462 65.4428Z" fill="white"/>
</g>
<path d="M13.0676 64.6734C13.322 64.66 13.5254 64.5959 13.5219 64.5303C13.5184 64.4647 13.3094 64.4224 13.055 64.4359C12.8007 64.4493 12.5973 64.5134 12.6008 64.579C12.6043 64.6446 12.8133 64.6869 13.0676 64.6734Z" fill="url(#paint78_linear_752_22876)"/>
<g style="mix-blend-mode:screen" opacity="0.5">
<path d="M8.56128 65.5314L10.0445 64.4825C10.0445 64.4825 11.846 64.5041 12.6666 64.3657C11.6164 64.3657 10.7438 64.3354 10.0553 64.2705C9.7002 64.5452 8.56128 65.5314 8.56128 65.5314Z" fill="white"/>
</g>
<g style="mix-blend-mode:screen" opacity="0.5">
<path d="M11.1011 69.3616C11.8416 69.2751 13.1039 69.0069 13.3205 68.8101C13.3867 68.5914 13.4366 68.368 13.4699 68.1418C13.4487 68.2795 13.3974 68.4108 13.3195 68.5263C13.2417 68.6419 13.1392 68.7388 13.0195 68.8101C12.3954 69.0182 11.752 69.1631 11.0989 69.2427C10.5663 69.061 10.1679 68.7712 9.58325 68.3365C10.0116 68.7808 10.5287 69.1301 11.1011 69.3616Z" fill="white"/>
</g>
<g style="mix-blend-mode:screen" opacity="0.5">
<path d="M11.5252 67.627C11.3928 67.2787 11.3034 66.9155 11.2589 66.5456C11.3953 66.4678 12.623 66.3596 12.623 66.3596H11.012C11.0055 66.7338 11.4104 67.56 11.5252 67.627Z" fill="white"/>
</g>
<path d="M41.3994 63.7104H41.8L46.007 67.0865C46.007 67.0865 47.6894 66.2214 49.8806 64.2901C51.2335 64.3804 52.5912 64.371 53.9426 64.262C54.5229 64.7118 55.4366 65.5228 55.4366 65.5228C55.4947 66.2606 55.4947 67.0019 55.4366 67.7397C55.0729 68.2912 54.2025 69.3488 53.3039 69.9024C52.4919 69.9608 51.2447 69.9305 50.8377 69.8159C50.53 69.4997 50.2409 69.1661 49.9716 68.8167C49.9716 68.8167 49.7399 67.1947 50.3635 66.615C50.0733 66.615 49.8265 66.615 49.8265 66.615C48.5459 67.6062 47.1571 68.4493 45.6866 69.1282C44.8205 68.1852 41.3972 64.303 41.3972 64.303L41.3994 63.7104Z" fill="url(#paint79_linear_752_22876)"/>
<path style="mix-blend-mode:multiply" opacity="0.25" d="M49.9777 65.4039C49.6832 66.1435 46.9463 68.2587 45.8767 68.2738C46.2405 67.9992 46.5003 66.9762 46.0066 67.0865C47.393 66.2934 48.6914 65.356 49.8802 64.29C49.8418 64.6641 49.8748 65.0421 49.9777 65.4039Z" fill="url(#paint80_linear_752_22876)"/>
<path style="mix-blend-mode:multiply" d="M45.8771 68.2738C47.3506 67.4788 48.7268 66.5157 49.9781 65.4039C51.0988 65.5355 52.2302 65.5486 53.3537 65.4428C53.8668 66.4917 53.0635 67.8672 52.6565 68.0511C52.2503 68.0774 51.8491 67.95 51.5327 67.6942C51.85 67.7232 52.1698 67.7035 52.4811 67.6358C52.7546 67.2631 52.9309 66.8283 52.9943 66.3706C53.0527 66.3706 51.3249 66.3555 50.8463 66.3706C50.4133 66.9784 50.4133 67.9062 50.6861 68.8189C50.9026 69.0157 52.165 69.2817 52.9055 69.3704C53.8777 69.0524 54.8196 67.9646 55.1097 67.6402L55.4843 66.8356C55.4843 67.2184 55.4626 67.5774 55.4431 67.7548C55.0815 68.3063 54.209 69.3639 53.3104 69.9175C52.4984 69.9759 51.2512 69.9457 50.8442 69.831C50.5365 69.5148 50.2474 69.1812 49.9781 68.8318C49.9781 68.8318 49.7464 67.2098 50.37 66.6302C50.0798 66.6302 49.833 66.6302 49.833 66.6302C48.5497 67.6164 47.1587 68.4544 45.6866 69.1281C44.8205 68.1873 41.3972 64.303 41.3972 64.303V63.9851C42.3174 64.9994 45.1517 67.8391 45.8771 68.2738Z" fill="url(#paint81_linear_752_22876)"/>
<g style="mix-blend-mode:screen" opacity="0.5">
<path d="M51.5323 67.6942C51.6731 67.2617 51.5323 66.4139 50.8459 66.3706C51.5453 66.3706 52.9939 66.3706 52.9939 66.3706C53.1389 66.8637 52.4807 67.6358 52.4807 67.6358C52.1703 67.7099 51.8495 67.7296 51.5323 67.6942Z" fill="white"/>
</g>
<path style="mix-blend-mode:multiply" opacity="0.25" d="M52.6562 68.0511C52.2501 68.0774 51.8489 67.95 51.5325 67.6942C51.8497 67.7232 52.1696 67.7035 52.4808 67.6358C52.7543 67.2631 52.9307 66.8283 52.994 66.3706L53.4379 66.8248C53.2647 67.4325 52.8922 67.9451 52.6562 68.0511Z" fill="url(#paint82_linear_752_22876)"/>
<path style="mix-blend-mode:multiply" opacity="0.35" d="M44.2011 67.787L42.6855 65.8578L41.408 64.3828H41.6028C41.6028 64.3828 43.4173 66.2168 43.4563 66.2839C43.4953 66.3509 44.8723 67.787 44.8723 67.787H44.2011Z" fill="url(#paint83_linear_752_22876)"/>
<path style="mix-blend-mode:multiply" opacity="0.25" d="M53.3535 65.4428L52.9854 66.3598C52.9335 66.3598 51.3009 66.3468 50.8375 66.3598C50.6608 66.4031 50.4968 66.4876 50.359 66.6064C50.0689 66.6064 49.822 66.6064 49.822 66.6064L49.9758 65.3931C51.0968 65.5285 52.229 65.5452 53.3535 65.4428Z" fill="url(#paint84_linear_752_22876)"/>
<path style="mix-blend-mode:multiply" opacity="0.25" d="M41.3992 63.9851C42.3172 64.9994 45.1515 67.8391 45.8769 68.2738L45.6885 69.1389C44.8224 68.1981 41.3992 64.3138 41.3992 64.3138V63.9851Z" fill="url(#paint85_linear_752_22876)"/>
<path style="mix-blend-mode:multiply" opacity="0.25" d="M52.8988 69.3616L53.3059 69.898C52.4939 69.9564 51.2467 69.9261 50.8397 69.8114C50.8115 69.7531 50.6794 68.8123 50.6794 68.8123C50.8938 69.0069 52.1583 69.2729 52.8988 69.3616Z" fill="url(#paint86_linear_752_22876)"/>
<g style="mix-blend-mode:screen" opacity="0.5">
<path d="M53.3533 65.4428C53.624 65.2006 54.0397 64.7183 53.9423 64.2598C52.5911 64.3748 51.2329 64.3842 49.8803 64.2879C49.7785 64.6599 49.9777 65.4039 49.9777 65.4039C50.558 65.5315 52.2794 65.5488 53.3533 65.4428Z" fill="white"/>
</g>
<path d="M51.3993 64.5796C51.4028 64.514 51.1994 64.4499 50.9451 64.4364C50.6907 64.423 50.4817 64.4653 50.4782 64.5309C50.4747 64.5965 50.6781 64.6606 50.9325 64.674C51.1868 64.6875 51.3958 64.6452 51.3993 64.5796Z" fill="url(#paint87_linear_752_22876)"/>
<g style="mix-blend-mode:screen" opacity="0.5">
<path d="M55.4298 65.5314L53.9466 64.4825C53.9466 64.4825 52.1451 64.5041 51.3245 64.3657C52.3746 64.3657 53.2472 64.3354 53.9357 64.2705C54.2995 64.5452 55.4298 65.5314 55.4298 65.5314Z" fill="white"/>
</g>
<g style="mix-blend-mode:screen" opacity="0.5">
<path d="M52.8988 69.3616C52.1583 69.2751 50.896 69.0069 50.6794 68.8101C50.6132 68.5914 50.5632 68.368 50.53 68.1418C50.5512 68.2795 50.6025 68.4108 50.6804 68.5263C50.7582 68.6419 50.8607 68.7388 50.9804 68.8101C51.6045 69.0182 52.2479 69.1631 52.901 69.2427C53.4336 69.061 53.832 68.7712 54.4166 68.3365C53.9884 68.7809 53.4712 69.1302 52.8988 69.3616Z" fill="white"/>
</g>
<g style="mix-blend-mode:screen" opacity="0.5">
<path d="M52.472 67.627C52.6044 67.2787 52.6939 66.9155 52.7384 66.5456C52.602 66.4678 51.3743 66.3596 51.3743 66.3596H52.9852C52.9917 66.7338 52.589 67.56 52.472 67.627Z" fill="white"/>
</g>
<path d="M43.9996 69.0957L47.3622 63.4725L44.0018 57.4363H19.9676L16.6375 63.3687L19.9698 69.0914L43.9996 69.0957ZM21.2386 59.5515H42.7481L44.8939 63.5655L42.9841 66.9848H20.9853L19.108 63.4574L21.2386 59.5515Z" fill="url(#paint88_linear_752_22876)"/>
<path d="M43.2221 58.762H20.7685L18.2092 63.453L20.5087 67.7785H43.4495L45.7944 63.5849L43.2221 58.762ZM42.9861 66.9804H20.9851L19.1078 63.453L21.2384 59.5492H42.7479L44.8937 63.5633L42.9861 66.9804Z" fill="url(#paint89_linear_752_22876)"/>
<path d="M19.97 69.0956L20.5091 67.7742H43.4499L43.9998 69.0956H19.97Z" fill="url(#paint90_linear_752_22876)"/>
<path d="M20.7688 58.762L21.2387 59.5535H42.7482L43.2224 58.762H20.7688Z" fill="url(#paint91_linear_752_22876)"/>
<path d="M44.894 63.5654L45.7948 63.5741L43.2225 58.762L42.7483 59.5535L44.894 63.5654Z" fill="url(#paint92_linear_752_22876)"/>
<path d="M21.2384 59.5535L20.7685 58.762L18.2092 63.453L19.1078 63.4573L21.2384 59.5535Z" fill="url(#paint93_linear_752_22876)"/>
<path d="M19.1082 63.4572L21.2388 59.5535H42.7483L44.894 63.5654L42.9864 66.9847H20.9854L19.1082 63.4572Z" fill="url(#paint94_radial_752_22876)"/>
<g style="mix-blend-mode:multiply" opacity="0.5">
<path d="M21.7086 60.3429L21.2388 59.5535L19.1082 63.4572L20.9854 66.9847H42.9865L42.5209 66.1953H21.4596L20.0046 63.4616L21.7086 60.3429Z" fill="#215B70"/>
</g>
<g style="mix-blend-mode:screen">
<path d="M21.7084 60.3429H42.2739L43.9931 63.5567L42.5207 66.1953L42.9862 66.9847L44.8938 63.5654L42.748 59.5535H21.2385L21.7084 60.3429Z" fill="url(#paint95_linear_752_22876)"/>
</g>
<path style="mix-blend-mode:screen" opacity="0.3" d="M39.0021 60.343L41.3817 66.1089L34.9682 66.1954L33.0671 60.343H39.0021Z" fill="url(#paint96_linear_752_22876)"/>
<path style="mix-blend-mode:screen" opacity="0.3" d="M30.4519 60.343L32.0737 66.1089L29.785 66.1954L28.0745 60.343H30.4519Z" fill="url(#paint97_linear_752_22876)"/>
<path d="M16.6375 63.373L18.2094 63.4531L20.5089 67.7743L19.9698 69.0957L16.6375 63.373Z" fill="url(#paint98_linear_752_22876)"/>
<path d="M47.3621 63.4768L45.7944 63.5741L43.4495 67.7742L43.9994 69.0956L47.3621 63.4768Z" fill="url(#paint99_linear_752_22876)"/>
<g style="mix-blend-mode:screen" opacity="0.5">
<path d="M32.6951 57.4404C33.6326 58.5218 38.9526 59.2917 43.2138 57.4404H32.6951Z" fill="white"/>
</g>
<path d="M37.8354 57.9985C38.5218 57.9985 39.0782 57.9027 39.0782 57.7844C39.0782 57.6662 38.5218 57.5703 37.8354 57.5703C37.149 57.5703 36.5925 57.6662 36.5925 57.7844C36.5925 57.9027 37.149 57.9985 37.8354 57.9985Z" fill="url(#paint100_linear_752_22876)"/>
<g style="mix-blend-mode:screen">
<path d="M34.2844 60.343H42.2742L43.9934 63.5569L41.9234 60.6674L34.2844 60.343Z" fill="#F4E38C"/>
</g>
<g style="mix-blend-mode:screen" opacity="0.5">
<path d="M20.0046 63.4617L21.7607 65.8234L28.7046 66.1089L21.4597 66.1954L20.0046 63.4617Z" fill="#F4E38C"/>
</g>
<path style="mix-blend-mode:color-dodge" opacity="0.6" d="M37.9627 58.7641C39.7744 58.7641 41.2431 58.3255 41.2431 57.7844C41.2431 57.2433 39.7744 56.8047 37.9627 56.8047C36.151 56.8047 34.6824 57.2433 34.6824 57.7844C34.6824 58.3255 36.151 58.7641 37.9627 58.7641Z" fill="url(#paint101_radial_752_22876)"/>
<path style="mix-blend-mode:multiply" opacity="0.35" d="M47.2216 63.708V64.9343L46.1433 65.5139L47.2216 63.708Z" fill="url(#paint102_linear_752_22876)"/>
<path style="mix-blend-mode:multiply" opacity="0.35" d="M16.7888 63.6348V64.954L17.8714 65.4926L16.7888 63.6348Z" fill="url(#paint103_linear_752_22876)"/>
<defs>
<linearGradient id="paint0_linear_752_22876" x1="32.0001" y1="68.6651" x2="32.0001" y2="5.66626" gradientUnits="userSpaceOnUse">
<stop offset="0.01" stop-color="#737FBA"/>
<stop offset="1" stop-color="#C4E1F5"/>
</linearGradient>
<linearGradient id="paint1_linear_752_22876" x1="29.7288" y1="5.52147" x2="31.9871" y2="5.52147" gradientUnits="userSpaceOnUse">
<stop stop-color="#333F66"/>
<stop offset="1" stop-color="#3C548E"/>
</linearGradient>
<radialGradient id="paint2_radial_752_22876" cx="0" cy="0" r="1" gradientUnits="userSpaceOnUse" gradientTransform="translate(32.0123 64.5132) scale(14.6642 14.6474)">
<stop stop-color="#2B3554"/>
<stop offset="0.94" stop-color="#7C97C8"/>
</radialGradient>
<linearGradient id="paint3_linear_752_22876" x1="57.4219" y1="42.0916" x2="57.4219" y2="30.4862" gradientUnits="userSpaceOnUse">
<stop offset="0.06" stop-color="#7C97C8"/>
<stop offset="1" stop-color="#404F7E"/>
</linearGradient>
<linearGradient id="paint4_linear_752_22876" x1="6.57563" y1="42.0916" x2="6.57563" y2="30.4862" gradientUnits="userSpaceOnUse">
<stop offset="0.06" stop-color="#7C97C8"/>
<stop offset="1" stop-color="#404F7E"/>
</linearGradient>
<linearGradient id="paint5_linear_752_22876" x1="7.73626" y1="43.5774" x2="7.73626" y2="30.6787" gradientUnits="userSpaceOnUse">
<stop offset="0.01" stop-color="#737FBA"/>
<stop offset="1" stop-color="#C4E1F5"/>
</linearGradient>
<linearGradient id="paint6_linear_752_22876" x1="56.2613" y1="43.5774" x2="56.2613" y2="30.6787" gradientUnits="userSpaceOnUse">
<stop offset="0.01" stop-color="#737FBA"/>
<stop offset="1" stop-color="#C4E1F5"/>
</linearGradient>
<linearGradient id="paint7_linear_752_22876" x1="31.9998" y1="31.1437" x2="31.9998" y2="7.49609" gradientUnits="userSpaceOnUse">
<stop stop-color="#C4E1F5"/>
<stop offset="0.99" stop-color="#737FBA"/>
</linearGradient>
<linearGradient id="paint8_linear_752_22876" x1="31.9998" y1="66.8376" x2="31.9998" y2="42.6624" gradientUnits="userSpaceOnUse">
<stop stop-color="#C4E1F5"/>
<stop offset="0.99" stop-color="#737FBA"/>
</linearGradient>
<linearGradient id="paint9_linear_752_22876" x1="51.2166" y1="42.8355" x2="61.3152" y2="42.8355" gradientUnits="userSpaceOnUse">
<stop stop-color="#2B3554"/>
<stop offset="0.94" stop-color="#7C97C8"/>
</linearGradient>
<linearGradient id="paint10_linear_752_22876" x1="49.8588" y1="51.2767" x2="61.3151" y2="51.2767" gradientUnits="userSpaceOnUse">
<stop offset="0.06" stop-color="#7C97C8"/>
<stop offset="1" stop-color="#404F7E"/>
</linearGradient>
<radialGradient id="paint11_radial_752_22876" cx="0" cy="0" r="1" gradientUnits="userSpaceOnUse" gradientTransform="translate(32.1458 12.0588) scale(15.0118 14.9946)">
<stop stop-color="#2B3554"/>
<stop offset="0.94" stop-color="#7C97C8"/>
</radialGradient>
<linearGradient id="paint12_linear_752_22876" x1="12.7836" y1="42.8355" x2="2.68273" y2="42.8355" gradientUnits="userSpaceOnUse">
<stop stop-color="#2B3554"/>
<stop offset="0.94" stop-color="#7C97C8"/>
</linearGradient>
<linearGradient id="paint13_linear_752_22876" x1="14.1389" y1="51.2766" x2="2.68258" y2="51.2766" gradientUnits="userSpaceOnUse">
<stop offset="0.06" stop-color="#7C97C8"/>
<stop offset="1" stop-color="#404F7E"/>
</linearGradient>
<linearGradient id="paint14_linear_752_22876" x1="23.1591" y1="15.4765" x2="23.1591" y2="8.28106" gradientUnits="userSpaceOnUse">
<stop offset="0.01" stop-color="#737FBA"/>
<stop offset="1" stop-color="#C4E1F5"/>
</linearGradient>
<linearGradient id="paint15_linear_752_22876" x1="28.2885" y1="6.54451" x2="28.3878" y2="4.71914" gradientUnits="userSpaceOnUse">
<stop offset="0.01" stop-color="#737FBA"/>
<stop offset="1" stop-color="#C4E1F5"/>
</linearGradient>
<linearGradient id="paint16_linear_752_22876" x1="23.7588" y1="10.3011" x2="26.6299" y2="10.3011" gradientUnits="userSpaceOnUse">
<stop stop-color="#404F7E"/>
<stop offset="0.53" stop-color="#7C97C8"/>
<stop offset="1" stop-color="#404F7E"/>
</linearGradient>
<linearGradient id="paint17_linear_752_22876" x1="23.1613" y1="13.6425" x2="23.2931" y2="9.44246" gradientUnits="userSpaceOnUse">
<stop offset="0.01" stop-color="#737FBA"/>
<stop offset="1" stop-color="#C4E1F5"/>
</linearGradient>
<linearGradient id="paint18_linear_752_22876" x1="16.9103" y1="12.6866" x2="24.8026" y2="12.6866" gradientUnits="userSpaceOnUse">
<stop stop-color="#3C548E"/>
<stop offset="1" stop-color="#333F66"/>
</linearGradient>
<linearGradient id="paint19_linear_752_22876" x1="25.1813" y1="8.84127" x2="23.9687" y2="6.70544" gradientUnits="userSpaceOnUse">
<stop offset="0.01" stop-color="#737FBA"/>
<stop offset="1" stop-color="#C4E1F5"/>
</linearGradient>
<linearGradient id="paint20_linear_752_22876" x1="27.208" y1="3.78912" x2="26.2677" y2="5.32564" gradientUnits="userSpaceOnUse">
<stop offset="0.01" stop-color="#737FBA"/>
<stop offset="1" stop-color="#C4E1F5"/>
</linearGradient>
<linearGradient id="paint21_linear_752_22876" x1="27.2602" y1="5.50421" x2="28.6296" y2="6.57414" gradientUnits="userSpaceOnUse">
<stop offset="0.06" stop-color="#7C97C8"/>
<stop offset="1" stop-color="#404F7E"/>
</linearGradient>
<linearGradient id="paint22_linear_752_22876" x1="27.7234" y1="4.34495" x2="27.7234" y2="3.48633" gradientUnits="userSpaceOnUse">
<stop offset="0.06" stop-color="#7C97C8"/>
<stop offset="1" stop-color="#404F7E"/>
</linearGradient>
<linearGradient id="paint23_linear_752_22876" x1="27.2864" y1="2.38362" x2="28.005" y2="2.32397" gradientUnits="userSpaceOnUse">
<stop stop-color="white"/>
<stop offset="1" stop-color="#C4F3FF"/>
</linearGradient>
<linearGradient id="paint24_linear_752_22876" x1="16.5901" y1="11.1987" x2="18.5193" y2="11.1987" gradientUnits="userSpaceOnUse">
<stop stop-color="#404F7E"/>
<stop offset="0.53" stop-color="#7C97C8"/>
<stop offset="1" stop-color="#404F7E"/>
</linearGradient>
<linearGradient id="paint25_linear_752_22876" x1="19.6864" y1="10.991" x2="18.198" y2="9.77388" gradientUnits="userSpaceOnUse">
<stop stop-color="#5483A8"/>
<stop offset="1" stop-color="white"/>
</linearGradient>
<linearGradient id="paint26_linear_752_22876" x1="16.1848" y1="10.8612" x2="19.4933" y2="10.8612" gradientUnits="userSpaceOnUse">
<stop offset="0.06" stop-color="#7C97C8"/>
<stop offset="1" stop-color="#404F7E"/>
</linearGradient>
<linearGradient id="paint27_linear_752_22876" x1="23.2742" y1="8.88464" x2="24.2507" y2="8.88464" gradientUnits="userSpaceOnUse">
<stop stop-color="#404F7E"/>
<stop offset="0.53" stop-color="#7C97C8"/>
<stop offset="1" stop-color="#404F7E"/>
</linearGradient>
<linearGradient id="paint28_linear_752_22876" x1="40.8386" y1="15.4765" x2="40.8386" y2="8.28106" gradientUnits="userSpaceOnUse">
<stop offset="0.01" stop-color="#737FBA"/>
<stop offset="1" stop-color="#C4E1F5"/>
</linearGradient>
<linearGradient id="paint29_linear_752_22876" x1="35.7109" y1="6.54448" x2="35.6094" y2="4.7191" gradientUnits="userSpaceOnUse">
<stop offset="0.01" stop-color="#737FBA"/>
<stop offset="1" stop-color="#C4E1F5"/>
</linearGradient>
<linearGradient id="paint30_linear_752_22876" x1="37.3674" y1="10.3011" x2="40.2407" y2="10.3011" gradientUnits="userSpaceOnUse">
<stop stop-color="#404F7E"/>
<stop offset="0.53" stop-color="#7C97C8"/>
<stop offset="1" stop-color="#404F7E"/>
</linearGradient>
<linearGradient id="paint31_linear_752_22876" x1="40.8364" y1="13.6424" x2="40.7047" y2="9.44236" gradientUnits="userSpaceOnUse">
<stop offset="0.01" stop-color="#737FBA"/>
<stop offset="1" stop-color="#C4E1F5"/>
</linearGradient>
<linearGradient id="paint32_linear_752_22876" x1="47.0874" y1="12.6866" x2="39.1951" y2="12.6866" gradientUnits="userSpaceOnUse">
<stop stop-color="#3C548E"/>
<stop offset="1" stop-color="#333F66"/>
</linearGradient>
<linearGradient id="paint33_linear_752_22876" x1="38.816" y1="8.84127" x2="40.0286" y2="6.70544" gradientUnits="userSpaceOnUse">
<stop offset="0.01" stop-color="#737FBA"/>
<stop offset="1" stop-color="#C4E1F5"/>
</linearGradient>
<linearGradient id="paint34_linear_752_22876" x1="36.7892" y1="3.78901" x2="37.7295" y2="5.32553" gradientUnits="userSpaceOnUse">
<stop offset="0.01" stop-color="#737FBA"/>
<stop offset="1" stop-color="#C4E1F5"/>
</linearGradient>
<linearGradient id="paint35_linear_752_22876" x1="36.7373" y1="5.50421" x2="35.3679" y2="6.57413" gradientUnits="userSpaceOnUse">
<stop offset="0.06" stop-color="#7C97C8"/>
<stop offset="1" stop-color="#404F7E"/>
</linearGradient>
<linearGradient id="paint36_linear_752_22876" x1="36.2741" y1="4.34491" x2="36.2741" y2="3.4863" gradientUnits="userSpaceOnUse">
<stop offset="0.06" stop-color="#7C97C8"/>
<stop offset="1" stop-color="#404F7E"/>
</linearGradient>
<linearGradient id="paint37_linear_752_22876" x1="36.8189" y1="2.39187" x2="36.099" y2="2.33233" gradientUnits="userSpaceOnUse">
<stop stop-color="white"/>
<stop offset="1" stop-color="#C4F3FF"/>
</linearGradient>
<linearGradient id="paint38_linear_752_22876" x1="45.4783" y1="11.1987" x2="47.4097" y2="11.1987" gradientUnits="userSpaceOnUse">
<stop stop-color="#404F7E"/>
<stop offset="0.53" stop-color="#7C97C8"/>
<stop offset="1" stop-color="#404F7E"/>
</linearGradient>
<linearGradient id="paint39_linear_752_22876" x1="44.3138" y1="10.991" x2="45.7999" y2="9.77388" gradientUnits="userSpaceOnUse">
<stop stop-color="#5483A8"/>
<stop offset="1" stop-color="white"/>
</linearGradient>
<linearGradient id="paint40_linear_752_22876" x1="47.8124" y1="10.8612" x2="44.5039" y2="10.8612" gradientUnits="userSpaceOnUse">
<stop offset="0.06" stop-color="#7C97C8"/>
<stop offset="1" stop-color="#404F7E"/>
</linearGradient>
<linearGradient id="paint41_linear_752_22876" x1="39.7473" y1="8.88464" x2="40.7238" y2="8.88464" gradientUnits="userSpaceOnUse">
<stop stop-color="#404F7E"/>
<stop offset="0.53" stop-color="#7C97C8"/>
<stop offset="1" stop-color="#404F7E"/>
</linearGradient>
<linearGradient id="paint42_linear_752_22876" x1="3.16772" y1="41.3798" x2="9.58983" y2="41.3798" gradientUnits="userSpaceOnUse">
<stop stop-color="#404F7E"/>
<stop offset="0.53" stop-color="#7C97C8"/>
<stop offset="1" stop-color="#404F7E"/>
</linearGradient>
<linearGradient id="paint43_linear_752_22876" x1="6.77913" y1="42.9954" x2="6.77913" y2="36.0659" gradientUnits="userSpaceOnUse">
<stop offset="0.01" stop-color="#737FBA"/>
<stop offset="1" stop-color="#C4E1F5"/>
</linearGradient>
<linearGradient id="paint44_linear_752_22876" x1="2.53742" y1="36.7646" x2="4.08008" y2="42.7152" gradientUnits="userSpaceOnUse">
<stop offset="0.01" stop-color="#737FBA"/>
<stop offset="1" stop-color="#C4E1F5"/>
</linearGradient>
<linearGradient id="paint45_linear_752_22876" x1="7.19934" y1="41.8708" x2="11.1027" y2="39.2757" gradientUnits="userSpaceOnUse">
<stop offset="0.06" stop-color="#7C97C8"/>
<stop offset="1" stop-color="#404F7E"/>
</linearGradient>
<linearGradient id="paint46_linear_752_22876" x1="6.76177" y1="34.4958" x2="6.76177" y2="39.2495" gradientUnits="userSpaceOnUse">
<stop offset="0.01" stop-color="#737FBA"/>
<stop offset="1" stop-color="#C4E1F5"/>
</linearGradient>
<linearGradient id="paint47_linear_752_22876" x1="6.71655" y1="36.1676" x2="11.6944" y2="36.1676" gradientUnits="userSpaceOnUse">
<stop offset="0.06" stop-color="#7C97C8"/>
<stop offset="1" stop-color="#404F7E"/>
</linearGradient>
<linearGradient id="paint48_linear_752_22876" x1="6.54524" y1="35.2939" x2="3.6176" y2="37.1526" gradientUnits="userSpaceOnUse">
<stop offset="0.01" stop-color="#737FBA"/>
<stop offset="1" stop-color="#C4E1F5"/>
</linearGradient>
<radialGradient id="paint49_radial_752_22876" cx="0" cy="0" r="1" gradientUnits="userSpaceOnUse" gradientTransform="translate(7.99253 36.6652) scale(4.55346 3.75887)">
<stop stop-color="#4B70ED"/>
<stop offset="1" stop-color="#00CED1"/>
</radialGradient>
<linearGradient id="paint50_linear_752_22876" x1="6.72485" y1="36.6479" x2="10.4144" y2="36.6479" gradientUnits="userSpaceOnUse">
<stop stop-color="#400900"/>
<stop offset="1" stop-color="#ABFBD3"/>
</linearGradient>
<linearGradient id="paint51_linear_752_22876" x1="7.09099" y1="33.6965" x2="7.92519" y2="34.4027" gradientUnits="userSpaceOnUse">
<stop stop-color="white"/>
<stop offset="1" stop-color="#C4F3FF"/>
</linearGradient>
<linearGradient id="paint52_linear_752_22876" x1="-0.000244141" y1="36.9463" x2="4.84773" y2="36.9463" gradientUnits="userSpaceOnUse">
<stop offset="0.06" stop-color="#7C97C8"/>
<stop offset="1" stop-color="#404F7E"/>
</linearGradient>
<linearGradient id="paint53_linear_752_22876" x1="55.0554" y1="41.3994" x2="60.7738" y2="41.3994" gradientUnits="userSpaceOnUse">
<stop stop-color="#404F7E"/>
<stop offset="0.53" stop-color="#7C97C8"/>
<stop offset="1" stop-color="#404F7E"/>
</linearGradient>
<linearGradient id="paint54_linear_752_22876" x1="57.2185" y1="42.9954" x2="57.2185" y2="36.0659" gradientUnits="userSpaceOnUse">
<stop offset="0.01" stop-color="#737FBA"/>
<stop offset="1" stop-color="#C4E1F5"/>
</linearGradient>
<linearGradient id="paint55_linear_752_22876" x1="52.9768" y1="36.7646" x2="54.5194" y2="42.7152" gradientUnits="userSpaceOnUse">
<stop offset="0.01" stop-color="#737FBA"/>
<stop offset="1" stop-color="#C4E1F5"/>
</linearGradient>
<linearGradient id="paint56_linear_752_22876" x1="57.6387" y1="41.8708" x2="61.5421" y2="39.2757" gradientUnits="userSpaceOnUse">
<stop offset="0.06" stop-color="#7C97C8"/>
<stop offset="1" stop-color="#404F7E"/>
</linearGradient>
<linearGradient id="paint57_linear_752_22876" x1="57.2011" y1="34.4958" x2="57.2011" y2="39.2495" gradientUnits="userSpaceOnUse">
<stop offset="0.01" stop-color="#737FBA"/>
<stop offset="1" stop-color="#C4E1F5"/>
</linearGradient>
<linearGradient id="paint58_linear_752_22876" x1="57.1555" y1="36.1676" x2="62.1334" y2="36.1676" gradientUnits="userSpaceOnUse">
<stop offset="0.06" stop-color="#7C97C8"/>
<stop offset="1" stop-color="#404F7E"/>
</linearGradient>
<linearGradient id="paint59_linear_752_22876" x1="56.9867" y1="35.2939" x2="54.0569" y2="37.1526" gradientUnits="userSpaceOnUse">
<stop offset="0.01" stop-color="#737FBA"/>
<stop offset="1" stop-color="#C4E1F5"/>
</linearGradient>
<radialGradient id="paint60_radial_752_22876" cx="0" cy="0" r="1" gradientUnits="userSpaceOnUse" gradientTransform="translate(58.3961 36.6652) scale(4.55346 3.75887)">
<stop stop-color="#4B70ED"/>
<stop offset="1" stop-color="#00CED1"/>
</radialGradient>
<linearGradient id="paint61_linear_752_22876" x1="57.1647" y1="36.6476" x2="60.8542" y2="36.6476" gradientUnits="userSpaceOnUse">
<stop stop-color="#400900"/>
<stop offset="1" stop-color="#ABFBD3"/>
</linearGradient>
<linearGradient id="paint62_linear_752_22876" x1="57.5457" y1="33.7088" x2="58.3819" y2="34.4167" gradientUnits="userSpaceOnUse">
<stop stop-color="white"/>
<stop offset="1" stop-color="#C4F3FF"/>
</linearGradient>
<linearGradient id="paint63_linear_752_22876" x1="50.4391" y1="36.9463" x2="55.2871" y2="36.9463" gradientUnits="userSpaceOnUse">
<stop offset="0.06" stop-color="#7C97C8"/>
<stop offset="1" stop-color="#404F7E"/>
</linearGradient>
<radialGradient id="paint64_radial_752_22876" cx="0" cy="0" r="1" gradientUnits="userSpaceOnUse" gradientTransform="translate(58.4546 34.3585) rotate(34.9391) scale(4.97368 1.48853)">
<stop stop-color="#40F1F4"/>
<stop offset="0.09" stop-color="#3CE4E6"/>
<stop offset="0.27" stop-color="#33C0C3"/>
<stop offset="0.51" stop-color="#248789"/>
<stop offset="0.8" stop-color="#0F3939"/>
<stop offset="1"/>
</radialGradient>
<radialGradient id="paint65_radial_752_22876" cx="0" cy="0" r="1" gradientUnits="userSpaceOnUse" gradientTransform="translate(42.0912 65.5141) scale(4.97555 1.48797)">
<stop stop-color="#40F1F4"/>
<stop offset="0.09" stop-color="#3CE4E6"/>
<stop offset="0.27" stop-color="#33C0C3"/>
<stop offset="0.51" stop-color="#248789"/>
<stop offset="0.8" stop-color="#0F3939"/>
<stop offset="1"/>
</radialGradient>
<radialGradient id="paint66_radial_752_22876" cx="0" cy="0" r="1" gradientUnits="userSpaceOnUse" gradientTransform="translate(23.1147 65.5141) scale(4.97555 1.48797)">
<stop stop-color="#40F1F4"/>
<stop offset="0.09" stop-color="#3CE4E6"/>
<stop offset="0.27" stop-color="#33C0C3"/>
<stop offset="0.51" stop-color="#248789"/>
<stop offset="0.8" stop-color="#0F3939"/>
<stop offset="1"/>
</radialGradient>
<radialGradient id="paint67_radial_752_22876" cx="0" cy="0" r="1" gradientUnits="userSpaceOnUse" gradientTransform="translate(28.2171 2.58005) rotate(22.5866) scale(4.97471 1.48823)">
<stop stop-color="#40F1F4"/>
<stop offset="0.09" stop-color="#3CE4E6"/>
<stop offset="0.27" stop-color="#33C0C3"/>
<stop offset="0.51" stop-color="#248789"/>
<stop offset="0.8" stop-color="#0F3939"/>
<stop offset="1"/>
</radialGradient>
<radialGradient id="paint68_radial_752_22876" cx="0" cy="0" r="1" gradientUnits="userSpaceOnUse" gradientTransform="translate(36.8775 2.30545) rotate(-22.5866) scale(4.97471 1.48823)">
<stop stop-color="#40F1F4"/>
<stop offset="0.09" stop-color="#3CE4E6"/>
<stop offset="0.27" stop-color="#33C0C3"/>
<stop offset="0.51" stop-color="#248789"/>
<stop offset="0.8" stop-color="#0F3939"/>
<stop offset="1"/>
</radialGradient>
<radialGradient id="paint69_radial_752_22876" cx="0" cy="0" r="1" gradientUnits="userSpaceOnUse" gradientTransform="translate(7.90803 34.363) rotate(34.9391) scale(4.97368 1.48854)">
<stop stop-color="#40F1F4"/>
<stop offset="0.09" stop-color="#3CE4E6"/>
<stop offset="0.27" stop-color="#33C0C3"/>
<stop offset="0.51" stop-color="#248789"/>
<stop offset="0.8" stop-color="#0F3939"/>
<stop offset="1"/>
</radialGradient>
<linearGradient id="paint70_linear_752_22876" x1="15.5594" y1="64.8545" x2="15.5594" y2="69.3379" gradientUnits="userSpaceOnUse">
<stop stop-color="#C4E1F5"/>
<stop offset="0.99" stop-color="#737FBA"/>
</linearGradient>
<linearGradient id="paint71_linear_752_22876" x1="18.1747" y1="66.1197" x2="15.0243" y2="66.369" gradientUnits="userSpaceOnUse">
<stop offset="0.06" stop-color="#7C97C8"/>
<stop offset="1" stop-color="#404F7E"/>
</linearGradient>
<linearGradient id="paint72_linear_752_22876" x1="8.51984" y1="66.9545" x2="22.6004" y2="66.9545" gradientUnits="userSpaceOnUse">
<stop offset="0.01" stop-color="#737FBA"/>
<stop offset="1" stop-color="#C4E1F5"/>
</linearGradient>
<linearGradient id="paint73_linear_752_22876" x1="10.5681" y1="67.2074" x2="12.4735" y2="67.2074" gradientUnits="userSpaceOnUse">
<stop offset="0.06" stop-color="#7C97C8"/>
<stop offset="1" stop-color="#404F7E"/>
</linearGradient>
<linearGradient id="paint74_linear_752_22876" x1="19.1665" y1="66.0849" x2="22.6006" y2="66.0849" gradientUnits="userSpaceOnUse">
<stop stop-color="#404F7E"/>
<stop offset="0.53" stop-color="#7C97C8"/>
<stop offset="1" stop-color="#404F7E"/>
</linearGradient>
<linearGradient id="paint75_linear_752_22876" x1="11.0706" y1="66.0115" x2="14.6021" y2="66.0115" gradientUnits="userSpaceOnUse">
<stop offset="0.06" stop-color="#7C97C8"/>
<stop offset="1" stop-color="#404F7E"/>
</linearGradient>
<linearGradient id="paint76_linear_752_22876" x1="18.322" y1="68.5939" x2="20.4523" y2="66.4179" gradientUnits="userSpaceOnUse">
<stop offset="0.06" stop-color="#7C97C8"/>
<stop offset="1" stop-color="#404F7E"/>
</linearGradient>
<linearGradient id="paint77_linear_752_22876" x1="13.5154" y1="69.3075" x2="11.3091" y2="69.4809" gradientUnits="userSpaceOnUse">
<stop offset="0.06" stop-color="#7C97C8"/>
<stop offset="1" stop-color="#404F7E"/>
</linearGradient>
<linearGradient id="paint78_linear_752_22876" x1="11.9495" y1="64.8954" x2="12.8662" y2="64.8113" gradientUnits="userSpaceOnUse">
<stop stop-color="white"/>
<stop offset="1" stop-color="#C4F3FF"/>
</linearGradient>
<linearGradient id="paint79_linear_752_22876" x1="48.4408" y1="64.8545" x2="48.4408" y2="69.3379" gradientUnits="userSpaceOnUse">
<stop stop-color="#C4E1F5"/>
<stop offset="0.99" stop-color="#737FBA"/>
</linearGradient>
<linearGradient id="paint80_linear_752_22876" x1="45.8247" y1="66.1197" x2="48.9751" y2="66.369" gradientUnits="userSpaceOnUse">
<stop offset="0.06" stop-color="#7C97C8"/>
<stop offset="1" stop-color="#404F7E"/>
</linearGradient>
<linearGradient id="paint81_linear_752_22876" x1="55.48" y1="66.9546" x2="41.3994" y2="66.9546" gradientUnits="userSpaceOnUse">
<stop offset="0.01" stop-color="#737FBA"/>
<stop offset="1" stop-color="#C4E1F5"/>
</linearGradient>
<linearGradient id="paint82_linear_752_22876" x1="53.4314" y1="67.2076" x2="51.526" y2="67.2076" gradientUnits="userSpaceOnUse">
<stop offset="0.06" stop-color="#7C97C8"/>
<stop offset="1" stop-color="#404F7E"/>
</linearGradient>
<linearGradient id="paint83_linear_752_22876" x1="41.3993" y1="66.0849" x2="44.8615" y2="66.0849" gradientUnits="userSpaceOnUse">
<stop stop-color="#404F7E"/>
<stop offset="0.53" stop-color="#7C97C8"/>
<stop offset="1" stop-color="#404F7E"/>
</linearGradient>
<linearGradient id="paint84_linear_752_22876" x1="52.9291" y1="66.0116" x2="49.3976" y2="66.0116" gradientUnits="userSpaceOnUse">
<stop offset="0.06" stop-color="#7C97C8"/>
<stop offset="1" stop-color="#404F7E"/>
</linearGradient>
<linearGradient id="paint85_linear_752_22876" x1="45.6777" y1="68.5939" x2="43.5474" y2="66.4179" gradientUnits="userSpaceOnUse">
<stop offset="0.06" stop-color="#7C97C8"/>
<stop offset="1" stop-color="#404F7E"/>
</linearGradient>
<linearGradient id="paint86_linear_752_22876" x1="50.4846" y1="69.3075" x2="52.6888" y2="69.4809" gradientUnits="userSpaceOnUse">
<stop offset="0.06" stop-color="#7C97C8"/>
<stop offset="1" stop-color="#404F7E"/>
</linearGradient>
<linearGradient id="paint87_linear_752_22876" x1="51.5462" y1="66.2377" x2="50.6317" y2="66.1538" gradientUnits="userSpaceOnUse">
<stop stop-color="white"/>
<stop offset="1" stop-color="#C4F3FF"/>
</linearGradient>
<linearGradient id="paint88_linear_752_22876" x1="31.9999" y1="69.0957" x2="31.9999" y2="57.4406" gradientUnits="userSpaceOnUse">
<stop offset="0.01" stop-color="#737FBA"/>
<stop offset="1" stop-color="#C4E1F5"/>
</linearGradient>
<linearGradient id="paint89_linear_752_22876" x1="32.0018" y1="67.7742" x2="32.0018" y2="58.762" gradientUnits="userSpaceOnUse">
<stop stop-color="#C4E1F5"/>
<stop offset="0.99" stop-color="#737FBA"/>
</linearGradient>
<linearGradient id="paint90_linear_752_22876" x1="19.97" y1="68.4338" x2="43.9998" y2="68.4338" gradientUnits="userSpaceOnUse">
<stop offset="0.06" stop-color="#7C97C8"/>
<stop offset="1" stop-color="#404F7E"/>
</linearGradient>
<linearGradient id="paint91_linear_752_22876" x1="20.7688" y1="59.1577" x2="43.2224" y2="59.1577" gradientUnits="userSpaceOnUse">
<stop offset="0.06" stop-color="#7C97C8"/>
<stop offset="1" stop-color="#404F7E"/>
</linearGradient>
<linearGradient id="paint92_linear_752_22876" x1="42.7483" y1="61.1691" x2="45.7948" y2="61.1691" gradientUnits="userSpaceOnUse">
<stop stop-color="#323E63"/>
<stop offset="0.94" stop-color="#7C97C8"/>
</linearGradient>
<linearGradient id="paint93_linear_752_22876" x1="18.2092" y1="61.1107" x2="21.2384" y2="61.1107" gradientUnits="userSpaceOnUse">
<stop offset="0.06" stop-color="#7C97C8"/>
<stop offset="1" stop-color="#404F7E"/>
</linearGradient>
<radialGradient id="paint94_radial_752_22876" cx="0" cy="0" r="1" gradientUnits="userSpaceOnUse" gradientTransform="translate(41.9233 59.3783) scale(20.6781 20.6543)">
<stop stop-color="#4B70ED"/>
<stop offset="1" stop-color="#00CED1"/>
</radialGradient>
<linearGradient id="paint95_linear_752_22876" x1="21.2385" y1="63.2691" x2="44.8938" y2="63.2691" gradientUnits="userSpaceOnUse">
<stop stop-color="#400900"/>
<stop offset="1" stop-color="#ABFBD3"/>
</linearGradient>
<linearGradient id="paint96_linear_752_22876" x1="36.4492" y1="60.6458" x2="37.8537" y2="65.3334" gradientUnits="userSpaceOnUse">
<stop stop-color="#FFF2FD"/>
<stop offset="1" stop-color="#00AED9"/>
</linearGradient>
<linearGradient id="paint97_linear_752_22876" x1="28.0723" y1="63.2692" x2="32.0737" y2="63.2692" gradientUnits="userSpaceOnUse">
<stop stop-color="#FFF2FD"/>
<stop offset="1" stop-color="#00AED9"/>
</linearGradient>
<linearGradient id="paint98_linear_752_22876" x1="16.6375" y1="66.2344" x2="20.5089" y2="66.2344" gradientUnits="userSpaceOnUse">
<stop stop-color="#323E63"/>
<stop offset="0.94" stop-color="#7C97C8"/>
</linearGradient>
<linearGradient id="paint99_linear_752_22876" x1="43.4495" y1="66.2862" x2="47.3621" y2="66.2862" gradientUnits="userSpaceOnUse">
<stop offset="0.06" stop-color="#7C97C8"/>
<stop offset="1" stop-color="#404F7E"/>
</linearGradient>
<linearGradient id="paint100_linear_752_22876" x1="36.5947" y1="57.7844" x2="39.0782" y2="57.7844" gradientUnits="userSpaceOnUse">
<stop stop-color="white"/>
<stop offset="1" stop-color="#C4F3FF"/>
</linearGradient>
<radialGradient id="paint101_radial_752_22876" cx="0" cy="0" r="1" gradientUnits="userSpaceOnUse" gradientTransform="translate(38.5421 57.7844) scale(3.27606 0.979728)">
<stop stop-color="#40F1F4"/>
<stop offset="0.09" stop-color="#3CE4E6"/>
<stop offset="0.27" stop-color="#33C0C3"/>
<stop offset="0.51" stop-color="#248789"/>
<stop offset="0.8" stop-color="#0F3939"/>
<stop offset="1"/>
</radialGradient>
<linearGradient id="paint102_linear_752_22876" x1="46.1433" y1="64.612" x2="47.2238" y2="64.612" gradientUnits="userSpaceOnUse">
<stop stop-color="#404F7E"/>
<stop offset="0.53" stop-color="#7C97C8"/>
<stop offset="1" stop-color="#404F7E"/>
</linearGradient>
<linearGradient id="paint103_linear_752_22876" x1="16.7888" y1="64.5626" x2="17.8714" y2="64.5626" gradientUnits="userSpaceOnUse">
<stop stop-color="#404F7E"/>
<stop offset="0.53" stop-color="#7C97C8"/>
<stop offset="1" stop-color="#404F7E"/>
</linearGradient>
</defs>
</svg>
