<svg width="26" height="26" viewBox="0 0 26 26" fill="none" xmlns="http://www.w3.org/2000/svg">
<g clip-path="url(#clip0_856_8296)">
<path d="M12.9999 25.5091C19.9087 25.5091 25.5094 19.9085 25.5094 12.9997C25.5094 6.09091 19.9087 0.490234 12.9999 0.490234C6.09115 0.490234 0.490479 6.09091 0.490479 12.9997C0.490479 19.9085 6.09115 25.5091 12.9999 25.5091Z" fill="url(#paint0_linear_856_8296)"/>
<path d="M18.6415 11.2834H14.717V7.35892C14.717 6.95247 14.3876 6.62305 13.9811 6.62305H12.0188C11.6124 6.62305 11.283 6.95247 11.283 7.35892V11.2834H7.35843C6.95198 11.2834 6.62256 11.6129 6.62256 12.0193V13.9816C6.62256 14.3881 6.95198 14.7175 7.35843 14.7175H11.283V18.642C11.283 19.0485 11.6124 19.3779 12.0188 19.3779H13.9811C14.3876 19.3779 14.717 19.0485 14.717 18.642V14.7175H18.6415C19.048 14.7175 19.3774 14.3881 19.3774 13.9816V12.0193C19.3774 11.6129 19.048 11.2834 18.6415 11.2834Z" fill="white"/>
<path d="M18.6414 11.0374H14.9622V7.3581C14.9622 6.81626 14.5229 6.37695 13.981 6.37695H12.0187C11.4769 6.37695 11.0376 6.81626 11.0376 7.3581V11.0374H7.35834C6.81651 11.0374 6.3772 11.4767 6.3772 12.0185V13.9808C6.3772 14.5226 6.81651 14.9619 7.35834 14.9619H11.0376V18.6412C11.0376 19.183 11.4769 19.6223 12.0187 19.6223H13.981C14.5229 19.6223 14.9622 19.183 14.9622 18.6412V14.9619H18.6414C19.1833 14.9619 19.6226 14.5226 19.6226 13.9808V12.0185C19.6226 11.4767 19.1833 11.0374 18.6414 11.0374ZM19.132 13.9808C19.132 14.2518 18.9125 14.4713 18.6415 14.4713H14.4717V18.6411C14.4717 18.9122 14.2521 19.1317 13.9811 19.1317H12.0188C11.7478 19.1317 11.5283 18.9122 11.5283 18.6411V14.4713H7.35849C7.08747 14.4713 6.86795 14.2518 6.86795 13.9808V12.0185C6.86795 11.7475 7.08747 11.5279 7.35849 11.5279H11.5283V7.35815C11.5283 7.08713 11.7478 6.8676 12.0188 6.8676H13.9811C14.2521 6.8676 14.4717 7.08713 14.4717 7.35815V11.5279H18.6415C18.9125 11.5279 19.132 11.7475 19.132 12.0185V13.9808Z" fill="white"/>
<g opacity="0.1">
<path d="M25.0189 12.7539C25.0189 19.3918 19.6379 24.7728 13.0001 24.7728C6.36224 24.7728 0.981201 19.3917 0.981201 12.7539C0.981201 12.8349 0.981201 12.9158 0.981201 12.9992C0.981201 19.6371 6.36224 25.018 13.0001 25.018C19.6379 25.018 25.0189 19.6371 25.0189 12.9992C25.0189 12.9158 25.0189 12.8349 25.0189 12.7539ZM14.9623 14.9615V15.9426H18.6416C19.1834 15.9426 19.6227 15.5033 19.6227 14.9615V13.9803C19.6227 14.5222 19.1834 14.9615 18.6416 14.9615H14.9623ZM12.0189 19.6218C11.4771 19.6218 11.0378 19.1825 11.0378 18.6407V19.6218C11.0378 20.1637 11.4771 20.603 12.0189 20.603H13.9812C14.523 20.603 14.9623 20.1637 14.9623 19.6218V18.6407C14.9623 19.1825 14.523 19.6218 13.9812 19.6218H12.0189ZM7.35856 15.9426H11.0378V14.9614H7.35856C6.81673 14.9614 6.37742 14.5221 6.37742 13.9803V14.9614C6.37742 15.5033 6.81673 15.9426 7.35856 15.9426ZM7.35856 14.4709H11.5284V13.9803H7.35856C7.08755 13.9803 6.86802 13.7608 6.86802 13.4898V13.9803C6.86797 14.2513 7.08749 14.4709 7.35856 14.4709ZM19.1321 13.9803V13.4898C19.1321 13.7608 18.9126 13.9803 18.6416 13.9803H14.4718V14.4709H18.6416C18.9126 14.4709 19.1321 14.2513 19.1321 13.9803ZM11.5284 18.6407C11.5284 18.9117 11.7479 19.1312 12.0189 19.1312H13.9812C14.2522 19.1312 14.4717 18.9117 14.4717 18.6407V18.1501C14.4717 18.4211 14.2522 18.6407 13.9812 18.6407H12.0189C11.7479 18.6407 11.5284 18.4211 11.5284 18.1501V18.6407Z" fill="black"/>
</g>
<path d="M13 0C5.82034 0 0 5.82034 0 13C0 20.1797 5.82034 26 13 26C20.1797 26 26 20.1797 26 13C26 5.82034 20.1797 0 13 0ZM13 25.0189C6.36213 25.0189 0.981144 19.6379 0.981144 13C0.981144 6.36213 6.36213 0.981144 13 0.981144C19.6379 0.981144 25.0189 6.36213 25.0189 13C25.0189 19.6379 19.6379 25.0189 13 25.0189Z" fill="#DC7744"/>
</g>
<defs>
<linearGradient id="paint0_linear_856_8296" x1="12.9999" y1="0.490234" x2="12.9999" y2="25.5091" gradientUnits="userSpaceOnUse">
<stop stop-color="#FCEABD"/>
<stop offset="1" stop-color="#D68006"/>
</linearGradient>
<clipPath id="clip0_856_8296">
<rect width="26" height="26" fill="white"/>
</clipPath>
</defs>
</svg>
