<svg width="76" height="63" viewBox="0 0 76 63" fill="none" xmlns="http://www.w3.org/2000/svg">
<g filter="url(#filter0_dd_212_6110)">
<mask id="path-1-outside-1_212_6110" maskUnits="userSpaceOnUse" x="15.0433" y="41" width="45" height="19" fill="black">
<rect fill="white" x="15.0433" y="41" width="45" height="19"/>
<path d="M21.0263 55C20.5463 55 20.1089 54.9787 19.7143 54.936C19.3303 54.8827 18.9729 54.8027 18.6423 54.696C18.3116 54.5893 18.0076 54.456 17.7303 54.296C17.4636 54.1253 17.2076 53.9227 16.9623 53.688C16.5676 53.3147 16.2903 52.8347 16.1303 52.248C15.9703 51.6507 15.8903 51.0267 15.8903 50.376V47.352H18.1303V50.104C18.1303 50.584 18.1783 50.9947 18.2743 51.336C18.3809 51.6667 18.5569 51.9387 18.8023 52.152C19.0796 52.3867 19.4263 52.5467 19.8423 52.632C20.2583 52.7173 20.7063 52.76 21.1863 52.76H23.7943C23.5596 52.4507 23.3729 52.1093 23.2343 51.736C23.0956 51.3627 23.0263 50.9467 23.0263 50.488C23.0263 49.784 23.1543 49.1547 23.4103 48.6C23.6769 48.0453 24.0449 47.576 24.5143 47.192C24.9836 46.7973 25.5489 46.4987 26.2103 46.296C26.8716 46.0933 27.6023 45.992 28.4023 45.992H31.0423V55H21.0263ZM25.2663 50.488C25.2663 50.9787 25.3729 51.416 25.5863 51.8C25.8103 52.184 26.1089 52.504 26.4823 52.76H28.8023V48.232H27.8583C27.5383 48.232 27.2183 48.28 26.8983 48.376C26.5889 48.472 26.3116 48.616 26.0663 48.808C25.8316 49 25.6396 49.24 25.4903 49.528C25.3409 49.8053 25.2663 50.1253 25.2663 50.488ZM28.8663 44.328C28.6103 44.5307 28.3063 44.632 27.9543 44.632C27.6023 44.632 27.2929 44.5307 27.0263 44.328C26.7703 44.1253 26.6423 43.8267 26.6423 43.432C26.6423 43.08 26.7649 42.7973 27.0103 42.584C27.2663 42.36 27.5809 42.248 27.9543 42.248C28.3276 42.248 28.6369 42.36 28.8823 42.584C29.1383 42.7973 29.2663 43.08 29.2663 43.432C29.2663 43.8267 29.1329 44.1253 28.8663 44.328ZM33.6121 58.52C33.3988 58.52 33.1908 58.504 32.9881 58.472C32.7855 58.4507 32.6148 58.4187 32.4761 58.376L32.3161 56.136C32.5295 56.1893 32.7161 56.2267 32.8761 56.248C33.0361 56.2693 33.2015 56.28 33.3721 56.28C33.8201 56.28 34.1295 56.1573 34.3001 55.912C34.4815 55.6667 34.5721 55.2667 34.5721 54.712V45.992H36.8121V52.76H38.5401V55H36.7961C36.7321 56.2373 36.4495 57.1333 35.9481 57.688C35.4468 58.2427 34.6681 58.52 33.6121 58.52ZM38.0668 52.76H40.7708L38.7868 47.672C39.1708 47.3413 39.5548 47.0373 39.9388 46.76C40.3334 46.4827 40.7281 46.2427 41.1228 46.04C41.5281 45.8373 41.9441 45.6827 42.3708 45.576C42.7974 45.4587 43.2401 45.4 43.6988 45.4C44.6268 45.4 45.4961 45.6133 46.3068 46.04C47.1174 46.4667 47.8908 47.016 48.6268 47.688L46.7068 52.76H49.6508V55H38.0668V52.76ZM43.6988 47.768C43.2508 47.768 42.8401 47.8373 42.4668 47.976C42.0934 48.1147 41.7041 48.3333 41.2988 48.632L42.7548 52.76H44.6748L46.1308 48.616C45.6828 48.3067 45.2774 48.088 44.9148 47.96C44.5628 47.832 44.1574 47.768 43.6988 47.768ZM44.5788 44.04C44.3228 44.2427 44.0188 44.344 43.6668 44.344C43.3148 44.344 43.0054 44.2427 42.7388 44.04C42.4828 43.8373 42.3548 43.5387 42.3548 43.144C42.3548 42.792 42.4774 42.5093 42.7228 42.296C42.9788 42.072 43.2934 41.96 43.6668 41.96C44.0401 41.96 44.3494 42.072 44.5948 42.296C44.8508 42.5093 44.9788 42.792 44.9788 43.144C44.9788 43.5387 44.8454 43.8373 44.5788 44.04ZM49.1724 52.76H50.7404V42.024H54.0204V44.264H52.9804V55H49.1724V52.76ZM56.5768 42.024H58.8168V55H56.5768V42.024Z"/>
</mask>
<path d="M21.0263 55C20.5463 55 20.1089 54.9787 19.7143 54.936C19.3303 54.8827 18.9729 54.8027 18.6423 54.696C18.3116 54.5893 18.0076 54.456 17.7303 54.296C17.4636 54.1253 17.2076 53.9227 16.9623 53.688C16.5676 53.3147 16.2903 52.8347 16.1303 52.248C15.9703 51.6507 15.8903 51.0267 15.8903 50.376V47.352H18.1303V50.104C18.1303 50.584 18.1783 50.9947 18.2743 51.336C18.3809 51.6667 18.5569 51.9387 18.8023 52.152C19.0796 52.3867 19.4263 52.5467 19.8423 52.632C20.2583 52.7173 20.7063 52.76 21.1863 52.76H23.7943C23.5596 52.4507 23.3729 52.1093 23.2343 51.736C23.0956 51.3627 23.0263 50.9467 23.0263 50.488C23.0263 49.784 23.1543 49.1547 23.4103 48.6C23.6769 48.0453 24.0449 47.576 24.5143 47.192C24.9836 46.7973 25.5489 46.4987 26.2103 46.296C26.8716 46.0933 27.6023 45.992 28.4023 45.992H31.0423V55H21.0263ZM25.2663 50.488C25.2663 50.9787 25.3729 51.416 25.5863 51.8C25.8103 52.184 26.1089 52.504 26.4823 52.76H28.8023V48.232H27.8583C27.5383 48.232 27.2183 48.28 26.8983 48.376C26.5889 48.472 26.3116 48.616 26.0663 48.808C25.8316 49 25.6396 49.24 25.4903 49.528C25.3409 49.8053 25.2663 50.1253 25.2663 50.488ZM28.8663 44.328C28.6103 44.5307 28.3063 44.632 27.9543 44.632C27.6023 44.632 27.2929 44.5307 27.0263 44.328C26.7703 44.1253 26.6423 43.8267 26.6423 43.432C26.6423 43.08 26.7649 42.7973 27.0103 42.584C27.2663 42.36 27.5809 42.248 27.9543 42.248C28.3276 42.248 28.6369 42.36 28.8823 42.584C29.1383 42.7973 29.2663 43.08 29.2663 43.432C29.2663 43.8267 29.1329 44.1253 28.8663 44.328ZM33.6121 58.52C33.3988 58.52 33.1908 58.504 32.9881 58.472C32.7855 58.4507 32.6148 58.4187 32.4761 58.376L32.3161 56.136C32.5295 56.1893 32.7161 56.2267 32.8761 56.248C33.0361 56.2693 33.2015 56.28 33.3721 56.28C33.8201 56.28 34.1295 56.1573 34.3001 55.912C34.4815 55.6667 34.5721 55.2667 34.5721 54.712V45.992H36.8121V52.76H38.5401V55H36.7961C36.7321 56.2373 36.4495 57.1333 35.9481 57.688C35.4468 58.2427 34.6681 58.52 33.6121 58.52ZM38.0668 52.76H40.7708L38.7868 47.672C39.1708 47.3413 39.5548 47.0373 39.9388 46.76C40.3334 46.4827 40.7281 46.2427 41.1228 46.04C41.5281 45.8373 41.9441 45.6827 42.3708 45.576C42.7974 45.4587 43.2401 45.4 43.6988 45.4C44.6268 45.4 45.4961 45.6133 46.3068 46.04C47.1174 46.4667 47.8908 47.016 48.6268 47.688L46.7068 52.76H49.6508V55H38.0668V52.76ZM43.6988 47.768C43.2508 47.768 42.8401 47.8373 42.4668 47.976C42.0934 48.1147 41.7041 48.3333 41.2988 48.632L42.7548 52.76H44.6748L46.1308 48.616C45.6828 48.3067 45.2774 48.088 44.9148 47.96C44.5628 47.832 44.1574 47.768 43.6988 47.768ZM44.5788 44.04C44.3228 44.2427 44.0188 44.344 43.6668 44.344C43.3148 44.344 43.0054 44.2427 42.7388 44.04C42.4828 43.8373 42.3548 43.5387 42.3548 43.144C42.3548 42.792 42.4774 42.5093 42.7228 42.296C42.9788 42.072 43.2934 41.96 43.6668 41.96C44.0401 41.96 44.3494 42.072 44.5948 42.296C44.8508 42.5093 44.9788 42.792 44.9788 43.144C44.9788 43.5387 44.8454 43.8373 44.5788 44.04ZM49.1724 52.76H50.7404V42.024H54.0204V44.264H52.9804V55H49.1724V52.76ZM56.5768 42.024H58.8168V55H56.5768V42.024Z" fill="white"/>
<path d="M19.7143 54.936L19.6455 55.4312L19.653 55.4323L19.6605 55.4331L19.7143 54.936ZM18.6423 54.696L18.7958 54.2201L18.6423 54.696ZM17.7303 54.296L17.4607 54.7171L17.4704 54.7233L17.4804 54.7291L17.7303 54.296ZM16.9623 53.688L17.3079 53.3267L17.3059 53.3248L16.9623 53.688ZM16.1303 52.248L15.6473 52.3774L15.6479 52.3796L16.1303 52.248ZM15.8903 47.352V46.852H15.3903V47.352H15.8903ZM18.1303 47.352H18.6303V46.852H18.1303V47.352ZM18.2743 51.336L17.7929 51.4714L17.7955 51.4805L17.7984 51.4895L18.2743 51.336ZM18.8023 52.152L18.4742 52.5293L18.4793 52.5337L18.8023 52.152ZM23.7943 52.76V53.26H24.8012L24.1926 52.4578L23.7943 52.76ZM23.2343 51.736L23.703 51.5619V51.5619L23.2343 51.736ZM23.4103 48.6L22.9596 48.3833L22.9563 48.3905L23.4103 48.6ZM24.5143 47.192L24.8309 47.579L24.8361 47.5747L24.5143 47.192ZM26.2103 46.296L26.3568 46.7741L26.2103 46.296ZM31.0423 45.992H31.5423V45.492H31.0423V45.992ZM31.0423 55V55.5H31.5423V55H31.0423ZM25.5863 51.8L25.1491 52.0429L25.1544 52.0519L25.5863 51.8ZM26.4823 52.76L26.1995 53.1724L26.3273 53.26H26.4823V52.76ZM28.8023 52.76V53.26H29.3023V52.76H28.8023ZM28.8023 48.232H29.3023V47.732H28.8023V48.232ZM26.8983 48.376L26.7546 47.8971L26.7501 47.8985L26.8983 48.376ZM26.0663 48.808L25.758 48.4142L25.7497 48.421L26.0663 48.808ZM25.4903 49.528L25.9306 49.7651L25.9341 49.7582L25.4903 49.528ZM28.8663 44.328L28.5637 43.9298L28.5559 43.936L28.8663 44.328ZM27.0263 44.328L26.7159 44.7201L26.7237 44.7261L27.0263 44.328ZM27.0103 42.584L27.3384 42.9613L27.3395 42.9603L27.0103 42.584ZM28.8823 42.584L28.5451 42.9532L28.5535 42.9609L28.5622 42.9681L28.8823 42.584ZM21.0263 54.5C20.5607 54.5 20.1416 54.4793 19.768 54.4389L19.6605 55.4331C20.0763 55.478 20.5319 55.5 21.0263 55.5V54.5ZM19.7831 54.4408C19.4246 54.391 19.0959 54.3169 18.7958 54.2201L18.4888 55.1719C18.85 55.2884 19.236 55.3744 19.6455 55.4312L19.7831 54.4408ZM18.7958 54.2201C18.4958 54.1234 18.2245 54.0039 17.9801 53.8629L17.4804 54.7291C17.7907 54.9081 18.1274 55.0553 18.4888 55.1719L18.7958 54.2201ZM17.9998 53.8749C17.7622 53.7228 17.5315 53.5406 17.3079 53.3267L16.6167 54.0493C16.8837 54.3047 17.165 54.5278 17.4607 54.7171L17.9998 53.8749ZM17.3059 53.3248C16.9856 53.0218 16.7515 52.6255 16.6127 52.1164L15.6479 52.3796C15.8291 53.0439 16.1497 53.6076 16.6187 54.0512L17.3059 53.3248ZM16.6132 52.1186C16.4651 51.5656 16.3903 50.9853 16.3903 50.376H15.3903C15.3903 51.0681 15.4754 51.7357 15.6473 52.3774L16.6132 52.1186ZM16.3903 50.376V47.352H15.3903V50.376H16.3903ZM15.8903 47.852H18.1303V46.852H15.8903V47.852ZM17.6303 47.352V50.104H18.6303V47.352H17.6303ZM17.6303 50.104C17.6303 50.6148 17.6811 51.0736 17.7929 51.4714L18.7556 51.2006C18.6755 50.9158 18.6303 50.5532 18.6303 50.104H17.6303ZM17.7984 51.4895C17.931 51.9006 18.1554 52.2521 18.4742 52.5293L19.1304 51.7747C18.9585 51.6252 18.8308 51.4327 18.7501 51.1825L17.7984 51.4895ZM18.4793 52.5337C18.8306 52.831 19.2577 53.0225 19.7418 53.1218L19.9427 52.1422C19.5949 52.0708 19.3286 51.9424 19.1252 51.7703L18.4793 52.5337ZM19.7418 53.1218C20.1948 53.2147 20.6768 53.26 21.1863 53.26V52.26C20.7357 52.26 20.3217 52.2199 19.9427 52.1422L19.7418 53.1218ZM21.1863 53.26H23.7943V52.26H21.1863V53.26ZM24.1926 52.4578C23.9883 52.1885 23.825 51.8905 23.703 51.5619L22.7656 51.9101C22.9208 52.3282 23.1309 52.7128 23.3959 53.0622L24.1926 52.4578ZM23.703 51.5619C23.5879 51.252 23.5263 50.8961 23.5263 50.488H22.5263C22.5263 50.9972 22.6033 51.4733 22.7656 51.9101L23.703 51.5619ZM23.5263 50.488C23.5263 49.8454 23.6429 49.2892 23.8643 48.8095L22.9563 48.3905C22.6657 49.0201 22.5263 49.7226 22.5263 50.488H23.5263ZM23.8609 48.8166C24.0964 48.3269 24.419 47.916 24.8309 47.579L24.1977 46.805C23.6709 47.236 23.2575 47.7638 22.9596 48.3834L23.8609 48.8166ZM24.8361 47.5747C25.2478 47.2285 25.7515 46.9595 26.3568 46.7741L26.0638 45.8179C25.3464 46.0378 24.7194 46.3662 24.1925 46.8093L24.8361 47.5747ZM26.3568 46.7741C26.9639 46.588 27.6443 46.492 28.4023 46.492V45.492C27.5602 45.492 26.7793 45.5987 26.0638 45.8179L26.3568 46.7741ZM28.4023 46.492H31.0423V45.492H28.4023V46.492ZM30.5423 45.992V55H31.5423V45.992H30.5423ZM31.0423 54.5H21.0263V55.5H31.0423V54.5ZM24.7663 50.488C24.7663 51.0535 24.8899 51.5762 25.1492 52.0428L26.0234 51.5572C25.8559 51.2558 25.7663 50.9038 25.7663 50.488H24.7663ZM25.1544 52.0519C25.4163 52.501 25.7664 52.8754 26.1995 53.1724L26.765 52.3476C26.4515 52.1326 26.2042 51.867 26.0182 51.5481L25.1544 52.0519ZM26.4823 53.26H28.8023V52.26H26.4823V53.26ZM29.3023 52.76V48.232H28.3023V52.76H29.3023ZM28.8023 47.732H27.8583V48.732H28.8023V47.732ZM27.8583 47.732C27.4875 47.732 27.1191 47.7877 26.7546 47.8971L27.0419 48.8549C27.3174 48.7723 27.589 48.732 27.8583 48.732V47.732ZM26.7501 47.8985C26.3851 48.0117 26.0531 48.1834 25.7581 48.4142L26.3744 49.2018C26.5701 49.0486 26.7928 48.9323 27.0465 48.8535L26.7501 47.8985ZM25.7497 48.421C25.4587 48.659 25.2248 48.9537 25.0464 49.2978L25.9341 49.7582C26.0544 49.5263 26.2045 49.341 26.3829 49.195L25.7497 48.421ZM25.05 49.2909C24.8559 49.6515 24.7663 50.0552 24.7663 50.488H25.7663C25.7663 50.1955 25.826 49.9592 25.9305 49.765L25.05 49.2909ZM28.5559 43.936C28.3953 44.0631 28.203 44.132 27.9543 44.132V45.132C28.4095 45.132 28.8252 44.9982 29.1766 44.72L28.5559 43.936ZM27.9543 44.132C27.7056 44.132 27.5039 44.0629 27.3288 43.9299L26.7237 44.7261C27.082 44.9984 27.499 45.132 27.9543 45.132V44.132ZM27.3366 43.936C27.2257 43.8481 27.1423 43.7093 27.1423 43.432H26.1423C26.1423 43.944 26.3149 44.4025 26.7159 44.72L27.3366 43.936ZM27.1423 43.432C27.1423 43.2112 27.212 43.0712 27.3384 42.9613L26.6822 42.2067C26.3178 42.5235 26.1423 42.9488 26.1423 43.432H27.1423ZM27.3395 42.9603C27.4952 42.824 27.6893 42.748 27.9543 42.748V41.748C27.4726 41.748 27.0373 41.896 26.681 42.2077L27.3395 42.9603ZM27.9543 42.748C28.2195 42.748 28.4035 42.8239 28.5451 42.9532L29.2194 42.2148C28.8704 41.8961 28.4357 41.748 27.9543 41.748V42.748ZM28.5622 42.9681C28.697 43.0805 28.7663 43.2188 28.7663 43.432H29.7663C29.7663 42.9412 29.5795 42.5142 29.2024 42.1999L28.5622 42.9681ZM28.7663 43.432C28.7663 43.7018 28.6829 43.8393 28.5637 43.9299L29.1688 44.7261C29.5829 44.4113 29.7663 43.9515 29.7663 43.432H28.7663ZM32.9881 58.472L33.0661 57.9781L33.0534 57.9761L33.0405 57.9747L32.9881 58.472ZM32.4761 58.376L31.9774 58.4116L32.0018 58.7532L32.3291 58.8539L32.4761 58.376ZM32.3161 56.136L32.4374 55.6509L31.7683 55.4836L31.8174 56.1716L32.3161 56.136ZM32.8761 56.248L32.9422 55.7524H32.9422L32.8761 56.248ZM34.3001 55.912L33.8981 55.6148L33.8938 55.6206L33.8897 55.6265L34.3001 55.912ZM34.5721 45.992V45.492H34.0721V45.992H34.5721ZM36.8121 45.992H37.3121V45.492H36.8121V45.992ZM36.8121 52.76H36.3121V53.26H36.8121V52.76ZM38.5401 52.76H39.0401V52.26H38.5401V52.76ZM38.5401 55V55.5H39.0401V55H38.5401ZM36.7961 55V54.5H36.3213L36.2968 54.9742L36.7961 55ZM35.9481 57.688L35.5772 57.3527H35.5772L35.9481 57.688ZM33.6121 58.02C33.4239 58.02 33.242 58.0059 33.0661 57.9781L32.9102 58.9659C33.1396 59.0021 33.3737 59.02 33.6121 59.02V58.02ZM33.0405 57.9747C32.8581 57.9556 32.7214 57.9283 32.6232 57.8981L32.3291 58.8539C32.5082 58.909 32.7128 58.9458 32.9358 58.9693L33.0405 57.9747ZM32.9749 58.3404L32.8149 56.1004L31.8174 56.1716L31.9774 58.4116L32.9749 58.3404ZM32.1949 56.6211C32.4204 56.6774 32.6262 56.7191 32.8101 56.7436L32.9422 55.7524C32.8061 55.7342 32.6386 55.7012 32.4374 55.6509L32.1949 56.6211ZM32.8101 56.7436C32.9932 56.768 33.1806 56.78 33.3721 56.78V55.78C33.2223 55.78 33.0791 55.7706 32.9422 55.7524L32.8101 56.7436ZM33.3721 56.78C33.898 56.78 34.4063 56.6349 34.7106 56.1975L33.8897 55.6265C33.8526 55.6797 33.7423 55.78 33.3721 55.78V56.78ZM34.7022 56.2092C34.9811 55.8319 35.0721 55.2971 35.0721 54.712H34.0721C34.0721 55.2362 33.9818 55.5015 33.8981 55.6148L34.7022 56.2092ZM35.0721 54.712V45.992H34.0721V54.712H35.0721ZM34.5721 46.492H36.8121V45.492H34.5721V46.492ZM36.3121 45.992V52.76H37.3121V45.992H36.3121ZM36.8121 53.26H38.5401V52.26H36.8121V53.26ZM38.0401 52.76V55H39.0401V52.76H38.0401ZM38.5401 54.5H36.7961V55.5H38.5401V54.5ZM36.2968 54.9742C36.2352 56.1662 35.965 56.9237 35.5772 57.3527L36.3191 58.0233C36.934 57.343 37.2291 56.3085 37.2955 55.0258L36.2968 54.9742ZM35.5772 57.3527C35.2045 57.765 34.5867 58.02 33.6121 58.02V59.02C34.7496 59.02 35.6891 58.7203 36.3191 58.0233L35.5772 57.3527ZM38.0668 52.76V52.26H37.5668V52.76H38.0668ZM40.7708 52.76V53.26H41.5024L41.2366 52.5784L40.7708 52.76ZM38.7868 47.672L38.4605 47.2931L38.1924 47.524L38.3209 47.8536L38.7868 47.672ZM39.9388 46.76L39.6513 46.3509L39.646 46.3547L39.9388 46.76ZM41.1228 46.04L40.8992 45.5928L40.8944 45.5952L41.1228 46.04ZM42.3708 45.576L42.4921 46.0612L42.5034 46.0581L42.3708 45.576ZM46.3068 46.04L46.0739 46.4825L46.3068 46.04ZM48.6268 47.688L49.0944 47.865L49.2145 47.5476L48.9639 47.3188L48.6268 47.688ZM46.7068 52.76L46.2392 52.583L45.9829 53.26H46.7068V52.76ZM49.6508 52.76H50.1508V52.26H49.6508V52.76ZM49.6508 55V55.5H50.1508V55H49.6508ZM38.0668 55H37.5668V55.5H38.0668V55ZM42.4668 47.976L42.6409 48.4447L42.4668 47.976ZM41.2988 48.632L41.0022 48.2295L40.7041 48.4491L40.8272 48.7983L41.2988 48.632ZM42.7548 52.76L42.2832 52.9263L42.4009 53.26H42.7548V52.76ZM44.6748 52.76V53.26H45.0291L45.1465 52.9257L44.6748 52.76ZM46.1308 48.616L46.6025 48.7817L46.7291 48.4215L46.4149 48.2046L46.1308 48.616ZM44.9148 47.96L44.7439 48.4299L44.7484 48.4315L44.9148 47.96ZM44.5788 44.04L44.2762 43.6418L44.2684 43.648L44.5788 44.04ZM42.7388 44.04L42.4284 44.4321L42.4362 44.4381L42.7388 44.04ZM42.7228 42.296L43.0509 42.6733L43.052 42.6723L42.7228 42.296ZM44.5948 42.296L44.2576 42.6652L44.266 42.6729L44.2747 42.6801L44.5948 42.296ZM38.0668 53.26H40.7708V52.26H38.0668V53.26ZM41.2366 52.5784L39.2526 47.4904L38.3209 47.8536L40.3049 52.9416L41.2366 52.5784ZM39.113 48.0509C39.487 47.7289 39.8598 47.4338 40.2315 47.1653L39.646 46.3547C39.2497 46.6409 38.8546 46.9538 38.4605 47.2931L39.113 48.0509ZM40.2262 47.1691C40.6037 46.9039 40.9787 46.6761 41.3512 46.4848L40.8944 45.5952C40.4775 45.8093 40.0632 46.0615 39.6513 46.3509L40.2262 47.1691ZM41.3464 46.4872C41.7201 46.3004 42.1018 46.1586 42.492 46.0611L42.2495 45.0909C41.7864 45.2067 41.3361 45.3743 40.8992 45.5928L41.3464 46.4872ZM42.5034 46.0581C42.8853 45.9531 43.2833 45.9 43.6988 45.9V44.9C43.197 44.9 42.7096 44.9643 42.2382 45.0939L42.5034 46.0581ZM43.6988 45.9C44.5467 45.9 45.336 46.0941 46.0739 46.4825L46.5396 45.5975C45.6562 45.1326 44.7068 44.9 43.6988 44.9V45.9ZM46.0739 46.4825C46.8437 46.8876 47.5824 47.4115 48.2896 48.0572L48.9639 47.3188C48.1992 46.6205 47.3912 46.0457 46.5396 45.5975L46.0739 46.4825ZM48.1592 47.511L46.2392 52.583L47.1744 52.937L49.0944 47.865L48.1592 47.511ZM46.7068 53.26H49.6508V52.26H46.7068V53.26ZM49.1508 52.76V55H50.1508V52.76H49.1508ZM49.6508 54.5H38.0668V55.5H49.6508V54.5ZM38.5668 55V52.76H37.5668V55H38.5668ZM43.6988 47.268C43.1987 47.268 42.7282 47.3455 42.2927 47.5073L42.6409 48.4447C42.952 48.3292 43.3028 48.268 43.6988 48.268V47.268ZM42.2927 47.5073C41.8659 47.6658 41.4356 47.9101 41.0022 48.2295L41.5954 49.0345C41.9726 48.7566 42.321 48.5635 42.6409 48.4447L42.2927 47.5073ZM40.8272 48.7983L42.2832 52.9263L43.2263 52.5937L41.7703 48.4657L40.8272 48.7983ZM42.7548 53.26H44.6748V52.26H42.7548V53.26ZM45.1465 52.9257L46.6025 48.7817L45.659 48.4503L44.203 52.5943L45.1465 52.9257ZM46.4149 48.2046C45.9442 47.8796 45.4988 47.6359 45.0812 47.4885L44.7484 48.4315C45.056 48.5401 45.4213 48.7337 45.8467 49.0274L46.4149 48.2046ZM45.0856 47.4901C44.6681 47.3383 44.2031 47.268 43.6988 47.268V48.268C44.1118 48.268 44.4574 48.3257 44.7439 48.4299L45.0856 47.4901ZM44.2684 43.648C44.1078 43.7751 43.9155 43.844 43.6668 43.844V44.844C44.122 44.844 44.5377 44.7102 44.8891 44.432L44.2684 43.648ZM43.6668 43.844C43.4181 43.844 43.2164 43.7749 43.0413 43.6419L42.4362 44.4381C42.7945 44.7104 43.2115 44.844 43.6668 44.844V43.844ZM43.0491 43.648C42.9382 43.5601 42.8548 43.4213 42.8548 43.144H41.8548C41.8548 43.656 42.0274 44.1145 42.4284 44.432L43.0491 43.648ZM42.8548 43.144C42.8548 42.9232 42.9245 42.7832 43.0509 42.6733L42.3947 41.9187C42.0303 42.2355 41.8548 42.6608 41.8548 43.144H42.8548ZM43.052 42.6723C43.2077 42.536 43.4018 42.46 43.6668 42.46V41.46C43.1851 41.46 42.7498 41.608 42.3935 41.9197L43.052 42.6723ZM43.6668 42.46C43.932 42.46 44.116 42.5359 44.2576 42.6652L44.9319 41.9268C44.5829 41.6081 44.1482 41.46 43.6668 41.46V42.46ZM44.2747 42.6801C44.4095 42.7925 44.4788 42.9308 44.4788 43.144H45.4788C45.4788 42.6532 45.292 42.2262 44.9149 41.9119L44.2747 42.6801ZM44.4788 43.144C44.4788 43.4138 44.3954 43.5513 44.2762 43.6419L44.8813 44.4381C45.2954 44.1233 45.4788 43.6635 45.4788 43.144H44.4788ZM49.1724 52.76V52.26H48.6724V52.76H49.1724ZM50.7404 52.76V53.26H51.2404V52.76H50.7404ZM50.7404 42.024V41.524H50.2404V42.024H50.7404ZM54.0204 42.024H54.5204V41.524H54.0204V42.024ZM54.0204 44.264V44.764H54.5204V44.264H54.0204ZM52.9804 44.264V43.764H52.4804V44.264H52.9804ZM52.9804 55V55.5H53.4804V55H52.9804ZM49.1724 55H48.6724V55.5H49.1724V55ZM49.1724 53.26H50.7404V52.26H49.1724V53.26ZM51.2404 52.76V42.024H50.2404V52.76H51.2404ZM50.7404 42.524H54.0204V41.524H50.7404V42.524ZM53.5204 42.024V44.264H54.5204V42.024H53.5204ZM54.0204 43.764H52.9804V44.764H54.0204V43.764ZM52.4804 44.264V55H53.4804V44.264H52.4804ZM52.9804 54.5H49.1724V55.5H52.9804V54.5ZM49.6724 55V52.76H48.6724V55H49.6724ZM56.5768 42.024V41.524H56.0768V42.024H56.5768ZM58.8168 42.024H59.3168V41.524H58.8168V42.024ZM58.8168 55V55.5H59.3168V55H58.8168ZM56.5768 55H56.0768V55.5H56.5768V55ZM56.5768 42.524H58.8168V41.524H56.5768V42.524ZM58.3168 42.024V55H59.3168V42.024H58.3168ZM58.8168 54.5H56.5768V55.5H58.8168V54.5ZM57.0768 55V42.024H56.0768V55H57.0768Z" fill="#3E3E3E" mask="url(#path-1-outside-1_212_6110)"/>
</g>
<circle cx="31" cy="17" r="5.12" fill="#CED6D8"/>
<defs>
<filter id="filter0_dd_212_6110" x="12.8503" y="39.42" width="49.0065" height="22.6401" filterUnits="userSpaceOnUse" color-interpolation-filters="sRGB">
<feFlood flood-opacity="0" result="BackgroundImageFix"/>
<feColorMatrix in="SourceAlpha" type="matrix" values="0 0 0 0 0 0 0 0 0 0 0 0 0 0 0 0 0 0 127 0" result="hardAlpha"/>
<feOffset dy="1"/>
<feComposite in2="hardAlpha" operator="out"/>
<feColorMatrix type="matrix" values="0 0 0 0 0 0 0 0 0 0 0 0 0 0 0 0 0 0 1 0"/>
<feBlend mode="normal" in2="BackgroundImageFix" result="effect1_dropShadow_212_6110"/>
<feColorMatrix in="SourceAlpha" type="matrix" values="0 0 0 0 0 0 0 0 0 0 0 0 0 0 0 0 0 0 127 0" result="hardAlpha"/>
<feOffset dy="0.5"/>
<feGaussianBlur stdDeviation="1.27"/>
<feComposite in2="hardAlpha" operator="out"/>
<feColorMatrix type="matrix" values="0 0 0 0 0 0 0 0 0 0 0 0 0 0 0 0 0 0 0.8 0"/>
<feBlend mode="normal" in2="effect1_dropShadow_212_6110" result="effect2_dropShadow_212_6110"/>
<feBlend mode="normal" in="SourceGraphic" in2="effect2_dropShadow_212_6110" result="shape"/>
</filter>
</defs>
</svg>
