<svg width="41" height="38" viewBox="0 0 41 38" fill="none" xmlns="http://www.w3.org/2000/svg">
<path d="M18.2985 24.412C18.0196 23.0772 18.9886 21.707 20.3522 21.707C21.7158 21.707 22.6848 23.0772 22.4059 24.412C22.1443 25.6643 21.9735 27.1244 22.2268 28.2681C22.937 31.4747 25.976 34.8292 25.976 34.8292H14.7284C14.7284 34.8292 17.7674 31.4747 18.4776 28.2681C18.7309 27.1244 18.5601 25.6643 18.2985 24.412Z" fill="#95B7D1"/>
<path fill-rule="evenodd" clip-rule="evenodd" d="M26.8419 35.2046C26.6917 35.5435 26.3558 35.7619 25.9851 35.7619H14.7375C14.3668 35.7619 14.0309 35.5435 13.8806 35.2046C13.7304 34.8658 13.7939 34.4703 14.0427 34.1956L14.7375 34.8246H25.9851C25.9851 34.8246 25.6661 34.4725 25.2106 33.8873C24.2603 32.6664 22.716 30.4312 22.2359 28.2635C21.9826 27.1198 22.1534 25.6597 22.415 24.4074C22.6939 23.0726 21.7249 21.7024 20.3613 21.7024C18.9977 21.7024 18.0287 23.0726 18.3076 24.4074C18.5692 25.6597 18.74 27.1198 18.4867 28.2635C18.0066 30.4312 16.4623 32.6664 15.512 33.8873C15.0565 34.4725 14.7375 34.8246 14.7375 34.8246M14.0427 34.1956L14.048 34.1896L14.0698 34.1651C14.0897 34.1426 14.1201 34.108 14.1596 34.0622C14.2386 33.9705 14.3541 33.834 14.4958 33.6596C14.7795 33.3102 15.1655 32.8113 15.5723 32.2171C16.3999 31.0083 17.2557 29.4871 17.5716 28.0608C17.7796 27.1214 17.6464 25.8259 17.3901 24.5991C17.0078 22.7694 18.3169 20.7651 20.3613 20.7651C22.4057 20.7651 23.7148 22.7694 23.3325 24.5991C23.0762 25.8259 22.9429 27.1214 23.151 28.0608C23.4669 29.4871 24.3227 31.0083 25.1502 32.2171C25.5571 32.8113 25.9431 33.3102 26.2268 33.6596C26.3684 33.834 26.484 33.9705 26.563 34.0622C26.6025 34.108 26.6329 34.1426 26.6528 34.1651L26.6746 34.1896L26.6797 34.1953C26.9285 34.4701 26.9922 34.8658 26.8419 35.2046" fill="#044473"/>
<path fill-rule="evenodd" clip-rule="evenodd" d="M24.1045 34.8284H25.9791C25.9791 34.8284 22.9401 31.4738 22.2299 28.2673C21.9766 27.1235 22.1474 25.6634 22.409 24.4111C22.6879 23.0763 21.719 21.7062 20.3553 21.7062C20.047 21.7062 19.7589 21.7762 19.5009 21.9C20.1879 22.2262 20.5344 22.9926 20.5344 24.4111C20.5344 26.1961 20.5706 28.7638 20.824 29.9076C21.5342 33.1141 24.1045 34.8284 24.1045 34.8284Z" fill="#6D94B3"/>
<path fill-rule="evenodd" clip-rule="evenodd" d="M18.8328 29.9216C19.0839 29.9843 19.2366 30.2388 19.1738 30.4899C18.9236 31.491 18.4285 32.4773 17.9375 33.2138C17.7939 33.4291 17.503 33.4873 17.2876 33.3437C17.0722 33.2002 17.014 32.9092 17.1576 32.6938C17.604 32.0243 18.0461 31.1361 18.2645 30.2626C18.3273 30.0115 18.5817 29.8588 18.8328 29.9216Z" fill="#B8D4E9"/>
<path fill-rule="evenodd" clip-rule="evenodd" d="M33.9503 14.205C36.7974 14.205 39.1055 11.8969 39.1055 9.0498C39.1055 6.20269 36.7974 3.89465 33.9503 3.89465C31.1032 3.89465 28.7952 6.20269 28.7952 9.0498C28.7952 11.8969 31.1032 14.205 33.9503 14.205ZM33.9503 11.8617C35.5033 11.8617 36.7622 10.6028 36.7622 9.0498C36.7622 7.49683 35.5033 6.2379 33.9503 6.2379C32.3973 6.2379 31.1384 7.49683 31.1384 9.0498C31.1384 10.6028 32.3973 11.8617 33.9503 11.8617Z" fill="#99BCD6"/>
<path fill-rule="evenodd" clip-rule="evenodd" d="M40.0373 9.05449C40.0373 12.4193 37.3096 15.1469 33.9449 15.1469C30.5801 15.1469 27.8524 12.4193 27.8524 9.05449C27.8524 5.68972 30.5801 2.96204 33.9449 2.96204C37.3096 2.96204 40.0373 5.68972 40.0373 9.05449ZM33.9449 10.9291C34.9802 10.9291 35.8195 10.0898 35.8195 9.05449C35.8195 8.01917 34.9802 7.17989 33.9449 7.17989C32.9096 7.17989 32.0703 8.01917 32.0703 9.05449C32.0703 10.0898 32.9096 10.9291 33.9449 10.9291ZM39.1 9.05449C39.1 11.9016 36.792 14.2096 33.9449 14.2096C31.0978 14.2096 28.7897 11.9016 28.7897 9.05449C28.7897 6.20738 31.0978 3.89934 33.9449 3.89934C36.792 3.89934 39.1 6.20738 39.1 9.05449ZM36.7568 9.05449C36.7568 10.6075 35.4978 11.8664 33.9449 11.8664C32.3919 11.8664 31.133 10.6075 31.133 9.05449C31.133 7.50152 32.3919 6.24259 33.9449 6.24259C35.4978 6.24259 36.7568 7.50152 36.7568 9.05449Z" fill="#044473"/>
<path fill-rule="evenodd" clip-rule="evenodd" d="M38.6314 8.11256C38.6314 10.9597 36.3233 13.2677 33.4762 13.2677C31.6441 13.2677 30.0353 12.312 29.121 10.8719C29.8571 12.8198 31.7392 14.205 33.9449 14.205C36.792 14.205 39.1 11.897 39.1 9.04986C39.1 8.03483 38.8067 7.08832 38.3001 6.29048C38.5142 6.85699 38.6314 7.47109 38.6314 8.11256ZM31.2385 9.81553C31.1697 9.57211 31.133 9.31528 31.133 9.04986C31.133 7.49689 32.3919 6.23796 33.9449 6.23796C34.8577 6.23796 35.6689 6.67292 36.1826 7.34689C35.8492 6.16603 34.7638 5.30066 33.4762 5.30066C31.9233 5.30066 30.6643 6.55959 30.6643 8.11256C30.6643 8.75271 30.8782 9.34289 31.2385 9.81553Z" fill="#7A9DB9"/>
<path fill-rule="evenodd" clip-rule="evenodd" d="M6.76868 14.205C9.61579 14.205 11.9238 11.8969 11.9238 9.0498C11.9238 6.20269 9.61579 3.89465 6.76868 3.89465C3.92157 3.89465 1.61353 6.20269 1.61353 9.0498C1.61353 11.8969 3.92157 14.205 6.76868 14.205ZM6.76868 11.8617C8.32165 11.8617 9.58058 10.6028 9.58058 9.0498C9.58058 7.49683 8.32165 6.2379 6.76868 6.2379C5.21571 6.2379 3.95678 7.49683 3.95678 9.0498C3.95678 10.6028 5.21571 11.8617 6.76868 11.8617Z" fill="#99BCD6"/>
<path fill-rule="evenodd" clip-rule="evenodd" d="M12.8592 9.05449C12.8592 12.4193 10.1315 15.1469 6.76677 15.1469C3.402 15.1469 0.674316 12.4193 0.674316 9.05449C0.674316 5.68972 3.402 2.96204 6.76677 2.96204C10.1315 2.96204 12.8592 5.68972 12.8592 9.05449ZM6.76677 10.9291C7.80208 10.9291 8.64137 10.0898 8.64137 9.05449C8.64137 8.01917 7.80208 7.17989 6.76677 7.17989C5.73145 7.17989 4.89217 8.01917 4.89217 9.05449C4.89217 10.0898 5.73145 10.9291 6.76677 10.9291ZM11.9219 9.05449C11.9219 11.9016 9.61388 14.2096 6.76677 14.2096C3.91966 14.2096 1.61162 11.9016 1.61162 9.05449C1.61162 6.20738 3.91966 3.89934 6.76677 3.89934C9.61388 3.89934 11.9219 6.20738 11.9219 9.05449ZM9.57867 9.05449C9.57867 10.6075 8.31974 11.8664 6.76677 11.8664C5.2138 11.8664 3.95487 10.6075 3.95487 9.05449C3.95487 7.50152 5.2138 6.24259 6.76677 6.24259C8.31974 6.24259 9.57867 7.50152 9.57867 9.05449Z" fill="#044473"/>
<path fill-rule="evenodd" clip-rule="evenodd" d="M10.6408 12.4535C9.73279 13.2522 8.54163 13.7366 7.23733 13.7366C4.39022 13.7366 2.08218 11.4285 2.08218 8.5814C2.08218 7.2771 2.56656 6.08594 3.36525 5.17798C2.29126 6.12272 1.61353 7.50724 1.61353 9.05005C1.61353 11.8972 3.92157 14.2052 6.76868 14.2052C8.31149 14.2052 9.69601 13.5275 10.6408 12.4535ZM5.02846 6.84119C5.50717 6.46353 6.1116 6.23815 6.76868 6.23815C8.32165 6.23815 9.58058 7.49708 9.58058 9.05005C9.58058 9.70713 9.35521 10.3116 8.97754 10.7903C9.63025 10.2753 10.0492 9.4773 10.0492 8.5814C10.0492 7.02843 8.7903 5.7695 7.23733 5.7695C6.34143 5.7695 5.54339 6.18848 5.02846 6.84119Z" fill="#7A9DB9"/>
<path d="M7.23364 6.71124C7.23364 4.64061 8.91222 2.96204 10.9828 2.96204H29.7288C31.7995 2.96204 33.478 4.64061 33.478 6.71124V12.335C33.478 19.5822 27.603 25.4572 20.3558 25.4572C13.1087 25.4572 7.23364 19.5822 7.23364 12.335V6.71124Z" fill="#BCD2E3"/>
<path fill-rule="evenodd" clip-rule="evenodd" d="M10.9901 2.02014H29.7361C32.3244 2.02014 34.4226 4.11836 34.4226 6.70664V12.3304C34.4226 20.0953 28.1279 26.3899 20.3631 26.3899C12.5982 26.3899 6.30359 20.0953 6.30359 12.3304V6.70664C6.30359 4.11836 8.40181 2.02014 10.9901 2.02014ZM10.9901 2.95744C8.91946 2.95744 7.24089 4.63602 7.24089 6.70664V12.3304C7.24089 19.5776 13.1159 25.4526 20.3631 25.4526C27.6103 25.4526 33.4853 19.5776 33.4853 12.3304V6.70664C33.4853 4.63602 31.8067 2.95744 29.7361 2.95744H10.9901Z" fill="#044473"/>
<path fill-rule="evenodd" clip-rule="evenodd" d="M17.0789 25.0438C18.1274 25.3137 19.2266 25.4572 20.3594 25.4572C27.6066 25.4572 33.4816 19.5822 33.4816 12.335V2.96204H26.9205V12.335C26.9205 18.4495 22.7386 23.5871 17.0789 25.0438Z" fill="#9EC0DB"/>
<path d="M7.23364 2.96204V12.335C7.23364 16.8087 9.47231 20.7594 12.8905 23.1282C14.5164 24.2549 17.6035 20.3909 17.5526 18.4134C17.5467 18.184 17.5439 17.9542 17.5439 17.7245V2.96204H7.23364Z" fill="#D4E1EB"/>
<path fill-rule="evenodd" clip-rule="evenodd" d="M13.5769 23.5726C15.5555 24.7688 17.8755 25.4572 20.3563 25.4572C27.6035 25.4572 33.4785 19.5822 33.4785 12.335V2.96204H31.6038V11.3977C31.6038 18.6449 25.7288 24.5199 18.4816 24.5199C16.7476 24.5199 15.0921 24.1836 13.5769 23.5726Z" fill="#7A9DB9"/>
<path d="M33.478 2.96204H7.23364V4.83664H33.478V2.96204Z" fill="#46637A"/>
<path fill-rule="evenodd" clip-rule="evenodd" d="M9.10454 4.36609C9.62219 4.36609 10.0418 4.78573 10.0418 5.30339C10.0418 8.48976 10.0438 11.0531 10.3261 13.1139C10.6072 15.1666 11.1495 16.5674 12.1105 17.5285C12.4765 17.8945 12.4765 18.488 12.1105 18.854C11.7444 19.2201 11.151 19.2201 10.7849 18.854C9.40281 17.4719 8.77342 15.5921 8.46881 13.3684C8.16721 11.1667 8.16722 8.47786 8.16724 5.36261L8.16724 5.30339C8.16724 4.78573 8.58688 4.36609 9.10454 4.36609Z" fill="#DEF0FF"/>
<path fill-rule="evenodd" clip-rule="evenodd" d="M9.10631 5.76929C9.36514 5.76929 9.57496 5.97911 9.57496 6.23794C9.57496 6.85406 9.56976 7.22046 9.56554 7.51813C9.55912 7.97119 9.55495 8.26503 9.5748 9.03781C9.58144 9.29655 9.37707 9.51169 9.11833 9.51833C8.85959 9.52498 8.64445 9.32061 8.6378 9.06187C8.61759 8.27459 8.622 7.95581 8.6285 7.48541C8.63265 7.18513 8.63766 6.82308 8.63766 6.23794C8.63766 5.97911 8.84748 5.76929 9.10631 5.76929Z" fill="white"/>
<path d="M10.9791 35.7629C10.9791 35.2452 11.3988 34.8256 11.9164 34.8256H28.7878C29.3055 34.8256 29.7251 35.2452 29.7251 35.7629C29.7251 36.2805 29.3055 36.7002 28.7878 36.7002H11.9164C11.3988 36.7002 10.9791 36.2805 10.9791 35.7629Z" fill="#D0E0EC"/>
<path fill-rule="evenodd" clip-rule="evenodd" d="M11.9275 33.8911H28.7989C29.8342 33.8911 30.6735 34.7304 30.6735 35.7657C30.6735 36.801 29.8342 37.6403 28.7989 37.6403H11.9275C10.8921 37.6403 10.0529 36.801 10.0529 35.7657C10.0529 34.7304 10.8921 33.8911 11.9275 33.8911ZM11.9275 34.8284C11.4098 34.8284 10.9902 35.2481 10.9902 35.7657C10.9902 36.2834 11.4098 36.703 11.9275 36.703H28.7989C29.3165 36.703 29.7362 36.2834 29.7362 35.7657C29.7362 35.2481 29.3165 34.8284 28.7989 34.8284H11.9275Z" fill="#044473"/>
<path d="M3.48438 2.02287C3.48438 1.50521 3.90402 1.08557 4.42168 1.08557H36.2899C36.8075 1.08557 37.2272 1.50521 37.2272 2.02287C37.2272 2.54053 36.8075 2.96017 36.2899 2.96017H4.42168C3.90402 2.96017 3.48438 2.54053 3.48438 2.02287Z" fill="#D0E0EC"/>
<path fill-rule="evenodd" clip-rule="evenodd" d="M4.42538 0.147339H36.2936C37.3289 0.147339 38.1682 0.986625 38.1682 2.02194C38.1682 3.05725 37.3289 3.89654 36.2936 3.89654H4.42538C3.39007 3.89654 2.55078 3.05725 2.55078 2.02194C2.55078 0.986626 3.39007 0.147339 4.42538 0.147339ZM4.42538 1.08464C3.90772 1.08464 3.48808 1.50428 3.48808 2.02194C3.48808 2.5396 3.90773 2.95924 4.42538 2.95924H36.2936C36.8112 2.95924 37.2309 2.5396 37.2309 2.02194C37.2309 1.50428 36.8112 1.08464 36.2936 1.08464H4.42538Z" fill="#044473"/>
<path fill-rule="evenodd" clip-rule="evenodd" d="M4.41992 1.78481C4.41992 1.52598 4.62974 1.31616 4.88857 1.31616H28.7897C29.0486 1.31616 29.2584 1.52598 29.2584 1.78481C29.2584 2.04364 29.0486 2.25346 28.7897 2.25346H4.88857C4.62974 2.25346 4.41992 2.04364 4.41992 1.78481Z" fill="#DEF0FF"/>
<path fill-rule="evenodd" clip-rule="evenodd" d="M11.4496 35.2942C11.4496 35.0354 11.6594 34.8256 11.9182 34.8256H25.5091C25.7679 34.8256 25.9777 35.0354 25.9777 35.2942C25.9777 35.553 25.7679 35.7629 25.5091 35.7629H11.9182C11.6594 35.7629 11.4496 35.553 11.4496 35.2942Z" fill="#DEF0FF"/>
<path fill-rule="evenodd" clip-rule="evenodd" d="M7.23364 1.78579C7.23364 1.52696 7.44346 1.31714 7.70229 1.31714H10.5142C10.773 1.31714 10.9828 1.52696 10.9828 1.78579C10.9828 2.04462 10.773 2.25444 10.5142 2.25444H7.70229C7.44346 2.25444 7.23364 2.04462 7.23364 1.78579Z" fill="white"/>
<path d="M25.046 21.9377C25.046 22.326 24.7312 22.6407 24.343 22.6407C23.9547 22.6407 23.64 22.326 23.64 21.9377C23.64 21.5495 23.9547 21.2347 24.343 21.2347C24.7312 21.2347 25.046 21.5495 25.046 21.9377Z" fill="#84ADCE"/>
<path d="M27.3819 20.2984C27.3819 20.5572 27.1721 20.767 26.9132 20.767C26.6544 20.767 26.4446 20.5572 26.4446 20.2984C26.4446 20.0395 26.6544 19.8297 26.9132 19.8297C27.1721 19.8297 27.3819 20.0395 27.3819 20.2984Z" fill="#84ADCE"/>
<path d="M23.6308 23.578C23.6308 23.8369 23.421 24.0467 23.1621 24.0467C22.9033 24.0467 22.6935 23.8369 22.6935 23.578C22.6935 23.3192 22.9033 23.1094 23.1621 23.1094C23.421 23.1094 23.6308 23.3192 23.6308 23.578Z" fill="#84ADCE"/>
<path d="M22.2322 22.173C22.2322 22.4318 22.0224 22.6416 21.7636 22.6416C21.5047 22.6416 21.2949 22.4318 21.2949 22.173C21.2949 21.9142 21.5047 21.7043 21.7636 21.7043C22.0224 21.7043 22.2322 21.9142 22.2322 22.173Z" fill="#84ADCE"/>
<path d="M20.3558 23.578C20.3558 23.8369 20.1459 24.0467 19.8871 24.0467C19.6283 24.0467 19.4185 23.8369 19.4185 23.578C19.4185 23.3192 19.6283 23.1094 19.8871 23.1094C20.1459 23.1094 20.3558 23.3192 20.3558 23.578Z" fill="#84ADCE"/>
<path d="M31.5997 17.0205C31.5997 17.2794 31.3898 17.4892 31.131 17.4892C30.8722 17.4892 30.6624 17.2794 30.6624 17.0205C30.6624 16.7617 30.8722 16.5519 31.131 16.5519C31.3898 16.5519 31.5997 16.7617 31.5997 17.0205Z" fill="#84ADCE"/>
<path d="M27.3819 18.4237C27.3819 18.6826 27.1721 18.8924 26.9132 18.8924C26.6544 18.8924 26.4446 18.6826 26.4446 18.4237C26.4446 18.1649 26.6544 17.9551 26.9132 17.9551C27.1721 17.9551 27.3819 18.1649 27.3819 18.4237Z" fill="#84ADCE"/>
<path d="M32.0721 14.6764C32.0721 14.9352 31.8622 15.1451 31.6034 15.1451C31.3446 15.1451 31.1348 14.9352 31.1348 14.6764C31.1348 14.4176 31.3446 14.2078 31.6034 14.2078C31.8622 14.2078 32.0721 14.4176 32.0721 14.6764Z" fill="#84ADCE"/>
<path d="M25.0459 19.3638C25.0459 19.6226 24.8361 19.8324 24.5773 19.8324C24.3185 19.8324 24.1086 19.6226 24.1086 19.3638C24.1086 19.105 24.3185 18.8951 24.5773 18.8951C24.8361 18.8951 25.0459 19.105 25.0459 19.3638Z" fill="#84ADCE"/>
<path d="M26.915 22.173C26.915 22.4318 26.7051 22.6416 26.4463 22.6416C26.1875 22.6416 25.9777 22.4318 25.9777 22.173C25.9777 21.9142 26.1875 21.7043 26.4463 21.7043C26.7051 21.7043 26.915 21.9142 26.915 22.173Z" fill="#84ADCE"/>
<path d="M29.7343 20.2984C29.7343 20.5572 29.5245 20.767 29.2656 20.767C29.0068 20.767 28.797 20.5572 28.797 20.2984C28.797 20.0395 29.0068 19.8297 29.2656 19.8297C29.5245 19.8297 29.7343 20.0395 29.7343 20.2984Z" fill="#84ADCE"/>
<path d="M28.7951 18.4237C28.7951 18.6826 28.5853 18.8924 28.3264 18.8924C28.0676 18.8924 27.8578 18.6826 27.8578 18.4237C27.8578 18.1649 28.0676 17.9551 28.3264 17.9551C28.5853 17.9551 28.7951 18.1649 28.7951 18.4237Z" fill="#84ADCE"/>
<path d="M30.6642 18.1894C30.6642 18.3188 30.5593 18.4237 30.4299 18.4237C30.3005 18.4237 30.1956 18.3188 30.1956 18.1894C30.1956 18.06 30.3005 17.9551 30.4299 17.9551C30.5593 17.9551 30.6642 18.06 30.6642 18.1894Z" fill="#84ADCE"/>
<path d="M30.1937 16.3149C30.1937 16.4443 30.0888 16.5492 29.9594 16.5492C29.83 16.5492 29.7251 16.4443 29.7251 16.3149C29.7251 16.1855 29.83 16.0806 29.9594 16.0806C30.0888 16.0806 30.1937 16.1855 30.1937 16.3149Z" fill="#84ADCE"/>
<path d="M28.7914 16.7872C28.7914 16.9166 28.6865 17.0215 28.5571 17.0215C28.4277 17.0215 28.3228 16.9166 28.3228 16.7872C28.3228 16.6578 28.4277 16.5529 28.5571 16.5529C28.6865 16.5529 28.7914 16.6578 28.7914 16.7872Z" fill="#84ADCE"/>
<path d="M30.1937 14.9117C30.1937 15.0411 30.0888 15.146 29.9594 15.146C29.83 15.146 29.7251 15.0411 29.7251 14.9117C29.7251 14.7823 29.83 14.6774 29.9594 14.6774C30.0888 14.6774 30.1937 14.7823 30.1937 14.9117Z" fill="#84ADCE"/>
<path d="M27.3821 16.7869C27.3821 16.9164 27.2772 17.0213 27.1478 17.0213C27.0184 17.0213 26.9135 16.9164 26.9135 16.7869C26.9135 16.6575 27.0184 16.5526 27.1478 16.5526C27.2772 16.5526 27.3821 16.6575 27.3821 16.7869Z" fill="#84ADCE"/>
<path d="M19.8871 21.9389C19.8871 22.0683 19.7822 22.1732 19.6528 22.1732C19.5234 22.1732 19.4185 22.0683 19.4185 21.9389C19.4185 21.8095 19.5234 21.7046 19.6528 21.7046C19.7822 21.7046 19.8871 21.8095 19.8871 21.9389Z" fill="#84ADCE"/>
<path d="M29.727 18.6608C29.727 18.7903 29.622 18.8952 29.4926 18.8952C29.3632 18.8952 29.2583 18.7903 29.2583 18.6608C29.2583 18.5314 29.3632 18.4265 29.4926 18.4265C29.622 18.4265 29.727 18.5314 29.727 18.6608Z" fill="#84ADCE"/>
<path d="M28.3264 21.4691C28.3264 21.5985 28.2215 21.7034 28.0921 21.7034C27.9627 21.7034 27.8578 21.5985 27.8578 21.4691C27.8578 21.3397 27.9627 21.2347 28.0921 21.2347C28.2215 21.2347 28.3264 21.3397 28.3264 21.4691Z" fill="#84ADCE"/>
<path d="M25.974 20.5363C25.974 20.6657 25.8691 20.7707 25.7397 20.7707C25.6103 20.7707 25.5054 20.6657 25.5054 20.5363C25.5054 20.4069 25.6103 20.302 25.7397 20.302C25.8691 20.302 25.974 20.4069 25.974 20.5363Z" fill="#84ADCE"/>
<path d="M23.6345 20.5354C23.6345 20.6648 23.5296 20.7697 23.4002 20.7697C23.2708 20.7697 23.1659 20.6648 23.1659 20.5354C23.1659 20.4059 23.2708 20.301 23.4002 20.301C23.5296 20.301 23.6345 20.4059 23.6345 20.5354Z" fill="#84ADCE"/>
<path d="M21.7636 23.8123C21.7636 23.9417 21.6587 24.0467 21.5292 24.0467C21.3998 24.0467 21.2949 23.9417 21.2949 23.8123C21.2949 23.6829 21.3998 23.578 21.5292 23.578C21.6587 23.578 21.7636 23.6829 21.7636 23.8123Z" fill="#84ADCE"/>
<path fill-rule="evenodd" clip-rule="evenodd" d="M5.54947 4.85867C5.66521 5.09017 5.57137 5.37168 5.33986 5.48742C4.91149 5.70159 4.33442 6.07074 3.86486 6.6968C3.40015 7.31641 3.02128 8.21302 3.02128 9.52041C3.02128 9.77924 2.81146 9.98906 2.55263 9.98906C2.29381 9.98906 2.08398 9.77924 2.08398 9.52041C2.08398 8.01591 2.52526 6.92076 3.11503 6.13442C3.69995 5.35453 4.41171 4.90354 4.92072 4.64906C5.15222 4.53332 5.43373 4.62716 5.54947 4.85867Z" fill="#D4E1EB"/>
<path d="M15.6675 12.1457L18.5965 11.5521L19.4753 10.068L20.354 8.58398L22.1114 11.5521L25.0405 12.1457L22.6972 14.5202L23.283 17.4883L20.354 16.0043L17.4249 17.4883L18.0107 14.5202L15.6675 12.1457Z" fill="#DEF0FF"/>
<path fill-rule="evenodd" clip-rule="evenodd" d="M18.5948 11.5484L20.3522 8.58024L22.1097 11.5484L25.0387 12.142L22.6955 14.5165L23.2813 17.4846L20.3522 16.0005L17.4232 17.4846L18.009 14.5165L15.6657 12.142L18.5948 11.5484ZM16.9933 14.8217L14.9986 12.8004C14.7569 12.5554 14.6688 12.1977 14.7692 11.8685C14.8696 11.5394 15.1423 11.2917 15.4795 11.2234L18.0004 10.7125L19.5457 8.1027C19.7144 7.81772 20.021 7.64294 20.3522 7.64294C20.6834 7.64294 20.99 7.81772 21.1587 8.1027L22.704 10.7125L25.2249 11.2234C25.5622 11.2917 25.8349 11.5394 25.9353 11.8685C26.0356 12.1977 25.9476 12.5554 25.7059 12.8004L23.7111 14.8217L24.2008 17.3031C24.2703 17.6548 24.133 18.0152 23.8473 18.2317C23.5616 18.4482 23.1774 18.4827 22.8577 18.3207L20.3522 17.0513L17.8468 18.3207C17.527 18.4827 17.1429 18.4482 16.8571 18.2317C16.5714 18.0152 16.4342 17.6548 16.5036 17.3031L16.9933 14.8217Z" fill="#95B7D1"/>
<path fill-rule="evenodd" clip-rule="evenodd" d="M20.5618 10.0404C20.7933 10.1562 20.8871 10.4377 20.7714 10.6692L19.8341 12.5438C19.763 12.686 19.6247 12.7824 19.4667 12.8L17.3577 13.0343C17.1005 13.0629 16.8688 12.8775 16.8402 12.6203C16.8116 12.363 16.997 12.1313 17.2542 12.1027L19.1097 11.8966L19.933 10.25C20.0488 10.0185 20.3303 9.92467 20.5618 10.0404Z" fill="white"/>
</svg>
