<svg width="187" height="93" viewBox="0 0 187 93" fill="none" xmlns="http://www.w3.org/2000/svg">
<mask id="path-1-outside-1_74_7052" maskUnits="userSpaceOnUse" x="58.3304" y="4.57593" width="71" height="71" fill="black">
<rect fill="white" x="58.3304" y="4.57593" width="71" height="71"/>
<path fill-rule="evenodd" clip-rule="evenodd" d="M98.8968 10.7333C96.7695 6.52346 90.7579 6.52346 88.6306 10.7333L82.9901 21.8959C82.142 23.5743 80.5269 24.732 78.6651 24.9963L66.2799 26.754C62.5033 27.29 60.54 31.0963 61.6296 34.3015C60.9734 36.2803 61.3646 38.605 63.1224 40.2785L71.9096 48.6442C72.6324 49.3323 73.1518 50.1843 73.4381 51.1094L71.5105 62.0862C71.3407 63.0533 71.4146 63.9744 71.6762 64.808L71.5105 65.7512C70.6887 70.4313 75.5751 74.0325 79.8021 71.8621L91.1367 66.042C92.7857 65.1953 94.7417 65.1953 96.3907 66.042L107.725 71.8621C111.952 74.0325 116.839 70.4313 116.017 65.7512L115.851 64.8081C116.113 63.9744 116.187 63.0533 116.017 62.0862L114.089 51.1094C114.376 50.1843 114.895 49.3323 115.618 48.6442L124.405 40.2785C126.163 38.605 126.554 36.2803 125.898 34.3015C126.987 31.0963 125.024 27.29 121.248 26.754L108.862 24.9963C107.001 24.732 105.385 23.5743 104.537 21.8959L98.8968 10.7333Z"/>
</mask>
<path fill-rule="evenodd" clip-rule="evenodd" d="M98.8968 10.7333C96.7695 6.52346 90.7579 6.52346 88.6306 10.7333L82.9901 21.8959C82.142 23.5743 80.5269 24.732 78.6651 24.9963L66.2799 26.754C62.5033 27.29 60.54 31.0963 61.6296 34.3015C60.9734 36.2803 61.3646 38.605 63.1224 40.2785L71.9096 48.6442C72.6324 49.3323 73.1518 50.1843 73.4381 51.1094L71.5105 62.0862C71.3407 63.0533 71.4146 63.9744 71.6762 64.808L71.5105 65.7512C70.6887 70.4313 75.5751 74.0325 79.8021 71.8621L91.1367 66.042C92.7857 65.1953 94.7417 65.1953 96.3907 66.042L107.725 71.8621C111.952 74.0325 116.839 70.4313 116.017 65.7512L115.851 64.8081C116.113 63.9744 116.187 63.0533 116.017 62.0862L114.089 51.1094C114.376 50.1843 114.895 49.3323 115.618 48.6442L124.405 40.2785C126.163 38.605 126.554 36.2803 125.898 34.3015C126.987 31.0963 125.024 27.29 121.248 26.754L108.862 24.9963C107.001 24.732 105.385 23.5743 104.537 21.8959L98.8968 10.7333Z" fill="url(#paint0_linear_74_7052)"/>
<path d="M88.6306 10.7333L86.0641 9.43643V9.43643L88.6306 10.7333ZM98.8968 10.7333L96.3303 12.0302V12.0302L98.8968 10.7333ZM82.9901 21.8959L85.5566 23.1928L82.9901 21.8959ZM78.6651 24.9963L78.261 22.1492L78.6651 24.9963ZM66.2799 26.754L66.6839 29.6011H66.6839L66.2799 26.754ZM61.6296 34.3015L64.359 35.2066L64.6629 34.2901L64.3521 33.376L61.6296 34.3015ZM63.1224 40.2785L65.1052 38.1958L63.1224 40.2785ZM71.9096 48.6442L73.8924 46.5615H73.8924L71.9096 48.6442ZM73.4381 51.1094L76.2704 51.6068L76.3905 50.9228L76.1852 50.2593L73.4381 51.1094ZM71.5105 62.0862L68.6783 61.5888L71.5105 62.0862ZM71.6762 64.808L74.5084 65.3054L74.6296 64.6156L74.4199 63.9473L71.6762 64.808ZM71.5105 65.7512L68.6783 65.2538L71.5105 65.7512ZM79.8021 71.8621L78.4886 69.304L79.8021 71.8621ZM91.1367 66.042L89.8232 63.4839L91.1367 66.042ZM96.3907 66.042L97.7043 63.4839H97.7043L96.3907 66.042ZM107.725 71.8621L106.412 74.4201H106.412L107.725 71.8621ZM116.017 65.7512L118.849 65.2538V65.2538L116.017 65.7512ZM115.851 64.8081L113.108 63.9473L112.898 64.6156L113.019 65.3054L115.851 64.8081ZM116.017 62.0862L118.849 61.5888V61.5888L116.017 62.0862ZM114.089 51.1094L111.342 50.2593L111.137 50.9228L111.257 51.6068L114.089 51.1094ZM115.618 48.6442L113.635 46.5615V46.5615L115.618 48.6442ZM124.405 40.2785L122.422 38.1958L122.422 38.1958L124.405 40.2785ZM125.898 34.3015L123.175 33.376L122.865 34.2901L123.168 35.2066L125.898 34.3015ZM121.248 26.754L120.844 29.6011L121.248 26.754ZM108.862 24.9963L108.458 27.8433H108.458L108.862 24.9963ZM104.537 21.8959L107.104 20.599V20.599L104.537 21.8959ZM91.1972 12.0302C92.2608 9.9253 95.2666 9.92529 96.3303 12.0302L101.463 9.43644C98.2724 3.12163 89.255 3.12162 86.0641 9.43643L91.1972 12.0302ZM85.5566 23.1928L91.1972 12.0302L86.0641 9.43643L80.4235 20.599L85.5566 23.1928ZM79.0692 27.8433C81.8619 27.447 84.2845 25.7104 85.5566 23.1928L80.4235 20.599C79.9995 21.4382 79.192 22.0171 78.261 22.1492L79.0692 27.8433ZM66.6839 29.6011L79.0692 27.8433L78.261 22.1492L65.8758 23.9069L66.6839 29.6011ZM64.3521 33.376C63.7965 31.7414 64.8307 29.8641 66.6839 29.6011L65.8758 23.9069C60.176 24.7158 57.2834 30.4512 58.907 35.2271L64.3521 33.376ZM65.1052 38.1958C64.2238 37.3567 64.0216 36.2241 64.359 35.2066L58.9001 33.3965C57.9253 36.3364 58.5054 39.8534 61.1396 42.3612L65.1052 38.1958ZM73.8924 46.5615L65.1052 38.1958L61.1396 42.3612L69.9268 50.7269L73.8924 46.5615ZM76.1852 50.2593C75.7559 48.8721 74.9765 47.5937 73.8924 46.5615L69.9268 50.7269C70.2882 51.071 70.5478 51.4965 70.6911 51.9596L76.1852 50.2593ZM74.3428 62.5835L76.2704 51.6068L70.6059 50.6121L68.6783 61.5888L74.3428 62.5835ZM74.4199 63.9473C74.2955 63.5506 74.253 63.0952 74.3428 62.5835L68.6783 61.5888C68.4284 63.0115 68.5338 64.3983 68.9324 65.6688L74.4199 63.9473ZM74.3428 66.2485L74.5084 65.3054L68.8439 64.3107L68.6783 65.2538L74.3428 66.2485ZM78.4886 69.304C76.3751 70.3892 73.9319 68.5886 74.3428 66.2485L68.6783 65.2538C67.4455 72.2739 74.775 77.6758 81.1156 74.4201L78.4886 69.304ZM89.8232 63.4839L78.4886 69.304L81.1156 74.4201L92.4502 68.6001L89.8232 63.4839ZM97.7043 63.4839C95.2307 62.2139 92.2967 62.2139 89.8232 63.4839L92.4502 68.6001C93.2747 68.1767 94.2527 68.1767 95.0772 68.6001L97.7043 63.4839ZM109.039 69.304L97.7043 63.4839L95.0772 68.6001L106.412 74.4201L109.039 69.304ZM113.185 66.2485C113.596 68.5886 111.152 70.3892 109.039 69.304L106.412 74.4201C112.752 77.6758 120.082 72.274 118.849 65.2538L113.185 66.2485ZM113.019 65.3054L113.185 66.2485L118.849 65.2538L118.684 64.3107L113.019 65.3054ZM113.185 62.5835C113.274 63.0952 113.232 63.5506 113.108 63.9473L118.595 65.6688C118.994 64.3983 119.099 63.0115 118.849 61.5888L113.185 62.5835ZM111.257 51.6068L113.185 62.5835L118.849 61.5888L116.922 50.6121L111.257 51.6068ZM113.635 46.5615C112.551 47.5937 111.772 48.8721 111.342 50.2593L116.836 51.9596C116.98 51.4965 117.239 51.071 117.601 50.7269L113.635 46.5615ZM122.422 38.1958L113.635 46.5615L117.601 50.7269L126.388 42.3612L122.422 38.1958ZM123.168 35.2066C123.506 36.2241 123.304 37.3567 122.422 38.1958L126.388 42.3612C129.022 39.8534 129.602 36.3364 128.627 33.3965L123.168 35.2066ZM120.844 29.6011C122.697 29.8641 123.731 31.7414 123.175 33.376L128.62 35.2271C130.244 30.4512 127.351 24.7158 121.652 23.9069L120.844 29.6011ZM108.458 27.8433L120.844 29.6011L121.652 23.9069L109.266 22.1492L108.458 27.8433ZM101.971 23.1928C103.243 25.7104 105.666 27.447 108.458 27.8433L109.266 22.1492C108.335 22.0171 107.528 21.4382 107.104 20.599L101.971 23.1928ZM96.3303 12.0302L101.971 23.1928L107.104 20.599L101.463 9.43644L96.3303 12.0302Z" fill="white" mask="url(#path-1-outside-1_74_7052)"/>
<g filter="url(#filter0_d_74_7052)">
<path d="M88.8912 10.7816C91.0185 6.5717 97.0301 6.57171 99.1574 10.7816L104.798 21.9442C105.646 23.6225 107.261 24.7803 109.123 25.0445L121.508 26.8022C126.267 27.4777 128.147 33.3472 124.666 36.6618L115.878 45.0275C114.484 46.3548 113.847 48.2916 114.18 50.1876L116.277 62.1344C117.099 66.8145 112.213 70.4158 107.986 68.2453L96.6513 62.4253C95.0023 61.5785 93.0463 61.5785 91.3973 62.4253L80.0627 68.2453C75.8356 70.4158 70.9493 66.8145 71.7711 62.1344L73.8691 50.1876C74.202 48.2916 73.5643 46.3548 72.1701 45.0275L63.383 36.6618C59.9014 33.3472 61.7811 27.4777 66.5404 26.8022L78.9257 25.0445C80.7875 24.7803 82.4025 23.6225 83.2506 21.9442L88.8912 10.7816Z" fill="url(#paint1_linear_74_7052)"/>
</g>
<mask id="path-4-outside-2_74_7052" maskUnits="userSpaceOnUse" x="5.28259" y="29.3633" width="58" height="59" fill="black">
<rect fill="white" x="5.28259" y="29.3633" width="58" height="59"/>
<path fill-rule="evenodd" clip-rule="evenodd" d="M39.3082 35.5207C37.1809 31.3108 31.1693 31.3108 29.042 35.5207L25.4227 42.6834C24.5746 44.3617 22.9595 45.5195 21.0977 45.7837L13.232 46.9C9.57339 47.4192 7.61647 51.0078 8.48855 54.1457C7.96961 56.0537 8.40746 58.2266 10.0745 59.8137L15.5913 65.0659C16.3742 65.8112 16.9185 66.7487 17.1864 67.7632L15.9644 74.7223C15.81 75.6013 15.857 76.4422 16.0631 77.214L15.9644 77.7765C15.1425 82.4566 20.0289 86.0579 24.2559 83.8874L31.5481 80.143C33.1971 79.2963 35.1531 79.2963 36.8021 80.143L44.0944 83.8874C48.3214 86.0579 53.2078 82.4566 52.3859 77.7765L52.2871 77.214C52.4933 76.4422 52.5403 75.6013 52.3859 74.7223L51.1638 67.7632C51.4317 66.7487 51.9761 65.8112 52.7589 65.0659L58.2757 59.8137C59.9428 58.2266 60.3806 56.0537 59.8617 54.1457C60.7338 51.0078 58.7769 47.4192 55.1182 46.9L47.2525 45.7837C45.3907 45.5195 43.7757 44.3617 42.9276 42.6834L39.3082 35.5207Z"/>
</mask>
<path fill-rule="evenodd" clip-rule="evenodd" d="M39.3082 35.5207C37.1809 31.3108 31.1693 31.3108 29.042 35.5207L25.4227 42.6834C24.5746 44.3617 22.9595 45.5195 21.0977 45.7837L13.232 46.9C9.57339 47.4192 7.61647 51.0078 8.48855 54.1457C7.96961 56.0537 8.40746 58.2266 10.0745 59.8137L15.5913 65.0659C16.3742 65.8112 16.9185 66.7487 17.1864 67.7632L15.9644 74.7223C15.81 75.6013 15.857 76.4422 16.0631 77.214L15.9644 77.7765C15.1425 82.4566 20.0289 86.0579 24.2559 83.8874L31.5481 80.143C33.1971 79.2963 35.1531 79.2963 36.8021 80.143L44.0944 83.8874C48.3214 86.0579 53.2078 82.4566 52.3859 77.7765L52.2871 77.214C52.4933 76.4422 52.5403 75.6013 52.3859 74.7223L51.1638 67.7632C51.4317 66.7487 51.9761 65.8112 52.7589 65.0659L58.2757 59.8137C59.9428 58.2266 60.3806 56.0537 59.8617 54.1457C60.7338 51.0078 58.7769 47.4192 55.1182 46.9L47.2525 45.7837C45.3907 45.5195 43.7757 44.3617 42.9276 42.6834L39.3082 35.5207Z" fill="url(#paint2_linear_74_7052)"/>
<path d="M29.042 35.5207L31.6086 36.8176V36.8176L29.042 35.5207ZM39.3082 35.5207L41.8747 34.2238V34.2238L39.3082 35.5207ZM25.4227 42.6834L22.8561 41.3865L22.8561 41.3865L25.4227 42.6834ZM21.0977 45.7837L20.6937 42.9366L20.6937 42.9366L21.0977 45.7837ZM13.232 46.9L13.6361 49.7471H13.6361L13.232 46.9ZM8.48855 54.1457L11.2633 54.9004L11.4709 54.1374L11.2591 53.3757L8.48855 54.1457ZM10.0745 59.8137L8.09175 61.8964L10.0745 59.8137ZM15.5913 65.0659L13.6085 67.1486H13.6085L15.5913 65.0659ZM17.1864 67.7632L20.0187 68.2605L20.1278 67.6391L19.9667 67.029L17.1864 67.7632ZM15.9644 74.7223L18.7966 75.2197L15.9644 74.7223ZM16.0631 77.214L18.8954 77.7113L19.0053 77.0856L18.8413 76.4719L16.0631 77.214ZM15.9644 77.7765L18.7966 78.2739L15.9644 77.7765ZM24.2559 83.8874L22.9424 81.3293H22.9424L24.2559 83.8874ZM31.5481 80.143L32.8616 82.7011L31.5481 80.143ZM36.8021 80.143L35.4886 82.7011L35.4886 82.7011L36.8021 80.143ZM44.0944 83.8874L45.4079 81.3293L44.0944 83.8874ZM52.3859 77.7765L49.5536 78.2739V78.2739L52.3859 77.7765ZM52.2871 77.214L49.5089 76.4719L49.345 77.0856L49.4549 77.7113L52.2871 77.214ZM52.3859 74.7223L49.5536 75.2197V75.2197L52.3859 74.7223ZM51.1638 67.7632L48.3835 67.029L48.2224 67.6391L48.3316 68.2605L51.1638 67.7632ZM52.7589 65.0659L50.7761 62.9832L50.7761 62.9832L52.7589 65.0659ZM58.2757 59.8137L56.2929 57.731L58.2757 59.8137ZM59.8617 54.1457L57.0911 53.3757L56.8794 54.1374L57.0869 54.9004L59.8617 54.1457ZM55.1182 46.9L54.7142 49.7471L55.1182 46.9ZM47.2525 45.7837L46.8485 48.6308H46.8485L47.2525 45.7837ZM42.9276 42.6834L45.4941 41.3865V41.3865L42.9276 42.6834ZM31.6086 36.8176C32.6722 34.7126 35.678 34.7127 36.7417 36.8176L41.8747 34.2238C38.6838 27.909 29.6664 27.909 26.4755 34.2238L31.6086 36.8176ZM27.9892 43.9803L31.6086 36.8176L26.4755 34.2238L22.8561 41.3865L27.9892 43.9803ZM21.5018 48.6308C24.2945 48.2344 26.7171 46.4978 27.9892 43.9803L22.8561 41.3865C22.4321 42.2256 21.6246 42.8045 20.6937 42.9366L21.5018 48.6308ZM13.6361 49.7471L21.5018 48.6308L20.6937 42.9366L12.828 44.0529L13.6361 49.7471ZM11.2591 53.3757C10.8119 51.7664 11.8416 50.0018 13.6361 49.7471L12.828 44.0529C7.30519 44.8367 4.42106 50.2493 5.71796 54.9157L11.2591 53.3757ZM12.0573 57.731C11.2178 56.9317 10.9983 55.8747 11.2633 54.9004L5.71375 53.391C4.94087 56.2326 5.59713 59.5215 8.09175 61.8964L12.0573 57.731ZM17.5741 62.9832L12.0573 57.731L8.09175 61.8964L13.6085 67.1486L17.5741 62.9832ZM19.9667 67.029C19.565 65.5079 18.7485 64.1012 17.5741 62.9832L13.6085 67.1486C13.9999 67.5212 14.272 67.9895 14.4061 68.4974L19.9667 67.029ZM18.7966 75.2197L20.0187 68.2605L14.3542 67.2658L13.1321 74.225L18.7966 75.2197ZM18.8413 76.4719C18.7431 76.1039 18.7147 75.686 18.7966 75.2197L13.1321 74.225C12.9053 75.5166 12.9709 76.7805 13.2849 77.9561L18.8413 76.4719ZM18.7966 78.2739L18.8954 77.7113L13.2309 76.7166L13.1321 77.2791L18.7966 78.2739ZM22.9424 81.3293C20.8289 82.4146 18.3857 80.6139 18.7966 78.2739L13.1321 77.2791C11.8993 84.2993 19.2289 89.7012 25.5694 86.4455L22.9424 81.3293ZM30.2346 77.585L22.9424 81.3293L25.5694 86.4455L32.8616 82.7011L30.2346 77.585ZM38.1157 77.585C35.6421 76.3149 32.7081 76.3149 30.2346 77.585L32.8616 82.7011C33.6861 82.2778 34.6641 82.2778 35.4886 82.7011L38.1157 77.585ZM45.4079 81.3293L38.1156 77.585L35.4886 82.7011L42.7808 86.4455L45.4079 81.3293ZM49.5536 78.2739C49.9646 80.6139 47.5214 82.4146 45.4079 81.3293L42.7808 86.4455C49.1214 89.7012 56.451 84.2993 55.2182 77.2791L49.5536 78.2739ZM49.4549 77.7113L49.5536 78.2739L55.2182 77.2791L55.1194 76.7166L49.4549 77.7113ZM49.5536 75.2197C49.6355 75.686 49.6072 76.1039 49.5089 76.4719L55.0653 77.9561C55.3793 76.7805 55.445 75.5166 55.2182 74.225L49.5536 75.2197ZM48.3316 68.2605L49.5536 75.2197L55.2182 74.225L53.9961 67.2658L48.3316 68.2605ZM50.7761 62.9832C49.6018 64.1012 48.7852 65.5079 48.3835 67.029L53.9441 68.4974C54.0782 67.9895 54.3503 67.5212 54.7417 67.1486L50.7761 62.9832ZM56.2929 57.731L50.7761 62.9832L54.7417 67.1486L60.2585 61.8964L56.2929 57.731ZM57.0869 54.9004C57.3519 55.8747 57.1325 56.9317 56.2929 57.731L60.2585 61.8964C62.7531 59.5215 63.4094 56.2326 62.6365 53.391L57.0869 54.9004ZM54.7142 49.7471C56.5087 50.0018 57.5384 51.7664 57.0911 53.3757L62.6323 54.9157C63.9292 50.2493 61.0451 44.8367 55.5223 44.0529L54.7142 49.7471ZM46.8485 48.6308L54.7142 49.7471L55.5223 44.0529L47.6566 42.9366L46.8485 48.6308ZM40.361 43.9802C41.6332 46.4978 44.0558 48.2344 46.8485 48.6308L47.6566 42.9366C46.7257 42.8045 45.9182 42.2256 45.4941 41.3865L40.361 43.9802ZM36.7417 36.8176L40.361 43.9803L45.4941 41.3865L41.8747 34.2238L36.7417 36.8176Z" fill="white" mask="url(#path-4-outside-2_74_7052)"/>
<g filter="url(#filter1_d_74_7052)">
<path d="M29.2536 35.5619C31.3809 31.352 37.3925 31.352 39.5198 35.5618L43.1391 42.7245C43.9872 44.4029 45.6023 45.5606 47.4641 45.8249L55.3298 46.9412C60.0891 47.6166 61.9688 53.4861 58.4873 56.8007L52.9705 62.0529C51.5763 63.3802 50.9386 65.317 51.2715 67.213L52.5975 74.7635C53.4193 79.4436 48.533 83.0449 44.3059 80.8744L37.0137 77.13C35.3647 76.2833 33.4087 76.2833 31.7597 77.13L24.4675 80.8744C20.2404 83.0449 15.3541 79.4436 16.1759 74.7635L17.5018 67.213C17.8348 65.317 17.1971 63.3802 15.8029 62.0529L10.2861 56.8007C6.80455 53.4861 8.68424 47.6166 13.4436 46.9412L21.3093 45.8249C23.1711 45.5606 24.7861 44.4029 25.6342 42.7245L29.2536 35.5619Z" fill="url(#paint3_linear_74_7052)"/>
</g>
<mask id="path-7-outside-3_74_7052" maskUnits="userSpaceOnUse" x="123.188" y="29.3633" width="58" height="59" fill="black">
<rect fill="white" x="123.188" y="29.3633" width="58" height="59"/>
<path fill-rule="evenodd" clip-rule="evenodd" d="M157.213 35.5207C155.086 31.3108 149.074 31.3108 146.947 35.5207L143.328 42.6834C142.48 44.3617 140.865 45.5195 139.003 45.7837L131.137 46.9C127.479 47.4192 125.522 51.0078 126.394 54.1457C125.875 56.0537 126.313 58.2266 127.98 59.8137L133.496 65.0659C134.279 65.8112 134.824 66.7487 135.092 67.7632L133.87 74.7223C133.715 75.6013 133.762 76.4422 133.968 77.214L133.87 77.7765C133.048 82.4566 137.934 86.0579 142.161 83.8874L149.453 80.143C151.102 79.2963 153.058 79.2963 154.707 80.143L162 83.8874C166.227 86.0579 171.113 82.4566 170.291 77.7765L170.192 77.214C170.398 76.4422 170.445 75.6013 170.291 74.7223L169.069 67.7632C169.337 66.7487 169.881 65.8112 170.664 65.0659L176.181 59.8137C177.848 58.2266 178.286 56.0537 177.767 54.1457C178.639 51.0078 176.682 47.4192 173.023 46.9L165.158 45.7837C163.296 45.5195 161.681 44.3617 160.833 42.6834L157.213 35.5207Z"/>
</mask>
<path fill-rule="evenodd" clip-rule="evenodd" d="M157.213 35.5207C155.086 31.3108 149.074 31.3108 146.947 35.5207L143.328 42.6834C142.48 44.3617 140.865 45.5195 139.003 45.7837L131.137 46.9C127.479 47.4192 125.522 51.0078 126.394 54.1457C125.875 56.0537 126.313 58.2266 127.98 59.8137L133.496 65.0659C134.279 65.8112 134.824 66.7487 135.092 67.7632L133.87 74.7223C133.715 75.6013 133.762 76.4422 133.968 77.214L133.87 77.7765C133.048 82.4566 137.934 86.0579 142.161 83.8874L149.453 80.143C151.102 79.2963 153.058 79.2963 154.707 80.143L162 83.8874C166.227 86.0579 171.113 82.4566 170.291 77.7765L170.192 77.214C170.398 76.4422 170.445 75.6013 170.291 74.7223L169.069 67.7632C169.337 66.7487 169.881 65.8112 170.664 65.0659L176.181 59.8137C177.848 58.2266 178.286 56.0537 177.767 54.1457C178.639 51.0078 176.682 47.4192 173.023 46.9L165.158 45.7837C163.296 45.5195 161.681 44.3617 160.833 42.6834L157.213 35.5207Z" fill="url(#paint4_linear_74_7052)"/>
<path d="M146.947 35.5207L144.381 34.2238V34.2238L146.947 35.5207ZM157.213 35.5207L159.78 34.2238V34.2238L157.213 35.5207ZM143.328 42.6834L145.894 43.9803L143.328 42.6834ZM139.003 45.7837L138.599 42.9366L138.599 42.9366L139.003 45.7837ZM131.137 46.9L131.541 49.7471H131.541L131.137 46.9ZM126.394 54.1457L129.168 54.9004L129.376 54.1374L129.164 53.3757L126.394 54.1457ZM127.98 59.8137L125.997 61.8964L127.98 59.8137ZM133.496 65.0659L131.514 67.1486H131.514L133.496 65.0659ZM135.092 67.7632L137.924 68.2605L138.033 67.6391L137.872 67.029L135.092 67.7632ZM133.87 74.7223L136.702 75.2197L133.87 74.7223ZM133.968 77.214L136.801 77.7113L136.91 77.0856L136.746 76.4719L133.968 77.214ZM133.87 77.7765L136.702 78.2739L133.87 77.7765ZM142.161 83.8874L140.848 81.3293H140.848L142.161 83.8874ZM149.453 80.143L148.14 77.585H148.14L149.453 80.143ZM154.707 80.143L153.394 82.7011L153.394 82.7011L154.707 80.143ZM162 83.8874L163.313 81.3293H163.313L162 83.8874ZM170.291 77.7765L167.459 78.2739L170.291 77.7765ZM170.192 77.214L167.414 76.4719L167.25 77.0856L167.36 77.7113L170.192 77.214ZM170.291 74.7223L173.123 74.225V74.225L170.291 74.7223ZM169.069 67.7632L166.289 67.029L166.128 67.6391L166.237 68.2606L169.069 67.7632ZM170.664 65.0659L168.681 62.9832V62.9832L170.664 65.0659ZM176.181 59.8137L174.198 57.731L174.198 57.731L176.181 59.8137ZM177.767 54.1457L174.996 53.3757L174.785 54.1374L174.992 54.9004L177.767 54.1457ZM173.023 46.9L173.427 44.0529L173.023 46.9ZM165.158 45.7837L164.754 48.6308L165.158 45.7837ZM160.833 42.6834L158.266 43.9803V43.9803L160.833 42.6834ZM149.514 36.8176C150.577 34.7126 153.583 34.7127 154.647 36.8176L159.78 34.2238C156.589 27.909 147.572 27.909 144.381 34.2238L149.514 36.8176ZM145.894 43.9803L149.514 36.8176L144.381 34.2238L140.761 41.3865L145.894 43.9803ZM139.407 48.6308C142.2 48.2344 144.622 46.4978 145.894 43.9803L140.761 41.3865C140.337 42.2256 139.53 42.8045 138.599 42.9366L139.407 48.6308ZM131.541 49.7471L139.407 48.6308L138.599 42.9366L130.733 44.0529L131.541 49.7471ZM129.164 53.3757C128.717 51.7664 129.747 50.0018 131.541 49.7471L130.733 44.0529C125.21 44.8367 122.326 50.2493 123.623 54.9157L129.164 53.3757ZM129.962 57.731C129.123 56.9317 128.903 55.8747 129.168 54.9004L123.619 53.391C122.846 56.2326 123.502 59.5215 125.997 61.8964L129.962 57.731ZM135.479 62.9832L129.962 57.731L125.997 61.8964L131.514 67.1486L135.479 62.9832ZM137.872 67.029C137.47 65.5079 136.654 64.1012 135.479 62.9832L131.514 67.1486C131.905 67.5212 132.177 67.9895 132.311 68.4974L137.872 67.029ZM136.702 75.2197L137.924 68.2605L132.259 67.2658L131.037 74.225L136.702 75.2197ZM136.746 76.4719C136.648 76.1039 136.62 75.686 136.702 75.2197L131.037 74.225C130.81 75.5166 130.876 76.7805 131.19 77.9561L136.746 76.4719ZM136.702 78.2739L136.801 77.7113L131.136 76.7166L131.037 77.2791L136.702 78.2739ZM140.848 81.3293C138.734 82.4146 136.291 80.6139 136.702 78.2739L131.037 77.2791C129.804 84.2993 137.134 89.7012 143.475 86.4455L140.848 81.3293ZM148.14 77.585L140.848 81.3293L143.475 86.4455L150.767 82.7011L148.14 77.585ZM156.021 77.585C153.547 76.3149 150.613 76.3149 148.14 77.585L150.767 82.7011C151.591 82.2778 152.569 82.2778 153.394 82.7011L156.021 77.585ZM163.313 81.3293L156.021 77.585L153.394 82.7011L160.686 86.4455L163.313 81.3293ZM167.459 78.2739C167.87 80.6139 165.427 82.4146 163.313 81.3293L160.686 86.4455C167.027 89.7012 174.356 84.2993 173.123 77.2791L167.459 78.2739ZM167.36 77.7113L167.459 78.2739L173.123 77.2791L173.025 76.7166L167.36 77.7113ZM167.459 75.2197C167.541 75.686 167.512 76.1039 167.414 76.4719L172.97 77.9561C173.284 76.7805 173.35 75.5166 173.123 74.225L167.459 75.2197ZM166.237 68.2606L167.459 75.2197L173.123 74.225L171.901 67.2658L166.237 68.2606ZM168.681 62.9832C167.507 64.1012 166.69 65.5079 166.289 67.029L171.849 68.4974C171.983 67.9895 172.255 67.5212 172.647 67.1486L168.681 62.9832ZM174.198 57.731L168.681 62.9832L172.647 67.1486L178.164 61.8964L174.198 57.731ZM174.992 54.9004C175.257 55.8747 175.038 56.9317 174.198 57.731L178.164 61.8964C180.658 59.5215 181.315 56.2326 180.542 53.391L174.992 54.9004ZM172.619 49.7471C174.414 50.0018 175.444 51.7664 174.996 53.3757L180.537 54.9157C181.834 50.2493 178.95 44.8367 173.427 44.0529L172.619 49.7471ZM164.754 48.6308L172.619 49.7471L173.427 44.0529L165.562 42.9366L164.754 48.6308ZM158.266 43.9803C159.538 46.4978 161.961 48.2344 164.754 48.6308L165.562 42.9366C164.631 42.8045 163.823 42.2256 163.399 41.3865L158.266 43.9803ZM154.647 36.8176L158.266 43.9803L163.399 41.3865L159.78 34.2238L154.647 36.8176Z" fill="white" mask="url(#path-7-outside-3_74_7052)"/>
<g filter="url(#filter2_d_74_7052)">
<path d="M147.161 35.5609C149.288 31.351 155.299 31.351 157.427 35.5609L161.046 42.7235C161.894 44.4019 163.509 45.5597 165.371 45.8239L173.237 46.9402C177.996 47.6156 179.876 53.4852 176.394 56.7997L170.877 62.0519C169.483 63.3792 168.846 65.316 169.179 67.212L170.504 74.7625C171.326 79.4426 166.44 83.0439 162.213 80.8734L154.921 77.129C153.272 76.2823 151.316 76.2823 149.667 77.129L142.374 80.8734C138.147 83.0439 133.261 79.4426 134.083 74.7625L135.409 67.212C135.742 65.316 135.104 63.3792 133.71 62.0519L128.193 56.7997C124.712 53.4852 126.591 47.6156 131.351 46.9402L139.216 45.8239C141.078 45.5597 142.693 44.4019 143.541 42.7235L147.161 35.5609Z" fill="url(#paint5_linear_74_7052)"/>
</g>
<defs>
<filter id="filter0_d_74_7052" x="61.5911" y="7.62427" width="64.8665" height="65.582" filterUnits="userSpaceOnUse" color-interpolation-filters="sRGB">
<feFlood flood-opacity="0" result="BackgroundImageFix"/>
<feColorMatrix in="SourceAlpha" type="matrix" values="0 0 0 0 0 0 0 0 0 0 0 0 0 0 0 0 0 0 127 0" result="hardAlpha"/>
<feOffset dy="4.3134"/>
<feComposite in2="hardAlpha" operator="out"/>
<feColorMatrix type="matrix" values="0 0 0 0 1 0 0 0 0 0.392 0 0 0 0 0.2 0 0 0 1 0"/>
<feBlend mode="normal" in2="BackgroundImageFix" result="effect1_dropShadow_74_7052"/>
<feBlend mode="normal" in="SourceGraphic" in2="effect1_dropShadow_74_7052" result="shape"/>
</filter>
<filter id="filter1_d_74_7052" x="8.49414" y="32.4045" width="51.785" height="53.4308" filterUnits="userSpaceOnUse" color-interpolation-filters="sRGB">
<feFlood flood-opacity="0" result="BackgroundImageFix"/>
<feColorMatrix in="SourceAlpha" type="matrix" values="0 0 0 0 0 0 0 0 0 0 0 0 0 0 0 0 0 0 127 0" result="hardAlpha"/>
<feOffset dy="4.3134"/>
<feComposite in2="hardAlpha" operator="out"/>
<feColorMatrix type="matrix" values="0 0 0 0 1 0 0 0 0 0.392 0 0 0 0 0.2 0 0 0 1 0"/>
<feBlend mode="normal" in2="BackgroundImageFix" result="effect1_dropShadow_74_7052"/>
<feBlend mode="normal" in="SourceGraphic" in2="effect1_dropShadow_74_7052" result="shape"/>
</filter>
<filter id="filter2_d_74_7052" x="126.401" y="32.4036" width="51.785" height="53.4308" filterUnits="userSpaceOnUse" color-interpolation-filters="sRGB">
<feFlood flood-opacity="0" result="BackgroundImageFix"/>
<feColorMatrix in="SourceAlpha" type="matrix" values="0 0 0 0 0 0 0 0 0 0 0 0 0 0 0 0 0 0 127 0" result="hardAlpha"/>
<feOffset dy="4.3134"/>
<feComposite in2="hardAlpha" operator="out"/>
<feColorMatrix type="matrix" values="0 0 0 0 1 0 0 0 0 0.392 0 0 0 0 0.2 0 0 0 1 0"/>
<feBlend mode="normal" in2="BackgroundImageFix" result="effect1_dropShadow_74_7052"/>
<feBlend mode="normal" in="SourceGraphic" in2="effect1_dropShadow_74_7052" result="shape"/>
</filter>
<linearGradient id="paint0_linear_74_7052" x1="93.7636" y1="1.5573" x2="93.7636" y2="80.4007" gradientUnits="userSpaceOnUse">
<stop offset="0.25" stop-color="#FFEE37"/>
<stop offset="1" stop-color="#F78A3B"/>
</linearGradient>
<linearGradient id="paint1_linear_74_7052" x1="94.0243" y1="0.623291" x2="94.0243" y2="81.2274" gradientUnits="userSpaceOnUse">
<stop offset="0.25" stop-color="#FFEE37"/>
<stop offset="1" stop-color="#F78A3B"/>
</linearGradient>
<linearGradient id="paint2_linear_74_7052" x1="34.175" y1="27.5275" x2="34.175" y2="90.8752" gradientUnits="userSpaceOnUse">
<stop offset="0.25" stop-color="#FFEE37"/>
<stop offset="1" stop-color="#F78A3B"/>
</linearGradient>
<linearGradient id="paint3_linear_74_7052" x1="34.3867" y1="25.4036" x2="34.3867" y2="92.5736" gradientUnits="userSpaceOnUse">
<stop offset="0.25" stop-color="#FFEE37"/>
<stop offset="1" stop-color="#F78A3B"/>
</linearGradient>
<linearGradient id="paint4_linear_74_7052" x1="152.08" y1="27.5275" x2="152.08" y2="90.8752" gradientUnits="userSpaceOnUse">
<stop offset="0.25" stop-color="#FFEE37"/>
<stop offset="1" stop-color="#F78A3B"/>
</linearGradient>
<linearGradient id="paint5_linear_74_7052" x1="152.294" y1="25.4026" x2="152.294" y2="92.5726" gradientUnits="userSpaceOnUse">
<stop offset="0.25" stop-color="#FFEE37"/>
<stop offset="1" stop-color="#F78A3B"/>
</linearGradient>
</defs>
</svg>
