<svg width="55" height="61" viewBox="0 0 55 61" fill="none" xmlns="http://www.w3.org/2000/svg">
<g filter="url(#filter0_dd_212_6100)">
<mask id="path-1-outside-1_212_6100" maskUnits="userSpaceOnUse" x="3" y="39" width="48" height="19" fill="black">
<rect fill="white" x="3" y="39" width="48" height="19"/>
<path d="M4.97287 56.52C4.75954 56.52 4.55154 56.504 4.34887 56.472C4.14621 56.4507 3.97554 56.4187 3.83687 56.376L3.67687 54.136C3.89021 54.1893 4.07687 54.2267 4.23687 54.248C4.39687 54.2693 4.56221 54.28 4.73287 54.28C5.18087 54.28 5.49021 54.1573 5.66087 53.912C5.84221 53.6667 5.93287 53.2667 5.93287 52.712V43.992H8.17287V50.76H9.90088V53H8.15687C8.09287 54.2373 7.81021 55.1333 7.30887 55.688C6.80754 56.2427 6.02887 56.52 4.97287 56.52ZM9.4275 50.76H16.0675C16.1528 50.408 16.2168 50.024 16.2595 49.608C16.3128 49.192 16.3395 48.8133 16.3395 48.472C16.3395 48.1413 16.2755 47.8 16.1475 47.448C16.0302 47.0853 15.8328 46.7813 15.5555 46.536C15.0968 46.1307 14.4675 45.928 13.6675 45.928C13.2408 45.928 12.8515 45.9813 12.4995 46.088C12.1475 46.184 11.7635 46.3653 11.3475 46.632L10.4195 44.68C10.9422 44.3813 11.4915 44.1413 12.0675 43.96C12.6435 43.7787 13.2675 43.688 13.9395 43.688C14.6008 43.688 15.1982 43.7947 15.7315 44.008C16.2755 44.2213 16.7395 44.5253 17.1235 44.92C17.5502 45.3467 17.8968 45.8747 18.1635 46.504C18.4302 47.1227 18.5635 47.8373 18.5635 48.648C18.5635 49.0107 18.5422 49.368 18.4995 49.72C18.4675 50.072 18.4195 50.4187 18.3555 50.76H20.0835V53H9.4275V50.76ZM14.7235 56.104C14.4675 56.3067 14.1635 56.408 13.8115 56.408C13.4595 56.408 13.1502 56.3067 12.8835 56.104C12.6275 55.9013 12.4995 55.6027 12.4995 55.208C12.4995 54.856 12.6222 54.568 12.8675 54.344C13.1235 54.1307 13.4382 54.024 13.8115 54.024C14.1848 54.024 14.4942 54.1307 14.7395 54.344C14.9955 54.568 15.1235 54.856 15.1235 55.208C15.1235 55.6027 14.9902 55.9013 14.7235 56.104ZM19.6269 50.76H22.9709V43.992H25.2109V50.76H28.1549V53H19.6269V50.76ZM26.6029 42.344C26.3575 42.536 26.0642 42.632 25.7229 42.632C25.3815 42.632 25.0882 42.536 24.8429 42.344C24.5975 42.1413 24.4749 41.8533 24.4749 41.48C24.4749 41.1387 24.5922 40.8667 24.8269 40.664C25.0722 40.4507 25.3709 40.344 25.7229 40.344C26.0855 40.344 26.3842 40.4507 26.6189 40.664C26.8535 40.8667 26.9709 41.1387 26.9709 41.48C26.9709 41.8533 26.8482 42.1413 26.6029 42.344ZM23.1309 42.344C22.8855 42.536 22.5922 42.632 22.2509 42.632C21.9095 42.632 21.6162 42.536 21.3709 42.344C21.1255 42.1413 21.0029 41.8533 21.0029 41.48C21.0029 41.1387 21.1202 40.8667 21.3549 40.664C21.6002 40.4507 21.8989 40.344 22.2509 40.344C22.6029 40.344 22.8962 40.4507 23.1309 40.664C23.3762 40.8667 23.4989 41.1387 23.4989 41.48C23.4989 41.8533 23.3762 42.1413 23.1309 42.344ZM27.67 50.76H29.222C29.1793 50.6 29.1473 50.4347 29.126 50.264C29.1153 50.0933 29.11 49.9173 29.11 49.736C29.11 49.0533 29.2327 48.4187 29.478 47.832C29.734 47.2347 30.0753 46.7173 30.502 46.28C30.9393 45.832 31.446 45.48 32.022 45.224C32.6087 44.968 33.2327 44.84 33.894 44.84C34.566 44.84 35.1953 44.968 35.782 45.224C36.3793 45.4693 36.8967 45.8107 37.334 46.248C37.782 46.6853 38.1287 47.2027 38.374 47.8C38.63 48.3973 38.758 49.0427 38.758 49.736C38.758 49.9173 38.7473 50.0933 38.726 50.264C38.7047 50.4347 38.678 50.6 38.646 50.76H40.438V53H37.446C36.998 53.48 36.4647 53.8533 35.846 54.12C35.238 54.3867 34.5873 54.52 33.894 54.52C33.2113 54.52 32.5713 54.3813 31.974 54.104C31.3767 53.8373 30.854 53.4693 30.406 53H27.67V50.76ZM32.886 52.088C33.1953 52.216 33.5313 52.28 33.894 52.28C34.2567 52.28 34.598 52.216 34.918 52.088C35.238 51.96 35.5153 51.784 35.75 51.56C35.9953 51.3253 36.182 51.0533 36.31 50.744C36.4487 50.424 36.518 50.0773 36.518 49.704C36.518 49.3307 36.454 48.984 36.326 48.664C36.198 48.344 36.0167 48.0667 35.782 47.832C35.5473 47.5973 35.27 47.416 34.95 47.288C34.63 47.1493 34.278 47.08 33.894 47.08C33.5207 47.08 33.1793 47.1493 32.87 47.288C32.5607 47.4267 32.294 47.6133 32.07 47.848C31.846 48.0827 31.67 48.36 31.542 48.68C31.414 49 31.35 49.3413 31.35 49.704C31.35 50.0667 31.414 50.408 31.542 50.728C31.67 51.0373 31.846 51.3093 32.07 51.544C32.3047 51.768 32.5767 51.9493 32.886 52.088ZM39.9631 50.76H41.5311V40.024H44.8111V42.264H43.7711V53H39.9631V50.76ZM47.3675 40.024H49.6075V53H47.3675V40.024Z"/>
</mask>
<path d="M4.97287 56.52C4.75954 56.52 4.55154 56.504 4.34887 56.472C4.14621 56.4507 3.97554 56.4187 3.83687 56.376L3.67687 54.136C3.89021 54.1893 4.07687 54.2267 4.23687 54.248C4.39687 54.2693 4.56221 54.28 4.73287 54.28C5.18087 54.28 5.49021 54.1573 5.66087 53.912C5.84221 53.6667 5.93287 53.2667 5.93287 52.712V43.992H8.17287V50.76H9.90088V53H8.15687C8.09287 54.2373 7.81021 55.1333 7.30887 55.688C6.80754 56.2427 6.02887 56.52 4.97287 56.52ZM9.4275 50.76H16.0675C16.1528 50.408 16.2168 50.024 16.2595 49.608C16.3128 49.192 16.3395 48.8133 16.3395 48.472C16.3395 48.1413 16.2755 47.8 16.1475 47.448C16.0302 47.0853 15.8328 46.7813 15.5555 46.536C15.0968 46.1307 14.4675 45.928 13.6675 45.928C13.2408 45.928 12.8515 45.9813 12.4995 46.088C12.1475 46.184 11.7635 46.3653 11.3475 46.632L10.4195 44.68C10.9422 44.3813 11.4915 44.1413 12.0675 43.96C12.6435 43.7787 13.2675 43.688 13.9395 43.688C14.6008 43.688 15.1982 43.7947 15.7315 44.008C16.2755 44.2213 16.7395 44.5253 17.1235 44.92C17.5502 45.3467 17.8968 45.8747 18.1635 46.504C18.4302 47.1227 18.5635 47.8373 18.5635 48.648C18.5635 49.0107 18.5422 49.368 18.4995 49.72C18.4675 50.072 18.4195 50.4187 18.3555 50.76H20.0835V53H9.4275V50.76ZM14.7235 56.104C14.4675 56.3067 14.1635 56.408 13.8115 56.408C13.4595 56.408 13.1502 56.3067 12.8835 56.104C12.6275 55.9013 12.4995 55.6027 12.4995 55.208C12.4995 54.856 12.6222 54.568 12.8675 54.344C13.1235 54.1307 13.4382 54.024 13.8115 54.024C14.1848 54.024 14.4942 54.1307 14.7395 54.344C14.9955 54.568 15.1235 54.856 15.1235 55.208C15.1235 55.6027 14.9902 55.9013 14.7235 56.104ZM19.6269 50.76H22.9709V43.992H25.2109V50.76H28.1549V53H19.6269V50.76ZM26.6029 42.344C26.3575 42.536 26.0642 42.632 25.7229 42.632C25.3815 42.632 25.0882 42.536 24.8429 42.344C24.5975 42.1413 24.4749 41.8533 24.4749 41.48C24.4749 41.1387 24.5922 40.8667 24.8269 40.664C25.0722 40.4507 25.3709 40.344 25.7229 40.344C26.0855 40.344 26.3842 40.4507 26.6189 40.664C26.8535 40.8667 26.9709 41.1387 26.9709 41.48C26.9709 41.8533 26.8482 42.1413 26.6029 42.344ZM23.1309 42.344C22.8855 42.536 22.5922 42.632 22.2509 42.632C21.9095 42.632 21.6162 42.536 21.3709 42.344C21.1255 42.1413 21.0029 41.8533 21.0029 41.48C21.0029 41.1387 21.1202 40.8667 21.3549 40.664C21.6002 40.4507 21.8989 40.344 22.2509 40.344C22.6029 40.344 22.8962 40.4507 23.1309 40.664C23.3762 40.8667 23.4989 41.1387 23.4989 41.48C23.4989 41.8533 23.3762 42.1413 23.1309 42.344ZM27.67 50.76H29.222C29.1793 50.6 29.1473 50.4347 29.126 50.264C29.1153 50.0933 29.11 49.9173 29.11 49.736C29.11 49.0533 29.2327 48.4187 29.478 47.832C29.734 47.2347 30.0753 46.7173 30.502 46.28C30.9393 45.832 31.446 45.48 32.022 45.224C32.6087 44.968 33.2327 44.84 33.894 44.84C34.566 44.84 35.1953 44.968 35.782 45.224C36.3793 45.4693 36.8967 45.8107 37.334 46.248C37.782 46.6853 38.1287 47.2027 38.374 47.8C38.63 48.3973 38.758 49.0427 38.758 49.736C38.758 49.9173 38.7473 50.0933 38.726 50.264C38.7047 50.4347 38.678 50.6 38.646 50.76H40.438V53H37.446C36.998 53.48 36.4647 53.8533 35.846 54.12C35.238 54.3867 34.5873 54.52 33.894 54.52C33.2113 54.52 32.5713 54.3813 31.974 54.104C31.3767 53.8373 30.854 53.4693 30.406 53H27.67V50.76ZM32.886 52.088C33.1953 52.216 33.5313 52.28 33.894 52.28C34.2567 52.28 34.598 52.216 34.918 52.088C35.238 51.96 35.5153 51.784 35.75 51.56C35.9953 51.3253 36.182 51.0533 36.31 50.744C36.4487 50.424 36.518 50.0773 36.518 49.704C36.518 49.3307 36.454 48.984 36.326 48.664C36.198 48.344 36.0167 48.0667 35.782 47.832C35.5473 47.5973 35.27 47.416 34.95 47.288C34.63 47.1493 34.278 47.08 33.894 47.08C33.5207 47.08 33.1793 47.1493 32.87 47.288C32.5607 47.4267 32.294 47.6133 32.07 47.848C31.846 48.0827 31.67 48.36 31.542 48.68C31.414 49 31.35 49.3413 31.35 49.704C31.35 50.0667 31.414 50.408 31.542 50.728C31.67 51.0373 31.846 51.3093 32.07 51.544C32.3047 51.768 32.5767 51.9493 32.886 52.088ZM39.9631 50.76H41.5311V40.024H44.8111V42.264H43.7711V53H39.9631V50.76ZM47.3675 40.024H49.6075V53H47.3675V40.024Z" fill="white"/>
<path d="M4.34887 56.472L4.42686 55.9781L4.41408 55.9761L4.40122 55.9747L4.34887 56.472ZM3.83687 56.376L3.33815 56.4116L3.36254 56.7532L3.68983 56.8539L3.83687 56.376ZM3.67687 54.136L3.79814 53.6509L3.129 53.4836L3.17815 54.1716L3.67687 54.136ZM4.23687 54.248L4.30296 53.7524H4.30296L4.23687 54.248ZM5.66087 53.912L5.25879 53.6148L5.25452 53.6206L5.25042 53.6265L5.66087 53.912ZM5.93287 43.992V43.492H5.43287V43.992H5.93287ZM8.17287 43.992H8.67287V43.492H8.17287V43.992ZM8.17287 50.76H7.67287V51.26H8.17287V50.76ZM9.90088 50.76H10.4009V50.26H9.90088V50.76ZM9.90088 53V53.5H10.4009V53H9.90088ZM8.15687 53V52.5H7.68207L7.65754 52.9742L8.15687 53ZM7.30887 55.688L6.93794 55.3527L7.30887 55.688ZM4.97287 56.02C4.78462 56.02 4.60273 56.0059 4.42686 55.9781L4.27089 56.9659C4.50035 57.0021 4.73446 57.02 4.97287 57.02V56.02ZM4.40122 55.9747C4.21887 55.9556 4.08214 55.9283 3.98392 55.8981L3.68983 56.8539C3.86895 56.909 4.07355 56.9458 4.29653 56.9693L4.40122 55.9747ZM4.3356 56.3404L4.1756 54.1004L3.17815 54.1716L3.33815 56.4116L4.3356 56.3404ZM3.55561 54.6211C3.7811 54.6774 3.98694 54.7191 4.17079 54.7436L4.30296 53.7524C4.16681 53.7342 3.99931 53.7012 3.79814 53.6509L3.55561 54.6211ZM4.17079 54.7436C4.35391 54.768 4.54136 54.78 4.73287 54.78V53.78C4.58306 53.78 4.43984 53.7706 4.30296 53.7524L4.17079 54.7436ZM4.73287 54.78C5.25871 54.78 5.76705 54.6349 6.07133 54.1975L5.25042 53.6265C5.21336 53.6797 5.10304 53.78 4.73287 53.78V54.78ZM6.06296 54.2092C6.34186 53.8319 6.43287 53.2971 6.43287 52.712H5.43287C5.43287 53.2362 5.34256 53.5015 5.25879 53.6148L6.06296 54.2092ZM6.43287 52.712V43.992H5.43287V52.712H6.43287ZM5.93287 44.492H8.17287V43.492H5.93287V44.492ZM7.67287 43.992V50.76H8.67287V43.992H7.67287ZM8.17287 51.26H9.90088V50.26H8.17287V51.26ZM9.40088 50.76V53H10.4009V50.76H9.40088ZM9.90088 52.5H8.15687V53.5H9.90088V52.5ZM7.65754 52.9742C7.59589 54.1662 7.32573 54.9237 6.93794 55.3527L7.67981 56.0233C8.29469 55.343 8.58986 54.3085 8.65621 53.0258L7.65754 52.9742ZM6.93794 55.3527C6.56527 55.765 5.94743 56.02 4.97287 56.02V57.02C6.11031 57.02 7.04981 56.7203 7.67981 56.0233L6.93794 55.3527ZM9.4275 50.76V50.26H8.9275V50.76H9.4275ZM16.0675 50.76V51.26H16.4608L16.5534 50.8778L16.0675 50.76ZM16.2595 49.608L15.7634 49.5444L15.7621 49.557L16.2595 49.608ZM16.1475 47.448L15.6718 47.6019L15.6745 47.6104L15.6776 47.6189L16.1475 47.448ZM15.5555 46.536L15.8868 46.1615L15.8866 46.1613L15.5555 46.536ZM12.4995 46.088L12.6311 46.5706L12.6445 46.5665L12.4995 46.088ZM11.3475 46.632L10.8959 46.8467L11.1396 47.3592L11.6173 47.0529L11.3475 46.632ZM10.4195 44.68L10.1714 44.2459L9.76885 44.4759L9.96793 44.8947L10.4195 44.68ZM12.0675 43.96L12.2176 44.4369V44.4369L12.0675 43.96ZM15.7315 44.008L15.5458 44.4722L15.549 44.4735L15.7315 44.008ZM17.1235 44.92L16.7651 45.2687L16.7699 45.2736L17.1235 44.92ZM18.1635 46.504L17.7031 46.6991L17.7043 46.7019L18.1635 46.504ZM18.4995 49.72L18.0031 49.6598L18.0022 49.6673L18.0016 49.6747L18.4995 49.72ZM18.3555 50.76L17.8641 50.6679L17.753 51.26H18.3555V50.76ZM20.0835 50.76H20.5835V50.26H20.0835V50.76ZM20.0835 53V53.5H20.5835V53H20.0835ZM9.4275 53H8.9275V53.5H9.4275V53ZM14.7235 56.104L14.4209 55.7058L14.4131 55.712L14.7235 56.104ZM12.8835 56.104L12.5731 56.4961L12.581 56.5021L12.8835 56.104ZM12.8675 54.344L12.5474 53.9599L12.5387 53.9671L12.5304 53.9748L12.8675 54.344ZM14.7395 54.344L15.0688 53.9677L15.0676 53.9667L14.7395 54.344ZM9.4275 51.26H16.0675V50.26H9.4275V51.26ZM16.5534 50.8778C16.6448 50.5008 16.7123 50.0942 16.7569 49.659L15.7621 49.557C15.7214 49.9538 15.6608 50.3152 15.5816 50.6422L16.5534 50.8778ZM16.7554 49.6716C16.8109 49.2391 16.8395 48.8387 16.8395 48.472H15.8395C15.8395 48.7879 15.8148 49.1449 15.7636 49.5444L16.7554 49.6716ZM16.8395 48.472C16.8395 48.0759 16.7627 47.6767 16.6174 47.2771L15.6776 47.6189C15.7883 47.9233 15.8395 48.2068 15.8395 48.472H16.8395ZM16.6232 47.2941C16.4792 46.8489 16.2332 46.4679 15.8868 46.1615L15.2242 46.9105C15.4325 47.0947 15.5811 47.3217 15.6718 47.6019L16.6232 47.2941ZM15.8866 46.1613C15.3115 45.6531 14.5512 45.428 13.6675 45.428V46.428C14.3838 46.428 14.8822 46.6083 15.2244 46.9107L15.8866 46.1613ZM13.6675 45.428C13.1994 45.428 12.7603 45.4865 12.3545 45.6095L12.6445 46.5665C12.9427 46.4762 13.2823 46.428 13.6675 46.428V45.428ZM12.3679 45.6056C11.9531 45.7187 11.5223 45.926 11.0777 46.2111L11.6173 47.0529C12.0047 46.8046 12.3419 46.6493 12.6311 46.5704L12.3679 45.6056ZM11.7991 46.4173L10.8711 44.4653L9.96793 44.8947L10.8959 46.8467L11.7991 46.4173ZM10.6676 45.1141C11.1591 44.8332 11.6756 44.6076 12.2176 44.4369L11.9174 43.4831C11.3074 43.6751 10.7252 43.9294 10.1714 44.2459L10.6676 45.1141ZM12.2176 44.4369C12.7399 44.2725 13.3127 44.188 13.9395 44.188V43.188C13.2223 43.188 12.5471 43.2848 11.9174 43.4831L12.2176 44.4369ZM13.9395 44.188C14.5467 44.188 15.0798 44.2858 15.5458 44.4722L15.9172 43.5438C15.3166 43.3035 14.6549 43.188 13.9395 43.188V44.188ZM15.549 44.4735C16.0308 44.6625 16.4338 44.9281 16.7651 45.2687L17.4819 44.5713C17.0452 44.1226 16.5202 43.7802 15.914 43.5425L15.549 44.4735ZM16.7699 45.2736C17.1455 45.6491 17.4582 46.1211 17.7031 46.6991L18.6239 46.3089C18.3354 45.6282 17.9548 45.0442 17.4771 44.5664L16.7699 45.2736ZM17.7043 46.7019C17.9392 47.2467 18.0635 47.8918 18.0635 48.648H19.0635C19.0635 47.7828 18.9212 46.9986 18.6227 46.3061L17.7043 46.7019ZM18.0635 48.648C18.0635 48.991 18.0433 49.3282 18.0031 49.6598L18.9959 49.7802C19.041 49.4078 19.0635 49.0303 19.0635 48.648H18.0635ZM18.0016 49.6747C17.971 50.0113 17.9251 50.3423 17.8641 50.6679L18.8469 50.8521C18.9139 50.495 18.964 50.1327 18.9974 49.7653L18.0016 49.6747ZM18.3555 51.26H20.0835V50.26H18.3555V51.26ZM19.5835 50.76V53H20.5835V50.76H19.5835ZM20.0835 52.5H9.4275V53.5H20.0835V52.5ZM9.9275 53V50.76H8.9275V53H9.9275ZM14.4131 55.712C14.2526 55.8391 14.0602 55.908 13.8115 55.908V56.908C14.2668 56.908 14.6824 56.7742 15.0339 56.496L14.4131 55.712ZM13.8115 55.908C13.5628 55.908 13.3611 55.8389 13.186 55.7059L12.581 56.5021C12.9393 56.7744 13.3562 56.908 13.8115 56.908V55.908ZM13.1939 55.712C13.0829 55.6241 12.9995 55.4853 12.9995 55.208H11.9995C11.9995 55.72 12.1721 56.1785 12.5731 56.496L13.1939 55.712ZM12.9995 55.208C12.9995 54.9871 13.0698 54.8363 13.2046 54.7132L12.5304 53.9748C12.1745 54.2997 11.9995 54.7249 11.9995 55.208H12.9995ZM13.1876 54.7281C13.3429 54.5987 13.5402 54.524 13.8115 54.524V53.524C13.3362 53.524 12.9041 53.6626 12.5474 53.9599L13.1876 54.7281ZM13.8115 54.524C14.0833 54.524 14.2705 54.5987 14.4114 54.7213L15.0676 53.9667C14.7179 53.6626 14.2864 53.524 13.8115 53.524V54.524ZM14.4102 54.7203C14.5535 54.8456 14.6235 54.9945 14.6235 55.208H15.6235C15.6235 54.7175 15.4375 54.2904 15.0688 53.9677L14.4102 54.7203ZM14.6235 55.208C14.6235 55.4778 14.5402 55.6153 14.421 55.7059L15.026 56.5021C15.4402 56.1873 15.6235 55.7275 15.6235 55.208H14.6235ZM19.6269 50.76V50.26H19.1269V50.76H19.6269ZM22.9709 50.76V51.26H23.4709V50.76H22.9709ZM22.9709 43.992V43.492H22.4709V43.992H22.9709ZM25.2109 43.992H25.7109V43.492H25.2109V43.992ZM25.2109 50.76H24.7109V51.26H25.2109V50.76ZM28.1549 50.76H28.6549V50.26H28.1549V50.76ZM28.1549 53V53.5H28.6549V53H28.1549ZM19.6269 53H19.1269V53.5H19.6269V53ZM26.6029 42.344L26.9111 42.7379L26.9213 42.7295L26.6029 42.344ZM24.8429 42.344L24.5243 42.7296L24.5347 42.7378L24.8429 42.344ZM24.8269 40.664L25.1537 41.0424L25.155 41.0413L24.8269 40.664ZM26.6189 40.664L26.2824 41.0341L26.2921 41.0424L26.6189 40.664ZM23.1309 42.344L23.4391 42.7379L23.4493 42.7295L23.1309 42.344ZM21.3709 42.344L21.0523 42.7296L21.0627 42.7378L21.3709 42.344ZM21.3549 40.664L21.6817 41.0424L21.683 41.0413L21.3549 40.664ZM23.1309 40.664L22.7945 41.034L22.8033 41.0419L22.8124 41.0495L23.1309 40.664ZM19.6269 51.26H22.9709V50.26H19.6269V51.26ZM23.4709 50.76V43.992H22.4709V50.76H23.4709ZM22.9709 44.492H25.2109V43.492H22.9709V44.492ZM24.7109 43.992V50.76H25.7109V43.992H24.7109ZM25.2109 51.26H28.1549V50.26H25.2109V51.26ZM27.6549 50.76V53H28.6549V50.76H27.6549ZM28.1549 52.5H19.6269V53.5H28.1549V52.5ZM20.1269 53V50.76H19.1269V53H20.1269ZM26.2947 41.9502C26.1459 42.0667 25.9639 42.132 25.7229 42.132V43.132C26.1646 43.132 26.5692 43.0053 26.911 42.7378L26.2947 41.9502ZM25.7229 42.132C25.4819 42.132 25.2999 42.0667 25.151 41.9502L24.5347 42.7378C24.8766 43.0053 25.2812 43.132 25.7229 43.132V42.132ZM25.1613 41.9585C25.0514 41.8677 24.9749 41.7329 24.9749 41.48H23.9749C23.9749 41.9737 24.1437 42.4149 24.5244 42.7295L25.1613 41.9585ZM24.9749 41.48C24.9749 41.2675 25.0409 41.1398 25.1537 41.0424L24.5001 40.2856C24.1435 40.5935 23.9749 41.0098 23.9749 41.48H24.9749ZM25.155 41.0413C25.3015 40.9139 25.4807 40.844 25.7229 40.844V39.844C25.2611 39.844 24.8429 39.9874 24.4988 40.2867L25.155 41.0413ZM25.7229 40.844C25.9803 40.844 26.1531 40.9163 26.2825 41.034L26.9552 40.294C26.6153 39.985 26.1908 39.844 25.7229 39.844V40.844ZM26.2921 41.0424C26.4049 41.1398 26.4709 41.2675 26.4709 41.48H27.4709C27.4709 41.0098 27.3022 40.5935 26.9457 40.2856L26.2921 41.0424ZM26.4709 41.48C26.4709 41.7329 26.3943 41.8677 26.2844 41.9585L26.9213 42.7295C27.3021 42.4149 27.4709 41.9737 27.4709 41.48H26.4709ZM22.8227 41.9502C22.6739 42.0667 22.4919 42.132 22.2509 42.132V43.132C22.6926 43.132 23.0972 43.0053 23.439 42.7378L22.8227 41.9502ZM22.2509 42.132C22.0099 42.132 21.8279 42.0667 21.679 41.9502L21.0627 42.7378C21.4046 43.0053 21.8092 43.132 22.2509 43.132V42.132ZM21.6893 41.9585C21.5794 41.8677 21.5029 41.7329 21.5029 41.48H20.5029C20.5029 41.9737 20.6717 42.4149 21.0524 42.7295L21.6893 41.9585ZM21.5029 41.48C21.5029 41.2675 21.5689 41.1398 21.6817 41.0424L21.0281 40.2856C20.6715 40.5935 20.5029 41.0098 20.5029 41.48H21.5029ZM21.683 41.0413C21.8295 40.9139 22.0087 40.844 22.2509 40.844V39.844C21.7891 39.844 21.3709 39.9874 21.0268 40.2867L21.683 41.0413ZM22.2509 40.844C22.4933 40.844 22.6623 40.9137 22.7945 41.034L23.4672 40.294C23.1301 39.9876 22.7125 39.844 22.2509 39.844V40.844ZM22.8124 41.0495C22.9336 41.1496 22.9989 41.2754 22.9989 41.48H23.9989C23.9989 41.0019 23.8188 40.5838 23.4493 40.2785L22.8124 41.0495ZM22.9989 41.48C22.9989 41.7329 22.9223 41.8677 22.8124 41.9585L23.4493 42.7295C23.8301 42.4149 23.9989 41.9737 23.9989 41.48H22.9989ZM27.67 50.76V50.26H27.17V50.76H27.67ZM29.222 50.76V51.26H29.8728L29.7051 50.6312L29.222 50.76ZM29.126 50.264L28.627 50.2952L28.6279 50.3106L28.6299 50.326L29.126 50.264ZM29.478 47.832L29.0184 47.635L29.0167 47.6391L29.478 47.832ZM30.502 46.28L30.1442 45.9307L30.1441 45.9308L30.502 46.28ZM32.022 45.224L31.822 44.7657L31.8189 44.7671L32.022 45.224ZM35.782 45.224L35.582 45.6824L35.592 45.6865L35.782 45.224ZM37.334 46.248L36.9804 46.6016L36.9847 46.6058L37.334 46.248ZM38.374 47.8L37.9114 47.99L37.9144 47.997L38.374 47.8ZM38.726 50.264L39.2221 50.326V50.326L38.726 50.264ZM38.646 50.76L38.1557 50.6619L38.0361 51.26H38.646V50.76ZM40.438 50.76H40.938V50.26H40.438V50.76ZM40.438 53V53.5H40.938V53H40.438ZM37.446 53V52.5H37.2287L37.0805 52.6588L37.446 53ZM35.846 54.12L35.6481 53.6608L35.6452 53.6621L35.846 54.12ZM31.974 54.104L32.1846 53.6504L32.1778 53.6474L31.974 54.104ZM30.406 53L30.7677 52.6548L30.62 52.5H30.406V53ZM27.67 53H27.17V53.5H27.67V53ZM32.886 52.088L32.6815 52.5443L32.6881 52.5472L32.6948 52.55L32.886 52.088ZM35.75 51.56L36.0952 51.9217L36.0956 51.9213L35.75 51.56ZM36.31 50.744L35.8512 50.5452L35.848 50.5528L36.31 50.744ZM36.326 48.664L35.8618 48.8497V48.8497L36.326 48.664ZM35.782 47.832L35.4284 48.1856L35.782 47.832ZM34.95 47.288L34.7512 47.7468L34.7577 47.7496L34.7643 47.7522L34.95 47.288ZM32.87 47.288L32.6655 46.8317L32.87 47.288ZM32.07 47.848L31.7083 47.5028L32.07 47.848ZM31.542 48.68L32.0062 48.8657L31.542 48.68ZM31.542 50.728L31.0777 50.9137L31.08 50.9192L31.542 50.728ZM32.07 51.544L31.7083 51.8892L31.7164 51.8976L31.7248 51.9057L32.07 51.544ZM27.67 51.26H29.222V50.26H27.67V51.26ZM29.7051 50.6312C29.6685 50.4939 29.6408 50.351 29.6221 50.202L28.6299 50.326C28.6539 50.5184 28.6901 50.7061 28.7389 50.8888L29.7051 50.6312ZM29.625 50.2328C29.615 50.0731 29.61 49.9075 29.61 49.736H28.61C28.61 49.9271 28.6156 50.1135 28.627 50.2952L29.625 50.2328ZM29.61 49.736C29.61 49.1146 29.7213 48.5461 29.9393 48.0249L29.0167 47.6391C28.744 48.2913 28.61 48.992 28.61 49.736H29.61ZM29.9376 48.029C30.1709 47.4846 30.4789 47.0197 30.8599 46.6292L30.1441 45.9308C29.6718 46.415 29.2971 46.9848 29.0184 47.635L29.9376 48.029ZM30.8598 46.6293C31.2525 46.2269 31.7066 45.9113 32.2251 45.6809L31.8189 44.7671C31.1854 45.0487 30.6261 45.4371 30.1442 45.9307L30.8598 46.6293ZM32.222 45.6823C32.7435 45.4547 33.2991 45.34 33.894 45.34V44.34C33.1662 44.34 32.4739 44.4813 31.822 44.7657L32.222 45.6823ZM33.894 45.34C34.5007 45.34 35.0616 45.4552 35.582 45.6823L35.982 44.7657C35.3291 44.4808 34.6313 44.34 33.894 44.34V45.34ZM35.592 45.6865C36.1309 45.9078 36.592 46.2131 36.9804 46.6016L37.6876 45.8944C37.2014 45.4083 36.6277 45.0308 35.972 44.7615L35.592 45.6865ZM36.9847 46.6058C37.3824 46.994 37.6912 47.4537 37.9115 47.99L38.8365 47.61C38.5661 46.9517 38.1816 46.3767 37.6833 45.8902L36.9847 46.6058ZM37.9144 47.997C38.142 48.528 38.258 49.1058 38.258 49.736H39.258C39.258 48.9795 39.118 48.2667 38.8336 47.603L37.9144 47.997ZM38.258 49.736C38.258 49.8977 38.2485 50.053 38.2299 50.202L39.2221 50.326C39.2462 50.1337 39.258 49.937 39.258 49.736H38.258ZM38.2299 50.202C38.21 50.3612 38.1852 50.5145 38.1557 50.6619L39.1363 50.8581C39.1708 50.6855 39.1994 50.5081 39.2221 50.326L38.2299 50.202ZM38.646 51.26H40.438V50.26H38.646V51.26ZM39.938 50.76V53H40.938V50.76H39.938ZM40.438 52.5H37.446V53.5H40.438V52.5ZM37.0805 52.6588C36.6808 53.087 36.205 53.4208 35.6481 53.6608L36.0439 54.5792C36.7243 54.2859 37.3152 53.873 37.8115 53.3412L37.0805 52.6588ZM35.6452 53.6621C35.1033 53.8998 34.5213 54.02 33.894 54.02V55.02C34.6533 55.02 35.3727 54.8736 36.0468 54.5779L35.6452 53.6621ZM33.894 54.02C33.2813 54.02 32.7135 53.8961 32.1846 53.6505L31.7634 54.5575C32.4292 54.8666 33.1413 55.02 33.894 55.02V54.02ZM32.1778 53.6474C31.6393 53.407 31.1704 53.0767 30.7677 52.6548L30.0443 53.3452C30.5376 53.862 31.114 54.2676 31.7702 54.5606L32.1778 53.6474ZM30.406 52.5H27.67V53.5H30.406V52.5ZM28.17 53V50.76H27.17V53H28.17ZM32.6948 52.55C33.0697 52.7051 33.4712 52.78 33.894 52.78V51.78C33.5914 51.78 33.321 51.7269 33.0772 51.626L32.6948 52.55ZM33.894 52.78C34.3169 52.78 34.7216 52.7051 35.1037 52.5522L34.7323 51.6238C34.4744 51.7269 34.1964 51.78 33.894 51.78V52.78ZM35.1037 52.5522C35.4792 52.402 35.8116 52.1924 36.0952 51.9217L35.4048 51.1983C35.2191 51.3756 34.9968 51.518 34.7323 51.6238L35.1037 52.5522ZM36.0956 51.9213C36.3904 51.6393 36.6171 51.3096 36.772 50.9352L35.848 50.5528C35.7469 50.797 35.6003 51.0113 35.4044 51.1987L36.0956 51.9213ZM36.7688 50.9428C36.9365 50.5557 37.018 50.1408 37.018 49.704H36.018C36.018 50.0138 35.9608 50.2923 35.8512 50.5452L36.7688 50.9428ZM37.018 49.704C37.018 49.2724 36.9438 48.8621 36.7902 48.4783L35.8618 48.8497C35.9642 49.1059 36.018 49.3889 36.018 49.704H37.018ZM36.7902 48.4783C36.6381 48.0979 36.4199 47.7628 36.1356 47.4784L35.4284 48.1856C35.6134 48.3705 35.7579 48.5901 35.8618 48.8497L36.7902 48.4783ZM36.1356 47.4784C35.8512 47.1941 35.5161 46.9759 35.1357 46.8238L34.7643 47.7522C35.0239 47.8561 35.2435 48.0006 35.4284 48.1856L36.1356 47.4784ZM35.1488 46.8292C34.76 46.6607 34.3394 46.58 33.894 46.58V47.58C34.2166 47.58 34.5 47.6379 34.7512 47.7468L35.1488 46.8292ZM33.894 46.58C33.4574 46.58 33.0454 46.6614 32.6655 46.8317L33.0745 47.7443C33.3133 47.6372 33.584 47.58 33.894 47.58V46.58ZM32.6655 46.8317C32.2998 46.9957 31.979 47.2192 31.7083 47.5028L32.4317 48.1932C32.609 48.0075 32.8216 47.8576 33.0745 47.7443L32.6655 46.8317ZM31.7083 47.5028C31.4376 47.7864 31.228 48.1188 31.0778 48.4943L32.0062 48.8657C32.112 48.6012 32.2544 48.3789 32.4317 48.1932L31.7083 47.5028ZM31.0778 48.4943C30.9249 48.8764 30.85 49.2811 30.85 49.704H31.85C31.85 49.4016 31.9031 49.1236 32.0062 48.8657L31.0778 48.4943ZM30.85 49.704C30.85 50.1269 30.9249 50.5316 31.0778 50.9137L32.0062 50.5423C31.9031 50.2844 31.85 50.0064 31.85 49.704H30.85ZM31.08 50.9192C31.2309 51.2838 31.4403 51.6084 31.7083 51.8892L32.4317 51.1988C32.2517 51.0102 32.1091 50.7909 32.004 50.5368L31.08 50.9192ZM31.7248 51.9057C32.0024 52.1707 32.3226 52.3834 32.6815 52.5443L33.0905 51.6317C32.8308 51.5153 32.6069 51.3653 32.4152 51.1823L31.7248 51.9057ZM39.9631 50.76V50.26H39.4631V50.76H39.9631ZM41.5311 50.76V51.26H42.0311V50.76H41.5311ZM41.5311 40.024V39.524H41.0311V40.024H41.5311ZM44.8111 40.024H45.3111V39.524H44.8111V40.024ZM44.8111 42.264V42.764H45.3111V42.264H44.8111ZM43.7711 42.264V41.764H43.2711V42.264H43.7711ZM43.7711 53V53.5H44.2711V53H43.7711ZM39.9631 53H39.4631V53.5H39.9631V53ZM39.9631 51.26H41.5311V50.26H39.9631V51.26ZM42.0311 50.76V40.024H41.0311V50.76H42.0311ZM41.5311 40.524H44.8111V39.524H41.5311V40.524ZM44.3111 40.024V42.264H45.3111V40.024H44.3111ZM44.8111 41.764H43.7711V42.764H44.8111V41.764ZM43.2711 42.264V53H44.2711V42.264H43.2711ZM43.7711 52.5H39.9631V53.5H43.7711V52.5ZM40.4631 53V50.76H39.4631V53H40.4631ZM47.3675 40.024V39.524H46.8675V40.024H47.3675ZM49.6075 40.024H50.1075V39.524H49.6075V40.024ZM49.6075 53V53.5H50.1075V53H49.6075ZM47.3675 53H46.8675V53.5H47.3675V53ZM47.3675 40.524H49.6075V39.524H47.3675V40.524ZM49.1075 40.024V53H50.1075V40.024H49.1075ZM49.6075 52.5H47.3675V53.5H49.6075V52.5ZM47.8675 53V40.024H46.8675V53H47.8675Z" fill="#3E3E3E" mask="url(#path-1-outside-1_212_6100)"/>
</g>
<defs>
<filter id="filter0_dd_212_6100" x="0.589028" y="37.484" width="52.0585" height="22.576" filterUnits="userSpaceOnUse" color-interpolation-filters="sRGB">
<feFlood flood-opacity="0" result="BackgroundImageFix"/>
<feColorMatrix in="SourceAlpha" type="matrix" values="0 0 0 0 0 0 0 0 0 0 0 0 0 0 0 0 0 0 127 0" result="hardAlpha"/>
<feOffset dy="1"/>
<feComposite in2="hardAlpha" operator="out"/>
<feColorMatrix type="matrix" values="0 0 0 0 0 0 0 0 0 0 0 0 0 0 0 0 0 0 1 0"/>
<feBlend mode="normal" in2="BackgroundImageFix" result="effect1_dropShadow_212_6100"/>
<feColorMatrix in="SourceAlpha" type="matrix" values="0 0 0 0 0 0 0 0 0 0 0 0 0 0 0 0 0 0 127 0" result="hardAlpha"/>
<feOffset dy="0.5"/>
<feGaussianBlur stdDeviation="1.27"/>
<feComposite in2="hardAlpha" operator="out"/>
<feColorMatrix type="matrix" values="0 0 0 0 0 0 0 0 0 0 0 0 0 0 0 0 0 0 0.8 0"/>
<feBlend mode="normal" in2="effect1_dropShadow_212_6100" result="effect2_dropShadow_212_6100"/>
<feBlend mode="normal" in="SourceGraphic" in2="effect2_dropShadow_212_6100" result="shape"/>
</filter>
</defs>
</svg>
