<svg width="9" height="12" viewBox="0 0 9 12" fill="none" xmlns="http://www.w3.org/2000/svg">
<g clip-path="url(#clip0_74_7083)">
<path d="M8.63713 6.68314C8.38306 9.29192 6.78578 11.1838 5.04409 11.1838C4.95126 11.1841 4.85849 11.1788 4.76618 11.1678C4.66913 11.1576 4.5727 11.1411 4.47737 11.1184C2.99043 10.7744 1.74393 9.01795 1.58591 6.68314C1.40813 4.06295 2.63692 1.62388 4.47669 1.08432C4.7112 1.01525 4.95278 0.980711 5.1953 0.981584C7.29936 0.981584 8.79107 3.47621 8.66165 6.29502V6.30111C8.66165 6.4282 8.64939 6.55605 8.63713 6.68314Z" fill="url(#paint0_linear_74_7083)"/>
<path d="M3.9114 11.1846C3.9114 11.1846 5.06934 11.3627 5.71098 11.0948L6.03044 1.16043C6.03044 1.16043 5.6381 0.799704 3.62463 0.984632L3.9114 11.1846Z" fill="url(#paint1_linear_74_7083)"/>
<path d="M7.36745 6.68315C7.20942 9.01796 5.96156 10.7744 4.47462 11.1184C4.28826 11.1621 4.09833 11.1841 3.90791 11.1838C2.73293 11.1838 1.64855 10.3467 0.978978 9.02937L0.944921 8.96393C0.921762 8.91674 0.90882 8.88782 0.90882 8.88782C0.58747 8.20086 0.385907 7.45192 0.314861 6.68087C0.0294604 3.71289 1.55318 0.981586 3.75737 0.981586C4.00012 0.980647 4.24194 1.01519 4.47666 1.08432C6.31712 1.62389 7.54727 4.06296 7.36745 6.68315Z" fill="url(#paint2_linear_74_7083)"/>
<path d="M5.85191 6.68322C5.80082 8.33768 4.87923 9.59717 3.77305 9.67631C3.73491 9.68012 3.69608 9.68164 3.65658 9.68164C2.49863 9.68164 1.46124 8.39323 1.33523 6.68322C1.199 4.82557 2.17236 3.19623 3.52239 3.19623C3.56788 3.19575 3.61335 3.19804 3.65862 3.20308C4.94258 3.31038 5.90981 4.8895 5.85191 6.68322Z" fill="url(#paint3_linear_74_7083)"/>
<path d="M5.85188 6.68324C5.80079 8.3377 4.8792 9.59719 3.77302 9.67633C2.66411 9.60023 1.69825 8.3377 1.58586 6.68324C1.46394 4.88952 2.37735 3.3104 3.65791 3.20386C4.94255 3.3104 5.90978 4.88952 5.85188 6.68324Z" fill="url(#paint4_linear_74_7083)"/>
<g style="mix-blend-mode:multiply" opacity="0.5">
<path d="M1.50354 5.07893C1.50354 5.07893 1.64522 5.32398 1.72832 5.20146C1.81142 5.07893 2.20035 3.75552 3.49044 3.59723C4.78053 3.43894 5.65785 5.2045 5.65785 5.2045C5.65785 5.2045 4.96921 3.11094 3.4741 3.19769C1.97898 3.28445 1.50354 5.07893 1.50354 5.07893Z" fill="#D42F55"/>
</g>
<g style="mix-blend-mode:soft-light">
<path d="M0.572317 4.47925C0.55597 5.18015 1.22281 5.04165 1.3134 5.00664C1.404 4.97163 1.88965 3.68932 2.93249 3.14671C4.00053 2.59116 4.96639 3.60332 5.30765 4.1132C5.6489 4.62309 6.59501 3.74487 6.66994 3.32935C6.74487 2.91384 5.03519 0.614796 3.03943 1.21752C1.08999 1.80579 0.572317 4.47925 0.572317 4.47925Z" fill="white"/>
</g>
<g style="mix-blend-mode:multiply" opacity="0.2">
<path d="M0.545069 4.87506C0.262394 4.88952 0.320291 6.38949 0.423825 6.95569C0.525316 7.50667 1.07977 7.28064 1.18194 7.09039C1.28411 6.90013 1.33452 5.31112 1.35155 5.18784C1.36857 5.06455 1.17649 5.10413 0.906758 5.07825C0.637024 5.05238 0.613184 4.87125 0.545069 4.87506Z" fill="#DA0553"/>
</g>
<g style="mix-blend-mode:multiply" opacity="0.2">
<path d="M5.67962 4.39859C5.49299 4.496 5.80154 5.64514 5.98205 6.36964C6.15642 7.07053 6.8437 6.1459 7.11548 6.1908C7.38725 6.2357 7.06507 3.90774 6.87776 3.70607C6.69044 3.5044 6.30968 4.21899 5.67962 4.39859Z" fill="#DA0553"/>
</g>
<g style="mix-blend-mode:soft-light">
<path d="M2.58856 10.6824C1.98711 9.82316 3.35962 10.1063 4.23012 9.67629C5.1197 9.23718 5.48684 8.55302 5.72047 8.32472C5.9541 8.09641 6.64887 8.85743 6.57463 9.19837C6.50038 9.5393 5.09382 11.9487 2.58856 10.6824Z" fill="#FF973B"/>
</g>
<g style="mix-blend-mode:multiply" opacity="0.3">
<path d="M5.29072 1.21748C5.15449 1.21748 6.50861 2.50284 6.84986 3.16341C7.18158 3.80571 7.36686 4.57586 7.5024 4.72883C7.63795 4.88179 8.49211 4.6611 8.49211 4.6611C8.49211 4.6611 8.31637 3.22277 7.50513 2.22583C6.65778 1.18932 5.29072 1.21748 5.29072 1.21748Z" fill="#B30053"/>
</g>
<g style="mix-blend-mode:multiply" opacity="0.3">
<path d="M5.72732 10.5621C5.55294 10.7546 6.33422 10.7189 6.42345 10.6823C6.51268 10.6458 7.5739 9.9974 7.88519 9.19833C8.20941 8.36502 7.37024 8.3399 7.21222 8.33838C7.05419 8.33686 6.80353 9.14658 6.27223 9.85433C5.76206 10.5377 5.72732 10.5621 5.72732 10.5621Z" fill="#B30053"/>
</g>
<g style="mix-blend-mode:soft-light">
<path d="M7.40495 4.875C7.26872 4.87956 7.43696 5.99522 7.45126 6.86887C7.46489 7.70599 8.53156 7.40158 8.54927 7.30265C8.56698 7.20372 8.64736 6.15123 8.61739 5.66037C8.58742 5.16951 8.70253 4.76921 8.35174 4.76465C8.03426 4.77724 7.71792 4.81411 7.40495 4.875Z" fill="white"/>
</g>
<path d="M2.24798 8.99438C2.08451 8.43351 2.3161 9.07048 3.05991 9.45784C3.78669 9.83835 4.69466 9.45784 5.07746 8.94567C5.07746 8.94567 4.58704 9.64581 3.73833 9.68158C3.46007 9.69558 3.18244 9.64131 2.92497 9.52258C2.66749 9.40386 2.43641 9.22357 2.24798 8.99438Z" fill="#FFE016"/>
<g style="mix-blend-mode:soft-light">
<path d="M3.47808 1.12093C2.75198 1.19018 2.73904 2.99837 3.31324 3.01283C3.88745 3.02729 4.47119 3.07599 5.25383 4.03716C6.00513 4.95952 6.63247 3.38192 6.60522 3.06914C6.57798 2.75636 5.48201 0.807391 3.47808 1.12093Z" fill="white"/>
</g>
<g style="mix-blend-mode:soft-light">
<path d="M1.63158 10.0142C0.846215 9.02483 1.81957 8.84523 1.99258 8.89774C2.16559 8.95025 2.61106 9.61995 3.52652 9.72116C4.44199 9.82238 3.86029 11.0743 3.51699 11.1039C3.17369 11.1336 2.15946 10.6778 1.63158 10.0142Z" fill="white"/>
</g>
<path d="M4.69873 1.21753C4.35816 1.23655 4.83496 2.52116 5.2525 2.97472C5.67005 3.42829 6.32599 2.78371 6.30283 2.55616C6.27967 2.32862 5.36762 1.45801 4.69873 1.21753Z" fill="white"/>
<path d="M1.96049 9.9792C1.81336 9.62761 2.57352 10.1527 2.48769 10.3369C2.40187 10.5211 2.10489 10.3247 1.96049 9.9792Z" fill="white"/>
<g style="mix-blend-mode:soft-light">
<path d="M6.10731 6.86814C5.92953 6.99294 5.93089 7.7357 5.22182 8.92289C4.54953 10.0454 5.27767 10.464 5.43365 10.4754C5.58964 10.4868 6.61885 9.40309 7.02141 8.11621C7.45053 6.74637 7.11677 6.51274 7.00302 6.45414C6.88926 6.39554 6.25444 6.76464 6.10731 6.86814Z" fill="white"/>
</g>
<g style="mix-blend-mode:soft-light">
<path d="M5.19192 1.21754C4.69877 1.21754 5.90167 1.8781 6.32126 2.1125C6.74084 2.34689 7.21288 1.92909 7.21288 1.92909C7.21288 1.92909 6.66728 1.04935 5.19192 1.21754Z" fill="white"/>
</g>
<g style="mix-blend-mode:soft-light">
<path d="M1.32643 6.53634C1.29102 6.22356 1.46266 5.5942 1.50558 5.51201C1.54849 5.42982 1.72354 7.00893 1.66973 7.30269C1.61592 7.59644 1.34755 6.72127 1.32643 6.53634Z" fill="white"/>
</g>
<path d="M6.30627 2.49451C6.30627 2.49451 7.78436 4.55459 7.17133 7.85742C7.17133 7.85742 8.16921 4.64058 6.30627 2.49451Z" fill="#FFE016"/>
<g style="mix-blend-mode:multiply" opacity="0.5">
<path d="M3.51831 11.1534C3.87745 11.2284 4.24371 11.2517 4.60814 11.2227C5.16328 11.1686 6.05558 10.1344 6.05558 10.1344C6.05558 10.1344 5.17963 11.3399 3.51831 11.1534Z" fill="#D42F55"/>
</g>
<g style="mix-blend-mode:multiply" opacity="0.8">
<path d="M3.91062 11.1839C2.73564 11.1839 1.65126 10.3467 0.981689 9.02942C1.24393 9.51723 2.04836 10.798 3.91062 11.1839Z" fill="#D42F55"/>
</g>
<g style="mix-blend-mode:multiply" opacity="0.5">
<path d="M0.949097 8.96399C0.960222 8.98652 0.972738 9.00827 0.983864 9.0308L0.949097 8.96399Z" fill="#D42F55"/>
</g>
<g style="mix-blend-mode:multiply" opacity="0.5">
<path d="M8.63719 6.68318C8.38312 9.29196 6.78583 11.1839 5.04414 11.1839C4.95132 11.1842 4.85854 11.1788 4.76624 11.1679C6.25863 10.9944 7.1952 10.0469 7.70811 9.40459C8.31569 8.64357 8.64332 6.4427 8.66171 6.30115C8.66171 6.42824 8.64945 6.55609 8.63719 6.68318Z" fill="#D42F55"/>
</g>
<g style="mix-blend-mode:multiply" opacity="0.8">
<path d="M0.436768 4.49674C0.436768 4.49674 0.726255 3.12157 1.6458 2.19313C2.59941 1.22739 4.34314 0.981584 4.34314 0.981584L5.14417 0.94886C5.14417 0.94886 3.91811 0.92603 3.57753 0.981584C3.23696 1.03714 1.16014 1.23653 0.436768 4.49674Z" fill="#D42F55"/>
</g>
<path d="M2.70778 8.26004C2.68356 8.08599 2.69191 7.90823 2.7323 7.73798C2.80426 7.69278 2.88221 7.66067 2.96321 7.64285C3.07479 7.65143 3.18445 7.67968 3.28812 7.72656C3.31386 7.80622 3.33234 7.88857 3.34329 7.97237C3.44737 8.06722 3.57058 8.13226 3.70225 8.16186C3.63414 7.67862 3.58646 7.30952 3.55785 7.05915C3.43392 7.04016 3.31158 7.00987 3.19207 6.96859C3.08253 6.92619 2.97889 6.86675 2.8842 6.79203C2.77502 6.70717 2.6869 6.59274 2.62809 6.45946C2.55478 6.29231 2.50866 6.11194 2.49186 5.92675C2.43648 5.50689 2.50008 5.0782 2.67372 4.70075C2.85286 4.32024 3.09195 4.08508 3.39097 4.00898L3.34874 3.337C3.36509 3.29058 3.63686 3.30884 3.63686 3.30884L3.73835 3.99376C3.89408 4.0145 4.04495 4.06767 4.18314 4.15053C4.18351 4.02628 4.21412 3.90448 4.27169 3.79818C4.3433 3.72979 4.43104 3.68593 4.5244 3.67185C4.694 3.63912 4.75462 3.71675 4.82751 3.80274C4.90705 4.01529 4.95314 4.2416 4.96374 4.47168C4.98054 4.65413 4.97435 4.83832 4.94534 5.01885C4.93589 5.06729 4.91572 5.1123 4.88669 5.14979C4.85766 5.18727 4.82069 5.21604 4.77915 5.23346C4.72469 5.26494 4.66564 5.2853 4.60477 5.29358C4.4944 5.31315 4.38146 5.28601 4.28804 5.21748C4.25889 5.137 4.24075 5.05209 4.23423 4.96558C4.11689 4.9126 3.99084 4.88796 3.86437 4.89328C3.92521 5.32859 3.97358 5.75983 4.00945 6.18702C4.38885 6.21746 4.67425 6.30802 4.85952 6.4587C5.04479 6.60938 5.14901 6.87955 5.16876 7.25853C5.20133 7.66924 5.10501 8.07981 4.8963 8.41985C4.81005 8.56564 4.69514 8.68749 4.56034 8.77612C4.42553 8.86475 4.27438 8.91781 4.11843 8.93126V9.5317C4.00432 9.57598 3.88544 9.60311 3.76492 9.61237L3.81737 8.93278C3.65731 8.90126 3.50772 8.82243 3.38416 8.70447C3.39692 8.77824 3.38957 8.8546 3.36304 8.92365C3.28877 8.96789 3.20408 8.98543 3.12055 8.97387C3.02713 8.9808 2.93498 8.94666 2.86376 8.87875C2.77793 8.68508 2.72503 8.47529 2.70778 8.26004ZM3.10216 5.7266C3.13009 6.01351 3.25406 6.17104 3.47747 6.20224C3.45704 5.93588 3.43524 5.53482 3.41345 4.99298C3.16823 5.10941 3.06606 5.35522 3.10216 5.7266ZM4.10481 8.11164C4.21048 8.04897 4.29952 7.95632 4.36296 7.843C4.42853 7.7336 4.45968 7.60296 4.45151 7.47162C4.43857 7.24864 4.30711 7.12003 4.06803 7.08578C4.08528 7.43129 4.09754 7.77324 4.10481 8.11164Z" fill="url(#paint5_linear_74_7083)"/>
<path d="M4.92965 7.27523C4.90922 6.89472 4.80296 6.6276 4.61769 6.47692C4.57968 6.44616 4.53934 6.41916 4.49712 6.39625C4.26724 6.27897 4.01883 6.21378 3.76625 6.20447C3.76719 6.19817 3.76719 6.19174 3.76625 6.18545L3.75263 6.03933C3.71585 5.66643 3.67021 5.28973 3.6164 4.91226C3.74307 4.90738 3.86926 4.932 3.98694 4.98456C3.99299 5.06961 4.0102 5.1532 4.03803 5.23265C4.13126 5.30167 4.24438 5.32885 4.35476 5.30875C4.41567 5.30119 4.4748 5.28106 4.52914 5.24939C4.57075 5.23138 4.60761 5.20191 4.63631 5.16373C4.66501 5.12555 4.68461 5.07988 4.69329 5.03098C4.72108 4.85102 4.72589 4.66756 4.7076 4.48609C4.6858 4.10101 4.6606 3.86053 4.63131 3.76616C4.55911 3.68169 4.4365 3.65429 4.26826 3.6855C4.17353 3.70044 4.08476 3.74593 4.01283 3.81639C3.95665 3.92349 3.92702 4.04537 3.927 4.1695C3.78844 4.08544 3.63678 4.03171 3.48017 4.01121L3.37596 3.32629C3.22951 3.38641 3.14845 3.43816 3.13347 3.48306L3.13756 4.02948C2.83921 4.10558 2.60217 4.33769 2.42371 4.72124C2.25299 5.09947 2.19204 5.52775 2.24934 5.94649C2.24934 5.9541 2.24934 5.96171 2.24934 5.96932C2.26842 6.14549 2.31451 6.31668 2.38557 6.47539C2.44466 6.60872 2.53329 6.72294 2.64304 6.8072C2.73826 6.88108 2.84238 6.9395 2.95228 6.98071C3.07185 7.02177 3.19416 7.05205 3.31806 7.07127C3.33236 7.18695 3.35075 7.33078 3.37391 7.50049C3.39889 7.69176 3.43022 7.91575 3.46791 8.17247C3.33616 8.14511 3.21256 8.08156 3.10827 7.98754C3.09668 7.90333 3.07727 7.82069 3.05037 7.74097C2.94696 7.69496 2.83784 7.66698 2.72682 7.65802C2.64592 7.67537 2.56814 7.70751 2.4966 7.75315C2.4567 7.92354 2.44927 8.1014 2.4748 8.27521C2.49385 8.49185 2.54931 8.70253 2.63827 8.8962C2.70931 8.96453 2.80153 8.99896 2.89507 8.99209C2.97828 9.00275 3.06245 8.98554 3.13687 8.94262C3.16267 8.8731 3.17 8.79674 3.15799 8.72269C3.28171 8.84083 3.43156 8.91968 3.59188 8.95099L3.68928 9.59482C3.75976 9.59813 3.8299 9.5822 3.89363 9.54839L3.88682 8.94795C4.04228 8.93467 4.19296 8.88182 4.32731 8.79344C4.46167 8.70506 4.57614 8.5835 4.66196 8.43807C4.87004 8.09729 4.96475 7.68588 4.92965 7.27523ZM3.11848 6.18316C2.96454 6.12279 2.87554 5.97439 2.85147 5.73797C2.81469 5.37039 2.91414 5.12306 3.15935 5.00587C3.18251 5.51879 3.20499 5.90311 3.22747 6.16794V6.18468C3.22839 6.19404 3.22839 6.20349 3.22747 6.21284C3.19019 6.20795 3.15359 6.19798 3.11848 6.18316ZM4.1259 7.85741C4.0632 7.97048 3.97453 8.06272 3.86911 8.12453C3.86161 7.87263 3.85072 7.61997 3.83914 7.36351C3.83437 7.27599 3.83096 7.18771 3.82551 7.09867C3.91451 7.10725 3.99997 7.14161 4.07345 7.19836C4.11435 7.23129 4.14791 7.2743 4.17153 7.32405C4.19516 7.37381 4.20821 7.42897 4.20968 7.48527C4.21966 7.61628 4.19017 7.74726 4.1259 7.85741Z" fill="url(#paint6_linear_74_7083)"/>
<g style="mix-blend-mode:soft-light">
<path d="M4.68848 5.03247C4.67979 5.08138 4.66019 5.12704 4.6315 5.16522C4.6028 5.2034 4.56593 5.23287 4.52432 5.25088C4.46999 5.28256 4.41086 5.30268 4.34995 5.31024C4.23956 5.33034 4.12645 5.30316 4.03322 5.23414C4.00539 5.15469 3.98818 5.0711 3.98213 4.98605C3.86444 4.93349 3.73825 4.90887 3.61159 4.91375C3.66744 5.29426 3.71308 5.66868 3.74782 6.04082C3.57691 6.10119 3.40166 6.14498 3.22402 6.17172C3.2029 5.90688 3.18042 5.52257 3.1559 5.00964C2.91069 5.12684 2.81056 5.37417 2.84802 5.74174C2.87209 5.97766 2.96109 6.12606 3.11503 6.18694C2.77446 6.2189 2.46045 6.16259 2.24385 5.97005C2.24385 5.96244 2.24385 5.95483 2.24385 5.94722C2.18655 5.52848 2.2475 5.1002 2.41822 4.72198C2.59668 4.34147 2.83372 4.10707 3.13206 4.03021L3.12797 3.4838C3.14296 3.4389 3.22402 3.38715 3.37046 3.32703L3.47468 4.01194C3.63128 4.03244 3.78294 4.08617 3.92151 4.17024C3.92153 4.0461 3.95116 3.92422 4.00733 3.81712C4.07927 3.74666 4.16804 3.70117 4.26276 3.68623C4.43169 3.65426 4.5543 3.68166 4.62582 3.7669C4.65579 3.86126 4.68031 4.10174 4.7021 4.48682C4.72069 4.66851 4.7161 4.85222 4.68848 5.03247Z" fill="white"/>
</g>
<g style="mix-blend-mode:multiply" opacity="0.2">
<path d="M4.34524 6.88558C4.26724 7.00333 4.17563 7.10901 4.07279 7.19988C3.9995 7.14325 3.91429 7.10889 3.82553 7.10019C3.8303 7.18846 3.8337 7.27674 3.83915 7.36502C3.69394 7.44723 3.53455 7.49344 3.37189 7.50048C3.34873 7.33077 3.33034 7.18694 3.31603 7.07127C3.19214 7.05204 3.06982 7.02176 2.95026 6.98071C2.84035 6.93949 2.73624 6.88107 2.64102 6.80719C2.53127 6.72294 2.44263 6.60872 2.38354 6.47539C2.31248 6.31668 2.2664 6.14549 2.24731 5.96931C2.24731 5.9617 2.24731 5.95409 2.24731 5.94648C2.24731 5.93887 2.28273 6.16185 3.12191 6.1862C3.15801 6.1862 3.19411 6.1862 3.23021 6.1862C3.41276 6.1862 3.59871 6.1862 3.76763 6.1862C3.76857 6.1925 3.76857 6.19893 3.76763 6.20523C4.02021 6.21454 4.26862 6.27972 4.4985 6.397C4.53597 6.50126 4.4951 6.65727 4.34524 6.88558Z" fill="#DA0553"/>
</g>
<path d="M3.10619 7.98759C3.09529 7.92443 3.46584 8.17252 3.46584 8.17252C3.46584 8.17252 3.14434 8.16871 3.10619 7.98759Z" fill="white"/>
<path d="M4.18852 3.70678C4.05229 3.72429 4.34382 4.4678 4.51206 4.61468C4.68031 4.76156 4.69393 3.90998 4.62582 3.76767C4.5577 3.62536 4.18852 3.70678 4.18852 3.70678Z" fill="white"/>
<g style="mix-blend-mode:soft-light">
<path d="M3.27308 3.36737C3.12799 3.48 3.42021 3.75473 3.42021 3.75473C3.42021 3.75473 3.40454 3.35824 3.34869 3.33693C3.34206 3.33262 3.33468 3.32999 3.32705 3.32922C3.31942 3.32845 3.31173 3.32955 3.30453 3.33245C3.29732 3.33535 3.29077 3.33998 3.28534 3.34601C3.2799 3.35205 3.27572 3.35934 3.27308 3.36737Z" fill="white"/>
</g>
<path d="M7.26058 4.37647C7.14682 3.84376 7.16453 4.84526 7.26739 5.38406C7.36752 5.90917 7.43291 5.76457 7.43291 5.76457C7.43291 5.76457 7.44517 4.74252 7.26058 4.37647Z" fill="white"/>
<g style="mix-blend-mode:soft-light">
<path d="M4.71106 11.2197C4.15184 11.2136 5.2083 10.9153 5.43921 10.7585C5.67011 10.6017 6.29268 10.7943 6.29268 10.7943C6.29268 10.7943 5.74027 11.2646 4.71106 11.2197Z" fill="white"/>
</g>
<path d="M7.17127 7.85748C6.89881 7.81714 6.61409 8.8468 6.76258 9.05837C6.91107 9.26993 7.27071 8.66492 7.34155 8.46629C7.41239 8.26767 7.17127 7.85748 7.17127 7.85748Z" fill="#ED4800"/>
<path d="M6.05291 10.1345C5.85402 10.0995 6.3206 9.69384 6.40847 9.67785C6.49634 9.66187 6.46364 9.8742 6.39144 10.0302C6.31924 10.1862 6.12784 10.1474 6.05291 10.1345Z" fill="#ED4800"/>
<path d="M6.05904 9.97229C6.00523 10.0902 6.11149 10.1618 6.27155 10.1192C6.31202 10.1016 6.3492 10.0758 6.38122 10.0431C6.38122 10.0431 6.22319 10.2249 6.06653 10.2371C5.90987 10.2493 5.95278 10.0887 6.05904 9.97229Z" fill="#FFBA00"/>
<path d="M6.74626 8.61842C6.74626 8.61842 6.75171 8.74551 6.92677 8.74551C7.1495 8.74551 7.33546 8.48828 7.33546 8.48828C7.33546 8.48828 7.12498 9.05752 6.86615 9.1732C6.60731 9.28887 6.70744 8.78965 6.74626 8.61842Z" fill="#FFBA00"/>
<g style="mix-blend-mode:multiply" opacity="0.5">
<path d="M6.83482 8.28214C6.73264 8.77223 7.13656 8.40542 7.21285 8.33769C7.28914 8.26996 7.35862 8.37802 7.35862 8.37802C7.35862 8.37802 7.2905 7.89326 7.17198 7.85292C7.05346 7.81259 6.83482 8.28214 6.83482 8.28214Z" fill="#D42F55"/>
</g>
<g style="mix-blend-mode:multiply" opacity="0.5">
<path d="M6.19866 9.82543C6.1428 9.99818 6.29061 10.0537 6.38461 9.99438C6.47861 9.93502 6.44387 9.66105 6.40845 9.67627C6.37303 9.69149 6.19866 9.82543 6.19866 9.82543Z" fill="#D42F55"/>
</g>
<path d="M6.93694 9.12449C6.82591 9.1458 6.98803 9.01338 7.08611 8.91065C7.1842 8.80791 7.03434 9.07503 6.93694 9.12449Z" fill="white"/>
<path d="M6.08082 10.2395C6.06311 10.2281 6.24225 10.1291 6.26882 10.1474C6.25655 10.2083 6.08082 10.2395 6.08082 10.2395Z" fill="white"/>
</g>
<defs>
<linearGradient id="paint0_linear_74_7083" x1="5.11969" y1="11.1838" x2="5.11969" y2="0.981583" gradientUnits="userSpaceOnUse">
<stop stop-color="#FF5900"/>
<stop offset="0.23" stop-color="#FE6800"/>
<stop offset="0.66" stop-color="#FA9300"/>
<stop offset="0.85" stop-color="#F66A00"/>
<stop offset="1" stop-color="#F63F00"/>
</linearGradient>
<linearGradient id="paint1_linear_74_7083" x1="4.82754" y1="11.2424" x2="4.82754" y2="0.932122" gradientUnits="userSpaceOnUse">
<stop stop-color="#FF5900"/>
<stop offset="0.23" stop-color="#FE6800"/>
<stop offset="0.66" stop-color="#FA9300"/>
<stop offset="0.85" stop-color="#F66A00"/>
<stop offset="1" stop-color="#F63F00"/>
</linearGradient>
<linearGradient id="paint2_linear_74_7083" x1="5.37101" y1="10.7889" x2="1.64707" y2="1.63266" gradientUnits="userSpaceOnUse">
<stop stop-color="#FFEA34"/>
<stop offset="0.63" stop-color="#FF8100"/>
<stop offset="0.7" stop-color="#FFA400"/>
<stop offset="1" stop-color="#FFBA00"/>
</linearGradient>
<linearGradient id="paint3_linear_74_7083" x1="4.56659" y1="9.43735" x2="2.19519" y2="3.60453" gradientUnits="userSpaceOnUse">
<stop stop-color="#FFBA00"/>
<stop offset="0.21" stop-color="#FE6800"/>
<stop offset="1" stop-color="#D41B00"/>
</linearGradient>
<linearGradient id="paint4_linear_74_7083" x1="3.71444" y1="9.67633" x2="3.71444" y2="3.20386" gradientUnits="userSpaceOnUse">
<stop offset="0.04" stop-color="#EF6300"/>
<stop offset="1" stop-color="#E13E00"/>
</linearGradient>
<linearGradient id="paint5_linear_74_7083" x1="4.00846" y1="9.59807" x2="3.54355" y2="3.29986" gradientUnits="userSpaceOnUse">
<stop stop-color="#C82400"/>
<stop offset="0.51" stop-color="#D84400"/>
<stop offset="1" stop-color="#D42F00"/>
</linearGradient>
<linearGradient id="paint6_linear_74_7083" x1="3.76083" y1="9.5896" x2="3.29888" y2="3.3316" gradientUnits="userSpaceOnUse">
<stop stop-color="#FFAB00"/>
<stop offset="0.49" stop-color="#FFBA00"/>
<stop offset="1" stop-color="#EF6C00"/>
</linearGradient>
<clipPath id="clip0_74_7083">
<rect width="8.38764" height="10.3103" fill="white" transform="translate(0.283569 0.932129)"/>
</clipPath>
</defs>
</svg>
